<?xml version="1.0"?>
    
<!--********* Copyright (c) 2024 Pareto Softare, LLC DBA Simplemaps.com ***************************************
************* Free for Commercial Use, full terms at  https://simplemaps.com/resources/svg-license ************
************* Attribution is appreciated! https://simplemaps.com *******************************************-->

<svg baseprofile="tiny" fill="#6f9c76" height="569" stroke="#ffffff" stroke-linecap="round" stroke-linejoin="round" stroke-width=".5" version="1.2" viewbox="0 0 1000 569" width="1000" xmlns="http://www.w3.org/2000/svg">
 <g id="features">
  <path d="M651.6 365.1l0.3-10.4-3-3.3-9.1-4.1 2.1-5.2 3.6-3 5.2-2.6 3 2.2 2.5 2.7 5.4-1.1 4.9-3.4 2.7-3.4 2.1-2.6 7 5.6 3.3-3.7 0.7-0.8 0.9-0.4 1.5-0.7 0.8-1 1.9-2.6-2.5-4-0.5-0.9-3 0 0-2.6-0.1 0-0.8-1.5-1.9-4.4-0.5-0.1-2.2-0.7-0.7-3.2-0.2-0.8-5.2 0-0.8 3.7-1 5.2 0 7 2.1 4.1-2.1 1.8-1.6 2.7-0.1 0.1-0.1 0.2-5.2 4.1-3 0.5-1.2 0.2-3.1-3.3-4.2-1.5-3.5 2.4-6.5 4.3-0.9 3.4-0.2 0.7-0.4 1.8-3.1 0.8-0.6-0.1-0.6-0.1-3.1-0.6 0 0.1-0.6 0.7-3 3.3-10.3-7.4-3 2.5-1.8 1.6-3.5 2.9-2.4 0.9-1.8 0.6 1.5-5.5 0.7-2.4 2-6.7 0.4-1.3-1.8-1.9-3.7 0-4.2 4.1-6.1 1.1-1.7 4-0.1 0.5 0 0.2 0.1 1-4.5 2.7-2.4-5.8-1-2.8-0.5-2.4-1-7.7-0.8-3.9-1.4-3.2-2.5-3.1-1.7-1.6-2.9-1.9-0.7-0.4-10.6-6.2-3.5-1.4-7.7-2.1-3.6-1.4-2.2-1.5-1.4-2.2-0.5-1.9 0.1-1.1 0.7-2.2 1-1.6 4.8-6 1.6-3.1 0.5-1.8 0.2-1.9-0.4-2.9-3.3-8.7-0.9-3.8 0.1-1.7 0.6-1.6 2-3 0.6-1.3 0.2-2.3-1.1-2.9-4-5.1-0.9-1.7-0.9-2.8-0.8-3.7-0.8-2-1.8-2.6-3.4-3.5 3.7-2.5 1.9-0.5 2.8-0.9 8.4-4.7 1.6-0.3 1.8-1.2 6.9-3 9.2-3.6 3.1-1.8 3.1-0.2 1.7-0.3 1.4-0.6 3.4-3.4 1.4-0.6 1.1-1.1-0.5-1.6-3.1-1.9 1.3-3.5 1.6-5.9 0.3 0 0-0.1 0.2 0 0-0.5 0.1-0.1 0-0.1 0.1 0 0-0.1 0.1 0 0-0.1 0.2 0 0 0.1 0.4 0-0.1 0.1 0.4 0 0-0.1 0.2 0 0-0.1 0.1 0 0.1 0 0-0.2 0.1 0 0-0.2 0-0.2 0.1 0 0-0.1 0.1 0 0-0.1 0.2 0 0.3 0 0-0.2 0.3 0 0-0.1 0.1 0 0 0.1 0.1 0 0 0.1 0 0.1 0.1-0.1 0 0.2 0.2 0 0 0.1 0.1 0 0.1 0 0 0.2 0.3 0 0-0.2 0.1 0 0-0.2 0.1-0.1 0-0.1 0.1 0 0.1 0 0-0.1 0.1 0 0.1 0 0.2 0 0-0.2 0.2 0.1 0.1-0.1 0.2-0.1 0-0.1 0-0.1 0.1 0 0-0.4 0.1 0 0-0.1 0.1-0.1 0-0.1 0.1 0 0.1 0 0-0.1 0.3 0 0.8 0 0-0.2 0.2 0 0.1 0 0-0.1 0.1 0 0-0.2 0.3 0.1 0.4 0 0-0.2 0.1 0 0-0.1 0.1 0 0-0.1 0.1 0 0-0.1 0-0.1 0.1 0 0-0.1 0.2 0 0-0.1 0.1 0 0.1 0 0-0.1 0-0.1 0.1 0 0.1 0 0-0.1 0.1 0 0.1-0.1 0.2 0 0-0.1 0-0.1 0.1 0 0.1 0 0-0.1 0.1 0 0-0.1 0.1 0 0-0.1 0-0.1 0.2 0 0-0.2 0.1 0 0-0.1 0-0.1 0.1 0 0.1 0 0-0.1 0.3 0 0-0.1 0.1 0 0.3 0 0-0.1 0.1 0 0-0.2 0.1 0 0-0.1 0.1 0 0-0.3 0.2 0 0.3 0 0 0.1 0 0.1 0.5 0 0-0.2 0.1 0 0-0.1 0.1 0 0.1 0 0-0.1 0.2 0 0-0.2 0.6 0 0-0.1 0.2 0 0-0.1 0.1 0 0-0.1 0-0.1 0.1 0 0-0.1 0.1 0 0-0.1 0.1-0.1 0-0.1 0.1 0 0-0.1 0.1 0 0-0.1 0-0.3 0.1 0 0-0.7 0.1 0 0.1-0.1 0.2 0 0-0.1 0.1 0 0.7 0 0-0.2 0.1 0 0.3 0 0-0.1 0.2 0 0-0.1 0.1 0 0-0.1 0-0.3 0.1-0.1 0-0.3 0.1 0 0-0.1 0-0.2 0.1 0 0-0.3 0.1 0 0-0.2 0-0.2 0.1 0 0-0.1 0-0.4 0.1 0 0-0.1 0.1 0 0-0.1 0.1-0.1 0.1 0 0 0.1 0 0.1 0.2 0 0 0.1 0.1 0 0 0.2 0.4 0 0-0.2 0.1 0 0-0.1 0.1 0 0-0.1 0.1-0.1 0-0.1 0.2 0 0-0.1 0.2 0 0.3 0 0-0.1 1 0 0 0.1 0.9 0 0-0.1 0.1 0 0-0.1 0-0.1 0.1 0 0.1 0 0-0.1 0.1 0 0.1-0.1 0.1 0 0.2 0 0-0.1 0-0.1 0.2 0 0-0.1 0.2 0 0-0.1 0.2 0 0-0.1 0.1-0.1 0-0.1 0-0.1 0.1-0.1 0-0.2 0.1 0 0-0.1-0.1 0 0-0.2 0.1 0 0-0.2 0.2-0.1 0-0.1 0.1 0 0-0.1 0.3 0 0-0.1 0.1 0 0-0.2 0.2 0 0-0.2 0.1 0 0-0.2 0.2 0 0-0.1 0.1 0 0.1 0 0 0.1 0.1 0 0.1 0 0 0.1 0 0.2 0.1 0 0 0.3 0.1 0 0 0.1 0.2 0 0 0.1 0.1 0 0-0.1 0.1 0 0-0.1 0.3 0 0-0.2 0.1 0 0-0.1 0.1 0 0-0.1 0.1 0 0.1 0 0-0.1 0-0.1 0.2 0 0-0.1 0.1 0 0-0.1 0-0.2 0.1 0 0-0.1 0.1 0 0-0.1 0.1 0 0-0.1 0-0.1 0.1 0 0-0.1 0.1 0 0-0.1 0.1 0 0-0.2 0.1 0 0-0.2 0.1 0 0-0.2 0.3 0 0-0.1 0.1 0 0-0.1 0.1 0 0-0.5-0.1 0 0-0.5 0.1 0.1 0-0.2 1.2 0 0 0.1 0 0.1 0.1-0.1 0 0.2 0.1 0 0-0.1 0-0.4 0.1 0 0-0.2 0.1 0 0-0.1 0.2 0 0-0.1 0.3 0 0 0.1 0.1 0 0 0.3 0.1 0 0.3-0.1 0 0.2 0.6 0 0-0.2 0.1 0.1 0-0.1 0-0.1 0.1 0 0-0.1 0.1 0 0-0.1 0.2 0 0-0.3 0.1 0 0-0.3 0.1 0 0-0.1 0.1 0 0-0.1 0.1 0 0-0.1 0-0.1 0.1 0 0.1 0 0-0.1 0.9 0 0-0.1 0.7 0 0-0.2 0.1 0 0-0.1 0.2 0 0-0.1 0.1 0 0.3 0 0-0.2 0.2 0 0-0.1 0.1 0 0-0.1 0.1 0 0.1 0 0-0.1 0-0.1 0.1 0 0-0.1 0.1 0 0-0.4 0.1 0 0-0.3 0.8 0 0-0.1 0.3 0 0-0.1 0.1 0 0.1 0 0 0.1 0.1 0 0 0.4 0.5 0 0-0.1 0.1 0 0-0.1 0-0.1 0.1 0 0-0.1 0.2 0 0-0.1 0.1 0 0.3 0 0-0.2 0.4 0 0 0.2 0.3 0 0-0.2 0.5 0 0 0.2 0.2 0 0 0.1 0.3 0 0-0.1 0.1 0 0.3 0 0-0.2 0.4 0 0-0.1 0.1 0 0-0.1 0.1 0 0-0.1 0-0.1 0.1 0 0-0.1 0.3 0 0.1 0 0-0.1 0.6 0 0-0.2 0.1 0 0-0.1 0.1 0 0-0.1 0.1 0 0-0.2 0.1 0 0.1 0 0-0.3 0.1 0 0-0.3 0-0.1 0.4 0 0-0.2 0.2 0 0 0.1 0 0.1 0.1-0.1 0 0.2 0.2 0 0 0.1 0.4 0 0-0.1 0.2 0 0-0.2 0.4 0.1 0 0.1 0.2 0 0 0.1 0.1 0 0 0.2 0.1 0 0 0.1 0.5 0 0-0.1 0.1 0 0.1 0 0-0.2 0.4 0 0 0.2 0.5 0 0-0.2 0.4 0 0 0.2 0.2 0 0.1 0 0 0.1 0.5 0 0 0.1 0.3 0 0 0.1 0.2 0 0 0.2 0.5 0 0 0.1 1.5 0 0-0.1 0.2 0 0.5 0 0 0.1 0.1 0 0.2 0 0-0.1 0.2 0 0-0.2 0.1 0 0.1 0 0.5 0 0-0.1 0.3 0 0-0.1 0.9 0 0 0.1 0.3 0 0-0.1 0.1 0 0-0.1 0.1-0.1 0-0.1 0.1 0 0-0.1 0.1 0 0.1 0 0-0.2 0.2 0.1 0-0.2 0.1 0 0.2 0 0-0.1 0.2 0 0-0.1 0.4 0 0-0.2 0.3 0 0 0.2 0.1 0 0-0.2 0.1 0 0 0.2 0.2 0 0.1 0 0 0.1 0.1 0 0 0.1 0 0.2 0.1 0 0 0.1 0.5 0 0 0.1 0.3 0 0.2 0 0 0.2 0.2 0 0.1 0 0 0.1 0.4 0 0-0.1 0.1-0.1 0-0.1 0.1 0 0-0.1 0.1 0 0.1 0 0-0.2 0.7 0.1 0 0.1 0.1 0 0 0.1 0.4 0 0 0.2 0.2 0 0 0.1 0.3 0 0.2 0 0 0.1 0.1 0 0 0.1 0 0.2 0.1 0 0 0.1 0.2 0 0 0.1 0.1 0 0-0.1 0.2 0 0-0.1 0-0.2 0.1 0 0.4 0 0 0.2 0 0.1 0.4 0 0-0.1 0.1 0 0-0.2 0.1 0 0-0.1 1.4 0 0 0.1 0.2 0 0 0.2 0.2 0-0.1 0.1 0.6 0 0-0.1 0.5 0 0 0.1 0.1 0 0 0.1 0.3 0.1 0 0.1 0.1 0 0.1 0 0-0.2 0.2 0 0-0.1 0.2 0 0-0.1 0.4 0 0 0.1 0.1 0 0 0.1 0.4 0 0-0.1 0.3 0 0-0.1 0.3 0 0-0.1 0.1-0.1 0.1 0 0-0.1 0.2 0 0-0.1 0.1 0 0.1 0 0-0.3 0.1 0 0-0.1 0.1 0 0-0.1 0.1 0 0.1 0 0 0.1 0.2 0 0 0.1 0.1 0 0 0.3 0.3 0 0 0.1 0.3 0 0-0.1 0.2 0 0-0.1 0.1 0 0-0.1 0-0.1 0.2 0 0-0.1 0.6 0 0 0.1 0.2 0 0.1 0.2 0.1-0.1 0 0.2 0.4 0 0-0.1 1 0 0.5 0 0 0.1 0.2 0 0 0.1 0.7 0 0-0.1 0.3 0 0-0.1 0.1 0 0.4 0 0-0.2 0.1 0 0-0.1 0.5 0 0-0.1 0.2 0 0-0.2 0.5 0 0-0.1 0.2 0 0.3 0 0-0.2 0.2 0.1 0-0.2 0.2 0 0-0.1 0.1 0 0-0.1 0.2 0 0-0.2 0.1 0 0-0.1 0.2 0 0.2 0 0-0.1 0.1 0 0 0.1 0.1 0 0-0.1 0.3 0 0-0.2 0.1 0 0 0.2 0.2 0 0 0.2 0.1 0 0 0.2 0.1 0 0-0.2 0.3 0 0-0.1 0.1 0 0-0.3 0.1 0 0-0.1 0.2 0 0-0.1 0.1-0.1 0-0.1 0.1 0 0.1 0 0-0.1 0.1 0 0-0.1 0.2 0 0.1 0 0 0.1 0.6 0 0-0.1 0.5 0 0 0.1 0.3 0 0.1-0.1 0.1 0 0-0.2 0.1 0 0-0.1 0.1 0 0-0.1 0.1 0 0-0.3 0.3 0 0-0.1 0-0.1 0.1 0 0 0.1 0 0.1 0.3 0 0 0.1 0.3 0 0 0.2 0.4 0 0-0.2 0.1 0 0-0.1 0.2 0 0-0.2 0.2 0.1 0-0.2 0.1 0 1.1 0 0-0.1 0.2 0 0-0.1 0.1 0 0-0.4 0-0.2 0-0.1 0.1 0 0-0.1 0.4 0 0-0.2 0.2 0 0-0.1 0.3 0 0-0.1 0.1 0 0.2 0 0-0.2 0.1 0 0-0.1 0.3 0 0-0.1 0.1 0 0-0.1 0-0.1 0.2 0 0-0.1 0.1 0 0-0.1 0.4-0.1 0 0.2 0.2 0 0-0.2 0.2 0 0-0.2 0.1 0 0-0.1 0.1 0 0-0.2 0.1 0 0-0.1 0.1 0 0-0.3 0-0.2 0.1 0 0-0.1 0.4 0 0 0.1 0.1 0 0 0.1 0.1 0 0 0.2 0.4 0 0-0.2 0.6 0 0 0.2 0.1-0.1 0 0.2 0.2 0 0 0.1 0.3 0 0-0.1 0.3 0 0-0.1 0.1 0 0-0.1 0-0.1 0.1 0 0 0.2 0.2-0.1 0 0.2 0 0.4 0.1 0 0 0.1 0.5 0 0-0.1 0.9 0 0-0.1 0.2-0.1 0-0.1 0.3 0 0-0.2 0.1-0.1 0-0.1 0-0.4 0.1 0 0-0.1 0.1 0 0-0.1 0.1 0 0.1 0 0-0.1 0-0.1 0.1 0 0.1 0 0-0.1 0.1 0 0 0.1 0.7 0 0-0.1 0.4 0 0-0.2 0.2 0.1 0-0.1 0-0.1 0.1 0 0.1 0 0-0.1 0.5 0 0 0.1 0.1 0 0 0.2 0.1 0 0 0.2 0.1 0 0 0.2 0.1 0 0 0.1 0.5 0 0-0.1 0.3 0 0-0.2 0.1 0 0.3 0 0-0.1 0.1 0 0-0.1 0.1 0 0-0.2-0.1 0 0-0.2-0.1 0 0-0.3 0.1 0 0-0.1 0.3 0 0.2 0 0 0.1 0.5 0 0-0.1 0.1 0 0.2 0 0-0.1 0.1-0.1 0 0.2 0.4 0 0 0.1 0.1 0 0-0.1 0.3 0 0-0.2 0.2 0 0-0.1 0.1 0 0-0.1 0.1 0 0-0.4 0-0.3-0.1 0 0-0.1-0.1 0 0-0.2 0-0.2 0.1 0 0-0.3 0.1 0 0-0.1 0.1 0 0-0.2 0.3 0 0-0.1 0.2 0 0-0.1 0.2 0 0.4 0 0-0.2 0.3 0 0 0.2 0.2 0 0 0.1 0.2 0 0.2 0 0.4 0 0 0.1 0.1 0.1 0 0.1 0.1 0 0 0.1 0.1 0 0 0.3 0.2 0 0-0.1 0-0.1 0.1 0 0.1 0 0-0.1 0.2 0 0-0.1 0.2 0 0 0.1 0.1 0 0-0.1 0.2 0 0 0.1 0.2 0 0 0.1 0.1 0 0 0.2 0.1 0 0 0.1 0.7 0 0-0.1 0.2 0 0-0.1 0.1-0.1 0-0.1 0.1 0 0-0.1 0.4 0 0 0.1 0.8 0 0-0.1 0.1 0 0-0.4 0.1 0 0-0.1 0-0.5 0.1 0 0-0.4 0.1 0 0.1 0 0-0.1 0.5 0 0-0.1 0.6 0 0-0.2 0.2 0 0-0.1 0.1 0 0-0.1 0.3 0 0.4 0 0-0.2 0.5 0 0 0.2 0.7 0 0-0.8 0.1 0 0-0.1 0.1 0 0.2 0 0-0.2 0.1 0 0-0.5 0.3 0 0-0.1 0.1 0 0-0.2 0.1 0 0-0.1 0.2 0 0-0.1 0.1 0 0.2 0 0 0.1 0.1 0 0-0.1 0.1 0 0-0.1 0-0.1 0.1 0 0-0.2 0.1-0.1 0-0.1 0.1 0 0.1 0 0-0.1 0.1 0 0.1 0 0 0.1 0.2 0 0.1 0.1 0 0.1 1.1 0 0-0.2 0.2 0 0-0.1 0.2 0 0.2 0 0-0.1 0.3 0 0-0.2 0.1 0 0.3 0 0 0.3 0.1 0 0.1 0 0 0.1 0 0.2 0.1 0 0 0.1 0.2 0 0 0.1 0.2 0 0 0.2 0.3 0 0.3 0 0 0.1 0.1 0 0.1 0.1 0.1 0 0 0.3 0.3 0 0-0.1 0.5 0 0-0.2 0.1 0 0-0.1 0.1 0 0-0.3 0.1 0 0.2 0 0-0.1 0.1 0 0-0.1 0.3 0 0-0.2 0.1 0 0-0.1 0.2 0 0-0.1 0.1 0 0-0.2 0.1 0 0-0.1 0.1 0 0.1 0 0-0.1 0.1 0 0.1 0.1 0.2 0 0 0.3 0.1 0 0 0.2 0.3 0 0-0.1 0.1 0 0-0.1 1.1 0 0-0.2 0.2 0 0-0.1 0.1 0 0.2 0 0-0.1 0.1 0 0.3 0 0-0.2 0.2 0 0-0.2 0.1 0 0-0.2 0.1 0 0-0.1 0.1 0 0-0.1 0.1 0 0-0.2 0.1 0 0-0.1 0.1 0 0.3 0 0-0.1 0.3 0 0-0.6-0.1 0 0-0.5 0.3 0 0-0.1 0.2 0 0-0.2 0.1 0.1 0-0.2 0.1 0 0-0.1 0.6 0 0 0.1 0.2 0 0 0.1 0.2 0 0-0.1 0.1 0 0.1 0 0-0.1 0.1 0 0-0.1 0-0.3 0.1 0 0-0.2 0.2 0 0-0.1 0.1 0 0-0.1 0.1 0 0-0.2 0.1 0 0.2 0 0-0.1 0.1 0 0-0.1 0.1 0 0-0.1 0.1 0 0-0.1 0-0.1 0.7 0 0 0.2 0.5 0 0-0.2 0.1 0 0-0.2 0.1 0.1 0-0.1 0.1 0 0-0.2 0.1 0 0-0.1 0.1 0 0-0.1 0.5 0 0 0.1 0.2 0 0-0.2 0.2 0.1 0-0.1 0-0.1 0.1 0 0.5 0 0-0.1 0.2 0 0 0.1 0.2 0 0-0.1 0.1 0 0 0.1 0.2 0 0-0.1 0.1 0 0-0.1 0.4 0 0.2 0 0-0.1 0-0.1 0.2 0 0.4 0 0-0.1 0.1 0 0 0.1 0.3 0 0.1 0 0 0.1 0 0.1 0.7 0 0-0.1 0-0.1 0.1 0 0.1 0 0-0.1 0.6 0 0-0.1 0.1-0.1 0-0.1 0.2 0 0.2 0 0-0.1 0.1 0 0-0.1 0.1 0 0-0.1 0-0.1 0.1 0 0.1 0 0-0.1 0.1 0 0.1 0 0-0.1 0.1 0 0.1 0 0-0.1 0.2-0.1 0.1-0.1 0.2 0 0-0.1 0.1 0 0-0.2 0.3 0 0-0.1 0.1 0 0.2 0 0-0.1 0.1 0 0-0.2 0.7 0 0-0.1 0-0.1 0.1 0 0-0.2 0.1 0 0-0.2 0.1 0 0-0.2 0.1 0 0-0.1 0.1 0 0-0.1 0.1 0 0-0.1 0.1-0.1 0-0.1 0.1 0 0-0.1 0.2 0 0.3 0 0-0.2 0.2 0.1 0-0.2 0.1 0 0-0.1 0.1 0 0-0.2 0.1 0 0-0.1 0.1 0 0.1 0 0-0.1 0.1 0 0.1 0 0-0.1 0-0.1 0.2 0 0.1 0-0.1-0.1 0.3 0 0-0.1 0.2 0 0-0.2 0.1 0 0-0.1 0.1 0 0-0.1 0.1 0 0.1 0 0-0.2 0.3 0 0-0.1 0.1 0 0.2 0 0-0.1 0.2 0 0-0.2 0.1 0.1 0-0.3 0.3 0 0-0.3 0.1 0 0-0.1 0.2 0 0.1 0 0-0.1 0.5 0 0 0.1 0.2 0 0.2 0 0 0.1 0.1 0 0 0.3 0.1 0 0 0.2 0.1 0 0 0.2 0 0.1 0.1 0 0 0.1 0.6 0 0-0.1 0.1 0 0.2 0 0-0.1 0.1 0 0.1 0 0-0.2 0.1 0 0-0.1 0.1 0 0-0.1 0-0.1 0.1 0 0-0.1 0-0.4 0-0.1 0.1 0 0.1 0 0-0.1 0.1 0 0-0.1 0.1 0 0.1 0 0 0.1 0.5 0 0-0.1 0.2-0.1 0 0.2 0.4 0 0 0.1 0.1 0 0-0.1 0.1 0 0-0.2 0.6 0.1 0-0.2 0.1 0 0.4 0 0-0.1 0.2 0 0-0.1 0.5 0 0-0.2 0.1 0 0-0.1 0.1 0 0-0.1 0.1 0 0-0.2 0.4 0 0-0.1 0.2 0 0-0.1 0.2 0 0-0.1 0-0.1 0.1 0 0.2 0 0-0.1 0.1 0 0-0.5-0.1 0 0-0.2 0.1 0 0-0.2 0.1 0 0-0.2 0.1 0 0.3 0 0-0.1 0.1-0.1 0.1 0 0-0.3 0.1 0 0-0.1 0.1-0.1 0-0.1 0.1 0 0.1 0 0-0.1 0.1 0 0-0.1 0.1 0 0-0.1 0-0.1 0.1 0 0-0.1 0.1 0 0-0.3 0.1 0 0-0.1 0.1 0 0.1 0 0-0.1 0-0.3 0.1 0 0-0.3 0.5 0 0 0.2 0.1 0 0 0.1 0 0.1 0.1 0 0 0.3 0.1 0 1 0 0-0.1 0.1 0 0.1 0 0 0.1 0.1 0 0-0.1 0-0.4 0.1-0.1 0-0.1 0.1 0 0-0.1 0.3 0 0 0.1 0.5 0 0-0.6-0.1 0 0-0.3 0.2 0 0-0.1 0.1 0 0 0.1 0.9 0 0-0.1 0.3 0 0-0.1 0-0.1 0.2 0 0-0.1 0.7 0 0-0.1 0.1 0 0-0.1 0.1 0 0-0.3-0.1 0 0-0.1 0.1 0 0-0.2 0.1 0 0 0.2 0.6 0 0-0.2 0.6 0 0-0.1 0.1 0 0-0.1 0-0.2 0.1 0 0-0.1 0-0.4 0.1 0 0-0.1 0.2 0 0-0.2 0.1 0 0.6 0 0-0.1 0.2 0 0-0.3 0.1 0 0-0.2 0.1-0.1 0-0.3 0.1 0 0-0.6 0.1 0 0-0.1 0.1 0 0-0.1 0.1 0 0-0.2 0.1 0 0-0.1 0.1 0 0.2 0-0.1-0.1 0.2 0 0-0.2 0.2 0 0-0.1 0.2 0 0-0.1 0.1 0 0.1 0 0-0.1 0.1-0.1 0-0.1 0.1 0 0.1 0 0.1-0.1 0.1 0 0-0.1 0.1-0.1 0-0.1 0.3 0 0.2 0 0 0.1 0.2 0 0.1 0 0 0.1 0.1 0.1 0 0.2-0.1 0 0 0.2-0.1 0 0 0.2 0.1 0 0 0.2 0.2 0 0-0.2 0.1 0 0-0.1 0.2 0 0.2 0 0-0.1 0.2 0 0-0.2 1.1 0 0 0.2 0.2 0 0 0.1 0.3 0 0-0.1 0.1 0 0-0.1 0-0.1 0.1 0 0-0.6 0.1 0 0.3 0 0 0.1 0.7 0 0.1 0 0 0.1 0.7 0 0-0.1 0.2 0 0-0.1 0.2 0 0-0.2 0.1 0 0-0.1 0.4 0 0 0.1 0.4 0 0-0.1 0.2 0 0-0.1 0.1 0 0-0.2 0.2 0 0-0.1 0.2 0 0-0.1 0.1 0 0-0.2 0.1 0 0-0.1 0.1 0 0-0.1 0.3 0 0 0.1 0.2 0 0 0.1 0.1 0 0-0.1 0.1 0 0-0.1 0.1 0 0-0.2 0.1 0 0-0.1 0.3 0 0.2 0 0.1-0.1-0.1 0 0.4 0 0 0.1 0.2 0 0 0.1 0.1 0 0-0.6 0.1 0 0-0.2 1 0 0 0.2 0.1 0 0 0.2 0.1 0 0 0.2 0.6 0 0-0.2 0.1 0 0.2 0 0-0.1 0.2 0 0-0.1 0.1 0 0-0.2 0.2 0 0.2 0 0-0.1 0.4 0 0-0.1 0.2 0 0 0.1 0.3 0 0.1 0 0 0.1 0.3 0 0-0.1 0.1 0 0-0.5 0.4 0 0-0.3 0.6 0 0-0.1 0.2 0 0-0.1 0.3 0 0.6 0 0-0.2 0.1 0 0-0.1 0.2 0 0-0.1 0.1 0 0-0.2 0.1 0 0-0.1 0.1 0 0-0.1 0.1 0 0.2 0 0.1-0.2 0.3 0 0-0.1 0.2 0 0.1 0 0-0.3 0.1 0 0-0.1 0.1 0 0-0.1 0.1 0 0-0.2 0.1 0 0-0.1 0.1 0 0-0.3 0.1 0 0.1-0.1 0.1 0 0-0.1 0.2 0 0-0.2 0.2 0 0-0.5 0.1 0 0-0.1 0.1-0.1 0-0.1 0.2 0.1 0-0.2 0.1 0 0-0.1 0.1 0 0-0.2 0-0.1 0.1 0 0-0.3 0.1 0 0-0.1 0.1 0 0.1 0 0-0.1 0.1 0 0-0.1 0-0.1 0.1 0 0-0.1 0.2 0 0-0.1 0.1 0 0-0.1 0-0.1 0.1 0 0-0.1 0.1 0 0-0.1 0.1 0 0-0.2 0.1 0 0-0.2 0.1 0 0-0.2 0.1 0 0-0.1 0.1 0 0.1-0.1 0-0.3 0.1 0 0-0.4 0.1-0.1 0-0.2 0.1 0 0-0.2 0-0.4 0.1 0 0-0.1 0.2 0 0.2 0 0-0.1 0-0.1 0.1 0 0.1 0 0-0.1 0.1 0 0.1 0 0.1-0.1 0-0.2 0.1 0 0-0.2 0-0.4 0.1 0 0-0.1 0-0.1 0.1 0 0-0.1 0.1 0 0-0.1 0.1-0.1 0-0.3 0.1-0.1 0-0.2 0.1 0 0-0.7 0.1 0 0-0.1 0-0.3 0.1 0 0-0.2 0.7 0 0-0.2 0.3 0 0-0.1 0.2 0 0-0.1 0.1 0 0-0.1 0-0.1 0.1 0 0-0.1 0.2 0 0.4 0 0-0.1 0.3 0 0 0.1 0.2 0 0 0.1 0.4 0 0-0.2-0.1-0.1 0-0.1-0.1 0 0-0.1-0.1 0 0-0.1-0.2 0 0-0.6 0.1 0 0-0.1 0.1 0 0.1 0 0-0.1 0.1 0 0.3 0 0-0.1 0-0.1 0.1 0 0.2 0 0-0.1 0.3 0 0 0.1 0.2 0 0-0.1 0.1 0 0-0.1 0-0.4 0.1 0 0-0.2 0-0.5 0.1 0 0-0.4 0.1 0 0-0.3 0.2 0 0-0.1 0.1 0 0-0.1 0-0.2 0.1 0 0-0.1 0-0.1 0.1 0 0-0.3 0-0.6 0.1 0 0-0.1 0-0.1 0.2 0 0.1 0 0-0.1 0-0.3 0.1 0 0-0.1 0.1 0 0-0.1 0.1 0 0.1 0 0.1-0.2 0.1 0 0-0.1 0.1 0 0-0.1 0.2 0 0.2 0 0-0.1 0-0.1 0.1 0 0.1 0 0 0.2 0.4 0 0-0.2 0.1 0 0.1 0 0-0.1 0.1 0 0-0.1 0.1 0 0-0.2 0.2 0 0-0.1 0.2 0 0-0.1 0.1 0 0.1 0 0 0.1 0.2 0 0 0.1 0.4 0 0-0.1 0.1 0 0-0.1 0.8 0 0-0.1 0-0.1 0.1 0 0.1 0 0.1-0.1 0.3 0 0-0.1 0.1 0 0-0.1 0-0.1 0.1 0 0-0.2 0-0.2 0.1 0 0-0.3 0.2 0.1 0-0.1 0-0.1 0.2 0 0 0.2 0.3 0 0-0.2 0.1 0 0.1 0 0-0.3 0-0.6 0.1 0 0-0.1 0.1 0 0-0.2 0.2 0 0 0.1 0 0.1 0.2 0 0 0.1 0.3 0 0-0.8-0.1 0 0-0.8 0.1 0 0-0.1 0.1 0 0.1-0.1 0-0.1 0-0.4-0.1 0 0-0.5 0.2 0 0-0.1 0.1 0 0-0.2 0.1 0 0-0.1 0-0.1 0.1 0 0-0.1 0-1-0.1 0 0-0.2-0.1 0 0-0.4-0.2 0 0-0.7 0.2 0 0-0.1 0.2 0 0-0.2 0.1 0 0-0.1 0.1 0 0.1 0 0-0.1 0.2 0 0-0.1 0-0.1 0.1 0 0-0.1 0.1 0 0.1 0 0-0.1 0.1 0 0.2 0 0-0.1 0-0.1 0.1 0 0-0.1 0.3 0 0-0.1 0.1 0 0.3 0 0-0.2 0.3 0 0 0.2 0.2 0 0.1 0.1 0.2 0 0 0.1 0.3 0 0-0.2 0.2 0 0-0.2 0.4 0-0.1 0.2 0.2-0.1-0.1 0.2 0.4 0 0-0.1 0.1-0.1 0-0.1 0.2 0 0-0.1 0.1 0 0 0.1 0 0.2 0.2 0 0 0.1 0.3 0 0.3 0 0 0.1 0.1 0 0 0.2 0.1 0 0 0.1-0.1 0 0 0.1-0.1 0 0 0.4 0.2 0 0 0.2 0.2 0 0 0.1 0.1 0 0 0.1 0.1 0 0 0.2 0.2 0 0-0.2 0.3 0 0 0.2 0.4-0.1 0 0.2 0.2 0 0 0.1 0.2 0 0 0.2-0.1 0 0 0.2 0.1 0 0 0.2 0.8 0 0.1 0 0 0.1 0.3 0 0-0.1 0.1 0 0 0.1 0.7 0 0-0.1 0.1 0 0-0.1 0-0.1 0.2 0 0-0.2 0.4 0 0 0.1 0.1 0 0 0.1 0.1 0 0 0.2 0.1 0 0 0.1 0.1 0 0 0.1 0.2 0-0.1 0.2 1.6 0 0-0.3 0.2 0 0-0.1 0.1-0.1 0-0.1 0.1 0 0.3 0 0-0.1 0.1 0 0.1 0 0-0.1 0.1-0.1 0-0.1 0.1-0.4-0.2 0 0-0.5 0.1 0 0.2 0-0.1-0.2 0.3 0 0-0.1 0.1 0 0-0.1 0.2 0 0-0.1 0.1 0 0-0.1 0-0.1 0.1 0 0.1 0 0-0.1 0.2 0 0-0.1 0.1 0 0 0.1 0.3 0 0 0.1 0.1 0 0 0.2 0.1 0 0 0.1 0.4 0 0 0.3 0.1-0.1 0 0.2-0.1 0 0 0.2-0.1 0.1 0 0.2-0.1 0 0 0.2 0 0.1-0.1 0 0 0.5 0.6 0 0 0.2 0.2 0 0 0.1 0.2 0 0 0.3 0.1 0.1 0.1 0 0 0.1 0.2 0 0-0.1 0.1 0 0 0.1 0.3 0 0 0.2 0.2 0 0.1-0.2 0.1 0 0.1-0.1 0.1 0 0-0.4-0.2 0 0-0.4 0.2 0 0-0.4 0.1 0 0-0.1 0-0.2 0.1 0 0-0.1 0.1 0 0-0.1 0.1 0 0-0.1 0-0.1 0.1 0 0-0.1 0.1 0 0-0.1 0.7-0.1 0-0.2 0.1 0 0-0.1 0.3 0 0-0.1 0-0.1 0.1 0 0 0.1 0 0.1 0.1 0 0 0.7 0 0.1-0.1 0 0 0.2-0.1 0 0 0.2 0 0.1-0.1 0 0 0.3 0.1-0.1 0 0.2 0.1 0 0 0.1 0.4 0-0.1 0.2 0.2 0 0-0.2 0.1 0 0-0.2 0.2 0 0.2 0 0 0.1 0.3 0 0 0.1 0.3 0 0-0.1 0.2 0 0 0.1 0.6 0 0.3 0 0 0.1 0 0.1 0.1 0 0 0.1 0.4 0 0-0.1 0.1 0 0.3 0 0-0.2 0.3 0 0-0.1 0.1 0 0-0.1 0.1 0 0-0.1 0-0.2 0.1 0 0-0.4 0.4 0 0 0.1 0.2 0 0 0.2 0.1-0.1 0 0.2 0.2 0 0-0.2 0.1 0.1 0-0.2 0.1 0 0-0.1 1 0 0-0.1 0.1 0 0-0.2 0.2 0 0-0.1 0.1 0 0-0.1 0-0.1 0.1 0.1 0-0.6 0.1 0 0-0.1 0.1 0 0-0.1 0.6 0 0.2 0 0 0.1 0.3 0 0-0.4 0.1 0 0-0.8 0.1 0 0-0.1 0.1 0 0-0.2 0.2 0 0-0.1 0.3 0 0-0.7 0.1 0 0-0.1 0.1 0 0-0.1 0.1 0 0-0.2 0-0.1 0.4 0 0 0.1 0.3 0 0 0.1 0 0.1 0.4 0 0 0.1 0.3 0 0-0.1 0.1 0 0-0.1 0-0.1 0.1 0 0-0.2-0.1 0 0-0.2 0-0.1-0.1 0-0.1 0 0-0.2-0.1 0.1 0-0.3-0.1 0 0-0.1 0.1 0 0-0.4 0.1 0 0-0.3 0.1 0 0-0.1 0.7 0 0 0.1 0 0.1 0.4 0 0 0.2 0.2 0 0-0.1 0-0.1 0.2 0 0 0.2 0.2 0 0 0.1 0.2 0 0 0.1 0.4 0 0-0.1 0.2 0 0-0.1 0.2 0 0-0.1 0-0.1 0.1 0 0.2 0 0-0.1 0.1 0 0 0.1 0.2 0 0 0.2 0.1 0 0 0.2 0.2 0 0 0.1 0 0.1 0.2 0 0-0.2 0.2 0 0-0.1 0.1 0 0.1 0 0.3 0 0-0.1 0.1 0 0.5 0 0 0.1 0.1 0 0-0.1 0.1 0 0-0.2 0-0.2 0-0.3 0.1 0 0-0.1 0.1 0 0-0.2 0.1 0 0-0.1 0.1 0 0-0.3 0.1 0 0-0.1 0.1 0 0.1 0 0-0.1 0.1 0 0.1-0.2 0.1 0-0.1-0.2 0.3 0 0-0.2 0.6 0 0 0.1 0 0.2 0.1 0 0 0.1-0.1 0 0 0.4 0.1 0 0 0.1 0 0.2 0.1 0 0 0.1 0.4 0 0-0.1 0.1 0 0-0.3 0.1 0 0-0.1 0.1 0 0-0.3 0.1 0.1 0-0.3 0.2 0 0 0.1 0.1 0 0 0.2 0.2-0.1 0 0.2 0.6-0.1 0-0.1 0-0.1-0.1 0 0-0.2 0-0.1-0.1 0 0-0.5 0.2 0 0-0.1 0.6 0 0-0.1 0.1 0 0-0.1 0-0.1 0.1 0 0-0.2 0-0.3 0.1 0 0-0.1 0.3-0.1 0 0.2 0.2 0 0 0.1 0.4 0 0-0.1 0-0.1 0.1 0 0-0.2 0-0.2 0.1 0 0-0.2 0.1 0 0-0.1 0.1 0 0.3 0 0-0.1 0.2 0 0 0.1 0.2 0 0 0.3-0.1 0 0 0.1-0.1 0 0 0.7 0.1-0.1 0 0.3 0.1 0 0 0.2 0.2 0 0 0.1 0.2 0 0 0.1 0.6 0 0.1 0 0 0.1 0.4 0 0-0.1 0-0.1 0.2 0 0-0.1 0.1 0 0.6 0 0 0.1 0.2 0 0.1 0 0 0.1 0.1 0 0 0.1 0.5 0 0-0.1 0-0.1 0.3 0 0 0.1 0.4 0 0-0.1 0.1 0 0-0.2 0.1 0.1 0-0.2 0.1 0 0-0.1 0-0.1 0.1-0.1 0-0.1 0.1 0 0.1-0.1 0.3 0 0-0.1 0.2 0 0-0.1 0-0.1 0.1 0 0-0.1 0.1 0 0-0.1 0.1 0 0-0.1 0-0.1 0.1 0 0-0.1 0.2 0 0.5 0 0-0.1 0.1 0 0-0.1 0-0.1 0.1 0 0-0.1 0.1 0 0-0.1 0.1-0.1 0-0.1 0.1 0 0.1 0 0-0.1 0.1 0 0.1 0 0-0.1 0.1 0 0.1 0 0-0.1 0-0.1 0.2 0-0.1-0.1 0.2 0 0.1 0 0-0.1 0.1 0 0.2 0 0-0.2 0.4 0 0-0.1 0.1 0 0.1 0 0.1-0.1 0-0.1 0-0.1 0.1 0 0.2 0 0-0.1 0.2 0 0-0.1 0.1 0 0-0.3 0.1 0 0-0.1 0.1 0 0-0.2 0-0.1 0.1 0 0-0.1 0-0.6 0.1 0 0-0.1 0.2 0 0.1 0 0-0.1 0.3 0 0 0.1 0.1 0 0-0.1 0.1 0 0-0.1 0.1-0.1 0-0.1 0.1 0 0-0.1 0.1 0 0-0.2 0.2 0 0-0.1 0.1 0 0 0.1 0.6 0 0.2 0.1 0 0.2 0.1 0 0 0.1 0.1 0 0 0.2 0.3 0 0-0.2 0.1 0 0.1 0 0-0.6-0.1 0 0-0.3 0.6 0 0 0.1 0.4 0 0-0.1 0.1 0 0-0.1 0.1 0 0-0.2 0.2 0 0-0.1 0.1 0 0-0.1 0.1 0 0.1-0.2 0.1 0 0-0.1 0.1 0 0-0.1 0.2 0 0-0.1 0-0.1 0.4 0 0 0.2 0.2 0 0-0.2 0.1 0 0-0.1 0.1 0 0-0.1 0.1 0 0.1-0.1 0.1-0.1 0-0.2 0.1 0 0-0.2 0.2 0 0-0.2 0.1 0 0-0.2 0.1 0 0-0.1 0.1 0 0-0.1 0.1 0 0-0.1 0-0.1 0.1 0 0-0.1 0.1 0 0-0.1 0.1 0 0-0.3 0.1 0 0-0.1 0-0.5 0.2 0 0-0.2 0.1 0 0-0.1 0-0.1 0.1 0 0-0.4 0-0.6 0.1 0 0-0.1 0.1 0 0-0.1 0.1 0 0-0.2 0.2 0 0-0.2 0.1 0 0-0.1 0-0.6 0.1 0 0-0.1 0-0.3 0.2 0 0-0.1 0.1 0 0.1 0.1 0.2 0 0 0.1 0.2 0 0 0.3 0.1 0 0 0.1 0.1 0 0 0.2 0.1 0 0 0.1 0.2 0 0.1 0 0 0.1 0.1 0 0 0.3 0.2 0 0 0.1 0.1 0 0 0.2 0.2 0 0 0.1 0.1 0 0.1 0 0 0.1 0.1 0 0 0.3 0.1 0 0 0.1 0.4 0 0-0.2 0.1 0 0.1-0.1 0-0.2 0.2 0 0-0.2 0.1 0.1 0-0.3 0.1 0 0-0.1 0-0.2 0.2 0 0-0.1 0.3 0 0 0.1 0.5 0 0-0.1 0.2 0 0-0.1 0.5 0 0-0.2 0.1 0 0-0.2-0.1 0 0-0.8 0.2 0 0-0.1 0-0.2 0.1 0 0-0.1 0.1 0 0.2 0 0-0.1 0-0.1 0.1 0 0-0.1 0.1 0 0-0.1 0-0.1 0.1 0.1 0-0.2 0.1 0 0-0.1 0.1 0 0-0.2 0-0.1 0.2 0 0-0.1 0.1 0 0-0.3 0.8 0 0-0.1 0.2 0 0-0.3 0.1 0 0-0.4 0.1 0 0-0.4 0.1 0 0-0.1-0.1 0 0-0.4 0.1 0 0-0.3 0.2 0 0.2 0 0 0.1 0 0.1 0.2 0 0 0.1 0.2 0 0-0.1-0.1 0 0-0.3-0.1 0 0-0.2-0.2 0.1 0.1-0.3-0.2 0 0-0.4 0.2 0 0-0.5-0.2 0 0-0.4 0.2 0 0-1.1-0.2 0 0-0.4-0.1 0 0-0.1 0.1 0 0-0.2 0-0.2-0.1 0 0-0.2-0.1 0 0-0.1-0.1 0 0-0.1-0.1 0 0-0.4 0.1 0 0-0.2 0.2 0 0-0.1 0.1 0 0.4 0 0 0.1 0.1 0 0 0.1 0 0.1 0.1 0 0 0.1 0.9 0 0.1-0.1 0.2 0 0-0.2 0.1 0 0-0.1 0.1 0 0-0.2 0.1-0.1 0 0.2 0.4 0 0-0.2 0.1 0 0-0.1 0.5 0 0 0.2 0.2 0 0 0.1 0.2 0 0-0.2 0.1 0 0-0.5-0.1 0 0-0.1 0.1 0 0-0.3 0.1 0 0-0.1 0.1 0 0-0.1 0.5 0 0 0.1 0.5 0 0-0.1 0.3 0 0-0.1 0-0.1 0.3 0 0 0.1 0 0.1 0.3-0.1 0 0.2 0.4 0 0-0.1 0.2 0 0-0.1 0-0.1 0.1 0 0.1 0 0-0.1 0.2 0 0-0.1 0.1 0 0.2 0 0 0.1 0.1 0 0 0.1 0.1 0 0 0.2 0.2 0 0 0.1 0.1 0 0 0.1 0.1 0 0 0.2 0.1 0 0 0.1 0.1 0 0 0.1 0.7 0 0-0.1 0.1 0 0.4 0 0-0.1 0.3 0-0.1-0.6 0.1 0 0-0.2 0.1-0.1 0-0.1 0-0.4 0.2 0-0.1-0.5 0.5 0 0-0.1 0.2 0 0-0.4-0.1 0 0-0.2-0.1 0 0-0.2-0.1 0 0-0.2 0.1 0 0-0.1 0-0.1 0.4 0 0-0.2 0.4 0 0-0.1 0.1 0 0.2 0 0-0.1 0.1 0 0-0.2 0.2 0 0-0.1 0.1 0 0-0.2 0.2 0.1 0-0.2 0.4 0 0 0.2 0.2 0 0 0.1 0.1 0 0 0.3 0.1 0 0 0.1 0.4 0 0-0.3 0.1 0 0-0.5 0.1 0 0-0.1 0.8 0 0-0.1 0-0.1 0.1 0 0-0.1 0.1 0 0-0.1 0.1 0 0-0.2 0.1 0 0-0.1 0.1 0 0.2 0 0-0.1 0.4 0 0 0.1 0.2 0 0 0.1 0.1 0 0 0.2 0.1 0 0-0.1 0.2-0.1 0-0.1 1.1 0 0-0.1 0.1 0 0.1 0 0 0.1 0.2 0 0 0.1 0.7 0-0.1-0.1 0.3 0 0-0.1 0.3 0 0-0.2 0.1 0 0-0.1 0.1 0 0-0.1 0.1 0 0-0.2 0-0.1 0.2 0-0.1-0.1 0.9 0 0 0.1 0.1 0 0 0.1 0.1 0 0 0.4 0.1 0 0 0.4-0.1 0 0 0.3 0.1 0 0 0.3 0.1 0 0 0.1 2.1 0 0-0.1 0.2 0 0-0.2 0.1 0 0.1 0 0-0.1 0.9 0 0 0.1 0.1 0 0-0.1 0.4 0 0 0.1 0.2 0 0-0.1 0.1 0 0.2 0 0-0.1 0.1 0 0-0.3 0.1 0 0-0.1 0.1 0 0-0.2 0.1 0 0-0.1 0.1 0 0-0.1 0.2 0 0-0.2 0.1 0 0-0.1 0.1 0 0-0.1 0.1 0 0-0.1 0-0.2 0.1 0 0-0.4 0.2 0 0-0.1 0-0.2 0.1 0.1 0-0.2 0.1 0 0-0.1 0.1 0 0-1 0.1 0 0-0.1 0.1 0 0-0.1 0.1 0 0-0.1 0-0.1 0.2 0 0 0.2 0.1 0 0 0.1 0.1 0 0 0.1 0.1 0 0 0.3 0.1 0 0.1 0.4 0.1 0 0-0.1 0.2 0 0-0.2 0.1 0 0-0.1 0.2 0 0 0.1 0.8 0 0-0.1 0.2 0 0-0.1 0.1 0 0.1 0 0-0.1 0-0.1 0.1 0 0-0.1 0.1 0 0-0.3-0.1 0 0-0.2-0.1 0 0-0.1-0.1-0.1 0-0.3-0.1-0.1 0-0.8-0.1 0 0-0.9 0.6 0 0 0.7 0.1 0 0 0.3 0 0.1 0.3 0 0-0.1 0-0.1 0.5 0 0 0.1 0 0.1 0.2 0 0 0.1 0.2 0 0 0.1 0.3 0 0-0.1 0.1 0 0.1-0.1 0.1 0 0-0.2 0.2 0 0-0.1 0.1 0 0-0.1 0.1 0 0-0.3 0.1 0 0-0.1 0.1 0 0-0.1 0-0.1 0.1 0.1 0-1 0.1 0 0-0.1 0.1 0 0.1 0 0-0.1 0.2 0 0.3 0 0-0.1 0-0.1 0.2 0 0 0.2 0.1 0 0-0.2 0.2 0 0-0.1 0.1 0 0.1 0 0-0.1 0.3 0 0 0.1 0.2 0 0 0.1 0.3 0 0-0.4-0.1 0 0-0.4 0.1 0 0-0.1 0.1 0 0-0.1 0.1 0 0.1 0 0-0.2 0.2 0.1 0-0.2 0.1 0 0-0.1 0.3 0-0.1-0.2 0.1 0 0.1 0 0-0.1 0.1 0 0-0.1 0.1 0 0.6 0 0-0.2 0.1 0 0.1 0 0-0.1 0.7 0 0 0.1 0.4 0 0-0.1 0.3 0 0-0.1 0.5 0 0 0.1 0 0.1 0.3 0 0-0.1 0.1 0 0-0.1 0.1 0 0-0.1 0-0.1 0.4 0 0 0.2 0.2 0 0-0.2 0.4 0 0-0.1 0.2 0 0.1 0 0 0.1 0.3 0 0 0.2 0.1 0 0 0.1 0.3 0 0 0.1 0.2 0 0 0.2 0.2 0 0-0.2 0.3 0 0-0.1 0.1 0 0.3 0 0-0.1 0.1 0 0.2 0 0-0.1 0-0.1 0.4 0 0 0.1 0 0.1 0.1 0 0 0.1 0.1 0 0 0.1 0 0.2 0.1 0 0 0.2 0.1 0 0 0.2 0.1 0 0 0.1-0.1 0 0 0.4 0.1 0 0 0.1 0.1 0 0 0.1 0 0.1 0.1 0 0.1 0 0 0.1 0.1 0 0 0.1 0.2 0 0 0.2 0.1 0 0-0.2 0.1 0 0-0.1 0.2 0 0.1 0 0-0.1 0.3 0 0.6 0 0-0.2 0.4 0 0-0.1 0.4 0 0-0.2 0.6 0.1 0-0.2 0.4 0 0 0.2 0.1 0 0-0.2 0.2 0.1 0-0.7 0.1 0 0-0.2 0.2 0 0-0.1 0.1 0 0-0.1 0.3 0 0.5 0 0-0.1 0-0.1 0.2 0 0.3 0 0-0.1 0.2 0 0-0.2 0.2 0.1 0-0.2 0.6 0 0-0.1 0.3 0 0.2 0 0-0.1 0.1 0 0.1 0 0-0.2 0.1 0 0-0.1 0.1 0 0-0.2 0.1 0.1 0-0.2 0.4 0 0-0.1 0.2 0 0-0.1 0.3 0 0.3 0 0-0.1 0-0.1 0.1 0 0.1 0 0-0.1 0.1 0 0-0.1 0.1 0 0-0.1 0-0.1 0.3 0 0 0.1 0 0.1 0.1 0 0 0.1 0.1 0 0 0.1 0.1 0 0 0.1 0.2 0.1 0 0.1 0.3 0 0-0.1 0.3 0 0 0.1 0.7 0 0-0.1 0.2 0 0-0.1 0-0.1 0.1 0 0-0.1 0.2 0 0-0.1 0.1 0 0.3 0 0 0.1 0.2 0 0 0.1 0.1 0 0 0.2 0.1 0 0 0.1 0.1 0 0 0.1 0.3 0 0-0.1 0.1 0 0-0.1 0-0.2 0.1 0 0-0.1 0.1 0 0-0.3 0.3 0 0-0.1 0.2 0 0-0.1 0.2 0 0-0.3 0.1 0 0-0.2 0.3 0.1 0 0.1 0.1 0 0-0.1 0.1 0 0.1-0.1 0-0.1 0.1 0.2 0.1 0 0 0.1 0.2 0 0-0.1 0.1 0 0-0.2 0.1 0 0-0.4-0.1 0 0-0.1 0.1 0 0.2 0 0-0.1 0-0.1 0.2 0 0-0.1 0.1 0 0-0.1 0.2 0 0.2 0 0-0.1 0.1 0 0-0.2 0.1 0 0-0.1 0.1 0 0-0.2 0-0.1 0.1 0 0-0.1 0-0.3 0.1 0 0-0.1 0.1 0 0-0.2 0.2 0.1 0-0.2 0.1 0 0-0.2 0.1 0 0.1 0 0-0.3 0.4 0 0-0.1 0-0.1 0.5 0 0-0.1 0.1 0 0-0.1-0.1 0 0-0.2 0-0.1-0.1 0 0-0.1-0.1 0 0-0.1-0.1 0 0-0.3-0.1 0 0-0.1-0.1 0 0-0.3 0.1 0 0.3 0 0-0.1 0.1 0 0.1 0 0-0.2 0.2 0 0-0.4-0.1 0 0-0.1-0.2 0 0-0.2-0.4 0.1 0-0.1-0.1-0.1 0-0.4 0.1 0 0-0.2 0.1 0 0-0.1 0-0.1 0.1 0 0.3 0 0-0.1 0.2 0 0-0.1 0.1 0 0.1 0 0.6 0 0-0.2 0.9 0 0-0.1 0.2 0 0-0.1 0.1 0 0.3 0 0-0.1 0.1-0.1 0 0.2 0.1 0 0 0.1 0.1 0 0 0.1 0.1 0 0 0.3-0.1 0-0.1 0 0 0.5 1 0 0 0.2 0.1 0 0 0.1 0.1 0 0 0.1 0.1 0 0 0.3-0.1 0 0 0.1-0.2 0 0 0.1 0 0.1-0.1 0 0 0.1-0.1 0 0 0.1 0.1 0 0 0.6 0.1 0 0 0.1 0.1 0 0 0.1 0.3 0 0-0.1 0.1 0 0.4 0 0 0.1 0.2 0 0-0.1 0.5 0 0-0.1 0.3 0 0-0.2 0.1 0 0-0.1 0.2 0 0.1 0 0-0.1 0.7 0 0 0.1 0.3 0 0-0.1 0.4 0 0 0.1 0.1 0 0 0.1 0.1 0 0 0.2 0.3 0 0-0.1 0-0.4 0.1 0.1 0-0.1 0.1-0.1 0-0.1 0.1 0 0.1-0.1 0.1-0.1 0.2-0.1 0-0.2 0.1-0.1 0-0.1 0.7 0 0-0.1 0.1 0 0.1 0 0-0.1 0.4 0 0-0.1 0-0.1 0.1 0 0.1 0 0-0.1 0.1 0 0-0.1 0.1 0 0-0.2 0.1 0 0-0.6-0.1 0 0-0.2 0.1 0 0-0.1 0.1 0 0-0.1 0.1 0 0-0.1 0-0.1 0.1 0 0.1 0 0-0.1 0.1 0 0-0.1-0.1 0 0-0.3 0.1 0 0 0.1 0.2 0 0 0.4 0.1 0 0 0.2 0.3 0 0-0.2 0.7 0 0 0.2 0.3 0 0-0.2 0.5 0 0-0.2-0.1 0 0-0.6-0.2 0 0-0.1-0.1 0 0-0.3 0.1 0 0-0.1 0.2 0 0-0.1 0.2 0 0-0.2 0.5 0 0-0.1 0.3 0 0-0.1 0.2 0 0-0.1 0-0.1 0.2 0 0-0.1 0.1 0 0-0.1 0.1 0 0.1 0 0-0.2 0.1 0 0-0.1 0.2 0 0-0.1 0.1 0 0.1 0-0.1-0.2 0.3 0.1 0-0.2 0-0.1 0.1 0 0-0.1 0.1 0 0.1 0 0-0.2 0-0.4-0.1 0 0-0.2-0.1 0 0-0.3 0.1 0 0-0.1 0.1 0 0-0.3 0.1 0 0-0.1 0.1 0 0-0.2 0.2 0 0-0.1 0.2 0 0-0.1 0.1 0 0.2 0 0 0.1 0.1 0 0-0.1 0.2 0 0-0.2 0.4 0 0-0.1 0.1 0 0-0.1 0.1 0 0.1 0 0.3 0 0-0.2 0.5 0 0 0.2 0.1 0 0-0.2 0.1 0 0-0.1 0.1 0 0.1 0 0-0.1 0.2 0 0.2 0 0-0.2 0.2 0 0-0.1 0.1 0 0.4 0 0-0.2 0.3 0.1 0-0.2 0.1 0 0.1 0 0-0.1 0.2 0 0.4 0 0-0.1 0.1 0 0-0.1 0-0.1 0.4 0 0 0.2 1.1 0 0-0.2 0.1 0 0-0.1 0.1 0 0.2 0 0-0.1 0.1 0 0.6 0 0 0.1 0.9 0 0-0.1 0.4 0 0 0.1 1 0 0-0.1 0.7 0 0 0.1 0.8 0 0-0.1 0.9 0 0 0.1 0.4 0 0-0.1 0.3 0 0-0.2 0.2 0 0-0.1 0.1 0 0-0.1 0.1 0 0-0.2 0-0.2 0.1 0 0-0.1 0-0.1 0.1 0 0-0.1 0.1 0 0.4 0 0-0.1 0.4 0 0 0.1 0.3 0 0-0.1 0.1 0 0.1 0 0-0.1 0-0.1 0.2 0 0 0.2 0.2 0 0.1 0 0 0.1 0.3 0 0-0.1 0.1 0 0.1 0 0-0.2 0.1 0 0-0.1 0.2 0 0 0.1 0.7 0 0-0.1 0.1 0 0-0.1 0.1 0 0-0.1 0-0.1 0.1 0 0-0.1 0.3 0 0-0.1 0.3 0 0 0.1 0.1 0 0 0.3 0 0.1-0.2 0 0 0.1 0 0.2-0.1 0-0.1 0 0 0.1-0.1 0 0 0.1-0.2 0 0 0.2-0.4 0 0 0.1-0.1 0 0 0.1-0.2 0 0 0.2-0.1 0 0 0.1-0.2 0-0.1 0 0 0.1-0.1 0 0 0.3-0.1 0 0 0.1-0.1 0 0 0.2-0.2 0 0 0.1-0.1 0 0 0.4 0 0.2-0.3 0.1 0 0.1-0.1 0 0 0.1-0.2 0-0.1 0 0 0.1 0 0.1-0.1 0 0 0.2-0.1 0 0 0.2 0 0.1-0.1 0 0 0.3 0 0.1-0.2 0 0 0.4-0.1 0 0 0.1-0.1 0 0 0.2-0.5-0.1 0.1 0.2-0.3 0 0 0.1-0.1 0 0 0.4-0.1 0 0 0.3-0.1 0 0 0.1-0.1 0 0 0.3-0.1 0 0 0.1-0.1 0-0.1 0 0 0.1-0.1 0 0 0.3-0.1 0 0 1.2 0.1 0 0 0.1 0.1 0 0 0.2 0.1 0 0 1.3-0.1 0 0 0.7 0.1 0 0 0.2 0.1 0 0 0.3-0.1 0 0 0.1 0 0.2-0.1 0 0 0.1-0.1 0 0 0.2 0 0.1-0.2 0-0.2 0 0 0.1-0.1 0 0 0.1-0.1 0 0 0.2-0.2 0-0.1 0 0 0.1-0.2 0 0 0.1-0.1 0 0 0.1 0 0.1-0.1 0 0 0.1-0.2 0 0 0.1-0.2 0-0.1 0 0 0.1 0 0.1-0.1 0 0 0.1 0 0.1-0.1 0 0 0.4 0.1 0 0 0.2 0.1 0 0.1 0 0 0.1 0.4 0 0.2 0 0 0.1 0.1 0 0 0.3 0.1 0 0 0.3 0.1-0.1 0 0.1 0 0.1-0.2 0 0 0.1-0.3 0 0-0.1-0.1 0 0-0.1-0.1 0 0-0.1-0.1 0-0.1-0.1 0-0.1-0.1 0-0.1 0 0 0.1-0.2 0-0.1 0 0 0.2-0.1-0.1 0 0.5 0.1 0 0 0.2 0.1 0 0 0.2 0.1 0 0 0.1 0.1 0 0 0.1 0.1 0 0 0.1 0 0.2 0.1 0 0 0.3 0 0.1-0.1 0 0 0.2 0 0.1 0.6 0 0 0.1 0.2 0 0 0.1 0.2 0 0 0.7-0.1 0 0 0.1-0.1 0 0 0.2-0.1 0 0 0.4 0.1 0 0 0.2 0.1 0 0 0.9-0.1 0.1 0 0.1 0 0.1-0.1 0 0 0.1 0 0.2-0.1 0-0.1 0 0 0.2-0.1 0.1 0 0.1 0 0.1-0.1 0 0 0.1 0 0.1-0.1 0-0.1 0 0 0.2-0.2 0 0 0.2 0 0.1-0.1 0-0.1 0 0 0.1-0.2 0 0-0.2-0.1-0.1 0-0.1-0.3 0 0 0.2-0.1-0.1 0 0.9 0.1 1-0.1 0 0 0.1-0.1 0 0 0.2 0.1 0.5-0.1 0 0 0.1-0.2 0-0.1 0 0 0.1 0 0.1-0.1 0 0-0.2-0.3 0 0-0.1-0.5 0 0 0.1-0.1 0 0 0.2-0.1 0-0.1 0 0 0.1-0.1 0 0 0.1-0.1 0 0 0.3-0.1 0 0 0.3 0 0.1-0.3 0 0 0.1-0.1 0 0 0.2-0.2 0 0 0.1-0.1 0 0 0.1-0.1 0 0 0.1 0 0.1-0.1 0 0 0.1-0.2 0 0 0.7 0 0.2-0.1 0 0 0.4-0.1 0 0 0.1 0 0.1-0.3 0 0 0.1-0.1 0-0.2 0-0.3 0 0-0.1-0.2 0-0.1 0 0-0.3-0.2 0 0-0.1-0.3 0 0-0.1-0.3-0.1 0-0.1-0.2 0 0-0.1-0.3 0-0.4 0 0-0.1 0-0.1-0.1 0-0.2 0 0-0.1-0.1 0-0.2 0 0-0.1-0.1 0-0.4 0 0-0.2-0.8 0 0-0.1-0.3 0 0-0.1-0.1 0 0 0.1-0.2 0 0 0.1-0.1 0 0 0.7-0.3 0 0-0.1-0.1 0 0-0.2 0.1 0 0-0.1-0.1 0 0-0.2-0.1-0.1 0 0.1 0 0.1-0.1 0 0 0.1-0.3 0-0.1 0.1-0.1 0 0 0.2-0.1 0 0 0.1-0.2 0 0 0.1-0.2 0-0.1 0 0 0.1 0 0.1-0.8 0 0 0.1-0.2 0 0 0.1-0.4 0 0-0.1-0.7 0 0 0.1-0.1 0 0 0.2-0.6 0 0-0.2-0.1 0 0 0.2-0.1 0 0 0.2-0.2 0.1 0 0.1-0.1 0-0.1 0 0 0.2-0.1 0 0 0.3-0.7 0 0 0.1-0.2 0 0 0.2-0.2 0 0 0.1-0.1 0 0 0.1-0.1 0 0 0.8 0.1 0 0 0.3 0 0.4 0.1 0 0 0.3 0-0.1-0.1 0.1 0 0.2-0.9 0 0-0.2-0.3 0 0-0.2-0.1 0 0-0.1 0-0.1-0.1 0-0.1 0 0-0.3-1.8 0 0 0.1-0.1 0 0 0.2-0.5 0 0-0.2-0.2 0 0 0.2-0.6 0 0-0.1-0.1-0.1-0.1 0 0-0.1-0.1 0-0.2 0 0-0.1-0.1 0 0 0.1-0.2 0 0 0.1-0.1 0 0 0.2 0 0.1-0.1 0 0 0.1-0.1 0 0 0.2-0.1 0 0 0.1-0.3 0 0 0.1-0.2 0-0.2 0 0 0.1 0 0.1-0.1 0 0 0.1-0.1 0 0 0.1-0.3 0 0-0.1-0.4 0 0 0.1-0.1 0 0 0.1 0 0.1-0.2 0-0.1 0.1-0.1 0 0 0.1-0.1 0 0 0.2-0.2 0 0 0.1-0.6 0 0 0.1-0.2 0 0 0.2-0.1 0 0 0.4-0.2 0 0 0.1-0.1 0 0 0.1-0.1 0 0 0.1 0 0.1-0.1-0.1 0 0.2-0.1 0 0 0.1-0.1 0 0 0.1 0 0.1-0.1 0 0 0.5-0.1 0 0 0.3 0 0.1-0.1 0 0 0.1-0.1 0 0 0.2-0.1 0 0 0.1-0.5 0 0-0.1-0.1 0 0-0.2-0.1 0 0-0.2-0.1 0 0-0.2-0.5 0-0.5 0 0 0.1 0 0.1-0.1 0-0.3 0 0 0.1 0 0.1-0.1 0 0 0.2-0.3 0 0 0.4 0.1 0 0 0.1 0.1 0 0 0.3-0.1 0 0 0.1-0.2 0 0.1 0.1-0.1 0-0.1 0 0 0.1-0.2 0-0.1 0 0 0.1 0 0.1-0.1 0 0 0.1-0.1 0 0 0.1-0.2 0 0 0.3-0.2 0 0 0.1-0.3 0.1 0 0.1-0.3 0 0-0.1-0.1-0.1 0-0.1-0.2 0-0.3 0 0 0.1-0.3 0 0 0.2-0.2 0-0.1 0.1-0.1 0-0.1 0 0 0.1-0.9 0 0 0.2-0.2 0-0.2 0 0 0.1-0.3 0 0-0.1-0.2 0 0 0.1-0.1 0 0-0.1-0.1-0.1 0-0.1-0.1 0-0.1 0 0-0.1-0.2 0-0.4 0 0 0.1-0.1 0 0 0.2-0.1-0.1 0 0.3-0.1 0 0 0.2-0.7 0 0-0.2-0.1 0 0 0.2-0.1 0-0.1 0 0 0.1-0.1 0 0-0.1-0.1 0 0 0.1-0.1 0 0 0.1-0.2 0-0.1 0 0 0.1 0 0.1-0.1 0 0 0.1-0.1 0 0-0.1-0.1 0-0.9 0 0-0.2-0.2 0 0-0.1-0.1 0 0 0.1-0.1 0 0 0.1-0.1 0.1-0.1 0 0.1 0.3-0.2-0.1 0.1 0.2-0.2 0 0 0.1-0.1 0 0 0.1-0.2 0-0.1 0 0 0.2-0.2 0 0-0.2-0.2 0 0 0.2-0.1 0 0 0.1-0.4 0-0.2 0 0 0.1-0.1 0 0 0.2-0.3 0 0-0.2-0.1 0 0-0.2-0.2 0 0-0.1-0.1-0.1-0.3 0 0 0.2-0.1 0 0 0.1-0.1 0 0 0.1 0.1 0 0 0.3-0.1 0 0 0.3 0 0.1-0.1 0 0 0.1-0.1 0 0-0.1-0.2 0 0 0.1-0.2 0 0 0.2-0.2 0 0 0.1-0.2 0-0.3 0 0 0.1-0.1 0.1 0 0.1-0.1 0 0 0.1-0.1 0 0 0.1-0.2 0 0 0.2-0.1 0 0 0.1-0.5 0 0 0.1-0.1 0-0.1 0.1 0 0.1-0.2 0 0 0.1-0.2 0 0 0.1-0.1 0 0 0.2 0 0.1-0.2 0 0 0.1 0 0.3-0.1 0 0 0.1-0.1 0-0.3 0 0 0.2-0.3 0 0-0.2-0.3 0 0 0.2-0.3 0 0 0.5-0.3 0-0.1 0 0 0.1-0.1 0 0 0.1 0 0.1-0.6 0 0 0.4-0.1 0 0 0.1-0.3 0-0.1 0 0 0.1-0.1 0-0.2 0 0 0.1 0 0.1-0.1 0 0 0.1-0.1 0 0 0.3-0.1 0 0 0.1-0.2 0 0 0.1-0.4 0-0.1 0 0.1 0.2-0.3 0 0 0.1-0.1 0 0 0.2 0 0.1-0.1 0 0 0.1-0.4 0 0-0.3-0.2 0 0 0.2-0.1 0-0.1 0.2 0 0.1 0 0.1-0.1 0-0.1 0.1-0.1 0-0.1 0 0 0.1-0.1 0 0 0.2 0 0.1-0.1 0 0 0.1-0.1 0 0 0.1 0 0.1-0.1 0 0 0.1-0.1 0 0 0.1-0.4 0 0-0.7-0.7 0 0 0.2-0.1 0-0.1 0 0 0.1-0.1 0-0.1 0 0 0.2-0.2 0 0 0.1-0.2 0 0 0.1-0.1 0 0 0.1 0 0.1-0.1-0.1 0 0.2-0.1 0 0 0.2-0.1 0.1 0 0.2-0.1 0 0 0.1 0 0.1-0.1 0 0 0.1 0.1 0 0 0.1 0.1 0 0 0.3-0.1 0 0 0.1 0 0.1-0.1 0 0 0.2-0.2 0-0.1 0 0 0.1-0.4 0-0.2 0 0-0.1-0.1 0 0-0.1 0-0.1-0.6 0 0 0.2-0.2 0 0 0.1-0.1 0-0.1 0.1-0.1 0 0 0.2-0.2 0 0 0.2-0.1 0 0 0.6 0 0.1-0.1 0 0 0.2-0.3-0.1 0 0.2-0.3 0 0 0.1-0.1 0 0 0.1-0.2 0-0.3 0 0 0.2-0.1 0 0 0.1-0.1 0 0 0.8-0.2 0 0 0.1-0.1 0 0 0.2-0.2 0 0 0.2 0.1 0 0 0.3-0.1 0 0 0.3 0 0.2-0.1 0 0 0.1 0 0.1-0.1-0.1 0 0.9 0.1 0.1 0.5 0 0 0.1 0.1 0.1 0 0.1 0.1 0 0 0.1 0.2 0 0 0.1 0.1 0 0 0.3-0.2 0 0 0.1 0 0.2-0.1 0 0 0.1-0.4 0 0-0.1-0.2 0 0 0.1-0.1 0 0 0.1-0.1 0 0 0.1-0.2 0.1 0 0.1-0.1 0 0 0.2-0.1 0.1 0 0.1-0.2 0 0-0.1-0.1 0 0-0.1 0-0.1-0.1 0-0.1 0 0-0.1-0.1 0 0-0.1-0.1 0 0-0.3-0.3 0-0.2 0-0.1 0 0 0.1-0.1 0 0 0.1-0.1 0.1 0 0.1-0.1 0 0 0.1-0.1 0 0 0.1-0.1 0.1 0 0.1-0.1 0 0 0.2 0 0.1-0.1 0 0 0.1 0 0.1-0.1 0 0 0.2-0.1 0 0 0.2-0.1 0 0 0.2 0 0.1-0.1 0-0.1 0 0 0.1 0 0.2 0-0.1-0.1 0.1 0 0.1-0.1 0 0 0.1-0.1 0 0 0.2 0.1 0 0 0.2 0.1 0 0 0.3 0.2 0-0.1 0.1 0.4 0 0 0.1 0.1 0.1 0 0.1-0.1 0 0 0.4-0.1 0 0 0.1-0.3 0 0.1 0.2-0.2-0.1 0 0.2 0 0.1-0.1 0 0 0.1-0.1 0 0 0.3-0.1 0 0 0.2 0 0.1-0.1 0 0 0.2 0.1 0 0 0.4 0.1 0 0 0.2 0.1 0 0 0.2-0.1 0 0 0.2-0.4 0 0 0.2-0.1 0 0 0.2-0.1 0 0 0.2-0.1 0 0 0.8 0.1 0.4 0.1 0 0 0.3 0.1 0 0 0.1 0 0.2 0 0.1-0.1 0 0 0.1-0.1 0 0 0.2-0.2 0-0.1 0-0.1 0 0-0.3-0.1 0 0-0.1-0.1 0 0 0.1-0.2 0 0 0.1-0.2 0 0 0.2 0 0.1-0.1 0 0 0.9-0.1 0 0 0.1 0.1 0.1 0 1.2 0 0.1-0.1 0 0 0.4-0.1 0 0 0.1-0.1 0 0 0.3-0.3 0-0.1 0 0 0.1-0.1 0-0.1 0 0 0.1 0 0.1-0.2 0 0 0.1-0.7 0 0 0.1-0.1 0-0.3 0 0 0.2-0.1 0-0.1 0 0 0.1-0.1 0 0 0.1-0.2 0 0 0.1-0.1 0 0 0.2-0.1 0 0-0.2-0.2 0 0-0.1-0.1 0-0.1 0 0 0.1-0.1 0 0-0.1-0.2 0-0.6 0 0-0.1-0.1 0 0 0.1-0.1 0 0 0.1-0.2 0 0.1 0.2-0.2 0-0.1 0 0 0.5-0.1 0 0 0.1-0.1 0 0 0.3-0.1 0 0 0.1-0.1 0-0.1 0 0 0.1 0 0.1-0.2 0 0 0.1-0.6 0 0 0.1-0.1 0.1 0 0.1-0.2 0 0 0.1-0.1 0 0 0.1-0.1 0 0 0.2-0.6 0-0.2 0 0 0.1-0.5 0 0 0.1-0.3 0 0 0.3-0.2 0 0 0.1-0.1 0.1 0 0.1-0.1 0-0.1 0 0 0.1-0.1 0 0 0.3 0 0.1-0.1 0 0 0.4-0.1 0 0 0.1-0.1 0 0 0.2 0 0.1-0.1 0 0 0.1-0.2 0 0 0.1-0.1 0.1 0 0.1-0.2 0 0 0.4-0.3 0 0 0.1-0.1 0 0 0.2 0 0.1-0.1 0 0 0.1 0 0.1 0 0.2-0.1 0 0 0.1-0.2 0 0 0.1 0 0.1-0.3 0-0.2-0.1 0 0.2-0.2 0-0.1 0.2 0 0.1-0.1 0 0 0.1-0.1 0 0 0.1-0.1 0-0.1 0 0 0.1 0 0.1-0.1 0 0 0.1-0.1 0-0.3 0 0 0.1-0.2 0 0 0.1-0.1 0 0 0.1 0 0.1-0.3 0 0-0.1-0.2 0 0-0.2-0.2 0 0 0.2-0.3 0-0.1 0 0 0.1-0.3 0-0.1 0 0 0.1-0.8 0-0.5 0 0 0.1-0.1 0.1 0 0.1-0.1 0-0.1 0 0 0.1-0.2 0-0.1 0 0 0.1 0 0.1-1.2 0-0.1 0 0 0.1-0.5 0 0 0.1-0.3 0-0.1 0-0.1 0 0 0.2-0.2 0 0 0.1-0.1 0 0 0.2-0.1 0 0 0.1-0.1 0.1 0 0.1-0.4 0 0 0.1-0.7 0 0 0.2-0.2 0-0.1 0 0 0.1-0.2 0 0 0.1-0.2 0 0 0.2-0.1 0-0.1 0 0 0.1-0.2 0 0 0.3-0.1 0 0 0.3 0 0.1-0.1 0 0 0.1-0.1 0 0 0.4-0.1 0 0 0.1 0.1 0 0 0.3-0.1 0 0 0.2 0 0.2-0.1 0 0 0.1-0.1 0 0 0.2-0.3 0 0 0.1-0.3 0-0.1 0 0 0.1-0.5 0.1 0 0.1-0.2 0-0.1 0-0.1 0.1 0 0.1-0.2 0 0 0.1-0.1 0.1-0.2 0-0.1 0 0 0.1-0.1 0 0-0.1-0.1 0 0-0.1 0-0.1-0.1 0-0.1 0 0-0.1-0.1 0 0 0.1-0.2 0 0 0.2-0.2 0 0 0.1-0.2 0 0 0.3-0.1 0 0 0.3 0 0.1-0.3 0 0 0.1-0.1 0 0 0.3 0.1 0 0 0.5-0.1 0 0 0.3 0 0.2-0.1 0 0 0.1 0 0.1-0.1 0 0 0.1-0.2 0-0.1 0 0 0.1-0.2 0 0-0.1-0.1 0 0.1-0.2-0.3 0.1 0-0.2-0.1 0 0-0.1-0.1 0 0-0.1 0-0.1-0.3 0 0 0.1 0 0.1-0.1 0-0.1 0 0 0.1-0.1 0 0 0.1-0.1 0.1 0 0.1-0.3 0 0 0.1-0.1 0 0 0.2 0 0.1-0.1 0 0 0.2 0 0.2-0.1 0 0 0.1-0.1 0 0 0.2-0.1 0 0 0.1-0.1 0 0 0.1-0.1 0 0 0.3-0.1 0 0 0.2-0.1 0 0 0.2-0.2 0-0.1 0.1-0.2 0 0.1 0.1-0.2 0 0 0.2-0.6 0 0 0.1-0.2 0 0 0.1-0.1 0-0.1 0 0 0.2 0 0.1-0.1 0 0 0.1-0.1 0 0 0.2-0.1 0 0 0.1-0.1 0 0 0.1-0.1 0 0 0.2 0 0.1-0.8 0-0.4 0 0 0.1-0.2 0.1 0 0.1-0.2 0 0 0.1-0.1 0-0.1 0 0 0.1-0.1 0 0 0.1-0.1 0.1 0 0.1-0.2 0 0 0.1-0.1 0 0 0.1 0 0.1-0.1 0 0 0.1-0.1 0 0 0.1-0.1 0 0 0.2-0.1 0 0 0.1-0.1 0 0 0.1-0.1 0 0 0.1-0.1 0.1 0 0.4 0 0.1-0.1 0 0 0.1-0.1 0 0 0.2-0.2 0-0.1 0 0 0.1-0.1 0 0 0.1 0 0.2-0.1 0-0.1 0 0 0.1-0.1 0 0 0.2 0 0.1-0.1 0 0 0.2-0.2 0-0.2 0 0 0.1 0 0.1-0.2 0 0 0.2-0.1 0 0 0.2-0.5 0 0 0.4-0.1 0 0 0.2-0.1 0 0 0.2 0 0.1-0.1 0-0.4 0 0 0.1-0.2 0-0.1 0.3-0.1 0 0 0.1-0.1 0 0 0.1-0.1 0.1 0 0.1-0.1 0 0 0.1-0.4 0 0 0.2-0.1 0 0 0.1 0 0.1-0.1 0 0 0.3 0.1 0 0 0.6-0.1 0 0 0.1 0 0.1-0.1 0 0 0.1 0 0.1-0.1 0-0.1 0 0 0.1 0 0.2-0.1 0.1-0.2 0 0 0.2-0.1 0 0 0.1-0.1 0 0 0.1-0.2 0 0 0.1 0 0.1-0.1 0 0 0.1-0.4 0 0.1 0.1-0.1 0 0 0.1 0 0.1-0.1-0.1 0 0.2-0.2 0 0 0.1-0.1 0.1 0 0.1-0.1 0-0.1 0 0 0.1-0.1 0-0.1 0 0 0.1-0.1 0 0 0.1 0 0.1-0.2 0 0 0.1-0.1 0 0 0.1-0.1 0 0 0.1 0 0.1-0.1 0-0.1 0 0 0.1-0.3 0 0 0.1-0.2 0 0 0.1 0 0.1-0.1 0-0.1 0 0 0.1-0.1 0 0 0.1-0.2 0.1 0 0.1-0.1 0-0.1 0.1 0 0.1-0.3 0 0.1 0.1-0.2 0.1 0 0.1-0.1 0 0 0.1-0.1 0 0 0.2-0.2 0 0 0.2-0.2 0 0 0.1 0 0.1-0.1 0 0 0.1-0.2 0 0 0.1-1 0-0.3 0 0 0.1 0 0.1-0.2 0-0.1 0.4-0.4-0.1 0-0.1-0.2 0 0 0.1-0.2 0.1 0 0.1-0.1 0 0 0.1-0.2 0 0 0.2-0.2-0.1-0.1 0 0 0.2-0.1 0 0 0.1-0.1 0 0 0.3-0.1 0 0 0.1-0.1 0 0 0.1-0.3 0 0 0.4 0.1 0 0 0.3-0.1 0 0 0.1-0.1 0 0 0.3-0.2 0 0 0.4-0.2 0 0 0.2 0 0.1-0.1 0 0.1 0.1-0.5 0 0 0.1-0.1 0 0 0.2-0.1 0-0.1 0 0 0.1-0.3 0 0 0.1-0.2 0-0.1 0 0 0.1-0.1 0.1 0 0.1-0.1 0 0 0.1-0.2 0 0-0.1-0.2 0 0-0.1-0.2 0 0-0.1 0-0.1-0.1 0-0.1 0 0-0.1-0.1 0-0.2 0-0.1 0 0 0.1-0.1 0 0 0.1 0 0.1-0.2 0-0.2 0 0 0.1 0 0.1-0.1 0.1 0 0.1-0.3 0 0-0.2-0.3 0 0-0.1-0.2 0 0 0.1-0.3 0 0 0.2-0.6 0-0.5 0 0 0.1-0.1 0 0 0.1-0.2 0 0 0.2-0.3 0-0.1 0 0 0.1-0.1 0 0 0.1-0.3 0 0 0.2-0.3 0 0 0.1-0.1 0 0 0.1-0.2 0 0 0.2-0.4 0 0 0.1-0.4 0 0 0.1-0.3 0 0 0.2-0.1 0 0-0.2-0.2 0 0 0.2-0.2-0.1 0 0.2-0.1 0 0 0.1-0.2 0 0 0.1 0 0.1-0.2 0 0-0.1 0-0.1-0.3 0 0 0.1 0 0.1-0.6 0-0.6 0 0 0.1-0.1 0 0 0.1-0.2 0.1 0 0.1-0.4-0.1 0 0.2-0.2 0 0 0.1-0.2 0 0-0.1-0.1 0 0 0.1-0.2 0-0.1 0 0 0.2-0.3-0.1 0 0.2-0.4 0 0 0.1-0.3 0-0.1 0.2-0.3 0-0.1 0 0 0.1-0.1 0 0 0.1-0.1 0 0 0.2-0.2 0 0 0.1-0.1 0 0 0.1-0.2 0-0.1 0 0 0.2-0.3 0 0 0.1-0.4 0-0.4 0 0 0.1-0.2 0-0.1 0 0 0.1-0.1 0-0.3 0 0 0.1 0 0.1-0.1 0 0 0.1-0.1 0 0 0.1-0.1 0 0 0.2-0.1 0 0-0.2-0.4 0-0.1 0.2-0.3 0-0.1 0 0 0.1-0.3 0-0.1 0 0 0.1-0.2 0-0.1 0 0 0.1 0 0.1-0.4 0 0 0.1-0.1 0-0.1 0 0 0.1-0.2 0 0 0.2-0.2 0 0 0.1-0.1 0 0 0.3-0.1 0 0 0.1-0.4 0-0.2 0 0 0.1-0.3 0-0.1 0 0 0.2-0.3 0 0 0.1-0.2 0 0 0.1-0.1 0-0.2 0 0 0.1 0 0.1-0.1 0 0 0.1-0.1 0 0 0.1-0.1 0 0 0.4 0 0.2-0.1 0 0 0.1-0.3 0 0 0.1-0.2 0-0.1 0.1 0 0.1 0 0.1-0.2 0 0 0.1-0.2 0-0.1 0 0 0.1 0 0.1-0.2 0 0 0.1-0.2 0 0 0.1-0.1 0 0 0.1 0 0.1-0.1-0.1 0 0.2-0.2 0 0 0.1-0.2 0-0.1 0 0 0.1 0 0.1-0.1 0-0.1 0 0 0.1-0.2 0-0.1 0 0 0.1-0.3 0 0 0.2-0.1-0.1 0 0.2-0.1 0 0 0.1-0.1 0 0 0.1 0 0.1-0.1 0-0.1 0 0 0.1-0.1 0-0.1 0-0.1 0 0 0.1-0.1 0-0.3 0-0.1 0 0 0.1 0 0.1-0.2 0-0.1 0 0 0.1-0.2 0 0 0.1-0.2 0 0 0.1 0 0.1-0.4 0 0 0.1-0.2 0 0 0.1-0.3 0 0 0.2-0.2 0-0.1 0 0 0.1-0.3 0 0 0.1-0.8 0 0-0.1-0.2 0-0.3 0 0 0.1-0.1 0 0 0.2 0 0.2-0.1 0 0 0.1-0.4 0 0 0.3-0.4 0-0.1 0 0 0.1-0.1 0.1 0 0.1-0.2 0 0 0.1-0.3 0 0 0.1-0.3 0 0-0.1-0.1 0 0 0.1-0.1 0 0 0.2-0.4 0-0.1 0 0 0.1-0.1 0 0 0.1-0.1 0 0 0.2-0.2 0-0.1 0 0 0.1-0.1 0 0 0.1-0.1 0 0-0.1-0.4 0 0 0.1-0.2 0 0 0.2-0.5 0-0.1 0 0 0.1-0.2 0 0 0.1-0.3 0 0 0.2-0.1 0 0 0.1-0.2 0 0 0.1-0.5 0-0.1 0 0 0.1 0 0.1-0.3 0-0.1 0 0 0.1-0.8 0 0 0.1-0.7 0-0.1 0 0 0.2-0.2 0 0 0.1-0.2 0-0.1 0 0 0.1-0.2 0-0.1 0 0 0.1 0 0.1-0.2-0.1 0 0.2-0.1 0-0.1 0 0 0.1-0.1 0 0 0.2-0.2-0.1 0 0.2-0.1 0 0 0.1-0.2 0 0 0.2-0.8 0 0 0.1-0.1 0 0 0.1-0.1 0-0.1 0 0 0.1 0 0.1-0.1 0-0.1 0 0 0.1-0.2 0 0 0.1-0.2 0 0 0.2-0.1 0-0.1 0 0 0.1-0.1 0.3-0.1 0 0 0.1-0.1 0 0 0.1-0.8 0 0 0.2-0.3-0.1-0.1 0.2-0.3 0 0 0.1-0.1 0 0 0.1-0.1 0-0.1 0 0 0.1 0 0.1-0.1 0-0.1 0 0 0.1-0.1 0 0 0.1-0.2 0-0.1 0-0.1 0.1 0 0.1-0.3 0-0.1 0 0 0.1-0.3 0 0 0.3-0.5 0-0.1 0.1-0.1 0 0 0.3-0.1 0-0.1 0 0 0.1-0.1 0 0 0.1-0.1 0 0 0.2-0.1 0 0 0.1-0.3 0 0 0.1 0.1 0 0 0.3-0.2 0 0 0.1-0.2 0 0 0.2-0.1 0 0 0.1-0.1 0 0 0.1-0.1 0 0 0.2-0.1 0 0 0.1-0.2 0 0 0.1-0.3 0 0 0.2-0.1 0 0 0.1-0.1 0 0 0.1-0.2 0-0.1 0 0 0.1 0 0.1 0-0.1-0.1 0.2-0.2 0 0 0.1-0.2 0-0.1 0 0 0.1 0 0.1-0.1 0 0 0.2-0.1 0 0 0.1-0.1 0.1 0 0.1-0.2 0 0 0.1-0.5 0-0.3 0 0 0.1 0 0.1-0.2 0 0 0.1-0.1 0 0 0.1-0.2 0 0 0.1-0.1 0.1 0 0.1-0.2 0 0 0.1-0.1 0 0 0.2-0.1 0-0.1 0 0 0.1-0.1 0 0 0.1-0.1 0 0 0.1-0.1 0.1 0 0.2-0.1 0 0 0.3-0.2 0 0 0.1-0.4 0-0.1 0 0 0.1-0.2 0-0.1 0.1 0 0.1-0.2 0 0 0.1-0.3 0 0 0.1-0.5 0 0.1-0.1-0.3 0 0 0.1-0.2 0.1 0 0.1-0.3-0.1 0 0.2-0.3 0 0.1 0.3-0.2 0 0 0.1-0.2 0 0 0.1-0.2 0 0 0.2-0.4 0 0 0.2-0.2 0-0.2 0 0 0.1 0 0.1-0.1 0 0 0.1-0.4 0 0 0.1-0.1 0 0 0.2-0.1 0 0 0.1-0.1 0-0.1 0 0 0.1-0.1 0 0 0.2-0.2 0 0 0.1-0.2 0 0 0.1-0.1 0-0.1 0 0.1 0.1-0.3 0.1 0 0.1-0.1 0 0 0.1-0.2 0 0 0.2-0.1 0-0.1 0 0 0.1-0.1 0 0 0.1-0.1 0 0 0.2-0.4 0 0 0.2 0.1 0-0.4 0 0 0.2-0.2 0 0 0.1-0.2 0 0 0.2 0 0.1-0.1 0 0 0.2-0.1 0 0 0.2-0.5 0 0 0.1-0.1 0 0 0.1-0.1 0 0 0.2 0 0.1-0.1 0 0 0.1-0.1 0 0 0.2-0.1 0 0 0.2-0.2 0 0 0.2-0.1 0 0 0.2-0.2 0 0 0.3-0.1 0 0 0.6-0.2 0 0 0.3 0 0.1-0.1 0 0 0.2-0.2 0 0-0.2-0.2 0 0 0.2 0.1 0 0 0.1-0.8 0 0 0.1-0.1 0 0 0.1-0.1 0.1-0.1 0-0.1 0 0 0.1-0.1 0 0 0.1-0.1 0 0 0.2-0.1 0 0 0.4-0.1 0 0 0.1-0.1 0 0 0.1-0.1 0 0 0.1-0.1 0.1 0 0.2-0.1 0 0 0.1 0 0.1 0 0.1-0.1 0 0 0.1-0.1 0-0.1 0.2-0.2 0 0 0.1-0.1 0 0 0.1-0.2 0 0 0.3-0.1 0 0 0.1-0.1 0 0 0.1 0 0.1-0.1 0-0.1 0 0 0.1-0.1 0 0 0.2-0.3-0.1 0 0.2-0.1 0 0 0.1-0.2 0 0 0.2-0.1 0.1 0 0.2-0.1 0 0 0.3-0.1 0 0 0.2-0.1 0 0 0.2 0 0.1-0.1 0 0 0.1-0.1 0 0 0.1 0 0.1-0.3 0 0 0.1-0.2 0 0.1 0.2-0.2-0.1 0 0.3-0.1 0 0 0.1-0.1 0 0 0.1 0 0.1-0.1 0 0 0.2-0.1 0 0 0.1 0 0.1-0.1 0 0 0.1 0 0.1-0.1 0 0 0.2-0.2 0 0 0.1-0.1 0 0 0.1-0.4 0 0 0.3-0.1 0 0 0.3-0.1 0 0 0.1-0.7 0 0 0.1-0.1 0 0-0.1-0.3 0-0.1 0.1-0.1 0-0.1 0 0 0.1-0.1 0.1 0 0.1-0.1 0 0 0.1-0.1 0-0.2 0 0 0.1 0 0.1-0.1 0 0 0.1-0.1 0 0 0.1-0.1 0 0 0.1 0 0.1-0.1 0-0.1 0 0 0.1-0.1 0 0 0.3 0 0.1-0.1 0-0.1 0 0 0.1-0.1 0 0 0.2-0.1 0 0 0.1-0.1 0 0 0.1-0.1 0 0 0.1 0 0.1-0.6 0-0.1 0 0 0.1-0.1 0 0 0.1-0.1 0 0 0.1 0 0.1-0.1 0 0 0.1-0.1 0 0 0.1 0 0.1-0.1 0 0 0.1 0 0.2-0.1 0 0 0.1-0.1 0 0 0.3-0.2 0 0 0.2-0.1-0.1-0.1 0.1 0 0.1 0 0.1-0.2 0-0.1 0 0 0.1 0 0.7-0.1 0-0.1 0 0 0.1-0.1 0-0.1 0 0 0.1 0 0.1-0.1 0 0 0.1-0.4 0-0.5 0 0 0.1-0.1 0 0 0.3 0 0.3-0.1 0 0 0.1-0.2 0 0 0.3-0.1 0 0 0.1-0.1 0 0 0.1-0.1 0 0 0.2-0.2-0.1 0 0.3 0 0.1-0.1 0.1-0.1 0 0 0.1 0 0.1-0.1 0 0 0.1 0 0.1-0.1 0 0 0.1 0 0.1-0.1 0 0 0.1-0.1 0.1 0 0.2-0.1 0 0 0.1 0 0.1-0.1 0 0 0.1-0.1 0 0 0.2-0.1 0 0 0.2 0 0.1-0.1 0 0 0.4-0.1 0 0 0.3-0.1 0 0 0.1-0.1 0 0-0.1-0.2 0 0 0.2-0.1 0 0 0.2-0.3 0 0 0.1-0.2 0 0 0.1-0.1 0 0 0.2-0.2 0 0 0.1-0.3 0-0.1 0.1-0.2 0-0.1 0 0 0.2-0.3 0-0.1 0 0 0.1-0.3 0 0 0.1-0.2 0-0.1 0 0 0.1 0 0.1-0.1 0 0.1 0.1-0.3 0 0-0.1-0.1 0-0.1 0 0 0.1-0.1 0 0 0.1-0.1 0 0 0.2-0.1 0 0 0.4-0.3 0 0.1 0.3-0.1 0.1 0 1-0.1 0 0 0.9-0.1 0.2-0.1 0 0 0.3 0 0.1-0.1 0 0 0.1-0.1 0 0 0.4 0 0.2 0 0.1 0.2 0 0 0.8 0 0.1 0.1 0 0.1 0.1 0.1 0 0 0.2 0-0.1 0.1 0.2 0.3 0 0 0.1 0.1 0 0.1 0 0 0.1-0.1 0.1 0 0.6-0.3 0 0-0.1-0.2 0 0-0.1-0.1 0 0-0.1 0-0.1-0.1 0-0.1 0 0 0.2-0.3 0 0 0.1-0.1 0 0 0.2-0.1 0.1 0 0.2-0.1 0 0 0.4-0.1 0 0 0.5-0.1-0.1 0 0.1-0.1 0.1 0 0.1 0 0.1-0.1 0 0 0.1 0 0.2-0.1 0 0 0.1-0.1 0-0.1 0 0 0.3 0 0.1-0.1 0 0 0.4-0.1 0 0 0.5 0.1 0 0 0.2-0.1 0 0 0.1-0.1 0 0 0.4 0 0.1-0.1 0 0 0.3 0.1 0 0 0.8-0.1 0 0 0.1 0.1 0 0 0.3 0.1 0 0 0.1 0.1 0 0 0.3 0 0.4 0.1 0 0 0.1-0.1 0 0 0.3 0.1 0 0 0.5-0.1 0 0 0.2 0 0.1-0.1 0 0 0.2-0.2 0 0 0.2-0.1 0 0 0.1-0.1 0 0 0.3-0.1 0 0 0.5-0.2 0 0 0.3 0.1-0.1 0 0.3-0.1 0 0 0.2-0.1 0 0 0.5-0.1 0 0 0.1-0.1 0-0.1 0 0 0.2-0.3 0 0 0.1 0 0.1-0.1 0 0 0.2-0.1 0 0 0.1-0.1 0 0 0.1-0.2 0 0 0.4-0.2 0 0 0.2-0.1 0 0 0.1-0.1 0 0 0.1-0.2 0 0 0.2-0.1 0 0 0.1-0.1 0-0.1 0 0 0.1-0.1 0 0 0.1-0.1 0.1 0 0.2-0.1 0 0 0.1-0.1 0 0 0.2-0.1 0 0 0.1-0.2 0-0.1 0 0 0.1-0.3 0-0.1 0 0 0.2-0.1 0-0.1 0 0 0.3-0.2-0.1 0 0.1 0 0.1-0.1 0 0 0.1-0.2 0 0 0.1-0.4 0 0.1 0.2-0.2 0 0-0.1 0-0.1-0.2 0 0-0.1-0.2 0 0-0.1-0.1 0-0.1 0 0-0.2-1.1 0-0.1 0 0 0.2-0.8 0 0.1-0.2-0.3 0-0.1 0 0 0.2-0.1 0 0-0.2-0.1 0 0 0.2-0.1 0 0 0.1-0.1 0-0.1 0 0 0.1-0.2 0 0 0.2-0.2 0-0.1 0.1-0.1 0-0.1 0 0 0.1-0.1 0 0 0.3-0.2 0 0 0.1-0.1 0 0 0.2-0.2 0 0 0.1-1.6 0 0-0.1-0.1 0-0.4 0 0-0.2-0.1 0 0-0.1-0.2 0 0-0.1-0.9 0 0 0.1-1.9 0 0 0.1-0.1 0 0-0.1-0.1 0 0 0.1-0.4 0-0.1 0-0.1 0 0 0.2-0.6 0 0 0.1-0.1 0 0-0.1-0.2 0 0 0.1-0.1 0-0.1 0 0 0.1-0.4 0-0.1 0 0 0.2-0.3 0 0 0.1-0.3 0 0 0.1-0.6 0 0 0.2-0.2 0 0-0.1-0.4-0.1 0 0.2-0.9-0.1 0 0.2-0.8 0-0.1 0-0.1 0 0 0.1-0.6 0 0 0.2-0.3 0 0 0.1-0.5 0 0 0.1-0.4 0 0 0.2-0.5 0-0.1 0 0 0.1-0.2 0 0 0.1-0.4 0-0.2 0 0 0.1 0 0.1-0.2 0 0-0.1 0-0.1-0.2 0-0.7 0 0-0.1-0.2 0 0 0.1-0.1 0 0-0.1-0.2 0 0-0.3-0.3 0 0.1-0.2-0.1 0 0-0.1 0-0.1-0.6 0 0 0.1 0 0.1-0.1 0 0 0.2 0 0.1-0.1 0.1 0 0.2-0.4 0-0.1-0.1 0-0.4-0.1-0.3 0.3 0 0-0.3-0.1-0.1 0-0.4 0.1 0 0-0.1-0.2 0-0.1-0.1-0.5 0 0-0.1 0-0.1-0.3 0 0-0.1-0.2 0 0-0.1-0.4 0-0.1-0.1 0-0.2-0.1 0 0-0.4-0.3 0 0-0.1-0.2 0 0-0.2-0.2 0 0-0.1-0.2 0 0 0.1-1.1 0 0 0.2-0.5 0-0.2 0 0 0.1-0.1 0 0-0.1-0.1 0 0 0.1-0.1 0-0.1 0 0 0.1-0.2 0 0 0.2-0.2 0 0 0.1-0.2 0-0.2 0 0 0.1-0.1 0 0 0.2-0.3 0-0.1 0 0 0.1-0.2 0 0 0.1-0.1 0.1 0 0.1-0.4 0-0.1 0 0 0.1-0.3 0-0.1 0 0 0.1-0.1 0-0.1 0 0 0.1 0 0.1-0.1 0 0 0.1-0.3 0 0-0.2-0.2 0.1-0.1-0.2-0.3 0 0-0.1-0.2 0 0 0.1-0.5 0 0 0.2-0.2 0 0 0.1-0.5 0 0-0.2-0.1 0.1 0-0.1 0-0.1-0.2 0 0-0.1-0.1 0 0-0.1-0.1 0 0-0.2-0.2 0 0-0.1-0.4 0-0.1 0 0 0.1-0.2 0 0-0.1-0.1 0 0 0.1-0.8 0-0.1 0-0.1 0 0 0.2-0.1 0-0.1 0 0 0.1-0.1 0 0 0.1-0.1 0 0 0.2-0.2-0.1 0 0.2-0.2 0 0 0.1-0.2 0 0 0.2-0.3-0.1 0 0.2-0.2 0 0 0.1-0.5 0 0-0.1-0.3 0 0 0.1-0.2 0-0.1 0 0 0.2 0 0.1-0.1 0 0 0.4 0.1 0 0 0.1 0 0.2-0.1 0 0 0.1-0.2 0 0 0.1-0.1 0-0.1 0 0 0.2-0.2 0 0 0.1-0.1 0 0 0.1-0.1 0 0 0.1 0 0.1-0.1 0 0 0.1-0.2 0 0 0.1-0.1 0 0 0.2 0 0.1-0.4 0 0 0.1-0.7 0 0 0.1-0.2 0-0.1 0 0 0.1 0 0.1-0.1 0 0 0.1-0.1 0-0.1 0 0 0.1-0.7 0-0.1 0-0.1 0 0 0.1 0 0.1-0.1 0 0 0.1-0.1 0 0 0.3-0.1 0 0 0.1-0.1 0 0 0.1-0.1 0.1 0 0.1-0.1-0.1 0 0.4 0 0.1-0.1 0 0 0.1-0.1 0 0 0.1-0.1 0 0 0.1 0 0.1-0.1 0-0.6 0 0 0.2-0.1 0 0 0.1 0 0.2-0.1 0 0 0.1-0.1 0 0 0.2-0.1 0 0 0.1-0.1 0-0.1 0.1 0 0.2 0 0.1-0.1 0 0 0.1-0.3 0 0.1 0.2-0.4-0.1 0 0.2-0.2 0-0.1 0 0 0.1-0.1 0-0.1 0 0 0.1 0 0.1-0.1 0 0 0.3-0.2 0 0 0.2-0.1 0 0 0.1-0.2 0 0.1 0.1-0.1 0-0.1 0 0 0.2-0.1 0 0 0.1-0.3 0 0 0.2-0.1 0.1 0 0.1-0.1 0 0 0.1-0.1 0.1 0 0.1-0.2 0 0 0.1-0.1 0-0.1 0.1 0 0.3 0 0.1-0.1 0-0.1 0 0 0.3-0.2 0 0 0.1-0.2 0 0 0.2 0 0.1-0.1 0 0 0.1 0 0.2-0.1 0 0 0.1-0.1 0 0 0.1-0.1 0 0 0.2-0.1 0 0 0.1 0 0.1-0.1 0 0 0.3-0.1 0 0 0.1-0.1 0 0 0.1-0.1 0.1-0.1 0-0.1 0 0 0.1-0.1 0 0 0.1-0.1 0 0 0.2 0 0.1-0.1 0 0 0.1-0.1 0 0 0.4-0.2 0 0 0.1-0.1 0 0 0.1 0 0.1-0.1 0 0 0.2-0.1 0 0 0.1-0.1 0.1 0 0.4-0.2 0 0 0.1-0.1 0 0 0.3-0.1 0 0 0.2-0.1 0 0 0.2 0 0.2-0.1 0 0 0.2-0.1 0 0 0.1-0.1 0 0 0.2-0.1 0.1 0 0.1 0 0.1-0.1 0 0 0.3-0.1 0 0 0.3 0 0.4 0 0.1-0.1 0-0.1 0.1 0 0.4-0.2 0 0 0.2 0 0.1-0.1 0 0 0.1 0 0.1 0 0.1-0.1 0.1-0.1 0 0 0.1 0 0.1-0.1 0 0 0.9 0 0.1-0.1 0 0 0.1-0.1 0 0 0.1-0.1 0 0 0.4-0.1 0 0 0.2 0 0.1-0.1 0 0 0.1-0.1 0 0 0.4 0 0.2-0.1 0 0 0.1-0.3 0-0.1 0 0 0.1-0.4 0 0 0.2-0.2 0 0 0.1-0.1 0 0 0.1-0.5 0-0.1 0 0 0.2-0.2 0 0 0.1-0.1 0 0 0.1-0.1 0 0 0.2-0.1 0 0 0.1-0.2 0 0 0.1-0.1 0-0.1 0 0 0.1-0.1 0.1 0 0.1-0.2 0 0 0.2-0.1 0 0 0.3-0.2 0 0 0.1-0.1 0-0.1 0 0 0.3-0.1 0 0 0.3-0.1 0 0 0.1 0 0.1-0.1 0.1 0 0.1-0.1 0 0 0.1-0.1 0 0 0.1-0.1 0 0 0.2-0.1 0.1-0.1 0 0 0.2 0 0.1-0.1 0 0 0.3 0 0.1-0.1 0 0 0.1-0.1 0 0 0.3 0 0.1-0.1 0 0 0.6 0 0.3-0.1 0 0 0.5-0.1 0 0 0.1 0 0.1-0.1 0 0 0.1-0.1 0 0 0.1-0.1 0 0 0.6-0.1 0 0 0.2-0.1 0 0 0.1 0 0.1-0.2 0-0.1 0 0 0.1-0.1 0 0 0.2-0.1-0.1 0 0.1 0 0.1-0.1 0 0 0.1-0.1 0 0 0.1 0 0.1 0 0.1-0.1 0 0 0.1-0.1 0 0 0.1 0 0.1 0 0.1-0.1 0 0 0.1-0.1 0 0 0.1-0.1 0 0 0.2-0.1 0 0 0.1-0.1 0 0 0.1-0.1 0.1-0.1 0.1-0.1 0 0 0.1-0.1 0-0.1 0 0 0.1-0.2 0-0.1 0 0 0.2-0.2-0.1 0 0.1 0 0.1-0.2 0 0 0.1-0.5 0-0.1 0 0 0.2-0.1 0 0 0.1-0.1 0 0 0.1-0.1 0 0 0.2 0 0.1-0.1 0 0 0.1 0 0.1-0.1 0 0 0.3-0.1 0 0 0.4-0.1 0 0 0.2-0.1 0.1 0 0.1-0.1 0 0 1.1-0.2 0 0 0.1-0.1 0 0 0.4 0 0.1-0.1 0 0 0.2 0 0.1-0.1 0 0 0.3 0 0.1-0.1 0 0 0.4 0.1 0 0 0.1 0.1 0 0 0.2 0.1 0 0 0.1 0.1 0 0 0.2-0.1 0 0 0.9 0 0.3-0.1 0 0 0.5 0 0.2-0.1 0 0 0.5-0.1 0 0 0.2 0 0.1-0.1 0 0 0.1-0.1 0 0 0.8 0.1 0 0 0.4 0.1 0 0 0.2-0.1 0 0 1.4 0.1 0 0 0.3-0.1 0 0 0.1 0 0.1-0.1 0 0 0.3 0 0.1 0.1 0 0 0.7-0.1 0 0 0.7 0.1 0 0 0.4 0.1 0 0 0.2 0.1 0 0 0.2 0 0.1-0.1 0 0 0.6 0.1 0 0 0.4 0.1 0.1 0 0.1-0.1 0 0 0.6 0.1 0 0 0.8 0.1 0 0 0.3-0.1 0 0 0.1-0.1 0 0 0.6 0.1-0.1 0 0.3 0.1 0 0 0.2 0-0.1-0.1 0.1 0 0.1 0 0.1-0.1 0 0 0.2 0 0.1-0.1 0 0 0.1-0.2 0 0 0.1 0 0.2-0.1 0 0 0.2 0 0.2-0.1 0 0 0.2 0 0.2-0.1-0.1 0 0.1 0 0.1-0.2 0 0 0.1-0.1 0-0.1 0 0 0.2-0.1 0 0 0.1-0.1 0 0 0.3 0 0.1-0.1 0 0 0.8 0 0.3-0.1 0 0 0.4 0 0.1-0.1 0 0 0.1 0 0.2-0.1 0 0 0.3 0.3 0 0 0.3 0.1 0 0 0.4 0.2 0 0 0.4 0.2 0 0 0.1 0 0.2-0.1 0-0.1 0 0 0.1-0.1 0 0 0.5-0.1 0 0 0.2 0 0.1-0.1 0 0 0.6 0 0.1 0 0.1-0.1 0 0 0.4 0.1 0 0 0.4 0.1 0 0 0.2 0.1 0 0 0.9-0.1-0.1 0 0.8 0.1 0 0 0.4 0.1 0 0 1 0.2-0.1 0 0.2 0.1 0-0.1 0.4 0.2 0 0 0.1 0.1 0 0 0.2 0 0.2 0.1 0 0 0.1-0.1 0 0 0.3-0.1 0 0 0.3 0.1 0 0 0.1 0.1 0 0 0.1 0.1 0 0 0.1 0 0.1 0.1 0 0 0.1 0.1 0 0 0.1 0 0.3 0.1 0 0 0.4 0.1 0 0 0.4 0.1 0 0 0.4 0.1 0 0 0.4 0.1 0 0.1 0.3 0.1-0.1 0 0.3 0.1 0 0 0.3 0.1 0 0 0.1 0.1 0 0 0.3 0.1 0 0 0.2 0 0.4 0.1 0 0 0.1 0 0.1 0.1 0 0 0.1 0.2 0 0 0.1 0.1 0 0 0.2 0.1 0 0 0.2 0.1 0 0 0.3 0.2 0 0 0.1 0.1 0 0 0.1 0 0.2 0.1 0 0 0.4 0.1 0 0 0.7 0.1-0.1 0 0.3 0.1 0 0 0.4 0.1 0 0 0.1 0.2 0 0.3 0 0 0.1 0 0.2 0.2 0 0 0.1-0.2 0 0 0.2 0 0.1-0.2 0 0 0.1-0.1 0 0 0.2-0.2 0 0 0.3 0 0.1-0.1 0 0 0.4 0 0.2-0.1 0 0 0.5 0 0.1-0.1 0 0 0.6 0.1 0 0 0.7 0.1 0 0 0.5 0.1 0 0 0.4 0.1 0 0 0.3 0.1 0 0 0.1 0.1 0 0 0.3 0.1 0 0 0.1 0.1 0 0 0.1 0 0.2 0.1 0 0.1 0.2 0.1 0 0 0.3 0.1 0 0 0.3 0.1-0.1 0 0.1 0 0.1 0.2 0 0 0.1 0.1 0 0 0.2 0.2 0 0 0.1 0.2 0 0 0.1 0.1 0 0 0.2 0.3 0 0 0.1 0.2 0 0 0.1 0.1 0 0 0.1 0.7 0 0-0.1 0.7 0 0-0.1 0.1 0 0 0.2 0.1 0 0 0.2 0.1 0 0 0.1 0.1 0 0 0.3 0.1 0 0 0.1 0.1 0 0 0.1 0.1 0 0 0.2 0 0.1 0.3 0 0 0.3 0.1 0 0 0.2 0.1 0 0 0.3 0.1 0 0 0.3 0.1 0 0 0.2 0.1 0.1 0 0.2 0.1 0 0 0.3 0.1-0.1 0 0.3 0.1 0 0 0.3 0.1 0 0 0.3 0.1 0 0 0.2 0.2 0 0 0.1 0.1 0.1 0 0.1 0.1 0 0 0.1 0.1 0-0.1 0.2 0-0.1 0 0.2 0.3 0 0 0.1 0.1 0 0 0.1 0 0.2 0.1 0 0 0.1 0.1 0 0 0.1 0.1 0 0 0.1 0 0.1 0.1 0 0 0.1 0.1 0 0 0.1 0.1 0.1 0 0.1 0.1 0 0.1 0.2 0.1 0 0 0.2 0.1 0 0 0.1 0.1 0 0 0.3 0.1-0.1 0 0.2 0.1 0 0 0.3 0 0.2 0.1 0 0 0.1 0 0.2 0.1 0 0 0.4 0.1 0 0 0.1 0 0.1 0.1 0 0 0.1 0 0.1-0.1 0 0 0.2 0.1 0 0.1 0 0 0.1 0 0.1 0.1 0 0 0.1 0.2 0 0 0.1 0.1 0 0 0.3 0.1 0 0 0.1 0.1 0 0 0.2 0.1 0 0 0.1 0.1 0 0 0.1 0.1 0 0 0.2 0.1 0 0 0.1 0.1 0 0 0.1 0.2 0 0 0.2 0.1 0 0 0.1 0.2 0 0 0.3 0.1-0.1 0 0.2 0.1 0 0 0.3 0.1-0.1 0 0.2 0.1 0 0 0.1 0.1 0 0 0.3 0.2 0 0 0.2 0.1 0.1 0 0.1 1.1 0 0 0.1 0.3 0 0 0.1 0.1 0 0 0.1 0 0.1 0.1 0 0 0.1 0.1 0 0 0.1 0.2 0 0.2 0 0 0.2 0 0.1 0.1 0 0 0.3 0.1 0 0 0.1 0.1 0 0 0.3 0.1 0 0 0.1 0.1 0 0 0.3 0.1 0 0 0.1 0.1 0 0 0.1 0.1 0 0 0.3 0.1 0 0 0.4 0.2 0 0 0.3 0.1-0.1 0 0.2 0.1 0 0.1 0 0 0.1 0.2 0 0.1 0 0 0.1 0.1 0 0 0.2 0 0.2 0.1 0 0 0.2 0.1-0.1 0 0.2 0.3 0 0 0.1 0.5 0 0 0.2 0.3 0 0.1 0 0 0.1 0.1 0 0 0.1 0.1 0 0 0.1 0 0.1 0.2 0 0 0.1 0.2 0 0.1 0.4 0.1 0 0 0.1 0.3 0 0-0.1 0.1 0 0-0.3 0.1 0 0-0.1 0.1 0 0-0.1 0.1 0 0-0.2-0.1 0 0-0.1-0.1 0 0-0.1-0.1 0 0-0.2-0.1 0 0-0.1-0.8 0 0-0.1-0.1 0 0-0.1 0-0.1-0.1 0 0-0.2 0-0.1 0-0.2 0.1 0 0.1-0.2 0.1 0 0.1-0.2 0.3 0 0-0.1 0.4 0 0 0.1 0.2 0 0 0.3 0.1 0 0 0.1 0.2 0-0.1 0.3 0.1 0 0 0.2 0.1 0 0 0.1 0 0.2 0.2 0 0 0.1 0.1 0 0 0.1 0 0.2-0.1 0 0 0.1-0.1 0-0.1 0 0 0.2-0.1 0 0 0.5 0 0.1 0.3 0 0.2 0 0 0.1 0 0.1 0.3 0 0 0.1 0.2 0 0 0.1 0.2 0 0 0.2 0.1 0 0 0.2 0.1 0 0 0.2 0 0.2-0.1 0 0 0.2-0.1 0 0 0.2-0.1 0 0 0.3-0.1 0 0 0.4 0 0.5 0.1 0 0 1.1 0.1 0 0 0.2 0.1 0 0 0.3 0.1 0 0 0.3 0.1-0.1 0 0.1 0.1 0.2 0.1 0 0 0.3 0.1 0 0 0.4 0.1 0 0 0.2 0.1 0 0 0.3 0.1 0 0 0.3 0.1-0.1 0 0.3 0.1 0 0 0.3 0.1 0 0 0.3 0.1-0.1 0 0.2 0.1 0 0 0.1 0 0.2 0.1 0 0 0.1 0.1 0 0.1 0.1 0.1 0 0 0.2 0.1 0 0 0.1 0.1 0 0 0.3 0.1 0 0 0.1 0.1 0 0 0.1 0.1 0 0 0.2 0.1-0.1 0 0.2 0.1 0 0 0.2 0.1 0 0 0.1 0 0.1 0.1 0 0 0.1 0.1 0 0 0.1 0.1 0 0.1 0.2 0.1 0.2 0.1 0 0 0.2 0.1 0 0 0.1 0.1 0 0 0.1 0.1 0 0 0.2 0.1-0.1 0 0.3 0.1 0 0 0.2 0.1 0 0 0.1 0.1 0 0 0.1 0.1 0 0 0.1 0 0.2 0.1 0 0 0.1 0.1 0 0 0.2 0.1 0 0.1 0.1 0.1 0.2 0 0.1 0.1 0 0 0.1 0.1 0 0 0.1 0.1 0 0 0.1 0.1 0 0 0.1 0 0.1 0 0.1 0.1 0 0 0.1 0.1 0 0 0.1 0 0.1 0.1 0 0 0.1 0.1 0 0 0.1 0 0.2 0.1 0 0 0.1 0.1 0 0 0.1 0.2 0 0 0.2 0.1 0 0 0.1 0.1 0 0 0.1 0.1 0 0 0.1 0 0.1 0.1 0 0 0.2 0.1 0 0 0.2 0.1 0 0 0.1 0.1 0 0 0.1 0.1 0 0 0.2 0.1 0 0 0.1 0.1 0 0 0.1 0.1 0 0 0.2 0.1 0 0 0.1 0.1 0 0.1 0 0 0.1 0 0.2 0.1 0 0 0.1 0.1 0 0 0.1 0.1 0 0 0.1 0.1 0 0 0.2 0.1 0 0 0.1 0.1 0 0 0.1 0.1 0 0 0.2 0.1 0 0 0.1 0.1 0 0 0.3 0.2 0-0.1 0.1 0.2 0-0.1 0.1 0.2 0 0 0.2 0.1 0 0 0.1 0.1 0 0 0.1 0.1 0 0 0.2 0.1 0 0 0.1 0.1 0 0 0.1 0.1 0 0 0.1 0 0.2 0.1 0 0 0.1 0.1 0 0 0.2 0.1-0.1 0 0.1 0 0.1 0.1 0 0 0.1 0.1 0 0 0.2 0.1 0 0.1 0 0 0.1 0.1 0 0 0.1 0.1 0 0 0.2 0.1 0 0 0.1 0.1 0 0 0.2 0.1 0.1 0 0.1 0.1 0 0 0.1 0.1 0 0 0.1 0.1 0.1 0 0.1 0.1 0 0 0.1 0.1 0 0 0.1 0.1 0 0 0.2 0.1 0 0 0.1 0.2 0 0 0.3 0.1 0 0 0.1 0.1 0 0 0.3 0.2 0 0 0.1 0.1 0 0 0.1 0.1 0 0 0.2 0.1 0 0 0.1 0.1 0 0 0.1 0.1 0 0 0.3 0.1 0 0 0.1 0.1 0 0 0.2 0.2 0 0 0.1 0.1 0 0 0.1 0.1 0 0 0.2 0.2 0 0 0.1 0.1 0 0 0.1 0.5 0 0 0.3 0.2 0-0.1 0.1 0.4 0 0.1 0 0 0.1 0.4 0 0-0.2 0.5 0 0-0.2 0.1 0 0.5 0 0 0.3 0.1 0 0 0.1 0.1 0.1 0 0.1 0.3 0 0.2 0 0 1.2 0.2 0-0.1-0.3 0.2 0 0-0.1 0.2 0 0 0.1 0.3 0 0 0.1 0.1 0 0 0.2 0.1 0 0 0.1 0.2 0-0.1 0.3 0.1 0 0 0.8 0.1-0.1 0 0.2 0.2 0 0 0.1 0.1 0.2-0.4 0.3-2.1 1.4-3.2-0.8 7.5 1.8 1.3-2 3.7 3.2 5.5 4.7 5.8 6.7 4.4 13 4.4 8.4 5.3 7.7 4.7 3.2-5.5 0.4-10-1.1-9.7-2.8-4.3-4.8-4.6-2.4-21.1 2.7-18.4 5.6-4 2.4-1.4 1.5-7.5-7.2-1.5-1.9-0.6-1.6-0.7-3.9-0.8-2.4-0.5-1.1-0.2-0.1-2.1-0.2-5.9 0.2-2.6 0.5-3.6-0.9z m302.8-338.5l0 0.1-0.1 0 0 0.1-0.1 0 0 0.2 0 0.1-0.1 0 0 0.1-0.1 0 0 0.1-0.1 0 0 0.4-0.2 0 0 0.2-0.1 0 0 0.1-0.1 0 0 0.1-0.1 0 0 0.3-0.1 0-0.1 0 0 0.1-0.1 0 0 0.2-0.1 0 0.1 0.3 0 0.1-0.2 0 0 0.3 0 0.1-0.1 0-0.1 0 0 0.1-0.1 0 0 0.1-0.1 0 0 0.2-0.2 0 0 0.1-0.3 0 0.1 0.1-0.2 0 0 0.1-0.1 0.1-0.2 0 0 0.1-0.1 0 0 0.1-0.1 0 0 0.3-0.1 0 0 0.2-0.1-0.1 0 0.2-0.2 0 0-0.7 0.1 0 0-0.3 0.1 0 0-0.2 0.2 0 0-0.1 0-0.1 0.1 0 0-0.1 0.1 0 0-0.1 0.1 0 0-0.1 0-0.1 0.1 0 0-0.1 0.1 0 0.1 0 0-0.1 0-0.2 0.1 0 0-0.4 0.1 0 0-0.1 0-0.1 0.2 0 0-0.1 0-0.1 0.1 0 0-0.1 0.3 0 0-0.1 0.2 0 0-0.2 0.1 0 0-0.9 0.1 0 0-0.1 0.1 0 0.1-0.2 0.2 0.1 0-0.2 0.1 0 0-0.1 0.1 0 0-0.1 0-0.1 0.3 0.1 0-0.2 0.1 0 0-0.1 0.2 0 0 0.1 0.1 0 0 0.5-0.1 0 0 0.1z" id="CY04" name="Ammochostos">
  </path>
  <path d="M591.3 344.8l0.5 3.2 1.4 1.5 2.2 2.2 6.7 3.4 1.2 3.3-3.4 3 1.2 2.9 6.2 2.6-1.6 5.6-3.3-1.1-0.6 7.1-8.2 3.1-10.2 10.3-2.9 6-2.7 7.8-1.9 8.5-0.7 8.5 0.8 9-1 4-3.7 1.6-2.4 1.8-2.7 8.4-1.7 2.7-6 1.8-12.9 0.1-5 1.3-3.4 3.6-4 5.4-4.7 5-5.3 2.2-12.4 3.1-11.3 5.5-9.1 2-5.8-7.1-0.4 13.3-11 6.9-29 6-5.8 2.7-3.5 2.4-0.2-1-2.2-10.9 0-1.9 2.3-15.5 0-1.8-0.7-1.9-2.7-5.4-4.1-6.3-11.8-13.7-1.9-1.7-2.9-1.7-18.6-6.7-1-0.2-4.4 0.2-1.6-0.4-3.1-1.3-2.5-2.6 0.2-8.9 1.4-3.7 0.6-1.1 1-1.3 1.3-1.1 7.3-4.7 3.3-1.6 4.5-1.1 2.5-0.1 1.9 0.5 1.3 1 1.8 2.4 1.4 0.9 1.6 0.5 1.9 0.2 1.7-0.2 7.9-2.6 1.5 0.6 1.1 0.9 2.2 1.2 0.8 0.5 0.4 1.1 0 1.2 0.4 1.2 1.3 0.5 2.8-1.3 4.1-3.1 7.9-7.9 9.7-7.9 3.5-0.6 1.8 0.6 1.4 1 2 2.2 2 0.3 2.6-0.5 4.7-1.9 2.8-0.3 7.3 1.4 1.6 0.1 1.5-1.1 1.8-2.2 2.8-6 0.8-3.2 0.1-2.5-0.2-1.5 0.3-1 0.7-0.6 1.9-0.1 1.5 0.5 1 0.6 3.4 2.8 1.6 0.7 1.8 0.2 2.1-0.6 6-3.6 2.3-0.7 1.6 0.4 1.3 0.8 1.7 0.7 1.7 0.2 1.8-0.4 1.4-1.1 3.8-10.4 0.6-2.3 0.6-1.3 0.9-1.2 3.6-1.5 0-0.4-0.4-0.8-1.1-2-1.4-1.2-1.1-1.3-0.8-1.4-1.3-5-0.8-2.5 2-4-0.2-2.3-2.9 0.1-2.8-2-0.7-0.7 1.1-3.4 2-1.8 0.5-0.4 2.7 0 0.9 0.2 2.7 0.6 1 0.3 1.3 0.5 1.6-0.3 3.2 1 0.2-0.1 0.6-4.8 1.5-3 2.5 0 2.2 2 1.4-2.7 3.1 0 2.4-1.9 1.2-1.9 1.9-0.4 4-0.3 3.3-1.2 1.6 0 3.6-3.3 5.6-5.3 0.6-0.8 2.9 1.9 1.7 1.6 2.5 3.1 1.4 3.2 0.8 3.9 1 7.7 0.5 2.4 1 2.8 2.4 5.8 4.5-2.7z m60.3 20.3l3.6 0.9 2.6-0.5 5.9-0.2 2.1 0.2 0.2 0.1 0.5 1.1 0.8 2.4 0.7 3.9 0.6 1.6 1.5 1.9 7.5 7.2-1.7 1.8-10.7-2.3-7.2 1.6-3-1.9 4.8-4.4 3.3-0.8 0-8.2-7.2-0.7-4.3-3.7z m-18.9 11.8l-0.3-1.4-1.8-0.4-1.8 0-0.6-1.8-1.5-0.8-2.4-1.5 0.9-0.7 1.8 0 3 0.7 1.6 1.9 1.8 0 1.5 0 1.8 1.1 1.3 2.2-0.6 0-1.9 0.4-1.2 0.3-1.2 0-0.4 0z m-14.8-11.8l-1.2-0.7-0.4-1.3 0.6-2.3 0.4-1.7 1.9-0.7 2.3 0.4 0 4.8-2.1 0.7-1.5 0.8z" id="CY03" name="Larnaca">
  </path>
  <path d="M379.7 422.7l-0.2 8.9 2.5 2.6 3.1 1.3 1.6 0.4 4.4-0.2 1 0.2 18.6 6.7 2.9 1.7 1.9 1.7 11.8 13.7 4.1 6.3 2.7 5.4 0.7 1.9 0 1.8-2.3 15.5 0 1.9 2.2 10.9 0.2 1-4.8 3.3-5.7 1-28-3.2-27.9 3.2-6 1.6-5.5 3.9-18.1 16.7-4 8-9.7 0-8.2 1.1-2.7 3.4-2.7-1.9-0.6-6.6 4.5-4.1 1.8 2.6 7.6 0-0.9-12.9-12.8-1.9-4.8 4.8-2.4 4.5-2.5-2.3-4.9-2.2-1.3 3.3-11.4-3-7.3-5.7-2.1-4.3-0.3-6.1-2.3 0.5-3 0-2 0-2-0.1-1.3-0.6-1.9 2.1-1.9 2.5-1.3 1.7-5.1 0.9-2.9 7-7.8-1-4.6-1.4-2.6 3.3 0.2 7.5-4.4 1.6-16.3 2.1-16.2-3.2-9.4-4.1 0.3-10-0.3-1.8-0.5-1.5-0.9-1.3-0.2-1.2 0.4-1.1 2.7-1.7 2.3-1.9 2.9-3.6 6.7-4.6 1.7-1.6 2.7-2.1 3.2-3.3 4-2.4 1.2-2 0.8-2.9 0.3-5.9-0.9-2.6-1.2-1.8-1.2-0.9-0.8-1 0.2-2.2 1.2-3.1 6.5-9.4 1.8-2 1.4-0.8 1.7-0.4 1.4-0.6 1.9-2.3 5.5-12.2 2.2-3.4 2.2-2 1.7-0.7 1.7-1.3 1.8-2.4 0.8-1.9-0.2-2.1-4.4-6.1-1.7-6.4 0.1-6.5 0.2-1.9 0.5-1.8 1.2-3.2 0.3-1.8-0.1-1.6 0.2-1.5 0.7-1.2 1.5-0.5 1.7-0.3 1.7-0.5 1.2-1 1.6-2.7 1.7-0.6 2.2 0.5 5.8 3.9 2.1 1 2.1 0.5 3.4-0.3 2.5 0.1 2.6 0.3 2.5 0.9 4.9 3.2 2.4 0.7 2.6 0.2 8.4-0.2 3.4-0.6 3.2-1.4 13.6-9.6 2.9-1.4 1.7-0.3 2.4 0.6 2.7 1.6 3.6 4.4 1.6 2.7 0.9 2.2 0.4 1.3 0.4 0.8 0.8 0.8 14.2 10.4 3.1 3.1 1.9 2.5 0.5 1.7 1.2 1.3 2.1 0.5 4.2-0.9 2.4-0.9 3.3-0.2 2.4 0.2 14.5 6.3z" id="CY02" name="Limassol">
  </path>
  <path d="M238.3 411.9l1.7 6.4 4.4 6.1 0.2 2.1-0.8 1.9-1.8 2.4-1.7 1.3-1.7 0.7-2.2 2-2.2 3.4-5.5 12.2-1.9 2.3-1.4 0.6-1.7 0.4-1.4 0.8-1.8 2-6.5 9.4-1.2 3.1-0.2 2.2 0.8 1 1.2 0.9 1.2 1.8 0.9 2.6-0.3 5.9-0.8 2.9-1.2 2-4 2.4-3.2 3.3-2.7 2.1-1.7 1.6-6.7 4.6-2.9 3.6-2.3 1.9-2.7 1.7-0.4 1.1 0.2 1.2 0.9 1.3 0.5 1.5 0.3 1.8-0.3 10-6-2.7-19.9-12.4-7.2-3.1-8.1-2-16.5-1.7-6.8-2.9-6.6-4.1-15.5-12.3-2.2-2.6-2.5-13.7-1.6-2.2-0.2-4.5-9-24.9-4.4-3.8-8.3-5.5-3.5-3.7-3.2-4.7-2.3-5.7-0.3-6.2 3.4-6.1-7.5-12.3-0.7-5 0-10.4-1.7-8.9-8.5-14.7-3.1-7.4-1.7-11.9 1.3-8.6 4.4-2.9 7.9 5.5 11.6 12.7 6.5 5.2 7.4 3 16.1-0.7 14.1-7.5 11.6-11.5 8.6-12.5 5.8-14.7 4.2-8 6.2-4.5 0.8-2.3 1-2.2 2.3-1 1.9 0.5 3 2-0.5 1.8 10.6 11.7 1.9 1.5 2.4 2.4 0.8 1.7 0.6 3.3 1.3 2.3 3.1 2.5 2 1.3 1.6 1.5 0.8 1.8-0.2 15.2-0.5 1.6-1.2 0.9-1.7 0.3-1.7 0-1.6 0.4-1 1-0.6 1.4 0.6 2.4 1.2 2.9 3.2 5.5 2.3 3 5.9 3.7 2.2 1.9 8.1 14.2 1.1 2.6 0.7 2.1-0.1 4.2 0.2 1.7 0.8 3.4 0.1 1.9-0.1 2-0.3 2-0.7 1.6-1.4 2.7-0.2 1.2-0.1 2.8-0.3 1.2-0.8 0.4-2.4-0.2-0.6 0.7-0.2 0.7 0.2 1.5 1.3 4.8 0.9 1.7 1.2 1.6 2 2.3 4.3 3.5 1.1 1.1 1.1 0.7 1 0.2 0.6-1.5-0.1-1.4 0.3-1.2 1-0.5 2.3 1 0.3 0.9-0.3 1.1 0 0.9 1.5 0.2 2.7-0.6 4.4-2.6 1.9-2 1.4-2 0.7-1.5 1.9-0.6 1.7-0.2 9.4 3.8z" id="CY05" name="Paphos">
  </path>
  <path d="M536.5 230.7l3.4 3.5 1.8 2.6 0.8 2 0.8 3.7 0.9 2.8 0.9 1.7 4 5.1 1.1 2.9-0.2 2.3-0.6 1.3-2 3-0.6 1.6-0.1 1.7 0.9 3.8 3.3 8.7 0.4 2.9-0.2 1.9-0.5 1.8-1.6 3.1-4.8 6-1 1.6-0.7 2.2-0.1 1.1 0.5 1.9 1.4 2.2 2.2 1.5 3.6 1.4 7.7 2.1 3.5 1.4 10.6 6.2 0.7 0.4-0.6 0.8-5.6 5.3-3.6 3.3-1.6 0-3.3 1.2-4 0.3-1.9 0.4-1.2 1.9-2.4 1.9-3.1 0-1.4 2.7-2.2-2-2.5 0-1.5 3-0.6 4.8-0.2 0.1-3.2-1-1.6 0.3-1.3-0.5-1-0.3-2.7-0.6-0.9-0.2-2.7 0-0.5 0.4-2 1.8-1.1 3.4 0.7 0.7 2.8 2 2.9-0.1 0.2 2.3-2 4 0.8 2.5 1.3 5 0.8 1.4 1.1 1.3 1.4 1.2 1.1 2 0.4 0.8 0 0.4-3.6 1.5-0.9 1.2-0.6 1.3-0.6 2.3-3.8 10.4-1.4 1.1-1.8 0.4-1.7-0.2-1.7-0.7-1.3-0.8-1.6-0.4-2.3 0.7-6 3.6-2.1 0.6-1.8-0.2-1.6-0.7-3.4-2.8-1-0.6-1.5-0.5-1.9 0.1-0.7 0.6-0.3 1 0.2 1.5-0.1 2.5-0.8 3.2-2.8 6-1.8 2.2-1.5 1.1-1.6-0.1-7.3-1.4-2.8 0.3-4.7 1.9-2.6 0.5-2-0.3-2-2.2-1.4-1-1.8-0.6-3.5 0.6-9.7 7.9-7.9 7.9-4.1 3.1-2.8 1.3-1.3-0.5-0.4-1.2 0-1.2-0.4-1.1-0.8-0.5-2.2-1.2-1.1-0.9-1.5-0.6-7.9 2.6-1.7 0.2-1.9-0.2-1.6-0.5-1.4-0.9-1.8-2.4-1.3-1-1.9-0.5-2.5 0.1-4.5 1.1-3.3 1.6-7.3 4.7-1.3 1.1-1 1.3-0.6 1.1-1.4 3.7-14.5-6.3-2.4-0.2-3.3 0.2-2.4 0.9-4.2 0.9-2.1-0.5-1.2-1.3-0.5-1.7-1.9-2.5-3.1-3.1-14.2-10.4-0.8-0.8-0.4-0.8-0.4-1.3-0.9-2.2-1.6-2.7-3.6-4.4-2.7-1.6-2.4-0.6-1.7 0.3-2.9 1.4-13.6 9.6-3.2 1.4-3.4 0.6-8.4 0.2-2.6-0.2-2.4-0.7-4.9-3.2-2.5-0.9-2.6-0.3-2.5-0.1-3.4 0.3-2.1-0.5-2.1-1-5.8-3.9-2.2-0.5-1.7 0.6-1.6 2.7-1.2 1-1.7 0.5-1.7 0.3-1.5 0.5-0.7 1.2-0.2 1.5 0.1 1.6-0.3 1.8-1.2 3.2-0.5 1.8-0.2 1.9-0.1 6.5-9.4-3.8-1.7 0.2-1.9 0.6-0.7 1.5-1.4 2-1.9 2-4.4 2.6-2.7 0.6-1.5-0.2 0-0.9 0.3-1.1-0.3-0.9-2.3-1-1 0.5-0.3 1.2 0.1 1.4-0.6 1.5-1-0.2-1.1-0.7-1.1-1.1-4.3-3.5-2-2.3-1.2-1.6-0.9-1.7-1.3-4.8-0.2-1.5 0.2-0.7 0.6-0.7 2.4 0.2 0.8-0.4 0.3-1.2 0.1-2.8 0.2-1.2 1.4-2.7 0.7-1.6 0.3-2 0.1-2-0.1-1.9-0.8-3.4-0.2-1.7 0.1-4.2-0.7-2.1-1.1-2.6-8.1-14.2-2.2-1.9-5.9-3.7-2.3-3-3.2-5.5-1.2-2.9-0.6-2.4 0.6-1.4 1-1 1.6-0.4 1.7 0 1.7-0.3 1.2-0.9 0.5-1.6 0.2-15.2-0.8-1.8-1.6-1.5-2-1.3-3.1-2.5-1.3-2.3-0.6-3.3-0.8-1.7-2.4-2.4-1.9-1.5-10.6-11.7 0.5-1.8 0.6 0.4 2.6 0.6 3.9-0.9 6.6-2.9 0.4 2 3.5 3.9-3.5-3.9-0.3-1.8 0.3 0 0-0.2 0.2 0.1 0-0.2 0.1 0 0.2 0 0-0.3 0-0.2 0.1 0 0-0.1 0.1 0 0-0.2 0.1 0 0-0.1 0.1 0 0-0.1 0.4 0 0.5 0 0 0.1 0.1 0 0 0.1 0.4 0 0 0.3 0.1 0 0.2 0 0-0.1 0.1 0 0.1 0 0-0.2 0.2 0-0.1-0.1 0.2 0 0.1 0 0-0.1 0.1 0 0.2 0 0-0.2 0.2 0 0-0.1 0.1 0 0-0.2 0-0.2 0-0.3 0.1 0 0-0.7 0.5 0 0-0.2 0.1 0 0-0.1 0-0.1 0.1 0 0-0.3-0.2 0 0-0.1 0-0.3 0.1 0 0-0.1 0.1 0 0-0.4 0.6 0 0-0.3 0.1 0 0-0.3 0.2 0 0-0.1 0.1 0 0-0.1 0.1 0 0.1-0.1 0-0.1 0.1 0 0-0.1 0.2 0 0-0.1 0.1 0 0-0.1 0-0.1 0.1 0 0-0.1 0.2 0 0-0.1 0-0.3 0.1 0 0.7 0 0-0.3 0.1 0 0-0.1 0.1 0 0-0.1 0.1 0 0-0.3 0.2 0 0-0.1 1 0 0 0.1 0.1 0 0 0.2 0.1-0.1 0 0.2 0.2 0 0 0.1 0.1 0 0 0.1 0.2 0 0 0.2 0.2 0-0.1 0.2 0.1 0 0 0.2 0 0.1-0.1 0 0 0.3 0.2 0 0 0.1 0.1 0.1 0.1 0 0 0.2 0.2 0 0 0.1 1.5 0-0.1 1.5 3.1-0.4-0.2 0.7 0.2-0.7 3.8-0.5 3.7 0.5 12.3 1.6 7.7 1 0.1 0 4.2 0.5 0.2 0 0.1 0 0-0.1 0.1 0 0.4 0 0 0.2 0 0.1 0.5 0 0.2 0 0 0.4 0.6 0 0 0.1 0.3 0 0 0.1 0.3 0 0-0.1 0.7 0 0 0.1 0.4 0 0-0.1 0-0.1 0.2 0 0-0.1 0-0.1 0.1 0 0-0.2 0.2 0 0-0.1 0-0.1 0.6 0 1.3 0 0 0.2 0.1 0 0 0.1 0.1 0 0 0.1 0.1 0 0 0.2 0.1 0 0 0.1 0.3 0 0 0.1 0.2 0.1 0 0.1 0.2 0 0.1 0.1 0.1 0 0 0.1 0.2 0 0 0.4 0.1 0 0 1-0.1 0.1 0 0.1 0.1 0 0 0.1 0.7 0-0.1 0.2 0.4 0 0 0.1 0.2 0 0 0.1 0.3 0 0 0.2 0.3 0 0 0.1 0.6 0 0 0.1 0.3 0 0 0.2 0.3 0 0 0.1 0.2 0-0.1 0.1 0.4 0 0.4 0 0 0.1 0 0.1 0.4 0 0 0.1 0.3 0 0 0.1 0.2 0.1 0.1 0.1 0.3 0 0 0.1 0.5 0 0 0.1 0.6 0 0 0.2 0.1-0.1 0 0.2 0.1 0 0 0.1 0.1 0 0 0.2 0.1 0 0 0.1 0.1 0 0 0.1 0.1 0 0 0.2 0.1 0 0 0.1 0.1 0 0 0.1 0.2 0 0 0.1 0.1 0 0 0.2 0.3 0 0-0.2 0.2 0.1 0 0.1 0.4 0 0 0.1 0.3 0 0 0.1 0.2 0 0.1 0 0 0.2 0.2-0.1 0 0.2 0.4 0 0 0.1 0.2 0 0-0.1 0.3 0 0 0.1 0.2 0 0 0.3 0.1 0 0 0.1 1.3 0 0.1 0 0 0.2 0.2 0 0-0.2 0.2 0 0 0.1 0 0.1 0.1 0 0 0.1 0.4 0 0 0.1 0.1 0 0 0.3 0.3 0 0 0.1 0.4 0 0.2 0 0 0.1 0 0.1 0.4 0 0.1 0-0.1 0.1 0.6 0 0 0.1 1.2 0 0.2 0.1 0 0.1 0.2-0.1 0 0.3 0.1 0 0 0.2 0.4 0 0 0.1 0.1 0 0.1 0.1 0.1 0 0 0.3 0 0.1 0.1 0 0 0.2 0.1 0 0 0.1 0.2 0 0 0.1 0.1 0 0 0.1 0.1 0.1 0 0.1 0.2 0 0 0.1 0.1 0 0 0.1 0 0.1 0.3 0 0 0.1 0.2 0 0 0.1 0.1 0 0 0.1 0.1 0 0 0.4 0.1 0 0 0.3 0.1 0 0 0.1 0.1 0 0 0.2 0.2 0 0 0.2 0.1 0.1 0 0.1 0.3 0-0.1 0.1 0.5 0 0 0.4 0.1 0 0 0.4 0.1 0 0.1 0 0-0.1 0.2 0 0 0.1 0.1 0 0 0.1 0.3 0-0.1 0.2 0.4 0 0.2 0 0 0.1 0.2 0 0 0.1 0.4 0 0 0.3 0.2 0-0.1 0.1 0.1 0 0 0.1 0.1 0 0.1 0 0 0.2 0.3 0 0 0.3 0.4-0.1 0 0.2 0.6 0 0.2 0 0 0.1 0.9 0 0.4 0 0 0.1 0.5 0 0.3 0 0 0.1 0 0.1 0.1 0 0 0.1 0.4 0 0-0.1 0.2 0 0.2 0 0 0.1 0.1 0 0 0.1 0.1 0 0 0.3 0.7 0 0 0.1 0.2 0 0-0.1 0.2 0 0-0.1 0.1 0 0-0.1 0-0.2 0.1 0 0-0.4 0.1 0 0-0.1 0-0.4 0.1 0 0-0.4 0.2 0 0 0.1 0.1 0 0.1 0 0 0.3-0.2 0 0.1 0.5-0.2 0 0 0.4-0.1 0 0 0.3 0.1 0 0 0.2 0.2 0-0.1 0.4 0 0.2 0.2 0 0 0.1 0.1 0 0 0.1 0.2 0 0 0.3 0.1 0 0 0.3 0.1 0 0 0.1 0.1 0 0 0.1 0.1 0 0 0.2 0.2-0.1 0 0.2 0.1 0 0-0.1 0.4 0 0 0.1 0.1 0 0 0.1 1 0 0 0.1 0.1 0 0 0.1 0.1 0.1 0.1 0 0 0.1 0.1 0 0 0.1 0.1 0 0 0.2 0.4-0.1 0 0.2 1.2 0 0-0.1 0.5 0 0.1-0.1 0.4-0.1 0-0.1 0.1 0 0.2 0 0-0.1 0.3 0 0-0.1 0-0.1 0.2 0 0.3 0 0-0.1 0.1 0 0.5 0 0-0.1 0.1 0 0.5 0 0.1-0.1 0.8 0 0-0.2 0.2 0 0-0.1 0.1 0 0.1 0 0-0.1 0.2 0 0.1 0 0-0.1 0-0.1 0.2 0 0-0.1 0.1 0 0.1 0 0-0.2 0.1 0.1 0-0.2 0.2 0 0-0.1 0.1 0 0-0.1 0.1 0 0.1 0 0-0.1 0-0.1 0.2 0 0-0.1 0.2 0 0-0.1 0.1 0 0-0.2 0.2 0 0-0.1 0.1 0 0-0.1 0.1 0 0.1 0 0-0.1 0-0.1 0.1 0 0.2 0 0.1-0.1 0.3 0 0-0.1 0.3 0 1 0 0-0.2 0.4 0 0-0.1 0.1 0 0.3 0 0-0.1 0.1 0 0-0.1 0-0.1 0.1 0 0.2 0.1 0-0.3 0.1 0 0-0.1 0-0.1 0.2 0.1 0-0.2 0.1 0 0-0.1 0.1 0 0.1 0 0-0.1 0.1 0 0.2 0 0-0.2 0.1 0 0.1 0 0-0.1 0.1 0 0.2 0 0-0.3 0.1 0 0-0.1 0.1 0 0-0.1 0.1 0 0-0.1 0-0.1 0.1 0 0-0.1 0.1 0 0-0.1 0.1 0 0.1 0 0-0.2 0.1 0 0-0.1 0.1 0 0-0.1 0.1 0 0-0.2 0.1 0 0-0.1 0.1 0 0.4 0 0-0.1 0.1 0 0-0.1 0-0.1 0.1 0 0-0.1 0.1 0 0-0.1 0.1 0 0-0.3 0.1 0 0-0.1 0-0.3 0.1 0 0 0.1 0.2 0 0-0.1 0.4 0 0-0.3 0.1 0 0-0.1 0.1 0 0-0.3 0.5 0 0-0.1 0.3 0 0-0.1 0.2 0 0-0.1 0-0.1 0.1 0 0-0.1 0.1 0 0-0.2 0.6 0 0.7 0 0 0.1 0.2 0 0 0.1 0.3 0 0-0.1 0.3 0 0-0.1 0.5 0 0-0.2 0-0.1 0.7 0 0-0.3 0.1 0 0.8 0 0-0.1 0.2 0 0-0.1 0.2 0 0-0.2 0.1 0 0.2 0 0-0.1 0.2 0 0-0.1 0.1 0-0.1-0.2 0.4 0 0-0.2 0.2 0 0-0.2 0.2 0 0-0.1 0.1 0 0-0.2 0.4 0.1 0-0.2 0.2 0 0-0.1 0.1 0 0-0.1 0.1 0 0-0.4 0.2 0 0-0.2 0.2 0.1 0-0.2 0.1 0 0-0.1 0.1 0 0-0.2 0-0.2 0.1 0 0-0.1 0.1 0 0.1-0.2 0.1 0 0-0.1 0.5 0 0-0.1 0.1 0 0-0.2 0.1 0 0-0.1 0.1 0 0-0.1 0.1 0 0-0.2 0.1 0 0-0.1 0.1 0 0-0.3 0.1 0 0.2 0 0-0.1 0.1 0 0-0.1 0.2 0 0-0.2 0.1 0 0-0.1 0.2 0 0-0.1 0.1 0 0-0.1 0-0.1 0.1 0 0.1 0 0-0.1 0.1 0 0-0.1 0.1 0 0-0.2 0.1 0 0.1 0-0.1-0.1 0.2 0 0-0.1 0.1 0 0-0.1 0-0.1 0.1 0 0-0.1 0.2 0 0-0.1 0.1-0.1 0 0.1 0-0.1 0-0.1 0.1 0.1 0-0.2 0.1 0 0-0.1 0.1 0 0-0.1 0.1-0.1 0-0.2 0.1 0 0-0.1 0.2 0 0-0.2 0.1 0-0.1-0.1 0.2 0 0-0.1 0.1 0 0-0.1 0-0.1 0.1 0 0-0.2 0.1-0.1 0 0.1 0-0.1 0-0.1 0.1 0 0-0.1 0.1 0 0-0.3 0.1 0 0-0.1 0.1 0 0-0.1 0.1 0 0-0.3 0.2 0-0.1-0.1 0.1 0 0.1 0 0-0.1 0-0.1 0.1 0 0-0.2 0.1 0 0-0.1 0-0.1 0.1 0.1 0-0.3 0.1 0 0-0.3 0.1 0 0-0.1 0-0.2 0.1 0 0-0.1 0-0.1 0.1 0 0-0.1 0.1 0 0-0.1 0-0.2 0.1 0 0-0.3 0.1 0 0-0.2 0.2-0.1-0.1-0.2 0.1 0 0-0.1 0.2 0 0-0.2 0-0.1 0.1 0 0-0.1 0-0.2 0.1 0 0-0.2 0.1 0 0-0.3 0.1 0 0-0.3 0.1 0 0-0.1 0.1 0 0-0.3 0.1 0 0-0.2 0.1 0 0-0.1 0-0.2 0.1 0 0-0.3 0.1 0 0-0.2 0.1 0 0-0.1 0.1-0.1 0.1 0 0-0.2 0.1-0.1 0-0.2 0.1 0 0-0.2 0.1-0.1 0-0.2 0.1 0 0-0.2 0-0.1 0.1 0 0-0.2 0.1 0 0-0.1 0-0.2 0.1 0 0-0.1 0-0.2 0.1 0 0-0.2 0.1 0 0-0.3 0.1 0 0-0.3 0.1 0 0-0.2 0.2 0 0-0.3 0.1-0.1 0-0.2 0.1 0 0-0.1 0-0.1 0.1 0 0-0.3 0.1 0 0-0.2 0.1 0 0-0.1 0-0.2 0.1 0 0-0.1 0-0.2 0.1 0 0-0.1 0-0.3 0.1 0 0-0.2 0.1 0 0-0.3 0.1 0 0-0.3 0.1 0 0-0.4 0.1 0 0-0.2 0.2 0 0-0.1 0-0.2 0.1-0.1 0-0.2 0.1 0 0-0.1 0-0.3 0.1 0 0-0.2 0.1 0 0-0.3 0.1 0 0-0.4 0.1 0 0-0.2 0.1-0.1 0 0.1 0-0.1 0-0.2 0.1 0 0-0.3 0.1 0 0-0.1 0-0.3 0.2 0-0.1-0.2 0.1 0 0-0.1 0-0.3 0.1 0 0.1 0 0-0.1 0-0.2 0.1 0 0-0.1 0-0.3 0.1 0 0-0.1 0-0.2 0.1 0.1 0-0.5 0.1 0 0-0.2 0.1 0 0-0.1 0-0.3 0.1 0 0-0.1 0-0.2 0.1 0 0-0.1 0-0.3 0.1 0 0-0.2 0.1 0 0-0.4 0.1 0 0-0.1 0-0.3 0.2 0-0.1-0.3 0.1 0 0.1-0.1 0-0.3 0.1 0 0-0.1 0-0.3 0.1 0 0-0.3 0.1 0 0-0.1 0-0.3 0.1 0 0-0.4 0.1 0 0-0.2 0.1 0 0-0.1 0-0.3 0.1 0 0-0.1 0-0.3 0.1 0 0-0.1 0-0.3 0.1 0 0-0.5 0.1-0.1 0-0.3 0.1 0 0-0.1 0-0.3 0.2-0.1-0.1-0.5 0.1 0 0.1 0 0-0.4 0.1 0 0-0.1 0-0.3 0.1 0 0-0.5 0.1 0 0-0.1 0-0.3 0.1 0 0-0.4 0.1 0 0-0.4 0.1 0 0-0.1 0-0.3 0.1 0 0-0.4 0.1 0 0-0.4 0.1 0 0-0.4 0.2 0 0-0.9 0.2 0 0-0.4 0.1 0 0-0.1 0-0.3 0.1 0 0-0.1 0-0.3 0.1 0 0-0.5 0.1 0 0-0.1 0-0.1 0-0.2 0.1 0 0-0.1 0-0.3 0.1 0 0-0.1 0-0.3 0.1 0 0-0.2 0-0.3 0.1 0 0-0.1 0-0.3 0.1 0 0-0.1 0-0.3 0.1 0 0-0.6 0.1 0 0-0.5 0.2 0 0-0.1 0.1 0 0-0.4 0-0.7 0.1 0 0-0.6 0.1 0 0-0.5 0-0.2 0.1 0 0 0.1 2.3 0.7 10.2 2 3.9 0.8 2 0 2.5-1.9 2.9-1.1 6.5 0.5 3.9 0.8 5-0.9 0.7-1.1 0.4 0.1 2.3 3.6 3.7 2.9 2.1 2.4 1.6 0.6 3.1-1.2 3.3-3.3 1.7-0.3 1.2 1 0.5 1.7 1.3 0.9 1.8-2.7 0.8-0.3 0.8-0.2 3.7 0.5 1.1 0.9 3.7 0.2 2 0.4 1.5 0.7 3.9 0.3 1.6-0.5 1-1.2 0.5-1.7 1.9-0.3 1.6 0.6 1.6 0 1.6-2.3 2.2 0.2 2.1 3.3 1.5 0.9 6.1 0.1 1.5 0.6 1.2 1.1 1.3 2.9 2.8 3.8 1.7 0.2 3.2-1 4.1-2.6 1-1.2 0.6-0.1 6.9-3.5 0.6-0.2 3.2 0.2 1.6 0.6 2.1 2.2 1.4 0.9 1.8 0.2 3.4-0.7 4.3 0.2 1.7 0.7 3.9 2.6 1.7 0.7 2.5-1.8 1.6-0.5 14.3 0.1 3.7-0.4 7.1-1 6.5-1.8 11.9-2.7-0.1-1.6-2-4.4 0-2 0.3-1.5 0.8-0.7 3.3-1.8 5.7-2 6.1-1.4 4.9-0.7 3.2-0.2 4.2 0.1 6.9-0.9 0.2-0.1z m-309.3 48.9l0 0.1-0.2 0 0-0.1-0.4 0 0-0.6 0.2 0 0-0.1 0.4 0 0.2 0 0 0.1 0.1 0 0 0.4-0.1 0 0 0.2-0.1 0-0.1 0z" id="CY01" name="Lefkosia">
  </path>
  <path d="M587.3 193.1l-1.6 5.9-1.3 3.5 3.1 1.9 0.5 1.6-1.1 1.1-1.4 0.6-3.4 3.4-1.4 0.6-1.7 0.3-3.1 0.2-3.1 1.8-9.2 3.6-6.9 3-1.8 1.2-1.6 0.3-8.4 4.7-2.8 0.9-1.9 0.5-3.7 2.5-0.2 0.1-6.9 0.9-4.2-0.1-3.2 0.2-4.9 0.7-6.1 1.4-5.7 2-3.3 1.8-0.8 0.7-0.3 1.5 0 2 2 4.4 0.1 1.6-11.9 2.7-6.5 1.8-7.1 1-3.7 0.4-14.3-0.1-1.6 0.5-2.5 1.8-1.7-0.7-3.9-2.6-1.7-0.7-4.3-0.2-3.4 0.7-1.8-0.2-1.4-0.9-2.1-2.2-1.6-0.6-3.2-0.2-0.6 0.2-6.9 3.5-0.6 0.1-1 1.2-4.1 2.6-3.2 1-1.7-0.2-2.8-3.8-1.3-2.9-1.2-1.1-1.5-0.6-6.1-0.1-1.5-0.9-2.1-3.3-2.2-0.2-1.6 2.3-1.6 0-1.6-0.6-1.9 0.3-0.5 1.7-1 1.2-1.6 0.5-3.9-0.3-1.5-0.7-2-0.4-3.7-0.2-1.1-0.9-3.7-0.5-0.8 0.2-0.8 0.3-1.8 2.7-1.3-0.9-0.5-1.7-1.2-1-1.7 0.3-3.3 3.3-3.1 1.2-1.6-0.6-2.1-2.4-3.7-2.9-2.3-3.6-0.4-0.1-0.7 1.1-5 0.9-3.9-0.8-6.5-0.5-2.9 1.1-2.5 1.9-2 0-3.9-0.8-10.2-2-2.3-0.7 0-0.1 0-0.4 0.1 0 0-0.5-0.1 0 0-0.7 0.1 0 0-0.1 0-0.3 0.1 0 0-0.1 0.1 0 0-0.1 0-0.5 0-0.2 0.1 0 0-0.2 0-0.3 0.1 0 0-0.6 0.1 0 0-0.1 0-0.4 0.1 0 0-0.1 0-0.4 0.1-0.1 0-0.5 0.1 0 0.1 0 0-0.1 0-0.3 0.1 0 0-0.9 0.1 0 0-0.1 0-0.1 0-0.8 0.1 0 0-0.1 0-0.7 0.1-0.1 0-1 0.1 0 0-0.2 0-0.9 0.1 0 0-1.1 0.1 0 0-0.1 0-0.5 0.1 0 0-0.3-0.1 0.1 0-0.4 0.1 0 0-0.4 0.1 0 0-0.1 0-0.3-0.1 0 0-0.4 0.1-0.1 0-0.5 0.1 0 0-0.6-0.1 0 0-0.6 0.1 0 0-0.2 0.1 0 0.2 0-0.1-0.8-0.3 0 0-0.1 0-0.3 0.1 0 0-0.7-0.1 0 0-0.1-0.1 0 0-0.1-0.1 0 0-0.2-0.1 0 0-1.2-0.1 0 0-0.2-0.1 0 0-0.2-0.1 0 0-0.4-0.1 0 0-0.2 0.2 0 0 0.1 0.6 0 0-0.1 0.1 0 0.1-0.2-0.3 0 0-0.1-0.1 0 0-0.3 0.1 0.1 0-0.2-0.1 0 0-0.1-0.1 0-0.1 0 0-0.1-0.2-0.1 0-0.1-0.2 0 0-0.1-0.2 0-0.1-0.1-0.1 0 0-0.1 0-0.2-0.1 0 0-0.1 0.1-0.1 0-0.1 0.2 0 0.1 0 0-0.1 0.1 0 0-0.1 0.2 0 0-0.3-0.1 0 0-0.7-0.1 0 0-0.5-0.1 0 0-0.6-0.1 0.1-0.1-0.3-0.1 0 0-0.4 0.1 0 0.1 0 0-0.4 0-0.3-0.2 0 0-0.1-0.1 0 0-0.1-0.1 0 0-0.1-0.1-0.1 0-0.2-0.1 0 0-0.1-0.1-0.1 0-0.3 0.1 0 0-0.2 0.1 0 0.1 0 0-0.1 0.1 0 0-0.1-0.1 0-0.1 0 0-0.1 0-0.1-0.1 0 0-0.2-0.1 0 0-0.2-0.1 0-0.1 0 0-0.2 0.1 0 0-0.2 0.1 0 0-0.1 0.1 0 0-0.9-0.1 0 0-1.2 0.1 0 0-0.8 0-2 0.1 0 0-2.1 0.1 0 0-0.3 0-0.3-0.1 0 0-0.4 0-0.1-0.1 0 0-0.4 0-0.1-0.1 0 0-0.4-0.1 0 0-0.4-0.1 0 0-0.3 0-0.1-0.1 0 0-0.4-0.1 0 0-0.4-0.1 0 0-0.4-0.1 0 0-0.3-0.1 0 0-0.2-0.2 0 0-0.7-0.1 0 0-0.1-0.1 0-0.1 0 0 0.1-0.5 0 0-0.1-0.2 0-0.6 0 0-0.2-0.2 0 0-0.1-0.1 0 0-0.2-0.1 0.1 0-0.1 0-0.1-0.4 0-0.6 0 0-0.1-0.1 0 0-0.1-0.1 0 0-0.2 0.1 0 0-0.3 0-0.2-0.1 0 0-0.1-0.1 0 0-0.4-0.1 0-0.1 0 0-0.3 0.1 0 0-0.2 0.1-0.1 0-0.3-0.1 0 0-0.2-0.2 0 0-0.2 0.1 0 0-0.1 0-0.6-0.1 0 0-0.3 0-0.2-0.1 0 0-0.1 0-0.1-0.6 0 0-0.6 0.1 0 0-0.8-0.1 0 0-0.4 0-0.2-0.1 0 0-0.4 0.2 0 0-0.1 0.1 0 0-0.2 0.1 0 0-0.6 0.1 0 0-0.3 0.4 0 0-0.5-0.1 0 0-0.1 0.1 0 0-0.5-0.1 0 0-0.4-0.5 0 0-0.3 0.1 0 0-0.1 0.1 0 0.2 0 0-0.2 0.1 0 0-0.6-0.1 0 0-0.3-0.1 0 0-0.1-0.4 0 0-0.6 0.1 0 0-0.2-0.1 0 0-0.4-0.2 0 0-0.1 0-0.2 0-1.6 0.1 0 0-0.6-0.2 0 0-0.2-0.1 0 0-0.1-0.1 0 0-0.7-0.1 0 0-1.3 0.1 0 0-0.4-0.1 0 0-1.7 0.3 0 0-0.1 0.1 0 0-0.2 0-0.1 0.1 0 0-0.1 0-0.2 0.1 0 0-0.1 0.1 0 0-0.3 0.2 0-0.1-0.1-0.2 0 0-0.4-0.1 0 0-0.1 0-0.1-0.1 0.1 0-0.3-0.2 0 0-0.1-0.1 0 0-0.2-0.2 0 0-0.1-0.1 0-0.1 0 0-0.4 0-0.3-0.1 0-0.1 0 0-0.2 0.1 0 0.1 0 0-0.5 0-0.3-0.1 0-0.1 0 0-0.4 0.4 0 0-0.4-0.1 0 0-0.2-0.1 0 0-0.1 0.1 0 0-0.1 0.1 0 0-1.3-0.1 0 0-0.3 0.1 0 0-0.1 0.1-0.1 0-0.1 0.1 0 0-0.1 0.3 0 0 0.1 0.1 0 0 0.2 0.1-0.1 0 0.3 0.1 0 0 0.2 0.2 0-0.1 0.2 0.1 0 0 0.1 0.1 0.1 0.2-0.1 0 0.2 0.1 0 0 0.1 0.5 0 0 0.2 0.2-0.1 0 0.2 0.2 0 0 0.1 0.3 0 0 0.2 0.6 0 0.2 0 0 0.1 0.2 0 0 0.1 0.3 0 0 0.1 0.1 0 0 0.2 0.1 0 0 0.2 0.2 0.1 0 0.1 0.3 0 0 0.1 0.4 0 0.1 0 0 0.1 0.1 0 0.2 0 0 0.1 0 0.1 0.1 0 0 0.1 0.3 0 0 0.1 0.3 0 0 0.2 0.2 0 0 0.1 0.4 0 0.1 0 0 0.1 0.1 0 0.1 0.1 0 0.1 0.1 0 0 0.1 0.1 0 0 0.1 0.2 0 0 0.1 0 0.1 0.1 0 0 0.1 0.2 0 0.1 0.1 0.3 0 0.2 0 0 0.1 0 0.1 0.4 0 0 0.1 0.3 0 0.2 0 0 0.1 0.1 0 0.1 0.1 0 0.1 0.2 0 0 0.1 0.2 0 0 0.1 0.2 0 0 0.1 0 0.1 0.1 0 0 0.1 0.1 0 0 0.1 0.1 0 0 0.2 0.1 0 0.1 0 0 0.1 0.3 0 0 0.1 0.3 0 0.1 0 0 0.1 0.1 0.1 0 0.1 0.5 0 0-0.1 0.4 0 0.2 0 0 0.1 0.1 0 0.2 0 0.1 0 0 0.1 0.1 0 0 0.2 0.5 0 0 0.1 0.2 0 0 0.1 0.2 0 0-0.1 0.1 0 0 0.1 0.4 0 0.1-0.1 1.2 0 0 0.1 0.1 0 0.1 0 0 0.2 0.2 0 0 0.1 0.1 0 0 0.1 0.2 0 0 0.1 0 0.1 0.5-0.1 0.1 0 0 0.2 0.1 0 0-0.2 0.4 0 0 0.2 0.2 0 0 0.1 0.2 0 0 0.2 0.2 0 0 0.1 0.3 0 0 0.1 0.3 0 0 0.1 0.1 0 0 0.2 0.1 0 0 0.4 0.1 0 0 0.1 0.1 0 0 0.1 0.1 0 0 0.1 0 0.1 0.1 0 0 0.1 0.2 0 0 0.1 0.3 0 0.1 0-0.1 0.3 0.3 0 0 0.1 0.1 0.1 0 0.1 0.1 0 0 0.1 0.2 0 0.1 0 0 0.1 0.1 0 0 0.6 0.1 0 0.3 0 0 0.1 0.3 0 0 0.1 0.2 0 0 0.2 0.1 0 0 0.1 0.1 0 0 0.1 0.1 0 0 0.2 0.2-0.1 0 0.2 0.2 0 0 0.1 0.3 0 0 0.2 0.3 0 0 0.1 0.1 0 0 0.1 0.1 0 0 0.2 0.1 0 0 0.1 0.1 0 0 0.1 0.2 0 0 0.2 0.3 0 0.1 0.1 0.1 0 0.1 0 0 0.1 0.1 0 0 0.1 0 0.2 0.1 0 0 0.1 0.5 0 0 0.2 0.4 0 0.1 0.1 0.1 0 0 0.1 0.2 0 0 0.1 0.1 0 0 0.2 0.1 0 0 0.1 0.1 0 0 0.4 0.1 0 0 0.1 0.2 0 0 0.2 0.1 0 0 0.1 0.2 0 0.1 0.1 0.1 0 0 0.1 0 0.2 0.1 0 0 0.1 0.1 0 0 0.3 0.1 0 0 0.1 0.1 0 0 0.2 0.1 0 0 0.1 0.1 0 0 0.1 0.1 0 0 0.2 0.3 0 0 0.1 0.1 0 0.1 0.1 0.2 0 0 0.2 0.7 0 0 0.1 0.1 0 0 0.1 0.6 0 0-0.1 0.2 0 0-0.5 0.2 0 0-0.1 0.1-0.1 0-0.1 0.4 0 0 0.1 0.2 0 0.1 0.3 0.1 0 0 0.4 0.2 0 0 0.1 0.1 0 0.1 0 0.2 0 0-0.1 0.3 0 0-0.1 1 0 0 0.1 0.2 0 0 0.1 0.2 0 0 0.1 0 0.1 0.3 0 0 0.1 0.3 0 0 0.1 0.2 0 0 0.2 0.1 0 0 0.1 0.6 0 0.1 0 0 0.1 0.7 0 0 0.2 0.3-0.1 0 0.2 0.4 0 0-0.2 0-0.1 0.4 0 0 0.2 0.4 0 0-0.2 0.1 0 0-0.1 0.3 0 0-0.2 0.5 0.1 0 0.1 0.1 0 0 0.1 0.1 0 0 0.2 0.3 0 0-0.2 0.1 0 0-0.1 0.2 0 0-0.1 0.6-0.1 0 0.2 0.2 0 0 0.1 0.1 0 0 0.2 0.2 0 0-0.2 0.6 0 0 0.1 0.1 0.1 0 0.1 0.3 0 0-0.2 0.1 0 0.2 0 0 0.2 0.5 0 0-0.2 0-0.1 0.1 0 0-0.1 0.1 0 0.1 0 0-0.2 0.2 0.1 0-0.2 0.2 0 0-0.1 0.6 0 0-0.1 0.2 0 0-0.1 0-0.1 0.6 0 0 0.1 0 0.1 0.2 0 0 0.1 0.1 0 0.1 0.1 0.1 0 0 0.3 0.1 0 0 0.1 0.5 0 0 0.2 0.7-0.1 0 0.2 0.2 0 0 0.3 0.1-0.1 0 0.1 0 0.4 0.1 0 0 0.1 0 0.1 0.1 0 0 0.2 0.1-0.1 0 0.2 0.2 0 0 0.1 1.2 0 0-0.1 0.3 0 0.1 0 0 0.1 0.2 0 0 0.1 0.1 0 0.1 0.1 0 0.1 0.1 0 0 0.1 0.2 0 0 0.1 0.1 0 0 0.2 0.1 0 0 0.1 0.1 0 0 0.1 0.1 0 0 0.2 0.1 0 0 0.1 0.1 0 0 0.1 0.2 0 0 0.1 0.1 0.1 0.1 0 0 0.1 0.1 0 0 0.1 0.1 0 0 0.2 0.1 0 0 0.1 0.1 0 0 0.1 0.3 0 0-0.1 0.4 0 0 0.1 0.4 0 0 0.2 0.2 0 0-0.2 0.5 0 0 0.2 0.3-0.1 0 0.2 0.1 0 0 0.1 0.1 0 0 0.2 0.1 0 0 0.1 0.5 0 0-0.1 0.1 0 0-0.2 0.5 0 0-0.1 0.2 0 0-0.2 0.4 0 0 0.3 0.1 0 0 0.6 0.1 0 0 0.1 0.4 0 0.1 0 0 0.1 0.2 0 0 0.2 0.8 0 0.1 0 0 0.1 0.3 0 0 0.1 0.3 0 0-0.1 0.2 0 0 0.1 0.8 0 0-0.1 0.1 0 0.1 0 0 0.1 0.4 0 0-0.1 0.1 0 0-0.1 0.1 0 0-0.2 0.5 0 0 0.2 0.1 0 0 0.1 0.1 0 0 0.1 0.2 0 0 0.3 0.3 0 0 0.1 0.2 0 0-0.1 0.2 0 0-0.1 0.3 0 0-0.2 0.2 0 0 0.3 0.4 0 0-0.3 0.1 0 0.3 0 0 0.2 0.2 0 0 0.2 0.1 0 0 0.1 0 0.1 1 0 0 0.1 0.7 0 0-0.1 0.4 0 0 0.1 0.2 0 0 0.1 0.6 0 0 0.2 0.1 0 0 0.1 0.4 0 0 0.1 0.1 0 0-0.1 0.6 0 0 0.1 0.4 0 0-0.1 0.1 0 0.2 0 0-0.1 0.1 0 0 0.1 0.3 0 0.1 0 0 0.1 0.5 0 0-0.1 0.1 0 0.1 0 0-0.1 0.1 0 0.3 0 0-0.2 0.6 0 0-0.1 0.5 0 0-0.1 0.2 0 0-0.2 0.1 0 0-0.1 0.2 0 0-0.1 0.1-0.1 0-0.1 0.2 0 0-0.1 0.2 0 0-0.1 0.1 0 0.1 0 0-0.2 0.2 0 0-0.1 0.4 0 0-0.1 0.5 0 0 0.1 0.2 0 0-0.3 0.1 0 0-0.2-0.1 0 0-0.3 0.2 0 0-0.1 0.1-0.1 0 0.1 0-0.2 0.3 0 0-0.1 0.1 0 0-0.1 0.1 0 0-0.1 0-0.2 0.1 0 0-0.1 0.2 0 0.1 0 0 0.1 0.2 0 0-0.1 0.1 0 0-0.2 0.1 0 0-0.1 0.1 0 0-0.1 0.1 0 0.1 0.1 0.3 0 0-0.1 0.1 0 0-0.2 0-0.1-0.1 0 0-0.5 0.3 0 0-0.5 0.2 0 0-0.1 0-0.5 0.1 0 0-0.4 0.1 0 0-0.1 0-0.1 0.1-0.1 0-0.1 0.1 0 0-0.1 0.2 0 0-0.1 0.1 0 0-0.1 0-0.1 0.1 0 0-0.2 0.1 0 0-0.2 0.1 0 0-0.2 0.2 0 0-0.2 0.3 0 0 0.2 0.1 0 0 0.1 0.1 0 0 0.3 0.1 0 0.1 0.1 0.1 0 0 0.2 0 0.3 0.2 0 0 0.1 0.1 0.1 0 0.2 0.2 0 0 0.1 0.1 0.1 0 0.1 0.1 0 0 0.1 0.1 0 0 0.1 0 0.1 0.1 0 0 0.1 0.1 0 0 0.1 0.3 0 0 0.2 0.8 0 0-0.2 0.1 0 0 0.2 0.5-0.1 0 0.2 0.2 0 0-0.1 0.2 0 0 0.1 0.2 0 0 0.1 0.1 0 0 0.1 0.5 0 0-0.1 0.2 0 0-0.1 0.6 0 0-0.1 0.4 0 0-0.2 0.3 0 0-0.1 0.2 0 0-0.1 0.1 0 0.2 0 0-0.2 0.1 0 0 0.2 0.9 0 0 0.7 0.1 0 0 0.2 0.1 0 0 0.1 0.5 0 0 0.1 0.1 0 0 0.1 0 0.1 0.1 0 0 0.1 0.1 0 0.1 0.3 0.1 0 0 0.2 0.1 0 0 0.2 0.3 0 0-0.2 0.2 0 0-0.1 0.1 0 0-0.1 0.3 0 0 0.1 1.3 0 0 0.1 0.1 0 0.1 0.2 0.1 0-0.1 0.1 0.2 0 0 0.1 0.1 0 0 0.2 0.1 0 0 0.1 0.2 0 0 0.1 0.3 0 0 0.2 0.4 0 0 0.1 0.1 0 0.1 0 0 0.1 0.2 0 0.1 0 0 0.2 0.5 0 0 0.1 0.9 0 0 0.1 0.1 0 0 0.2 0.2 0 0 0.1 0.1 0 0.1 0.1 0 0.3 0.2 0 0.1 0.1 0.5 0 0 0.2 0.9-0.1 0 0.2 0.2 0 0 0.1 0.5 0 0-0.1 0.3 0 0 0.1 0.2 0.1 0.1 0.1 0.1-0.1 0 0.2 0.6 0 0 0.1 0.3 0 0 0.2 0.1-0.1 0 0.2 0.2 0 0.1 0.1 0.8 0 0.1 0 0.1 0 0 0.1 0 0.1 0.1 0 0 0.1 0.9 0 0.1 0 0 0.1 0.2 0 0 0.2 0.1 0 0.1-0.2 0.4 0 0 0.2 0.5 0 0-0.2 0.1 0 0.1 0 0-0.1 0.1 0 0 0.1 0.2 0 0 0.2 0.4 0 0-0.2 0.3 0 0 0.1 0 0.1 0.1 0 0 0.1 0.1 0 0 0.1 0.7 0 0 0.1 0.2 0 0 0.2 0.6 0 0 0.1 0.4 0 0-0.1 0.1 0.1 0.7 0 0-0.1 0.2 0 0.1-0.1 0.1-0.1 0-0.1 0.1 0 0-0.4 0.2 0 0-0.4 0.1 0 0.6 0 0-0.1 0.3 0 0.7 0 0-0.2 0.4 0.1 0-0.2 0.1 0 0-0.1 0.1 0 0.1 0 0-0.1 0.2 0 0-0.3 0.2 0 0-0.3 0.1 0 0-0.2 0.2 0 0-0.2 0.1 0 0-0.2 0-0.1 0.1 0.1 0-0.2 0.2 0 0-0.1 0.3 0 0-0.1 0.1 0 0-0.1 0-0.1 0.1 0 0-0.1 0-0.1 0.1-0.1 0-0.1 0.2 0 0-0.1 0.5 0 0 0.1 0.1 0 0 0.2 0.6-0.1 0 0.2 0.1 0 0.1 0 0 0.1 0.2 0 0 0.2 1 0 0-0.2 0.1 0 0 0.2 0.4 0 0-0.2 0.2 0 0-0.1 0.2 0 0 0.1 0.1 0 0.2 0 0 0.1 0 0.1 0.1 0 0 0.1 0 0.1 0.1 0 0 0.3 0.1 0 0 0.1 0.5 0 0 0.2 0.6 0 0-0.2 1.1 0 0-0.1 0.1 0 0-0.1 0-0.2 0.1 0 0-0.1 0.3 0 0-0.2 0.1 0 0.2 0.1 0 0.1 0.4 0 0 0.1 0.2 0 0 0.2 0.2 0 0.1 0 0 0.1 0.2 0 0 0.3 0.1 0 0 0.2 0.1 0 0 0.2 0.1 0 0 0.2 0.1 0 0 0.2 0 0.1 0.1 0 0.1 0.1 0.1 0 0 0.1 0.2 0 0 0.2 0.8 0 0 0.1 0.1 0 0.1 0.4 0.1 0 0.1 0 0 0.2 0.1 0 0.1 0 0 0.1 0.9 0 0.1 0 0 0.1 0.6 0 0.3 0 0 0.1 0.1 0.1 0 0.1 0.1 0 0 0.1 0.2 0 0.1 0 0 0.1 0.1 0 0 0.2 0.2 0 0.2 0 0 0.2 0.9 0 0 0.2 0.2 0 0 0.1 0.6 0 0 0.1 0.1 0 0-0.1 0.1 0 0.2 0 0 0.1 0.1 0 0 0.3-0.1 0 0 0.1-0.2 0 0 0.2-0.1 0 0 0.3 0 0.1 0.2 0 0.1 0.1 0.6 0 0.2 0 0 0.1 0.5 0 0-0.1 0.2 0 0 0.1 0.4 0 0.3 0 0 0.1 0 0.1 0.2 0 0 0.1 0.2 0 0 0.1 0.4 0 0-0.1 1.2 0 0 0.1 0.8 0 0-0.1 0.1 0 0-0.1 0-0.2 0.2 0 0.1 0 0-0.1 0.1 0 0.3 0 0-0.1 0.2 0 0-0.2 0.1 0 0-0.1 0.1 0 0-0.1 0.3 0 0 0.1 0 0.1-0.1 0 0 0.4 0.3 0 0-0.1 0.1 0 0-0.1 0.2 0 0-0.2 0.3 0 0-0.1 0.3 0 0-0.1 0.1 0 0-0.8-0.1 0 0-0.4 0.1 0 0-0.1 0-0.2 0.3 0 0-0.1 0.1 0 0-0.2 0.1 0 0.1 0.1 0 0.1 1.2 0 0 0.1 0.1 0 0.1 0 0 0.1 0.1 0 0 0.2 0.1 0 0 0.1 0.1 0 0 0.1 0.5 0 0.4 0 0 0.2 0.4 0 0 0.1 0.2 0 0 0.1 0.5 0 0.1 0.2 0.1 0 0-0.2 0.1 0 0 0.2 0.2 0 0 0.1 0.1 0 0 0.1 0.1 0 0.1 0 0 0.1 0 0.1 0.1 0 0 0.1 0.2 0 0 0.1 0.2 0 0.1 0 0 0.1 0 0.1 0.1 0-0.1 0.1 0.3 0 0 0.1 0.2 0 0.1 0 0 0.1 0 0.1 0.2 0 0.1 0 0 0.1 0.2 0 0.3 0 0 0.1 0.3 0 0 0.1 0 0.1 0.6-0.1 0 0.2 0.9 0 0-0.2 0.1 0 0 0.1 0-0.2 0.2 0 0-0.1 0.1 0 0.1 0 0-0.1 0-0.3 0.2 0 0-0.1 0.1 0 0-0.2 0.4 0 0-0.1 0.4 0 0-0.1 0.3 0 0-0.2 0.1 0 0.4 0 0-0.1 0.1 0 0-0.1 0.2 0 0-0.2 0.2 0 0-0.1 0.9 0 0 0.1 0.2 0 0 0.2 0.1 0 0 0.1 0.1 0 0 0.1 0.1 0 0 0.2 0.1 0 0 0.1 0.2 0-0.1 0.1 0.2 0 0 0.2 0.1 0.1 0.3 0 0-0.3 0.3 0 0-0.1 0.6 0-0.1 0.1 0.2 0 0 0.2 0.1 0 0 0.1 0.1 0 0 0.1 0.1 0 0 0.1 0 0.1 0.1 0 0 0.1 0.1 0 0 0.1 0.1 0 0 0.2 0.1-0.1 0 0.2 0.3 0 0-0.2 0.4 0.1 0.4-0.1 0 0.2 0.2 0 0 0.1 0.2 0 0.7 0 0 0.1 0 0.5 0.1 0 0 0.1 0.2 0 0 0.1 0.2 0 0 0.1 0 0.1 0.2 0 0-0.1 0-0.1 0.2 0 0.2 0 0-0.1 0.1 0 0 0.1 0.2 0 0.1 0 0 0.2 0.1 0 0 0.1 1.1 0 0 0.1 0.2 0 0 0.2 0.5 0 0-0.2 0.2 0 0.1-0.1 0.2 0 0-0.1 0.1 0 0.1 0 0-0.1 0-0.1 0.6 0 0 0.1 0 0.1 0.2 0 0 0.1 0.1 0 0.1 0.1 0.3 0 0-0.1 0.1 0 0-0.3 0.1 0 0-0.1 0.5 0 0.4 0 0-0.1 0.1 0 0.3 0 0-0.2 0.4 0 0 0.2 0.3 0 0-0.2 0.2 0 0 0.2 0.4 0 0.1 0 0 0.1 0.3 0 0-0.1 0.2 0 0.1 0 0 0.1-0.1 0 0 0.3-0.1 0 0 0.1-0.1 0 0 0.4 0.1 0 0 0.2 0.1 0 0 0.2 0.1 0 0-0.2 0.2 0 0-0.1 0.1-0.1 0-0.1 0-0.1 0.1 0 0-0.1 0.1 0 0.1 0 0 0.2 0.2 0 0 0.1 0.1 0 0 0.1 0.2 0 0-0.1 0.1 0 0-0.1 0.1 0 0-0.2 0.5 0 0-0.1 0.1 0 0-0.1 0.2 0 0-0.1 0-0.1 0.1 0 0-0.2 0.1 0 0-0.2 0.1 0 0.1-0.1 0-0.1 0-0.2 0.1 0 0-0.1 0.1 0 0.1-0.2 0.1 0.1-0.1-0.1 0-0.1 0.2 0 0-0.1 0.7 0 0 0.1 0.1 0 0 0.2 0.1-0.1 0 0.2 0.1 0 0 0.1 0.2 0 0 0.2 0.1 0.1 0.1 0 0 0.1 0.2 0 0.1 0 0 0.1 0 0.1 0.1 0 0 0.1 0.1 0 0 0.1 0.4 0-0.1 0.5 0 0.1-0.2 0 0-0.2-0.3 0 0 0.2-0.2 0 0-0.2-0.2 0 0-0.2 0-0.4-0.9 0 0 0.1-0.1 0 0 0.1-0.1 0 0 0.4 0.1 0 0 0.1 0 0.1 0.1 0 0 0.2 0.1 0 0 0.3 0.1 0 0 0.2 0.1 0 0 0.1 0 0.1 0.1 0 0 0.1 0.2 0 0 0.1 0.1 0 0.1 0.2 0.1 0.2 0.1 0 0 0.2 0.1 0 0 0.1 0.3 0 0-0.1 0.4 0 0-0.1 0-0.1 0.1 0 0.2 0 0-0.1 0.3 0 0 0.1 0.1 0 0 0.1 0 0.2 0.1 0 0 0.1 0.3 0 0.1 0 0 0.1 0 0.1 0.7 0 0 0.1 0.1 0 0.1 0 0 0.1 0.5 0 0-0.1 0.1 0 0 0.1 0.1 0 0 0.1 0 0.2 0.7 0 0.1 0 0 0.1 0.3 0 0 0.2 0.5 0 0-0.2 0.1 0 0-0.1 0-0.1 0.2 0 0-0.2 0.2 0 0 0.2 0.2 0 0 0.1 0.2 0 0.1 0 0-0.2 0.3 0.1-0.1-0.2 0.2 0 0-0.1 0.2 0 0-0.2 0.1 0.1 0-0.1 0-0.1 0.3 0 0 0.2 0.1 0 0 0.1 0 0.1 0.1 0 0 0.2 0.2 0 0 0.1 0.1 0 0.1 0.1 0.2 0 0 0.1 0 0.1 0.4 0 0.1 0 0-0.2 0.1 0 0-0.1 0.1 0 0-0.1 0.6-0.1 0 0.2 0.2 0 0-0.2 0.1 0.1 0-0.2 0.2 0 0-0.1 0.1 0 0-0.1 0.2 0 0-0.1 0-0.1 0.4 0 0 0.2 0.1 0 0 0.2 0.3 0 0 0.2 0.2-0.1 0 0.2 0.2 0 0 0.1 0.2 0-0.1 0.2 0.2 0 0 0.1 0.2 0 0.1 0.1 0.3 0 0 0.2 0.6 0 0.2 0 0 0.1 0.1 0 0.9 0 0-0.1 0.3 0 0.7 0 0-0.2 0.1 0 0-0.1 0.1 0 0-0.1 0.1 0 0.1 0 0-0.4-0.1 0 0-0.1-0.1-0.1 0-0.6 0.1 0 0-0.2 0.9 0 0-0.1 0.7 0 0 0.1 0.1 0 0 0.2 0.3 0 0 0.1 0.1 0 0 0.2 0.1-0.1 0 0.1 0 0.1 0.1 0 0 0.1 0.1 0 0 0.1 0.1 0.1 0 0.1 0.2 0 0 0.1 0.2 0 0 0.3 0.1 0 0 0.1 0.1 0 0.1 0.1 0.2 0 0 0.2 0.5 0 0-0.2 0.2 0 0-0.1 0.1 0 0.1 0 0-0.3 0.2 0 0-0.1 0.1 0 0-0.1 0.1 0 0-0.1 0-0.1 0.3 0 0 0.1 0 0.1 0.1-0.1 0 0.2 0.1 0 0 0.1 0.4 0-0.1 0.2 0.3 0 0.1 0.1 0.5 0 0.1 0 0 0.1 0.3 0 0 0.2 0.1 0 0 0.1 0.3 0 0.1 0.1 0.1 0 0.1 0.1 0 0.1 0.6 0 0.2 0 0 0.1 0.7 0 0-0.1 0.2 0 0-0.1 0-0.1 0.2 0 0 0.1 0 0.1 0.3 0 0-0.1 0-0.1 0.4 0 0 0.1 0 0.1 0.4 0 0.2 0 0 0.1 0.9 0 0 0.1 0.5 0 0 0.2 0.1 0 0-0.2 0.1 0 0.4 0-0.1-0.1 0.4 0 0-0.1 0.1-0.1 0-0.1 0.1 0 0-0.2 0.1 0 0-0.4 0.1 0 0-0.1 0-0.1 0.1 0 0-0.1 0.4 0 0 0.1 0.4 0 0 0.2 0.2 0 0 0.1 0.1 0 0 0.1 0.1 0 0 0.1 0 0.2 0.1 0 0 0.1 0.1 0 0 0.7 0.2 0-0.1 0.4 0.1 0 0.1 0.1 0.1 0 0.2 0 0-0.1 0.1 0 0.1 0 0-0.1 0.1 0 0-0.2 0.3 0 0-0.1 0.1 0 0-0.1 0.1 0 0.1 0 0-0.2 0.4 0 0 0.2 0.1 0 0 0.1 0.1 0 0 0.1 0.1 0.1 0 0.1 0.3-0.1 0 0.2 0.7 0 0-0.2 0.1 0 0-0.1 0.1 0 0-0.1 0.1 0 0.1 0 0-0.1 0.1 0 0.2 0 0 0.1 0.3 0 0.1 0.1 0.1 0 0-0.1 0.1 0 0 0.1 0.4 0 0.1 0.1 0 0.1 0.3 0 0-0.1 0-0.1 0.1 0 0 0.1 0 0.1 0.4 0 0-0.1 0-0.1 0.1 0 0.3 0 0-0.1 0.5 0 0 0.1 0.4 0 0-0.1 0.2 0 0-0.1 0.3 0 0-0.2 0.1 0 0.3 0 0-0.1 0.1 0 0.4 0 0-0.1 0.1 0 0-0.4-0.1 0 0-0.4 0.1 0 0-0.1 0-0.1 0.1 0 0.1 0 0-0.1 0.1 0 0.1 0 0-0.2 0.2 0.1 0-0.2 0.1 0 0.7 0.1 0 0.1 0.3 0 0 0.1 0.5 0 0.2 0 0 0.1 0.2 0 0.2 0 0 0.1 0 0.1 0.1 0 0 0.1 0.1 0 0 0.1 0.1 0 0 0.2 0.1 0 0 0.1 0.3 0 0 0.1 0.4 0 0-0.1 0.1 0 0-0.1 0.1 0 0-0.1 0-0.3 0.1 0 0-0.1 0-0.2 0.1 0 0-0.1 0.1 0 0.2 0 0-0.1 0.2-0.1 0-0.1 0.6 0 0.7 0 0 0.1 0.2 0.1-0.1 0.1 0.2 0 0.1 0.1 0.1 0.1 0.1 0 0 0.2 0.3 0 0 0.1 0.1 0 0-0.1 0.1 0 0.3 0 0-0.1 0-0.1 0.2 0 0.1 0 0 0.2 0.5 0 0-0.2 0.1 0 0-0.2 0.1-0.1 0-0.2 0.2 0 0-0.1 0.1 0 0-0.2 1 0 0 0.2 0.1 0 0 0.1 0.1 0 0 0.1 0.2 0.1-0.1 0.1 0.3 0 0-0.2 0.2 0 0-0.1 0.1 0 0-0.1 0.5 0 0 0.1 0.1 0 0 0.3 0 0.4 0.1 0 0 0.1 0.1 0 0 0.1 0.3 0 0 0.2 0.1 0 0-0.2 0.3 0 0-0.1 0.1 0 0 0.1 0.4 0 0 0.2 0.2 0 0 0.1 0.1 0 0.1 0.1 0.1 0 0 0.3 0.1 0 0 0.1 0.1 0 0 0.2 0.5 0 0-0.2 1 0 0-0.1 0.9 0 0-0.1 0.1 0 0 0.1 0.2 0 0.1 0 0 0.1 0.1 0 0 0.2 0 0.2 0.1 0 0 0.2 0.2 0 0-0.1 0-0.1 0.5 0 0 0.1 0 0.1 0.3 0 0 0.1 1 0 0-0.1 0.8 0 0-0.1 0-0.1 0.1 0 0.2 0 0-0.1 0-0.1 0.1 0 0-0.2 0.1 0 0.1 0 0-0.1 0-0.1 0.1 0 0-0.2 0.1 0 0-0.2 0.1 0 0-0.2 0.1 0 0-0.1 0.1 0 0.2 0 0-0.1 0.1 0 0-0.1 0.1-0.1 0-0.1 0.1 0 0-0.2 0.4 0.1 0 0.1 0.1 0 0 0.1 0.1 0 0 0.2 0.1 0 0 0.5 0.3 0 0 0.1 0.2 0 0 0.2 0.2 0 0 0.1 0.6 0 0-0.4 0.1 0 0-0.1 0.1 0 0-0.1 0-0.1 0.2 0 0-0.2 0.1 0 0-0.1 0-0.2-0.1 0 0-0.1-0.1 0 0-0.2-0.1 0 0-0.2-0.1 0 0-0.3 0.1 0 0-0.1 0.7 0 0.1 0 0-0.3 0.1 0 0-0.1 0.1 0 0-0.2 0.2 0 0.1 0 0 0.2 0.1 0 0 0.1 0.3 0 0 0.1 0.2 0.1 0 0.1 1.1 0 0-0.1 0-0.1 0.1 0 0-0.1 0.1 0 1 0 0 0.1 0.3 0 0.1 0 0 0.1 0 0.1 0.4 0 0-0.1 0-0.1 0.5 0 0 0.1 0 0.1 0.6 0 0.1-0.1 0-0.2 0.1 0 0-0.1 0.1 0 0.5 0 0-0.1 0-0.1 0.2 0 0.6 0 0-0.1 0.2 0 0-0.1 0.1 0 0.1 0 0-0.2 0.1 0 0-0.1 0.2 0 0-0.1 0-0.1 0.2-0.1-0.1-0.2 0.1 0 0-0.1 0.2 0-0.1-0.2 0.4 0 0-0.1 0.2 0 0 0.1 0.1 0 0-0.1 0.5 0 0-0.1 0.2 0 0.4 0 0-0.1 0-0.1 0.1 0 0.3 0 0-0.1 0.2 0-0.1-0.1 0.1-0.1 0-0.1 0.1 0 0.1 0 0-0.1 0.2 0 0.5 0 0-0.1 0.1 0 0.1 0 0-0.2 0.6 0 0-0.1 0.1 0 0.3 0 0-0.1 0.3 0 0-0.2 0.1 0 0.6 0 0-0.1 0.2 0 0-0.1 0.2 0 0-0.2 0.2 0 0-0.1 0.1 0 0-0.1 0.1 0 0.3 0 0-0.2 0.2 0 0 0.2 0.2 0 0 0.2 0.2 0 0.2 0 0-0.1 0.3 0 0 0.1 0.1 0 0 0.2 0.1 0 0 0.1 0.2 0 0 0.3 0.3 0 0 0.1 0.1 0 0 0.1 1 0 0-0.1 0.2 0 0-0.2 0.1 0.1 0-0.2 0.2 0 0-0.1 0.6 0 0-0.1 0.1 0 0.2 0 0-0.1 0-0.1 0.1 0 0.1 0 0-0.1 0.1 0 0.1 0 0-0.1 0.6 0 0 0.1 0.9 0 0-0.1 0.1 0 0.1 0 0-0.2 0.3 0 0.2 0 0 0.1 0 0.1 0.1 0 0 0.1 0.2 0 0 0.1 0.2 0 0.1 0 0 0.1 0 0.1 0.5 0 0-0.1 0-0.1 0.2 0 0.1 0 0-0.1 0.1 0 0-0.1 0.2 0 0-0.2 0.6 0 0 0.2 0.2 0 0.1 0.1 0.3 0 0-0.1 0.1 0 0-0.2 0.1 0 0-0.1 0.4 0 0.1 0-0.1 0.1 0.5 0 0-0.1 0.2 0 0 0.1 0.3 0 0 0.1 0 0.1 0.2 0 0 0.1 0.3 0 0-0.1 0.3 0 0-0.2 1 0 0.1-0.1 0.2 0 0-0.1 0.1-0.1 0-0.1 0.1 0 0-0.1 0.1 0 0-0.1 0.3 0 0-0.2 0.1 0 0 0.2 0.6 0 0.1 0 0 0.1 0.1 0 0-0.1 0.3 0 0-0.2 0.4 0 0-0.1 0.5 0 0-0.1 0.5 0 0-0.2 0.8 0 0-0.1 0.1 0 0.4 0 0-0.1 0.2 0 0-0.1 0-0.1 0.1 0 0.3 0 0-0.1 0.6 0 0-0.1 0.2 0 0-0.2 0.1 0 0-0.1 0.1 0 0-0.1 0.1 0 0-0.2 0-0.1 0.1 0 0-0.1 0.1 0 0-0.1 0.3 0 0.5 0 0-0.2 0.2 0 0-0.1 0.1 0 0-0.2 0.2 0.1 0-0.2 0.1 0 0.1 0 0.4 0 0-0.1 0.2 0 0 0.1 0.2 0 0-0.1 0.2 0 0-0.1 0-0.2 0.1 0 0-0.1 0.1 0 0.1 0 0 0.1 0.1 0 0.1 0 0 0.2 0.1 0 0 0.1 0.1 0 0 0.1 0 0.2 0-0.1 0.1 0 0 0.2 0.5 0 0-0.2 0.1 0 0.1 0.1 0-0.1 0.1-0.1 0.2 0 0-0.2 0.4 0.1 0 0.1 0.2 0 0-0.1 0.1 0 0-0.7-0.1 0 0-0.4 0.1 0 0-0.1 0.3 0 0.1 0 0-0.1 0.1 0 0.2 0 0-0.2 0.6 0 0 0.1 0 0.1 0.1 0 0 0.1 0.1 0 0 0.1 0.1 0 0 0.3 0.1 0 0.1 0 0-0.1 0.1 0 0.2 0-0.1-0.2 0.2 0 0-0.1 0.2 0 0-0.1 0.1 0 0.2 0 0-0.2 0.1 0 0-0.2 0-0.2 0.1 0 0-0.4 0.1 0 0-0.2 0.2 0 0-0.2 0.2 0 0-0.1 0.2 0 0-0.1 0.1 0 0-0.1 0-0.1 0.1 0 0-0.1 0.1 0 0-0.1 0.4 0 0 0.1 0.1 0 0 0.5-0.1 0 0 0.2-0.1 0 0 0.1-0.1 0 0 0.1-0.1 0 0 0.2-0.1-0.1 0 0.1 0 0.1-0.1 0 0 0.3 0.1 0 0 0.2 0.1 0 0 0.2 0.4 0 0 0.1 0.1 0 0 0.1 0 0.2 0.4 0 0-0.2 0.2 0 0.2 0 0 0.1 0 0.1 0.1 0 0 0.1 0.3 0 0 0.1 0.1 0 0 0.2 0.7 0 0-0.2 0.6 0 0 0.2 0.7 0 0.1 0 0 0.1 0.6 0 0-0.1 0.1-0.1 0.1 0 0-0.1 0.1 0 0-0.1 0.4 0 0-0.1 0.1 0 0.2 0 0-0.1 0-0.2 0.1 0 0-0.1-0.1 0 0-0.3-0.1 0 0-0.3 0.4 0 0 0.2 0.4 0 0-0.2 0.1 0 0-0.1 0.3 0 0-0.1 0.1-0.1 0 0.2 0.2 0 0 0.1 0.3 0-0.1 0.2 0.4 0 0-0.2 0.3 0 0 0.2 0.5 0 0-0.2 0.1 0 0-0.1 0.1 0 0.3 0 0-0.1 0-0.1 0.3 0 0 0.2 0.4 0 0-0.1 0.1 0 0.2 0 0-0.1 0.1-0.1 0.2 0 0-0.1 1 0 0.1 0-0.1 0.1 0.2 0 0 0.2 0.1-0.1 0 0.2 0.1 0 0 0.1 0.1 0 0 0.2 0.2 0 0 0.1 0.3 0 0 0.1 0.1 0 0-0.1 0.2 0 0.3 0 0 0.1 0.1 0 0 0.2 0.1 0 0.4 0 0-0.1 0-0.1 0.1 0 0-0.1 0.1 0 0-0.1 0.3 0 0-0.2 0.5 0 0 0.2 0.2 0 0 0.1 0.1 0 0 0.1 0.5 0 0-0.1 0.1 0 0.2 0 0-0.1 0.1 0 0-0.2 0.5 0 0-0.1 0.1 0 0.1 0 0-0.1 0.1 0 0-0.2 0.2 0 0-0.1 0.1 0 0.2 0 0-0.1 0.1 0 0-0.2 0.2 0 0.2 0 0 0.2 0.5 0 0-0.2 0.4 0 0-0.1 0.2 0 0-0.1 0.1 0 0-0.2 0.2 0 0-0.1 0-0.1 0.1 0 0-0.3 0-0.4 0.1 0 0-0.1 0-0.4 0.1 0 0-0.1 0.1 0 0.5 0 0-0.2 0.1 0 0-0.1 0.1 0 0.1 0 0-0.1 0.9 0 0 0.1 0.1 0 0 0.3 0.1 0 0 0.1 0.1 0 0 0.1 0.1 0 0 0.1 0.2 0 0 0.2 0.1 0 0 0.1 0.4 0z m-144.7 5.4l0 0.2 0.1 0 0 0.2 0.1 0 0 0.2 0.1 0 0 0.5-0.1 0 0 0.4-0.1 0-0.1 0 0 0.1-0.6 0 0-0.1-0.1 0 0-1.1 0.1 0 0-0.1 0.1 0 0-0.3 0.5 0z" id="CY06" name="Keryneia">
  </path>
 </g>
 <g id="points">
  <circle class="34.67937253190992|32.38854806178463" cx="90.9" cy="517.7" id="0">
  </circle>
  <circle class="35.114197528828626|33.55663738944913" cx="545.5" cy="311.3" id="1">
  </circle>
  <circle class="35.65772877497701|34.49110885158073" cx="909.1" cy="51.9" id="2">
  </circle>
 </g>
 <g id="label_points">
  <circle class="Ammochostos" cx="619.9" cy="258.9" id="CY04">
  </circle>
  <circle class="Larnaca" cx="506.9" cy="429.5" id="CY03">
  </circle>
  <circle class="Limassol" cx="308.1" cy="455.5" id="CY02">
  </circle>
  <circle class="Paphos" cx="138.1" cy="405.7" id="CY05">
  </circle>
  <circle class="Lefkosia" cx="372.3" cy="333.3" id="CY01">
  </circle>
  <circle class="Keryneia" cx="409" cy="223.9" id="CY06">
  </circle>
 </g>
</svg>