<?xml version="1.0"?>
    
<!--********* Copyright (c) 2024 Pareto Softare, LLC DBA Simplemaps.com ***************************************
************* Free for Commercial Use, full terms at  https://simplemaps.com/resources/svg-license ************
************* Attribution is appreciated! https://simplemaps.com *******************************************-->

<svg baseprofile="tiny" fill="#6f9c76" height="686" stroke="#ffffff" stroke-linecap="round" stroke-linejoin="round" stroke-width=".5" version="1.2" viewbox="0 0 1000 686" width="1000" xmlns="http://www.w3.org/2000/svg">
 <g id="features">
  <path d="M240.1 58.3l1.6 8.9 5 7.6 7.7 2.2 7.4 3 8.4 3 8 4 5.5 4.2 6.6 1.7 10.1 3.2 8.3 6.7 9.3 4.7 10.4 1.4-1.6 8.7-3.6 8-6.3 0.9-6.2-4.4 0.5 5.3 1.9 4.7 3.6 1.7 3.7 2.3-0.2 7.2-1.8 7.5 5.7 4.3-1 4.7-10.9 0-10.2-4.4-2.2 2.8-2.3 3.4-3.6 0.5-3.6-0.8-7.2-3.1-6.8-3.8-3.3 4.4-0.5 5.2 3.3 2.4 2.1 2.5-9.5 3.3-8.9 4.2-4.7 0.3-4.6-0.5-3.8 2.5-3.1 3.6-4.5 3.7-3.5 4.8-0.8 7.9-0.7 8.1 0.9 5.5 4.1 3.9 0.3 7.9-1.3 8.2-13.1-0.1-10.7-5.3-10.8-5.8-11.1-5.6-7.6-10.2-10.2-6.6-4.3 4.4-5 3.1-5.9-2-6-1.6-3.1 3.6-1.8 4.8-5.2 1.9-5 3-4.1 3.9-16-7.8-8.2-8.3-1-1.1-4.4-6.2-1.2-5.2 1.6-1.7 6.7-3.8 2.3-1.8 3.1-8 1.4-1.5 2.8-6 0.2-11.7-3-20.5-6.9-16.4-1.1-6 0.4-6.8 0.2-4.2-0.8-4.6-2.2-7.3 4.7 1.1 4.5 2.3-1-5.2-4.4-10.2 0.3-2.5 0-2-6.6-0.4-0.9-2.8 2.7-4.1 3.9-4.3 1.1-0.8 1.3-0.2 2.7 0 1.7-0.7 2.7-3.3 1.5-1.3 3-1.2 2.1-0.6 2.2-1 2.8-2.6-1.6-3.3-0.3-2.9 1.3-2.1 3.2-0.8 1.9 0.3 2.9 1.3 1.9 0.3 0.8-0.6 1.8-2.4 0.9-0.6 25.3-1.9 6.5 0.9 6.3 2.3 23.6 12.3 6.9 1.4 6.6-2.6 5 3.7 3.5 1.6 11 0.4 0.5-0.1z" id="DO34" name="Cibao Noroeste">
  </path>
  <path d="M133.9 219.8l4.1-3.9 5-3 5.2-1.9 1.8-4.8 3.1-3.6 6 1.6 5.9 2 5-3.1 4.3-4.4 10.2 6.6 7.6 10.2 11.1 5.6 10.8 5.8 10.7 5.3 13.1 0.1 9.3 5.5 10.1 5 4.1 2.1 2.1 3.9 0.8 6.5 4.7 4.2 11 7.1 11.1 3.5 5.7-2.8 6-1.3 6.4 2 6.4 2 4.1 4.2 2.1 5.6-2.1 5.6-5.1 2.6-1 5-3.5 3.4-6.1 4.2-3 6.6-1.6 12.9-0.1 13.4-2 4.5-3.3 3.2-3.6-1.5-2.1-4.5-8 2.6 1.5 9.8-0.3 3.3-2.5 3.5 1.6 2.9 0.6 3.3-4.7 2.2-4 1.6-6.6 9.7-10.8 2.9-9-5.1-11.7 3.6-6.8 1.1-6.8-0.7-5.7 1.9-5.3 3.5-12.1-1-11-5.6-12.3-2.5-11.6-4.3-15.5-3.3-15.8-1.3-16.7-2.6-13.7-1.6 6.6-4.1 3.5-2.9 2.9-4.9 1.7-4.4 1.2-4.8 0.4-4.9-2-10.2-0.2-10.6-1.4-4.8-1.8-2.4-5.7-5.2-2.2-2.7-3.5-7.3-2.3-1.9-5.8-0.2-6.1 2.1-4.4 0.7-0.8-4.5 4.3-2.9 12.7-3.4 3.2-2 10.7-11.9 7.4-10.4 3.7-3.4 8.4-6 3.1-4.6 1.3-4.5 1.1-15.6-3.1-1.6z" id="DO37" name="El Valle">
  </path>
  <path d="M101 359.1l13.7 1.6 16.7 2.6 15.8 1.3 15.5 3.3 11.6 4.3 12.3 2.5 11 5.6 12.1 1 5.3-3.5 5.7-1.9 6.8 0.7 6.8-1.1 11.7-3.6 9 5.1 11.7 11.9 15.4 5.4 7.8 1.4 6.6 4.4-0.1 4.6-5.2 2 2.5 4.2 0.8 8.3-5 6.5-7.6 6.6 1.2 2.9 1.2 3.1 2.3 1.7 3.1 1.2 8 2.3 7.2 1.7-0.6 3.8 0.8 5.5 1.9 8.4-3.7 6.2-1.6-2.1-1.3-2.6-1.6-2.3-2.5-2-2.7-1.1-10.7-2.3-4.9-0.1-3.9 1.5-1.5 4-0.6 2.2-2.2 3.8-0.5 2.9 0.5 3.3 1.2 1.8 1.6 1.7 1.8 2.9 4 14.1 1.3 2.4 0 3.1-4.8 7.3-4.1 10.5-23.3 34.2-2.1 5.9-1 2.1-2.3 1.6-5 2.6-3 2.6-2.2 2.5-1.7 3.1-1.5 4.3-1.8-0.6-0.7-0.4-0.8-0.7-0.2-0.2-0.4 1.9-0.4 0.7-0.9 0.8 1.7 0-1 2.2-1.3 1.6-1.6 1.1-1.9 0.4-0.9 1.1-1.7 5.1-0.9 1.9-3 4.4-8.3 24.3-2.6 4.8-10.2 14.3-2.5-1.1-2.1-2.1-0.1-1-2.4-2.1-17-28.1-4.1-4.5-8.4-3.3-19.7 2.7-8.4-2.1 2.4-1.8 7.8-8.2 1.7-3.3-0.3-5.6-1.1-3.9-3.8-7.4-2.7-4.1-0.5-1.5-0.1-3.1 1.6-9.9-1.8-4.5-4.3-5-9-7.5-13.9-5.3 3-7.8 0.9-4.5-0.6-7.6 0.2-4.3-0.6-2.9-2.6-7.4-0.4-2.5 0.7-5.1 1.9-4.9 11-18.9 0.2-0.3 2.9-5-0.6-0.7-2.2-2.1-3.6-2.3-13.2-5-9.4-6.3-2-2.3-3.7-5.5-2.1-1.9-9.6-2.4-3.7-2.1-1.5-4.8 0.9-2.8 1.9-1.1 1.3-1.4-0.6-3.9-1.6-2.5-22.4-23-2.1-4.2 4.2-3.2 9.2-2 18.5 3.4 9.6-3.2 3.2-3.5 5.1-8.7 3.4-3.8 0.6-0.4 1.7-1z m62.4 281.5l2.8-5.1 3.4 1.9 3.6 2.6 6.3 6.1-3.8 1.2-6.2 6.3-4.2 1.5-4.1-2.4-0.1-5.6 2.3-6.5z" id="DO38" name="Enriquillo">
  </path>
  <path d="M887.8 494l2.5 3.4 2.8 5.1 1.8 4.7-0.4 2-3.8-0.8-7.9-3.7-4.2-0.8-4.4 0.5-7.6 2.5-4.2 0.5-8.7-2.3-6.2-5.6-4-7-2.1-6.4 3.6-1.1 4.4 0.9 4.2 2.1 3.7 2.6 2.9 1.1 11.5 1.5 12.8-0.4 3.3 1.2z m-120.2-59.7l-1.2-7.3-3.1-7.5-3-2.5-1.6-3.4 3.2-7 3.9-6.5 1.9-6.8 1.2-6-7.2-0.8-7.8 1.1-7-5.2-6-6.6-4-1.1-4.2 0.4-3.3-2-3.3-2.4 3-9.6 4.3-10 1.1-11.1-3.9-10.5-14.1-14.7-8.9-18.2 14-2.5 20.3 4.8-6.8-12.3 1.2-14.2 0-0.1 0.2-1 9.5 2.6 3.9-0.3 4.6-2.6-1.5-1.9-3.1-1.9 0-2.5 4.4-1.3 3.8 3.5 5.2 8.5 3.4 2 3.7 1.1 3.2 1.4 1.7 2.8 3-2.4 6-2.8 2.8-2.1-1.9-2.1 0.9-0.5 2.3-0.1 2.1-0.7 2.6-2.7 0.7-1.1 1-0.1 8.9 0.5 5.1 1.1 4.7 1.6 4.1 2.3 0.5 0.7 0 1 0.2 1 1 0.9 5 1.8 0.5-0.1 8.8 1.8 5.5 0.3 2.3 0.8 0.4 0.3 2 1.4 2.3 1.3 4.4 0.3 2.5 1 28.7 26.8 10.6 12.8 14.9 11.4 10.6 7.5 3.1 1.4 1.6 1 11.1 10.8 14.1 8.6 6.8 10.4-1.3 10.3-23.2 35.4-1.7 1.4-1.6 1.8-0.7 2.5 0.4 9-0.4 2.6-2.8 4.4-4.1 2.1-5.1 0.6-5.9 0-4.5-1.5-9.8-6.5-3.5-1.1-4.1 2.8 0.6 4.2 1.3 4.9-2.1 5.1-3 4.1-1.9 4.7-3.8 15.1-1.4 2.7-2.8 1-20.9 1.7-4.2-1.5-0.6-9.6-6-12.5-8.2-12.3-7.3-8.4-7.8-5.4-4.9-2.1-5.3-2.3-10.4-1.4-11.9 4.9-18 0.8z" id="DO42" name="Yuma">
  </path>
  <path d="M736.5 271.3l-0.2 1 0 0.1-1.2 14.2 6.8 12.3-20.3-4.8-14 2.5 8.9 18.2 14.1 14.7 3.9 10.5-1.1 11.1-4.3 10-3 9.6 3.3 2.4 3.3 2 4.2-0.4 4 1.1 6 6.6 7 5.2 7.8-1.1 7.2 0.8-1.2 6-1.9 6.8-3.9 6.5-3.2 7 1.6 3.4 3 2.5 3.1 7.5 1.2 7.3-4.6-0.8-10.9-3.7-4.9-0.8-4.2-1.4-7.2-6.1-5.4-1.4-4.8 1-4.8 1.6-4.9 0.4-5-3-5.1 4.8-32.1 2.5-9.6 3.5-5.1 0.1-0.7-0.4 0.9-6.9 1.6-8.3-14.5-2.9-9.8-10.5 4-6.8 5-6.6 0.5-6.6-1.1-6.5-1.3 0.6-1.4-0.1 1.4-4 3.1-3.4-8.9-3.4-8.4 1.8-4.6 3-5.4 1.2-14.4 5.3-11.3 12-2-7.4-5.2-5-1.4-5.2-3.4-4.5-5.6-6.4-6.7-5.3-5.7-0.3-5.8-0.2-3.1 0.1-2.9 1-1.1 2.4-0.7 2.4-10.5 4.8-11.7-2.3-8.1-2.2-7.8-2.9-4.5-8.2-7-2.5-6-4.4-6.4-3.6-4.3-5-4-5.2 1.6-8.2 5.1-5.7 12.8-2.7 10.5-2.5 4.7-4.3 6.5-1.6 5.2 1.1 4.4 0.7 3-4.6 5 0.9 8 4 6.9-5.4 4.3-17 3.7-16.7 6.6 0.2 3.7-5 0.4-4 0.5-2.9 13.2-1.6 16.2 0.6 7 5.4 7.1 5.3 7.8 4.5 7.2 5.4 3.3-7.5 1.5-7.9-0.8-7 0.2-1.9 3.1 2.2 13.6-2.1 4.7 1.7 5.9-1.9 11.6 4.6 6.1-0.7-1.5-1.3-2-1.2-2.3-0.9-2.8-0.3 0-1.8 13.2-0.7 3.9 0.7 4.3 3.2 3.4 8 4.2 3.2 4.2 1.1 8.5 1.1 23 6.2z" id="DO39" name="Higuamo">
  </path>
  <path d="M635.4 250.2l-0.2 1.9 0.8 7-1.5 7.9-3.3 7.5-7.2-5.4-7.8-4.5-7.1-5.3-7-5.4-16.2-0.6-13.2 1.6-0.5 2.9-0.4 4-3.7 5-6.6-0.2 2.2-7.3 0.9-6.9-5.3-3.4-6.1-1.9-8-0.6-7.6 0-5.8-1.9-5.6-2.6-6.4-2.9-7-0.5-10.8-1.3-11 0.2-5 0.9-5.2-0.9-4.8-1.4-4.6 1.6 0.8-0.3 0.1 1.1-12.3-8.1-8-12.4-10.1-0.7-6.9-6.7-5-8.3-3.6-8.8 5.3-15.4 1-14.7-0.1-17.5 8.2-10.2 4.5 1.7 4.1 2 2.9 7 5.8-4 5.1-7.4 7.4-4.3 7.1 6.3 5.7 9.2 2.6 0 2.7 0.5 0.7-7.5 1.5-6.7 5.2-0.4 5.8 0.4 12.2-7.1 4.6-13.6-0.1-1.6 8.1-8.8 4.7-2.2 13.7 0.3 6.7-0.7 3 0.4 3.8 2.2 8.4 9 2.6 6.1-0.1 6.6-4 14.4 4.9 2.1 1.9 4.7-0.1 11.9 0.6 5.2 1.6 4.2 16.4 24.7 7.4 7.2 1 0.9 8.4 3.5 5-0.8 9.6-3.7 4.9-0.9 11.2-0.4 4.9-1.1 5-2 7.3-4.9 2.9-0.7 2.5 0.6 5.2 2.6 3.3 0.6 6-1.5 2.6-0.3 1.4 0 1.3 0.4 1 0.8 0.4 1.5 0.8 1.2 1.7-0.4 2.7-1.7 14.3 5.8 4.3 3.1 2.8-5.7 4.5-4.2 11.2-6.2 7.2-2.2 1.7 3-1.9 6.3-3.6 7.4 4.9 1.8 5.6 0 5.4-1.4 4.5-2.4 1.4 5.8-3.2 4.5-4.4 4.1-2.3 4.5-1 4.7-2.9 4.3-4.3 3.1-5.4 1.3-19.4-3.5-21.2 1.6-5-1.4-9.2-4.6-31.5-3.9-3.5 0.9-1.4 3.5-0.8 12.5-1.8 10.6 0.8 4 2.3 1.7z" id="DO33" name="Cibao Nordeste">
  </path>
  <path d="M237.8 232.3l1.3-8.2-0.3-7.9-4.1-3.9-0.9-5.5 0.7-8.1 0.8-7.9 3.5-4.8 4.5-3.7 3.1-3.6 3.8-2.5 4.6 0.5 4.7-0.3 8.9-4.2 9.5-3.3-2.1-2.5-3.3-2.4 0.5-5.2 3.3-4.4 6.8 3.8 7.2 3.1 3.6 0.8 3.6-0.5 2.3-3.4 2.2-2.8 10.2 4.4 10.9 0 1-4.7-5.7-4.3 1.8-7.5 0.2-7.2-3.7-2.3-3.6-1.7-1.9-4.7-0.5-5.3 6.2 4.4 6.3-0.9 3.6-8 1.6-8.7-10.4-1.4-9.3-4.7-8.3-6.7-10.1-3.2-6.6-1.7-5.5-4.2-8-4-8.4-3-7.4-3-7.7-2.2-5-7.6-1.6-8.9 2.4-0.7 0.6-2 0.2-2.7 1.3-2.7 2.9-1.1 2.1 2.4 2.7 6.9 1.9-1.2 1.5-1.3 1-1.4 0.7-1.8-2.1-0.6-0.5-0.4 0-0.6-0.8-1.8 3.9 1.5 3.2-0.2 3.3-0.8 4-0.5 2.5-2 4.6-8.6 3-2 3.8-0.9 8-4 4.3-0.6 4 1 3.8 2.3 2.1 3.3-1.3 4.2 4.8 1.9 1.8 0-1.2-4-0.6-1.5 11.9 1.9 3.5-0.3 7.3-1.8 2.8 0.2 3.1 2 10.8 13.1 0.9 2.5-1.3 2.4 9.3 0.1 3.6 1.7 9.4 8 9 4.6 9.5 3.3 11 1.7 14.9 0.1 1.2-0.7 1.3-1.8 3-2.1 3.4-1.7 2.4-0.8 9.7 3.1 15 16 9.1 9.6 4.1 2.9 4.5 2.3 5 1.5 11.3 1.2 9.1 3.3 16.5 3.3 3.7-0.1 2.5-0.9 2.2-1.9 0.9-0.9 0.1 1.6-4.6 13.6-12.2 7.1-5.8-0.4-5.2 0.4-1.5 6.7-0.7 7.5-2.7-0.5-2.6 0-5.7-9.2-7.1-6.3-7.4 4.3-5.1 7.4-5.8 4-2.9-7-4.1-2-4.5-1.7-8.2 10.2 0.1 17.5-1 14.7-5.3 15.4-7 1.3-4.9-12.5-5.1 1.1-5.5 2.2-7.8-0.8-5.9-4.4-13 4.2-12.4 6.6-6.2 1.7-1.7 5.3 5.9 4.6 7.6 2.1 3.9 6.9-1.8 8.9 0.7 7.5-6.4-1.3-5.4 0.3-3 7.1-12.9 9.8-15.4 7.5-8.1 3.5-7.2 3.6 1.8 5.5-1.1 5.8-6.4-2-6.4-2-6 1.3-5.7 2.8-11.1-3.5-11-7.1-4.7-4.2-0.8-6.5-2.1-3.9-4.1-2.1-10.1-5-9.3-5.5z" id="DO35" name="Cibao Norte">
  </path>
  <path d="M255 377l10.8-2.9 6.6-9.7 4-1.6 4.7-2.2-0.6-3.3-1.6-2.9 2.5-3.5 0.3-3.3-1.5-9.8 8-2.6 2.1 4.5 3.6 1.5 3.3-3.2 2-4.5 0.1-13.4 1.6-12.9 3-6.6 6.1-4.2 3.5-3.4 1-5 5.1-2.6 2.1-5.6 13 8.9 2.8 24.1 10.5 14.3 15.1 7.7 9.3 11.4-3.5 14.9 11.2-0.2 10.9 0.1 3.8-4.2 5.2-4.8 6.5-8.3 3.5-11.5 10.4 6 9.9 7.3 6.2-0.6 5.9-2.2 6.6 2.7 6.4 4.4 9.1 0.2 3.3-9.9 3.5-7.5 8.5-4 4 5.2 4.3 5 6.4 3.6 6 4.4 0.2 11.7 6.7 10.8-2.2 5.8-1.2 6.4 2.7 9.3 4.6 8.3 6 4.5 4.6 5.6 0.7 4.5 2.8 3 5.6-0.1 5.5 0.2 3.2 4.6 0.2 5.7 0.9 1.6-3.1 1.6-5.5 4.9-4.2 6.6-1.6 7.8-1.3 2.1-5.7 3-1.3 1.9-1 2.9-8.3 7.7-6 7-3.4 2.9-1.5-0.7-0.7 0-5.3 0.1-4.6 0.8-3.1 1.7-4.3-2.7-4.7-0.9-31.6 0.1-5.3 1.7-10.2 5.7-5.7 1.3-17.1 0-4-1.6-0.3-2.3 1.7-1.7 2.4-1.5 1.1-1.6-0.7-2.8-1.7-1.6-1.7-1-1.9-2.5-1.5-1-3.2-2.1-1.1-2.4 0.6-2.6 1.5-1.2 1.6-0.9 1.3-1.8 1.2-5.2 0.1-5.5-0.6-4.8-1.4-3.1-5.4-6.8-3.3-2.4-5.7-2.2-4.9-1.2-6.2-0.4-5.2 1.4-2.3 4.5 0.9 5.5-0.6 2.2-7.4 7.2-2 1.3-2.7 0.8-2.8-0.1-5.2-1.6-2.2-0.2-2 0.7-3.4 2.5-2.3 0.5-3.1-0.4-1.1 0.7-2.5 2.3-0.7 0.9-1.5 3.3-0.3 1.1-0.7 1-3.3 1.1-1.2 0.6-6.6 7.9-3.5 2.1-5.8 0.7-2.4-0.9 3.7-6.2-1.9-8.4-0.8-5.5 0.6-3.8-7.2-1.7-8-2.3-3.1-1.2-2.3-1.7-1.2-3.1-1.2-2.9 7.6-6.6 5-6.5-0.8-8.3-2.5-4.2 5.2-2 0.1-4.6-6.6-4.4-7.8-1.4-15.4-5.4-11.7-11.9z" id="DO41" name="Valdesia">
  </path>
  <path d="M500.5 346.8l7 2.5 4.5 8.2 7.8 2.9 8.1 2.2 11.7 2.3 10.5-4.8 0.7-2.4 1.1-2.4 2.9-1 3.1-0.1 5.8 0.2 5.7 0.3 6.7 5.3 5.6 6.4 3.4 4.5 1.4 5.2 5.2 5 2 7.4 11.3-12 14.4-5.3 5.4-1.2 4.6-3 8.4-1.8 8.9 3.4-3.1 3.4-1.4 4 1.4 0.1 1.3-0.6 1.1 6.5-0.5 6.6-5 6.6-4 6.8 9.8 10.5 14.5 2.9-1.6 8.3-0.9 6.9-12.8-8.9-5.5-3-3.6-0.4-1.5 2.4 0.1 3 0.4 2.9-0.7 2.4-2.2 0.7-3.4 0-3.2-0.6-1.4-0.9-4.2-7.1-1.9-1.9-1.9-0.6-38-4.2-6.9 0.3-1.1 0-4 1.2-7.7 3.8-6.4 4.4-2.4 1.1-3.5 1.1-3.1 1.1-2.6 1.3-0.9-1.6-0.2-5.7-3.2-4.6-5.5-0.2-5.6 0.1-2.8-3-0.7-4.5-4.6-5.6-6-4.5-4.6-8.3-2.7-9.3 1.2-6.4 2.2-5.8-6.7-10.8-0.2-11.7z" id="DO40" name="Ozama">
  </path>
  <path d="M321.7 279.8l-2.1-5.6-4.1-4.2 1.1-5.8-1.8-5.5 7.2-3.6 8.1-3.5 15.4-7.5 12.9-9.8 3-7.1 5.4-0.3 6.4 1.3-0.7-7.5 1.8-8.9-3.9-6.9-7.6-2.1-5.9-4.6 1.7-5.3 6.2-1.7 12.4-6.6 13-4.2 5.9 4.4 7.8 0.8 5.5-2.2 5.1-1.1 4.9 12.5 7-1.3 3.6 8.8 5 8.3 6.9 6.7 10.1 0.7 8 12.4 12.3 8.1-0.1-1.1-0.8 0.3 4.6-1.6 4.8 1.4 5.2 0.9 5-0.9 11-0.2 10.8 1.3 7 0.5 6.4 2.9 5.6 2.6 5.8 1.9 7.6 0 8 0.6 6.1 1.9 5.3 3.4-0.9 6.9-2.2 7.3-3.7 16.7-4.3 17-6.9 5.4-8-4-5-0.9-3 4.6-4.4-0.7-5.2-1.1-6.5 1.6-4.7 4.3-10.5 2.5-12.8 2.7-5.1 5.7-1.6 8.2-8.5 4-3.5 7.5-3.3 9.9-9.1-0.2-6.4-4.4-6.6-2.7-5.9 2.2-6.2 0.6-9.9-7.3-10.4-6-3.5 11.5-6.5 8.3-5.2 4.8-3.8 4.2-10.9-0.1-11.2 0.2 3.5-14.9-9.3-11.4-15.1-7.7-10.5-14.3-2.8-24.1-13-8.9z" id="DO36" name="Cibao Sur">
  </path>
 </g>
 <g id="points">
  <circle class="17.66516557568335|-71.82577586601813" cx="90.9" cy="624.1" id="0">
  </circle>
  <circle class="18.622017730612857|-69.98515839759276" cx="545.5" cy="375.4" id="1">
  </circle>
  <circle class="19.81808292427474|-68.51266442285245" cx="909.1" cy="62.6" id="2">
  </circle>
 </g>
 <g id="label_points">
  <circle class="Cibao Noroeste" cx="188.3" cy="127.4" id="DO34">
  </circle>
  <circle class="El Valle" cx="201.1" cy="300.4" id="DO37">
  </circle>
  <circle class="Enriquillo" cx="192.6" cy="483.3" id="DO38">
  </circle>
  <circle class="Yuma" cx="833.8" cy="365" id="DO42">
  </circle>
  <circle class="Higuamo" cx="653.7" cy="318.6" id="DO39">
  </circle>
  <circle class="Cibao Nordeste" cx="528.8" cy="187.5" id="DO33">
  </circle>
  <circle class="Cibao Norte" cx="380.2" cy="128.6" id="DO35">
  </circle>
  <circle class="Valdesia" cx="448.8" cy="410.4" id="DO41">
  </circle>
  <circle class="Ozama" cx="560.4" cy="386.6" id="DO40">
  </circle>
  <circle class="Cibao Sur" cx="427.6" cy="276.1" id="DO36">
  </circle>
 </g>
</svg>