<?xml version="1.0"?>
    
<!--********* Copyright (c) 2024 Pareto Softare, LLC DBA Simplemaps.com ***************************************
************* Free for Commercial Use, full terms at  https://simplemaps.com/resources/svg-license ************
************* Attribution is appreciated! https://simplemaps.com *******************************************-->

<svg baseprofile="tiny" fill="#6f9c76" height="733" stroke="#ffffff" stroke-linecap="round" stroke-linejoin="round" stroke-width=".5" version="1.2" viewbox="0 0 1000 733" width="1000" xmlns="http://www.w3.org/2000/svg">
 <g id="features">
  <path d="M455.1 105.1l30-13 8.4-4.3 8.9-4.5 18.1-9.2 8.9-5.5 23.7-14.4 22.3-13.5 20.6-7.4 6.7 5.8 27.2 0 33.6 1.9 14.6-1.2 7.9-0.7-12.1 15.9-8.1 9.8-11.8 12.2-7.9 0-1 18.8 13.9-4.1 1.2-6.6 18.9-5.4 6.3-7 12.4-23.1 6.3-1.4 5 5.5 8.9-5.5 5 5.5-7.1 14.6 9.6-2.3 10.4 9.6-0.8 11.9 7.8 5 12.9-7.4 2.9 6.6 0 11-3.4 14.1 12 0.9 6.6 10.4 15 7.3 45.2-13.6 10-5.5-29.6 23.5-27.7 13.6-23.9-5.5-37.7 4.1-35.3 1.4-15.1-15-21.3-1.3-23.9 12.2-27.7 15-8.8-4.1-18.9 4.1-2.5 13.6-39 15-13.8-9.6-46.6 5.5-8.8-42.2-8.4-41.5z" id="HK5168" name="North">
  </path>
  <path d="M529.1 697l-42.7 2.9 5.2-15 0-53-15.9 0.3 3.4-11.2 0.6-23.3 10.6 4.3 6.7 20 13.4 14.6 11.4-4.7 0 10.8-11.4 8.2 20-1.4 18.5 0 8 4.3-18.6 13-6.4 8.7 10.1 21.6-12.9-0.1z m-228.5-238.7l56.2-0.6-1.4 12.5-27.2-4.1 0 23.1 15.2-6.7-7.4 22.4 2.1 42.6-23.7 0-14.2-5.5 19.2 27.3-23.9 19 36.3 24.6-23.9 19-29.3 13.8-2.1-12.3 0-38.2-18.7 0-15.3 0-22.4 0-27.9 23.1-11.1 0-5.1 8.3 16.2 4 0 10.7-14.9 10-20.7 1.8-19.7-19.7-2.5-12.4-13.8 4.2-16.5 12.1-23.5 20.3-20.5 7.5-11.6-13.6-2.1-22.7-0.9-18.6 3-9.7 16.1 0 0-17.3 12.2-3.3 0-10.9-10-7.8 0.8-0.6 14.2-11.1 11.4-9.6 1.1-3.1 14.8-2.7 11.5-12.3 13.8-23.2 30.3 0 16.4 1.5 11.1 12.1 16.6-6.7 37.5-21.7 23.9 5.4 11.3-19.1 14-2.7 5.1-9.1z" id="HK5170" name="Islands">
  </path>
  <path d="M713 574.9l-9.9 12.2 6 16.3 7.6 14.9-7.6 2.7 11.4 32.8-20.1 4-5.1-6.9-12.4-10.9-0.2-18.3-5.1-20.2-11-9.1-9.4 7.9 9.4 3.1 0 13.5-6.4 1.4-11.2 13.6 11.2 17.7-5 12.2 6.3 12.4-19 4-2.7-27.3 5.3-4-4.5-8.4-16.9 8.4-7.5-4.2 7.5-9.3-11.3-6.8 7.5-11-3.7-9.5-14-2.7 1.8-14.8-20.4 13.4-6.3 9.5-3.8 0-3.7-9.5-2.6-12.3-14.2-8.1-26.1-1.2-11.2-5.5-6.5-13.7-2.4-8.1-7.6-13.6-10.1-4 23.5 0.1 15.1 8.2 21.4 16.3 20.5-1.5 17.2-1.2 25.2-0.8 20.1-0.6 47.8 4.1 33.1 14.8z" id="HK5156" name="Southern">
  </path>
  <path d="M569.6 558.6l-20.5 1.5-21.4-16.3-15.1-8.2-23.5-0.1 1.3-11 3.7-2.7 7.7-4 13.9-6.9 16.2-5.4 17.4 5.4 11.6 6.9 13.9 4-5.2 36.8z" id="HK5153" name="Central and Western">
  </path>
  <path d="M612 556.6l-25.2 0.8-17.2 1.2 5.2-36.8 21.2 0 12.2 7 13.8 2.8-3.8 10.8-6.2 14.2z" id="HK5154" name="Wan Chai">
  </path>
  <path d="M713 574.9l-33.1-14.8-47.8-4.1-20.1 0.6 6.2-14.2 3.8-10.8-13.8-2.8-12.2-7 15-13.6 13.9-8.1 15.5 6.3 14.8 4.5 10 10.9 10.2-2.7 12.5 5.4 12.5 23 12.6 9.7 0 17.7z" id="HK5155" name="Eastern">
  </path>
  <path d="M356.8 457.7l-56.2 0.6 6.3-11.2 28.7-23.1 5.1 12.2 37.6-30.1 8.9 6.2 8.9 10.3-5 13.6-2.5 14.9-6.5-5.6-12.6-2.4-11.2 0-1.5 14.6z m132.2-72.3l-2.4-14.5-10-6.8-11.8 11.9-29.6-5.1-1.3 5.4-12.7 0-5.2 6.8-14.9-4.1-12.5 4.1-16.6 6.9-31.3 8.1 15.9-22.9-13.8-15 22.6-17.7 59.1-21.7 67.9-20.4 36.5-9.6 26.4-9.5 27.7-0.8 3.8 37.6-36.5 51.7-13.8-23.2-12.6 5.5 6.9 22.7-13.2 5.8-28.6 4.8z" id="HK5165" name="Tsuen Wan">
  </path>
  <path d="M532.7 192.9l39-15 2.5-13.6 18.9-4.1 8.8 4.1 27.7-15 23.9-12.2 21.3 1.3 15.1 15 35.3-1.4 37.7-4.1 23.9 5.5 27.7-13.6 29.6-23.5 3.8 9.7-30.3 24.5-17.6 16.3-19 8.3-21.3 9.4-18.8 13.7-7.5 12.1-16.7 11-12.6 0-23.7-31.4-22.7 4.2-8.7-5.6-3.9 8.3 2.6 14.8 7.5 4.1 2.5 12.3-11.6-2.7-1-8-11.4-7-18.8 2.7-6.3 8.3-30.9 6.5 14.5 8.4 17.7 12.4 20.5 13.9 8.1 5.7-37.9 11.8-17.6 0.5-27.7 0.8-26.4 9.5-18.8-69.4 22.6-28.5z m180.3 65.1l25.4 0 3.5 9.1-3.5 16.6 8.6 11 6.3-17.7 20.2-10.8-20.2-31.3 20.2-16.3 20.3-5.6-1.3-14.8 37-26.2 2.1 8.4 9.2 1.9-9.2 17.2 17.2 4.4 3.8 26.8-8.5 11.1 7.5 14.7 8.6-10.6 7.8 25.7 7.6-1.3-1.2-30.2 13.4-35.2 12.8 10.8-0.8 15.2-7.4 23.2 2.6 36.7-22.7 15-27.7-13.6-23.9-13.6-30.1 15-29 17.7-49 8.1 1.2-29.9-0.8-31.5z" id="HK5169" name="Tai Po">
  </path>
  <path d="M550.3 369.8l36.5-51.7-3.8-37.6 17.6-0.5 37.9-11.8 10.5 7.5-2.9 13.7 7.9 6.7-8.9 17.8 10.1-2.9 12.6-25.6 17.4-17 6.5-18.5 9-0.3 12.3 8.4 0.8 31.5-1.2 29.9-21.4 31.3-23.9 38.1-60.4 13.4-25.1 5.6-17.1 5.1-8.1-21.4-6.3-21.7z" id="HK5163" name="Sha Tin">
  </path>
  <path d="M712.6 319.4l49-8.1 29-17.7 30.1-15 23.9 13.6 27.7 13.6 22.7-15-2.6-36.7 7.4-23.2 4.6 10.9 25.1 1.4 22.6 5.4-3.9 13.4 6.3 27.4-19.2-9.1-12.2-1.9-18.7 36.7 7.8-4.5 16 23 7.7 37.3-5.1 1.3-1.3-8.6-15.1-0.8 5 14.9-6.3 15-8.7 8.1-15.1 5.3-5.2 23.3-8.5-12.3 0-21.7-16.7 10.7-4.7-12-10.1-12.4 2.5-27.1-22.4-9.5-2.9-15-13.8 9.8-16.1 3.8-22.7-16.4-12.9 0-14.9 21.9 7.4 25.8 10.4 15-5.4 12.1-14.9-13.4-1.4-17.8-12.8 6.8-4.6 10.7 16.5 16.7 10.9 44.7 7.5 2.6 22.7 4.6 1.3 19.9 6.3 0 12.7-2.7 12.5 16.4-9.6 11.4-12.8 8.9-11.6-4-2.5 1.3 1.2 9.6-0.3 13.5 17-5.4 4.9 13.6 0 12.3-10.3 6.7-12.5-11-17.2-10.2 2.4-15.5-10.4-28.6-13.7-10.7 1.3-13.7 1.1-10.8-17.4-11-6.6 29.9 2.5 16.3-15.4 16.7-11.4-25.9 8.8-32.7-12.6-23.1-17.6-39.4 23.9-38.1 21.4-31.3z" id="HK5162" name="Sai Kung">
  </path>
  <path d="M684.9 428.2l12.6 23.1-8.8 32.7 11.4 25.9-7.3 7.9-17.4-17.7-26.4-32.7-5.6-22.8-5-18.9 46.5 2.5z" id="HK5161" name="Kwun Tong">
  </path>
  <path d="M581.8 407.8l25.1-5.6 12.6 26 18.9-2.5 5 18.9 5.6 22.8 5 16.4-3.8 0-27.4-29.8-14.4 16.6 7.8 11.9 0 5.3-12.4-5.3-3.3 13.1-8.3 5.8 0.9-22.9-3.8-17.6 1-15.2 1.5-22.9-10-15z" id="HK5158" name="Kowloon City">
  </path>
  <path d="M590.3 445.7l-1 15.2 3.8 17.6-0.9 22.9-7.5 4.1-7.4-9.5 1.5-19.7-4-8.9-1.3-8-8.7 0 0-12.3 25.5-1.4z" id="HK5157" name="Yau Tsim Mong">
  </path>
  <path d="M564.7 412.9l17.1-5.1 10 15-1.5 22.9-25.5 1.4-11.8-10.9-10.5-6.1 4.3-11.8 17.9-5.4z" id="HK5159" name="Sham Shui Po">
  </path>
  <path d="M489 385.4l28.6-4.8 13.2-5.8-6.9-22.7 12.6-5.5 13.8 23.2 6.3 21.7 8.1 21.4-17.9 5.4-4.3 11.8-12.1-7-22.3-10.8-1.3 8.8-16.4-27-1.4-8.7z" id="HK5164" name="Kwai Tsing">
  </path>
  <path d="M365.4 342.5l-22.6 17.7 13.8 15-15.9 22.9-8.9-5.4 0-9.6-26.3 0-10.9-8.9-14.9-4.7-9.5-21.7-6.2-1.3-3.7-12.4-10.1 11.2 16.6 15-31.8 3.8-16.3 13.6-22.8-12.2-7.6 0-18.6-12.3 6.3-20.4-12.5-18.9-21.9-17.6 20.1-17.2 34.2-2.1 16.7-12.1 32.1 17.8 44 21.8 75.4 0 1.3 38z" id="HK5166" name="Tuen Mun">
  </path>
  <path d="M455.1 105.1l8.4 41.5 8.8 42.2 46.6-5.5 13.8 9.6-22.6 28.5 18.8 69.4-36.5 9.6-67.9 20.4-59.1 21.7-1.3-38-75.4 0-44-21.8-32.1-17.8 21.1-39.6 37.8-16.4 34-51.8 10.1 0 12.6 4.3-1.6 10.6-0.9 12.5 6.1-4.1 19-5.3 5 0 2.5-7-1.3-9.4 0-13.7 18.8-9.6 25.3-6.7 5.5-6.1 24-6.8 24.5-10.7z" id="HK5167" name="Yuen Long">
  </path>
  <path d="M606.9 402.2l60.4-13.4 17.6 39.4-46.5-2.5-18.9 2.5-12.6-26z" id="HK5160" name="Wong Tai Sin">
  </path>
 </g>
 <g id="points">
  <circle class="22.196190740224115|113.8655298274528" cx="90.9" cy="666.7" id="0">
  </circle>
  <circle class="22.34916128485488|114.1475122468365" cx="545.5" cy="400.2" id="1">
  </circle>
  <circle class="22.540374465643332|114.37309818234345" cx="909.1" cy="66.7" id="2">
  </circle>
 </g>
 <g id="label_points">
  <circle class="North" cx="589.5" cy="98.3" id="HK5168">
  </circle>
  <circle class="Islands" cx="161.8" cy="560.3" id="HK5170">
  </circle>
  <circle class="Southern" cx="635.9" cy="587.2" id="HK5156">
  </circle>
  <circle class="Central and Western" cx="541.7" cy="528.9" id="HK5153">
  </circle>
  <circle class="Wan Chai" cx="591.3" cy="539.5" id="HK5154">
  </circle>
  <circle class="Eastern" cx="644.5" cy="532.4" id="HK5155">
  </circle>
  <circle class="Tsuen Wan" cx="477.7" cy="334.8" id="HK5165">
  </circle>
  <circle class="Tai Po" cx="594.4" cy="192.5" id="HK5169">
  </circle>
  <circle class="Sha Tin" cx="619.6" cy="351.9" id="HK5163">
  </circle>
  <circle class="Sai Kung" cx="850.1" cy="327.9" id="HK5162">
  </circle>
  <circle class="Kwun Tong" cx="671.6" cy="456.9" id="HK5161">
  </circle>
  <circle class="Kowloon City" cx="607.5" cy="443.7" id="HK5158">
  </circle>
  <circle class="Yau Tsim Mong" cx="583.2" cy="467.8" id="HK5157">
  </circle>
  <circle class="Sham Shui Po" cx="570.4" cy="429" id="HK5159">
  </circle>
  <circle class="Kwai Tsing" cx="533.7" cy="399.5" id="HK5164">
  </circle>
  <circle class="Tuen Mun" cx="218.8" cy="317.5" id="HK5166">
  </circle>
  <circle class="Yuen Long" cx="410.8" cy="239.4" id="HK5167">
  </circle>
  <circle class="Wong Tai Sin" cx="647.5" cy="409.7" id="HK5160">
  </circle>
 </g>
</svg>