<?xml version="1.0"?>
    
<!--********* Copyright (c) 2024 Pareto Softare, LLC DBA Simplemaps.com ***************************************
************* Free for Commercial Use, full terms at  https://simplemaps.com/resources/svg-license ************
************* Attribution is appreciated! https://simplemaps.com *******************************************-->

<svg baseprofile="tiny" fill="#6f9c76" height="1000" stroke="#ffffff" stroke-linecap="round" stroke-linejoin="round" stroke-width=".5" version="1.2" viewbox="0 0 1000 1000" width="1000" xmlns="http://www.w3.org/2000/svg">
 <g id="features">
  <path d="M573.4 182.2l0.5-0.4 0.2-0.2 0.5-0.4 0.1-0.3 0-0.3-0.7-1 0-0.3 0.2-0.3 1.4-0.3 0.3-0.2 0.2-0.1 0.3-0.3 0-0.1 0.2-0.2 0-0.3 0-0.3-0.1-0.4-0.2-0.7-0.1-0.3 0.1-0.3 0.2-0.3 0.2-0.1 2.5-1.2 0.2-0.1 1.2-1.1 0.6-0.3 2.4-1.1 2.1-1.5 0.6-0.3 0.3-0.1 0.4-0.1 0.3 0.2 0.1 0.6 0 0.4-0.1 0.3-0.2 0.3-0.3 0.5-1.1 1.3-0.1 0.2-0.8 1.1-1.5 1.2-0.2 0.2-0.1 0.3-0.3 1.5 0 0.8 0.1 0.5 0 0.3 0.3 0.3 0.3 0.2 0.8 0.2 0.4-0.1 0.3-0.2 0.4-0.5 0.3-0.2 0.3-0.1 0.3 0.1 0.8 0.9 1.6 2.1 0.4 0.3 2.4 1.4 0.3 0.2 1.1 1 0.8 0.5 1.5 0.8 0.8 0.2 0.6 0.1 0.3-0.1 1-0.4 1.5-0.2 1-0.4 1.8-0.8 0.6-0.4 0.7-0.6 0.2-0.2 0.3-0.1 0.4-0.1 0.5 0.2 0.7 0.5 2.4 2.7 0.4 0.3 0.7 0.4 2 0.6 0.3 0.2 3.9 3.1 0.4 0.2 0.3 0.1 0.4 0 0.3 0 0.4-0.1 0.9-0.4 0.4-0.1 0.8 0 0.3 0 0.3-0.1 0.5-0.4 0.3-0.2 0.4 0.1 0.5 0.3 1.3 2.1 0.2 0.3 0.1 0.8 0.2 0.3 0.2 0.2 0.4 0 0.3-0.2 0.2-0.3 0.2-0.3 0.4-0.4 1.6-1.1 1.3-0.5 0.3-0.1 0.2-0.3 1.7-2.3 0.2-0.3 0.3-0.1 0.3-0.2 0.7-0.1 1-0.4 0.4 0 0.4 0.2 0.7 0.5 0.4 0.2 0.4 0.1 1.2 0.2 0.4 0.1 0.3 0.1 3.4 1.9 0.3 0.1 0.3-0.1 0.3 0.1 0.4 0.3 0.5 1 0.8 2.6 0.2 0.3 0.2 0.3 0.5 0.5 0.4 0.4 0.3 0.7 0.3 0.4 1.7 1.3 2.2 2.3 1.9 1.3 0.2 0.2 0.2 0.3 0.8 1.6 1.2 1.5 1.3 1.1 0.3 0.2 0.7 0.2 0.6 0.3 0.3 0.2 0.7 0.6 0.2 0.2 1 0.4 0.2 0.2 0.9 0.9 0.2 0.3 0.2 0.4 0 0.6-0.1 0.4-0.2 0.3-0.8 0.5-0.5 0.4-0.2 0.3-0.3 0.6-0.1 0.3 0 0.4 0.2 0.3 1 1 1.2 1.6 0.6 0.6 0.4 0.7 2.3 5.2 0 0.3 0.1 0.3-0.1 0.4-0.2 0.6 0 0.4 0.1 0.3 1.2 3.2 0.2 0.4 0.3 0.4 0.7 0.7 0.6 0.4 0.6 0.3 0.6 0.3 3 4.1 0.5 0.8 0.6 2.3-0.5-0.1-0.5 0.2-0.4 0.2-0.2 0.1-0.3 0.2-1.1 1.6-0.4 0.4-0.4 0.2-0.4 0-0.4-0.1-0.3-0.1-0.3-0.1-0.2-0.1-1.4-1-0.3-0.2-0.3-0.1-0.3 0.2-0.2 0.3-0.2 0.7 0 0.5 0 0.5 0.4 1.4 0.1 0.8-0.1 0.8-0.1 0.4-0.6 1.4-0.1 0.5 0 0.4 0.1 0.3 0.2 0.5 0.1 0.3 0 0.3 0.1 0.9-0.2 1.2-0.2 0.4-0.2 0.3-0.5 0.4-0.5 0.2-0.4 0-0.8 0-0.8-0.1-0.9-0.4-0.4-0.1-0.3 0-0.3 0.2-0.2 0.3 0 0.6 0 0.5 0 0.3 0.1 0.3 0.4 0.6 0.2 0.3 0.1 0.3 0 0.4 0 0.4-0.1 0.4-0.2 0.7-0.2 0.3-0.3 0.4-0.4 0.4-0.5 0.1-0.4-0.1-1-0.3-0.3 0-0.4 0-0.3 0.2-0.3 0.2-0.5 0.6-0.4 0.2-0.7 0.3-1.7 1.1-0.5 0.1-0.5 0.1-0.8-0.1-0.4 0-0.4 0.1-0.3 0.1-0.3 0.1-0.6 0.4-0.3 0.2-0.3 0.3-0.3 0.5-0.3 0.4-0.3 0.2-0.6 0.3-1.4 0.4-1.7 0.9-0.4 0.1-0.4 0.1-0.3 0-0.8-0.1-0.3 0-0.4 0.1-0.7 0.1-1.6 0.3-0.8 0.1-0.2 0.3-0.3 0.4-0.2 0.9 0 0.6 0.2 0.4 0.3 0.6 0.1 0.3 0.1 0.8 0 0.4 0.1 0.4 0.3 0.5 0.2 0.3 0.3 0.2 0.3 0.2 0.3 0.1 0.4 0.1 0.4 0 0.4-0.1 0.6-0.2 0.3 0.1 0.3 0.1 0.3 0.2 0.3 0.2 0.3 0.1 0.3 0 0.6-0.2 0.2 0 0.2 0.2 0 0.3-0.1 0.5-0.3 0.5-0.7 0.8-1 1-0.2 0.3-0.2 0.5-0.1 0.8 0.1 0.5 0.1 0.4 0.1 0.3 0.1 0.3 0.1 0.4 0 0.4-1.1 8-0.8 2.9-0.1 0.7 0 0.4 0.1 0.4 0.1 0.4 0.1 0.3 0.8 1 0.4 0.6 0.5 1.2 0.4 1.4 0.8 3.7 0 0.8 0 0.5-0.2 0.6-0.8 1.6-0.9 1.2-1.5 1.7-0.4 0.5-0.5 0.9-0.6 1.9 0 0.2-0.6 2.2-0.9 2.1 0 0.6 0.1 0.4 0.2 0.2 0.3 0.2 5.8 2.7 2 0.4 2.5 0.1 0.7 0.2 0.6 0.2 0.3 0.2 0.2 0.3 0.2 0.3 0 0.4 0 0.3 0 0.8 0 0.3 0.4 1 0.1 0.3 0.1 0.4-0.2 0.6-0.3 0.7-3.7 6.9-0.3 0.8-0.1 0.7-0.1 0.3-0.1 0.5-1 1.4-1.3 1-2.4 1.3-0.4 0.1-0.4 0.1-0.3 0-0.4 0.1-0.3 0.4-0.3 0.8-0.1 0.6 0.1 0.8-0.2 0.7-0.3 0.7-0.8 1.4-0.6 1.5-0.3 0.5-0.5 0.5-0.6 0.5-0.4 0.4-0.3 0.4-0.2 0.7 0 0.4 0 0.4 0.4 0.6 0.6 0.8 0.1 0.2 0 0.4-0.2 0.3-0.6 0.3-0.4 0.1-3.1 0.6-0.4-0.1-0.4 0-1.3-0.5-0.4-0.1-1 0.2-0.8 0-0.4 0-0.3 0.1-0.3 0.2-5.4 3.7-1.1 1.1-0.5 0.4-0.6 0.4-0.3 0.1-0.3 0.1-0.4 0-0.4-0.1-0.2-0.2-0.3-0.2-2-3-0.6-1.2-0.2-0.7-0.1-0.8 0-0.8 0-0.4 0.2-0.8 0.3-0.6 1-1.7 0.2-0.7 0.1-0.3 0.1-0.4-0.1-0.4-0.2-0.3-0.7-0.6-0.2-0.3-0.1-0.2-0.2-0.4 0-0.3 0.1-0.8-0.2-1.5 0-0.4-0.2-0.3-0.3-0.6-0.2-0.3-0.1-1-0.1-0.2-0.3-0.2-0.5-0.4-0.3-0.2-0.2-0.3-0.1-0.7-0.2-0.2-0.4-0.5-1.1-0.8-1.2-0.6-1.4-0.4-0.6-0.3-1.1-0.7-1.8-2.3-0.7-0.7-0.5-0.3-0.3-0.1-0.3-0.1-1.5 0.3-0.8 0-0.4 0-0.6 0.2-0.3 0-0.2-0.2-0.1-0.4-0.1-1.2-0.1-0.4-0.2-0.2-0.3-0.2-1.1-0.2-0.4-0.1-0.3-0.2-0.4-0.4-0.9-0.5-0.2-0.3-1-1.2-0.7-0.7-0.2-0.2-0.4-0.1-0.3 0-0.7 0.1-0.3 0-0.4 0-0.4-0.1-0.8-0.1-3 0.6-0.3 0.1-0.9 0.5-0.3 0.1-1.1 0.2-0.4 0.1-0.3 0.2-0.3 0.1-0.3 0.1-0.4 0-1.6-0.1-0.3 0-0.4-0.2-0.5-0.3-0.4-0.1-0.3-0.1-0.4 0.1-0.8 0-0.7-0.2-0.6-0.3-0.4-0.1-0.3 0-0.3 0.1-0.6 0.3-0.2 0.1-0.2 0.1-0.3-0.1-0.6-0.3-0.3-0.1-0.2 0.1-0.2 0.4 0 0.8 0 0.4-0.2 0.5-0.5 0.5-0.8 0.6-0.4 0.4-0.4 0.5-0.4 1-0.1 0.5 0 0.5 0.5 2.3 0.1 0.8 0 0.6-0.6 3.9-0.1 0.5-0.4 1-0.1 0.4-0.2 1.5 0 1.3 0.5 3 0.1 0.4 1 1.7 0.2 0.7 0.2 0.7 0.3 1.6 0.1 2.4-0.1 0.4-0.3 0.6-0.1 0.5-0.1 0.5 0.2 0.6 0.3 0.8 0.3 0.6 1 0.8 0.4 0.6 0.2 0.2 0.2 0.2 0.1 0.3 0.2 0.7 0.2 0.3 0.2 0.2 0.3 0.3 0.4 0.4 0.3 0.2 0.1 0.3 0.2 0.4 0.1 1.2 0.3 0.3 0.2 0.3 0.3 0.2 0.3 0.2 0.2 0.2 0.2 0.3 0.2 0.6 0.2 0.3 0.3 0.2 0.2 0.1 0.4 0.2 0.6 0.3 0.2 0.2 0.2 0.4-0.1 0.6-0.7 2.1 0.1 0.3 0.3 0.3 0.2 0.5 0.2 0.6 0 1.6 0.1 0.3 1.4 2.1 0.9 0.9 1.1 0.7 0.3 0.2 0.4 0 0.4 0.1 0.8-0.1 0.8 0.1 0.3 0.2 0.2 0.3 0.1 0.6-0.1 1.1 0.1 0.6 0.1 0.5 0.2 0.4 0.1 0.5 0.1 0.9 0.1 0.5 0.1 0.4 0.2 0.3 0.1 0.3-0.1 0.7-0.3 0.9-1.4 2.5-0.4 0.5-0.4 0.4-0.3 0.3-0.1 0.4 0.1 0.7 0.3 1.2-0.2 0.5-0.3 0.6-0.8 1.2-0.4 0.6-0.6 0.6-0.2 0.4-0.2 0.5-0.6 2.8-0.2 0.5-0.4 0.5-0.8 0.6-0.2 0.3 0 0.5 0.1 0.6 0.2 0.4 0.3 0.2 1.1 0.1 0.3 0.2 0.1 0.3-0.1 0.5-0.1 0.6 0 0.9 0 0.3-0.5 0.4-0.6 0.5-0.3 0.3-0.2 0.5-0.2 0.8 0 1.5-0.1 0.4-0.2 0.3-0.7 0.2-0.2 0.4-0.3 1-0.1 2.4-0.3 2-0.2 0.5-0.3 0.4-0.7 0.7-0.5 0.1-0.4 0.1-0.4-0.1-0.3 0.1-0.4 0-0.2 0.1-0.2 0.1-0.2 0.2-0.2 0.3-0.2 0.5-0.1 0.9 0 1 0 0.4-0.2 0.5-0.4 0.6-0.7 0.7-0.2 0.3-0.1 0.4-0.1 0.8 0.1 0.5 0.1 0.8-0.1 0.7-1.7 3.1-2.1 2.9-3.5 0.8-1.8 0.7-9 1.7-2.5 0.1-1.5-0.2-0.6-0.5-0.8-1.3-0.4-0.6-0.9-0.3-2.1 0.4-2.7-0.4-1.7-0.5-1-0.5-0.6-0.6-0.3-0.6-0.4-0.5-0.5-0.4-1.8-1-0.5-0.4-0.4-0.5-0.5-1.3-0.1-0.7 0-0.5 0-0.6-0.6-0.5-1.2-0.6-2.7-0.9-1.7-0.3-1.4 0-1.6 0.2-1 0.2-0.7 0.4-2.1 1.6-0.6 0.2-2.4 0.4-0.7 0.2-0.6 0.3-1 0.9-0.3 0.5-0.7 1.2-0.4 0.5-0.6 0.2-0.7-0.9-0.7-0.5-1.3-0.5-1.8-0.2-3.2 0-0.8-0.4-0.2-0.5 0.2-1.4 0-0.7-0.1-0.7-0.7-2.1-0.4-0.6-0.5-0.1-0.6 0.1-0.8 0-1 0.5-0.8 0.2-2.6-0.2-2.3-0.4-1.3-0.1-1 0.1-3.8 1-4.1 0.3-1-0.1-0.8-0.2-0.7-0.4-0.5 0.2-0.9 0.9-1.2 0.6-1 0.8-0.6 0.3-1.2 0.3-0.7 0.2-0.5 0.3-0.8 0.3-1.1 0.2-1.7 0.2-1 0.3-0.6 0.5-0.2 0.5-0.5 0.5-0.6 0.2-1.7 0.5-1.3 0.2-0.9 0.2-2 1.3-0.6 0.3-0.6 0-0.8-0.1-0.7 0.3-0.6 0.4-1.3 0.4-0.8 0-0.4-0.5-0.1-1.2-0.3-0.6-0.5 0-1.3 0.6-1 0.3-0.8-0.1-0.7-0.2-0.7-0.4-0.8-0.3-2.5-0.6-0.7-0.2-0.4-0.4-0.7-0.7-0.5-0.3-0.8-0.1-0.5 0.6-0.4 0.6-0.3 0.8-0.1 0.6-0.1 0.7 0.1 1.2 0.1 0.6-0.2 0.6-1 2.4-0.1 0.6-0.2 1.3-0.2 0.5-1.8 1.9-0.4 0.5-0.5 1.1-0.8 3.2-0.2 1.4-0.2 0.6-0.3 0.6-0.5 0.6-1.6 1.9-0.4 0.6-0.2 0.9-0.1 0.7 0.3 2.1-0.2 0.7-0.3 0.5-2.4 1.8-0.6 0-2.4-0.8-0.8-0.2-0.6 0.2-0.5 0.2-0.5 0-0.4-0.3-0.5-0.4-0.6-0.4-0.7-0.2-1-0.3-0.6 0.1-0.5 0.4-0.9 0.9-0.4 0.5-0.3 0.6-0.2 0.5-0.2 0.4-0.6 0.7-1.2 0.3-0.4 0.3-0.3 0.3-0.6 0.6-0.6 0.3-0.6-0.1-0.4-0.4-0.3-0.6-0.2-0.6-0.3-0.5-0.6-0.4-1.2-0.6-0.7 0-0.4 0.1-0.3 0.5-0.5 0.4-1.3 0.8-0.9 0.4-0.8-0.1-5.6-2.5-0.6-0.4-1-0.8-0.7-0.5-0.8-0.5-1.6-0.6-0.9-0.2-0.9 0-2.4 1.1-1.2 0.8-0.8 0.2-0.6-0.2-0.5-0.4-0.5-0.6-0.6-0.5-2-0.9-1.5-1.1-0.5 0.1-0.5 0.4-0.4 0.4-0.9 0.7-0.3 0.3-0.7 0.9-0.9 0.9-0.4 0.5-0.4 0.5-0.6 0.6-0.8 0.5-1.6 0.5-1.6 0.9-2.5 2.1-0.4 0.5-1 1.7-0.3 0.6-0.1 0.6 0.3 0.6 0.3 0.5 2.3 3.3 0.2 0.6 0.3 1.1 0.3 0.6 1.4 2.2 0.3 0.6 0.3 0.7 1.3 6.3 0.5 1.2 0 1.3 0.2 0.7 0.3 0.5 0.8 1 0.3 0.6 0.1 0.7-0.2 0.8 0 0.7 0.9 1.7 1.3 1.2 0.3 0.4 0.3 0.4 0.2 0.5 0.4 2.2 0 1-0.3 1-0.7 1.4-0.3 1 0 0.8 0.1 0.6 0.3 0.5 0.2 0.2 0.5 0.2 0.5 0.2 0.3 0.5 0.2 0.7 0.2 0.7 0.4 1.2 0.6 3.2 0.3 0.6 0.3 0.7 0.2 0.7 0.1 0.8-0.3 1-0.4 0.8-0.7 1.1-0.2 0.8 0.1 0.6 0.2 0.6 0.4 0.8 0.4 0.4 0.5 0.5 2.7 1.9 0.4 0.5 0.4 0.5 0 0.8-0.5 0.4-0.6 0.3-1.3 0-1.4 0.3-1 0.5-0.7 0.1-0.6-0.2-0.5-0.2-1.7-0.5-1.2-0.5-0.7 0-0.7 0.1-0.7 0.3-0.9 0.6-0.6 0.7-0.5 1.1-0.7 0.8-0.8 0.4-2.1 0.6-0.7 0-0.8-0.1-1.4-0.4-0.6-0.4-1.2-0.7-1.8-0.8-0.7 0-1.2 0.3-0.5 0-1.1-0.6-1.1 0.1-0.8-0.1-1.4-0.3-1.7 0.2-0.9 0-1.4-0.4-0.6-0.3-0.5-0.5-2.6-3.7-0.8-1-0.4-0.4-0.4-0.2-0.5-0.1-0.6-0.2-0.6 0-0.7 0-0.7 0.1-1.4 0.4-0.6 0.2-0.5 0-1.4-0.4-2.1-0.2-2.7-1-1.4-0.3-1.2-1.7-1.1-2.1-0.5-2.3 0.5-3.9 0.8-2.1 0-4 0-0.2-0.3-0.5-0.1-0.2 0.1-0.5 0.6-0.5 0.1-0.4 0.4-1.6 0.1-0.7-0.3-2.1-1.5-4.6-3-8.2-4.5-6.3-4-5.9-0.5-2 0-13.1-2.5-12.9-0.1-4.3 1.9-8.2 0.3-2.9-0.4-1-1.5-1.4-0.8-3-4-5.7-0.4-1.6 0.1-2 0.5-4.1 0.7-1.9 3.2-5.3 1.1-2.7 0.4-0.2 0.7 0.4 0.4-0.5 0.6-1.9 4.8-7.5 1-1.1 0.5-1 0.2-0.9 0.2-3.1 1.7 0 1.6-2.5 2.1-5.6 0.4-0.7 1.7-1.8 0.4-0.5 0.5-1.5 0.4-0.7 1.1-1.2 0.7-1.2 1.2-2.7 1.7-2.5 2.2-2.4 1.8-2.6 0.6-2.9-0.4-1.3-1.1-2.8-0.3-1.3 0.3-1.6 0.8-0.8 0.6 0.4 0.1 1.6 1-1.7 0.5-1.9-0.1-1.8-0.6-1.8-2.3-3.6-1-2-0.1-2.1 0.2-0.8 0.5-0.9 0.6-0.9 0.6-0.7 0.4-0.7 0.2-0.9 0.2-3.7 0.2-0.9 0.5-0.6 1-0.2 2.1-0.1 2.2-0.3 13.7 1.3 1.7-0.4 0.8 0.1 1.5 1.2 1.1 0.7 1.1 0.3 0.9-0.3 0.6-0.8 0.4-0.6 0.5-0.6 0.8-0.5 0.9-0.2 1.8-0.3 0.8-0.4-0.5-0.4 3.7-1.8 1.8-1.1 1.2-1.6 2.2-3.6 1.4-1.8 1.4-1.4 1.7-1 3.9-1.6 2.4-1.7 0.5 0.4 0.1 0.9 0.1 2.1 1.1 3.6 0.1 0.3 0 0.6 0 0.5-0.4 1.3-0.1 1.1 0.1 0.9 0.5 0.6 1 0.2 1-0.4 0.6-0.7 0.5-0.8 0.7-0.6 2.1-0.9 0.9-0.6 0.4-1-0.1-0.6-1.3-0.4-0.7-0.8-0.5-1.1 0-0.8 0.5-0.6 10.3-1.1 0.4-0.1 0.5-0.2 0.8-0.6 0.5 1.8 0.5 0.7 0.2 0.2 0.1 0.2 0 0.9-0.7 1.9 0.1 0.7 1.1-0.5 0.4 1.2 0.5-0.1 0.6-1.1-0.7-3.4 0.2-0.7 1-1.1 0.5-0.7-0.1-0.2 0.1-1.6 0.1-0.6 0.2-0.5 0.2-0.5 0-0.6-0.5-0.9-0.7-0.5-0.4-0.6 0.5-0.9 2-2.2 2.1-1.3 0.6-0.1 1.1 0.4 0.9 0.3 1 0 0.9 0.1 2.3 1.4 1.4-0.2 3.8-2.2 0.8-0.3 0.9-0.2 0.9 0 1.4 0.2 0.5 0.6-0.1 2.1 0 1 0.2 0.6 0.6 0.2 0.9 0.2 0.5 0.1 1.1-0.1 0.5 0 1.7 1 1.5 0 0-0.4-0.6-0.8-0.4-1.1 0.2-0.7 0.6-0.6 0.5-0.7 0-1.1-1.5 0.8-1.5 1.1-0.8 0.4 0.3-1.4 0.9-1.5 1.3-1.4 1.5-1.1 1.5-1 1.4-0.5 1.5-0.3 3.1 0 1.6 0.2 0.7 0.2 0.3 0.5 0 0.7 0.1 0.7 0.3 0.7 0.5 0.5-0.7 1.2-0.3 1-0.5 1-1.1 0.8 1.3 1.2 1 1 0.8 1.2 2.2 4.6 1.1 1.2 1.3 1.1 0.1-0.6 0-0.8 0-0.8 0.4-0.4 0.5 0.1 0.7 1.3 0.5 0.4 1.2-0.3 0.6-1.2-0.1-1.4-0.4-1.2 1.6-0.1 1.2 1.2 1.1 1.5 1.3 1 0.7-0.5-0.7-1.7-1.5-2.7-1.3-0.6-2.6-2.5-1.6-0.5-2 0.1-0.5-0.1-1.2-0.7 0.1-0.4 0.8-0.5 0.7-0.6 1.7-2.7 0.3-1.2-0.7-1.1-0.7 0-0.8 0.1-0.8 0-0.3-0.5 0.2-1.1 0.9-1.7 0.7-2.4 1.2-1.3 2.8-2.2 4-4.5 1.5-1.1 0.1 0.3 0.1 0.3 0.1 0.3 0 0.4 0.7-0.4 1.7-1.6 2.7-1.9 0.8-0.7 1.4-1.1 1.7-0.1 1.7 0 1.4-0.4-0.8-0.6-2-0.5-0.2-0.7 0.7-0.7 3.6-0.9 6.5-4.7 4.7-4.3 2.7-0.8 1.7-1 1-0.2 0.4 0.2 0.2 0.5 0.1 0.6 0 1.8 0.1 0.3 0.7 1.6 0.5 0.7 0.7 0.5 1 0.6 2.1 0.9 1.1 0.7 0 0.8-0.6 0.9-1 1.6-0.8 0.7-0.9 0.6-0.7 0.7-2.8 5.7-0.7 2.2 0.2 1.5 0.6 0.2 0.5-0.9 0.6-2.2 0.7-0.7 1.2-0.3 2.2-0.4 2.1-0.8 2-1 2-0.6 2 0.7 2.3-0.9 1-0.7 0.2-1.1-0.3-0.4-0.4-0.1-0.5 0-0.5-0.2-0.6-0.3-0.2-0.3-1.1-2-0.8-4.1 0-0.4-0.2-0.2-0.8-0.1-0.6 0.1-1.8 0.9-0.2-0.9 0.1-0.7 0.6-1.6-0.8 0.1-0.7 0-0.5-0.3-0.4-1.3-1-0.7-0.5-0.5-0.1-1.5 0.6-1.4 1.7-2.4 2.1-1.9 2.7-1.8 2.3-2.1 1.4-3.8 0.9-1.2 3.1-3 1.3-0.7 1.5-0.5 1.4-0.2 0.9-0.7 0.1-1.5-0.4-1.4-1-0.2-0.7 0.6-0.3 1.1-0.7 0.3-1 0.1-0.6-0.4-1-1.4 0.4 0 1.9-3.1 7.8-8.3 0.9-0.7 0.4 0.3 0.3 0.7 0.4 0.8 1.3 1.5 0 0.6-0.2 4 0.2 1 0.3 0.3 0.4 0.1 0.4 0.3 0.2 0.7-0.2 0.2-0.7 1.6-3.6 4.2-0.9 1.5-0.7 2-0.6 7.9 0.2 0.8 0.9 0.5 0.7-0.1 2.1-1.2 0.6-0.5 1.1-1.7 0.6-1.9 0.9-1.7 1.7-1.4 0.7 0.5 0.3-0.6-0.1-1.6 0.3-1.1 4.5-8.7 0.4-1.9 0.3-0.8 2-2.1 0.2-0.5 0-1.2 0.2-0.5 0.5-0.4 1.1-0.5 0.3-0.2 1.4-1.7 0.6-0.9 0.2-0.9 0.5-1 0.9-0.5 0.9-0.7 0.3-1.4 2.7 3.8 1.2 1.1 0.8 0.3 2 0.5 0.7 0.5 0.3 0.8-0.1 1.5 0.1 0.8 1-1 0-1.4-0.5-1.4-0.8-0.6 1.7-1.4 1.7 0.1 1.2 1.4 0.5 2.1-0.1 4.4 0.4 1.3 1-1.7 0.3-1.9 0-2.7-0.5-2.3-1.3-1.1-0.9-0.3-0.7-0.6-1.4-1.5-1.2-0.7-1 0.2-1.9 1.2-0.8 0.3-0.9 0.2-0.8-0.2-1-0.8-0.5-0.9-0.4-1-0.4-0.3-1.8 2.4-0.8 0.8-0.6 0.3-0.4-0.5-1.3-2.3-0.3-0.7 0.2-0.3 0.6-0.6 0.1-0.5-0.1-0.6-0.2-0.4-0.3-0.3-1.1-2.2 0-0.4 0.3-0.2 0.1-0.2-0.7-0.6-0.1-0.2 0.1-2.8 0.4-2.1 0.8-2.1 1.2-1.6 1.5-1 0.5-0.5 0.2-1 0.1-2 0.2-0.7 0.6-0.6 1.5-0.5 2.9 2.1 2-0.1 0.9-0.2 1.2 0.2 0.5-0.2 0.6-0.7 0.4-1.1 0.2-1.1 0.1-0.9-0.2-1.5-0.6-1.8-1-1.5-1.2-0.7 0.8-0.9 1.4 0.3 2.5 1.9 0.6 0.3 0.5 0.2 0.5 0.3 0.4 0.5 0.1 0.8-0.4 0.7-0.5 0.6-0.3 0.8-0.2 1.6-0.9 3.4-0.2 1.7 0 0.6 0.1 1 0.4 0.8 0.8 0 0.4-0.5 0.1-0.8-0.1-0.7 0-0.6 0.5-0.4 0.8-0.5 0.7-0.6 0-0.6-0.5-0.5-0.5-0.8-0.4-0.8-0.1-0.7 0.5-1.5 1.6-2.3 0.4-1.4 0-1.5-0.1-1.5-0.6-1.1-0.5-0.2z" id="MGM" name="Mahajanga">
  </path>
  <path d="M671.1 239.2l-0.6-2.3-0.5-0.8-3-4.1-0.6-0.3-0.6-0.3-0.6-0.4-0.7-0.7-0.3-0.4-0.2-0.4-1.2-3.2-0.1-0.3 0-0.4 0.2-0.6 0.1-0.4-0.1-0.3 0-0.3-2.3-5.2-0.4-0.7-0.6-0.6-1.2-1.6-1-1-0.2-0.3 0-0.4 0.1-0.3 0.3-0.6 0.2-0.3 0.5-0.4 0.8-0.5 0.2-0.3 0.1-0.4 0-0.6-0.2-0.4-0.2-0.3-0.9-0.9-0.2-0.2-1-0.4-0.2-0.2-0.7-0.6-0.3-0.2-0.6-0.3-0.7-0.2-0.3-0.2-1.3-1.1-1.2-1.5-0.8-1.6-0.2-0.3-0.2-0.2-1.9-1.3-2.2-2.3-1.7-1.3-0.3-0.4-0.3-0.7-0.4-0.4-0.5-0.5-0.2-0.3-0.2-0.3-0.8-2.6-0.5-1-0.4-0.3-0.3-0.1-0.3 0.1-0.3-0.1-3.4-1.9-0.3-0.1-0.4-0.1-1.2-0.2-0.4-0.1-0.4-0.2-0.7-0.5-0.4-0.2-0.4 0-1 0.4-0.7 0.1-0.3 0.2-0.3 0.1-0.2 0.3-1.7 2.3-0.2 0.3-0.3 0.1-1.3 0.5-1.6 1.1-0.4 0.4-0.2 0.3-0.2 0.3-0.3 0.2-0.4 0-0.2-0.2-0.2-0.3-0.1-0.8-0.2-0.3-1.3-2.1-0.5-0.3-0.4-0.1-0.3 0.2-0.5 0.4-0.3 0.1-0.3 0-0.8 0-0.4 0.1-0.9 0.4-0.4 0.1-0.3 0-0.4 0-0.3-0.1-0.4-0.2-3.9-3.1-0.3-0.2-2-0.6-0.7-0.4-0.4-0.3-2.4-2.7-0.7-0.5-0.5-0.2-0.4 0.1-0.3 0.1-0.2 0.2-0.7 0.6-0.6 0.4-1.8 0.8-1 0.4-1.5 0.2-1 0.4-0.3 0.1-0.6-0.1-0.8-0.2-1.5-0.8-0.8-0.5-1.1-1-0.3-0.2-2.4-1.4-0.4-0.3-1.6-2.1-0.8-0.9-0.3-0.1-0.3 0.1-0.3 0.2-0.4 0.5-0.3 0.2-0.4 0.1-0.8-0.2-0.3-0.2-0.3-0.3 0-0.3-0.1-0.5 0-0.8 0.3-1.5 0.1-0.3 0.2-0.2 1.5-1.2 0.8-1.1 0.1-0.2 1.1-1.3 0.3-0.5 0.2-0.3 0.1-0.3 0-0.4-0.1-0.6-0.3-0.2-0.4 0.1-0.3 0.1-0.6 0.3-2.1 1.5-2.4 1.1-0.6 0.3-1.2 1.1-0.2 0.1-2.5 1.2-0.2 0.1-0.2 0.3-0.1 0.3 0.1 0.3 0.2 0.7 0.1 0.4 0 0.3 0 0.3-0.2 0.2 0 0.1-0.3 0.3-0.2 0.1-0.3 0.2-1.4 0.3-0.2 0.3 0 0.3 0.7 1 0 0.3-0.1 0.3-0.5 0.4-0.2 0.2-0.5 0.4-2-0.7-1.4-0.9-2.3-2.2 4.8-2.5 0-0.9-3-2-2.5-1-0.8-0.5-1.6-3.1-1-4.3 0.5-3.6 2.8-1.2-0.7-1-0.8-0.4-0.6-0.6-0.1-1.6 0.2-1.4 0.5-1.9 0.9-1.3 1.2 0.4 1 0.1 0.5-1.6 0.3-2.9 0.5-0.5 0.7-0.4 0.6 0 0.5 0.7-0.2 0.4-0.7 0.5-0.4 0.7 0.5 1 0.3-0.2 0.6-0.1 0.4-0.1-0.3 0.8 0.1 0.7 0.5 0.3 0.7-0.3 0.3-0.5 0-0.6 0.3-0.5 0.9-0.4-1.1-1.3-0.1-0.4 2.3 0 1 0.7 0.4 1.6 0.3 1.8 0.3 1.2 1.7-0.8 1 0.5 0.5 1.3 0.2 1.6 1.1 2.9 0.2 1.1 0 0.5 0.1 0.4 0.1 0.4 1 0.3-0.1 0.5-0.7 0.8 0.7 1.3 1.7 1.2 1.8 0.9 1.4 0.4 1.8-0.5 1.8-1.2 0.9-1.5-1.1-1.7 0.5-1 0-3.4 0.4-1.1 1.1-2.1 0.2-0.8-1.3-2.3-0.3-1.2 1.2-0.5 0.7 0.4 1.9 2.7 0.3-1.2 0.5-1.2 0.7-0.9 0.6-0.7 0.8-0.3 1.2-0.2 1.2 0 0.7 0.1 0-0.4 0-0.6 0-0.4 1.5 1.3 0.7 0.4 0.6-0.1-0.1-0.6-1.1-2.2-0.5-1.8-1.1-1.5-0.5-0.7-0.1-0.9-0.1-0.9 0.2-1.8 1 0.2 0.6 0.6 0.4 0.8 0.7 0.6 0 1.1 1.1 0.8 3.4 1.3 0.6 0.1 0.6-0.1 0.7-0.3 0.8-0.2 0.8 0.1 0.8 0.2 0.6 0.1 2.3-0.6 2.3-1.4 2.1-1.8 1.5-2-1.1-1.2 0.9-1.9 2.4-2.8-0.2-0.8-0.9-1.5-0.2-1 0-2.2 0.1-1 1.5-5.1 0.8-1.8 1.7-2.4 0.5-1 0.4-1 0.1-0.8 0.3-0.8 0.8-0.9 0.8-0.8 0.7-0.4-0.3-1.6 1-4.2 0.2-1.7-0.4-0.8-1.2-1.5-0.6-0.8-0.4-0.9-0.2-0.7-0.3-2.9-0.3-0.7-0.9-1.4-0.4-0.3-0.4 0.1-0.3 0-0.2-0.7 0-0.6 0.3-0.4 0.3-0.3 0.3-0.5-0.1-0.5-0.4-0.8 0-0.4 0.7-1.6 0.2-0.2-0.5-0.8-0.7-0.1-0.9 0.4-0.9 0.5-0.1-1.9-0.5-1.1-2-1.8-1-2.7-0.5-0.8-0.2 1.2-2.6-1.2 0.8-0.7 1.1-1.7 0.7-0.1 0.7 0.4 0.7 0.2 1.6 0 2.1 0.5 1.4 1.1 1.9 3.7 0.6 0.4 1-0.3 1-0.7 0.6-0.6 0.2-1 0.2-3.4 0.1-0.4 0.8-1.4 0-0.3-0.1-0.9 0.1-0.6 0.5-0.8 0.8-0.6 0.9-0.2 0.8 0.3 0.4-1.1 0.7-0.6 0.7-0.5 0.8-0.9 0.9 1.2 0.8-0.9 0.8-1.6 0.9-0.9 1 0.8 1-0.3 0.7-1.1 0.4-1.1-0.1-0.5-0.2-0.5-0.2-0.5 0-0.7 0.4-0.8 0.5-0.4 0.5-0.3 0.4-0.3 0.6-0.2 0.2-0.3-0.4-0.8-0.6-0.7-0.4-0.1-0.5 0.1-0.7-0.2-0.3-0.3-0.2-0.4-0.3-0.4-0.5-0.3-0.6-0.1-2.4 0.1 0.9-1.2 2.5-0.8 0.9-1.1 1 0.7 2 2.9 0.5-0.5 0.4 0.5 0.1-1.3-0.5-1.3-0.9-1.1-1.3-0.3 0.3-0.7 0.4-0.4 0.4-0.3 0.2-0.4 0.7-0.2 0.2-0.2-0.1-0.2-0.2-0.4-0.1-0.5 0.1-0.4 1.9-2.1 1.1-0.6 1.2 0.2 0.6 0.5 1.7 2 0.5 0.9 0 1.8 0.4 0.8 1.2 1.6 0.2 1.6-0.2 1.7 0.3 1.9 1.1 2.4 0.1 0.9-0.3 0-2.4-2.6-0.6-0.1-0.5 0.5-0.4 0.8-0.5 0.4-0.8-0.3-0.7-0.6-0.5-1-0.1-0.8-0.7 0.3-0.5 0.5-0.3 0.6-0.2 0.8 0.7 0.4-0.1 0.7-1.1 2 1-0.1 1.3 0.2 1.1 0.4 0.5 0.6-0.2 0.4-0.9 0.8-0.2 0.3 0.1 0.6 0.3 0.6 0.3 0.2 0.4-0.5 0.7-1.1 0.5-0.3 0.5 0.4 0.7 1-0.1 0.3-0.3 0.5 0 0.4 0.6 0.1 1.2 0.1 0.7-0.1 0.4-0.4 0.4-1.1-0.9-1.8 0.3-0.9 1.2-0.6 0.7 0.4 1.8 2.9 0.2 0.8 0 0.7 0.2 0.9 0.6 1 0.6 0.7 0.5 0.9 0.1 1.4 0.4-0.8 0.5-0.6 0.7-0.3 0.9-0.1 0.9 0.2 0.4 0.4 0.3 0.4 1.1 1.1 0.4 0.8 0 0.7-0.5 0.3-0.9-0.2-0.7-0.3-0.7-0.1-0.7 0.6 1.5 1.3 0.9 1 0.7 0.1 1.2-1.5 1.7 4 0.4 1.3 0.2 1.7-0.2 0.9-0.6-0.1-0.5-0.8-0.2-0.8 0-1.7-0.3 1.7 0.9 3.7-0.3 1.4-0.5 0.7-0.3 0.7-0.1 0.7 0.2 0.7 0.6 1.1 0.5 0 0.4-0.5 0.7-0.1 1 0.6 1.2 1.2 1.1 1.3 0.5 1.1 0.2 0.8 0.6 1.4 0.1 0.7-0.1 0.8-0.8 1.4-0.4 0.9 0.6-0.3 0.6-0.1 0.5 0 0.5 0.4 0.4-0.7 0.4-0.6 0.3-0.6 0.3-1.8 0.5-0.5 0.7-0.1 0.9 0.3-0.3 0.7-0.2 0.2 0.8 0.2 0.9 0.4 0.7 0.6 1.6 1.4 0.3 0.5-0.3 1.6 0.1 0.6 0.8 1.7 0.6 0.7 0.8 0.3 0.8-0.1 0.9 0 0.6 0.6 0.1 1.3-0.5 0.3-0.7 0.2-0.2 0.5 0.9 1.1 0.8 0.5 0.9 0.3 0.6 0.5 0.3 1.3 0.3 1 1.5 1.7 0.3 0.6 0.1 3.5-0.5 5.2 0 1 0.3 1.3 0.1 1 0.2 0.8 1.7 2.6 0.2 1.1-0.2 2.7 0.3 1 0.8 0.5 0.8-0.2 0.7-0.4 0.7 0.1 0.5 0.9-0.1 1.2-0.4 2.1 0.1 1.8 0.9 3.7 0.7 1.8 0.3 0.4 0.7 0.5 0.3 0.4 0.1 0.5-0.1 1.2 0 0.5 0.2 1.3 0.2 0.5 0.2 0.2 0.2 0.2 0.2 0.1 0.3 0 0.4 0.1 0 0.2 0 0.4 0.2 0.4 0.2 0.7-0.5 2.2 0.3 1 0.5 0.8 1.5 3 0.5 2.2 0.7 12.9 1.2 4.8 0.2 1.8 0 2.3-0.6 1.9-0.2 1.1-0.1 2.3 0.2 1.3 0.4 0.8 1.6 1.5 1 1.9 0.1 1.9-0.8 4.9-0.6 2.1-0.2 1 0.1 1.1 0.8 3.1 0.5 7.2 1.7 3.5 0.2 2.4-0.6 2.1-1.4 0.8 0.6 0.8 1.7 0.9 0.7 0.5 0.5 0.9 0.4 1.1 0.8 4.2 4.5 10 1.1 1.7 3.1 3.8 0.6 1 0.5 2.3 0.7 0.6 0.8 0.5 0.8 0.6 0.8 1.6 0.6 2.1 0.3 4.2-0.1 0.4-0.3 1-0.6 1 0 0.5 0.1 0.5 0.1 0.6-0.1 0.5-0.6 1.5-0.1 0.7 0.1 0.6 0.2 0.6 0 0.4-0.2 0.5-0.8 0.8-0.3 0.4-0.4 2.3-1.1 3.3-0.1 1.2-0.4 1.7-5.6 10.7-0.5 1.9 0.6 0.3-0.4 0.9-4.5 5.9-1.5 3.7-0.7 0.8-1 0.3-1-0.1-1 0-0.9 0.7-1.3-3.2-1-1-0.2 0-0.4-0.4-2.4-7.6-0.2-1.2-0.1-0.5-0.2-0.5-0.6-0.9-0.4-0.6-0.3-0.9-0.2-1.1-0.2-2-0.9-2.6-1-2.5-0.1-0.5 0-0.4 0.7-2.5 0-0.4-0.1-1.7 0.1-0.4 0.1-0.3 1.1-2.9 0.1-0.4 0.1-0.4 0-0.4-0.3-0.6-2.3-3.5-0.3-0.6 0-0.4-0.1-0.4 0.1-0.8 0.3-1.5 0.1-0.3 0.7-1.1 0.1-0.4 0.1-0.3-0.3-0.7-0.5-0.8-1.3-1.5-0.4-0.7-0.1-0.6 0.4-0.5 0.2-0.2 0.2-0.2 0.4-0.2 1.6-0.7 0.3-0.2 0.2-0.1 0.2-0.3 0.2-0.3-0.1-0.3-0.2-0.4-4.1-5.5-1.2-2.4-0.5-0.5-0.2-0.2-0.3-0.1-0.4-0.1-0.6 0.1-0.4 0.1-0.9 0.6-0.3 0.1-0.7 0-3.1-0.6-0.9-0.1-0.7 0-0.3 0.2-5.1 2-0.4 0.1-0.6-0.3-0.7-0.7-1.4-2-0.6-1-1.2-1.5-3.8-3.3z m-78.3-102l0.8 0.6 0.8 0.7 0.1 0.8-0.5 0.5-0.6 0.3-0.7 0.1-0.6 0.1-0.3-0.2-0.2-0.3-0.2-0.3 0-0.2-0.3 0.1-0.9 0.4-2.3-0.4-0.8-0.3-0.8-0.7-0.5 0 0 0.9-0.2 0-0.2-0.1-0.2-0.2-0.2-0.1-0.6-0.7-0.4-1.4-0.3-2.8 0.2-1.2 0.4-1.1-0.1-0.8-0.9-0.4 0.6-0.8 1 0.2 0.9 0.5 0.9-0.4 0.4 0.4 0.6 0.3 0.7 0.1 0.4-0.3 0.1-0.5-0.3-0.5-0.4-0.5-0.2-0.5 0.1-1.3 0.3-0.8 0.7-0.3 1.3 0 1 0.3 0.6 0.8-0.1 1.1-0.7 1.1 0.6 0.3 0.6 1.3 0.5 1.5 0 0.7 0.8 0.4-0.3 1.1-0.7 1.2-0.4 0.8 0.5 0.5z" id="MGD" name="Antsiranana">
  </path>
  <path d="M565.3 433.1l2.1-2.9 1.7-3.1 0.1-0.7-0.1-0.8-0.1-0.5 0.1-0.8 0.1-0.4 0.2-0.3 0.7-0.7 0.4-0.6 0.2-0.5 0-0.4 0-1 0.1-0.9 0.2-0.5 0.2-0.3 0.2-0.2 0.2-0.1 0.2-0.1 0.4 0 0.3-0.1 0.4 0.1 0.4-0.1 0.5-0.1 0.7-0.7 0.3-0.4 0.2-0.5 0.3-2 0.1-2.4 0.3-1 0.2-0.4 0.7-0.2 0.2-0.3 0.1-0.4 0-1.5 0.2-0.8 0.2-0.5 0.3-0.3 0.6-0.5 0.5-0.4 0-0.3 0-0.9 0.1-0.6 0.1-0.5-0.1-0.3-0.3-0.2-1.1-0.1-0.3-0.2-0.2-0.4-0.1-0.6 0-0.5 0.2-0.3 0.8-0.6 0.4-0.5 0.2-0.5 0.6-2.8 0.2-0.5 0.2-0.4 0.6-0.6 0.4-0.6 0.8-1.2 0.3-0.6 0.2-0.5-0.3-1.2-0.1-0.7 0.1-0.4 0.3-0.3 0.4-0.4 0.4-0.5 1.4-2.5 0.3-0.9 0.1-0.7-0.1-0.3-0.2-0.3-0.1-0.4-0.1-0.5-0.1-0.9-0.1-0.5-0.2-0.4-0.1-0.5-0.1-0.6 0.1-1.1-0.1-0.6-0.2-0.3-0.3-0.2-0.8-0.1-0.8 0.1-0.4-0.1-0.4 0-0.3-0.2-1.1-0.7-0.9-0.9-1.4-2.1-0.1-0.3 0-1.6-0.2-0.6-0.2-0.5-0.3-0.3-0.1-0.3 0.7-2.1 0.1-0.6-0.2-0.4-0.2-0.2-0.6-0.3-0.4-0.2-0.2-0.1-0.3-0.2-0.2-0.3-0.2-0.6-0.2-0.3-0.2-0.2-0.3-0.2-0.3-0.2-0.2-0.3-0.3-0.3-0.1-1.2-0.2-0.4-0.1-0.3-0.3-0.2-0.4-0.4-0.3-0.3-0.2-0.2-0.2-0.3-0.2-0.7-0.1-0.3-0.2-0.2-0.2-0.2-0.4-0.6-1-0.8-0.3-0.6-0.3-0.8-0.2-0.6 0.1-0.5 0.1-0.5 0.3-0.6 0.1-0.4-0.1-2.4-0.3-1.6-0.2-0.7-0.2-0.7-1-1.7-0.1-0.4-0.5-3 0-1.3 0.2-1.5 0.1-0.4 0.4-1 0.1-0.5 0.6-3.9 0-0.6-0.1-0.8-0.5-2.3 0-0.5 0.1-0.5 0.4-1 0.4-0.5 0.4-0.4 0.8-0.6 0.5-0.5 0.2-0.5 0-0.4 0-0.8 0.2-0.4 0.2-0.1 0.3 0.1 0.6 0.3 0.3 0.1 0.2-0.1 0.2-0.1 0.6-0.3 0.3-0.1 0.3 0 0.4 0.1 0.6 0.3 0.7 0.2 0.8 0 0.4-0.1 0.3 0.1 0.4 0.1 0.5 0.3 0.4 0.2 0.3 0 1.6 0.1 0.4 0 0.3-0.1 0.3-0.1 0.3-0.2 0.4-0.1 1.1-0.2 0.3-0.1 0.9-0.5 0.3-0.1 3-0.6 0.8 0.1 0.4 0.1 0.4 0 0.3 0 0.7-0.1 0.3 0 0.4 0.1 0.2 0.2 0.7 0.7 1 1.2 0.2 0.3 0.9 0.5 0.4 0.4 0.3 0.2 0.4 0.1 1.1 0.2 0.3 0.2 0.2 0.2 0.1 0.4 0.1 1.2 0.1 0.4 0.2 0.2 0.3 0 0.6-0.2 0.4 0 0.8 0 1.5-0.3 0.3 0.1 0.3 0.1 0.5 0.3 0.7 0.7 1.8 2.3 1.1 0.7 0.6 0.3 1.4 0.4 1.2 0.6 1.1 0.8 0.4 0.5 0.2 0.2 0.1 0.7 0.2 0.3 0.3 0.2 0.5 0.4 0.3 0.2 0.1 0.2 0.1 1 0.2 0.3 0.3 0.6 0.2 0.3 0 0.4 0.2 1.5-0.1 0.8 0 0.3 0.2 0.4 0.1 0.2 0.2 0.3 0.7 0.6 0.2 0.3 0.1 0.4-0.1 0.4-0.1 0.3-0.2 0.7-1 1.7-0.3 0.6-0.2 0.8 0 0.4 0 0.8 0.1 0.8 0.2 0.7 0.6 1.2 2 3 0.3 0.2 0.2 0.2 0.4 0.1 0.4 0 0.3-0.1 0.3-0.1 0.6-0.4 0.5-0.4 1.1-1.1 5.4-3.7 0.3-0.2 0.3-0.1 0.4 0 0.8 0 1-0.2 0.4 0.1 1.3 0.5 0.4 0 0.4 0.1 3.1-0.6 0.4-0.1 0.6-0.3 0.2-0.3 0-0.4-0.1-0.2-0.6-0.8-0.4-0.6 0-0.4 0-0.4 0.2-0.7 0.3-0.4 0.4-0.4 0.6-0.5 0.5-0.5 0.3-0.5 0.6-1.5 0.8-1.4 0.3-0.7 0.2-0.7-0.1-0.8 0.1-0.6 0.3-0.8 0.3-0.4 0.4-0.1 0.3 0 0.4-0.1 0.4-0.1 2.4-1.3 1.3-1 1-1.4 0.1-0.5 0.1-0.3 0.1-0.7 0.3-0.8 3.7-6.9 0.3-0.7 0.2-0.6-0.1-0.4-0.1-0.3-0.4-1 0-0.3 0-0.8 0-0.3 0-0.4-0.2-0.3-0.2-0.3-0.3-0.2-0.6-0.2-0.7-0.2-2.5-0.1-2-0.4-5.8-2.7-0.3-0.2-0.2-0.2-0.1-0.4 0-0.6 0.9-2.1 0.6-2.2 0-0.2 0.6-1.9 0.5-0.9 0.4-0.5 1.5-1.7 0.9-1.2 0.8-1.6 0.2-0.6 0-0.5 0-0.8-0.8-3.7-0.4-1.4-0.5-1.2-0.4-0.6-0.8-1-0.1-0.3-0.1-0.4-0.1-0.4 0-0.4 0.1-0.7 0.8-2.9 1.1-8 0-0.4-0.1-0.4-0.1-0.3-0.1-0.3-0.1-0.4-0.1-0.5 0.1-0.8 0.2-0.5 0.2-0.3 1-1 0.7-0.8 0.3-0.5 0.1-0.5 0-0.3-0.2-0.2-0.2 0-0.6 0.2-0.3 0-0.3-0.1-0.3-0.2-0.3-0.2-0.3-0.1-0.3-0.1-0.6 0.2-0.4 0.1-0.4 0-0.4-0.1-0.3-0.1-0.3-0.2-0.3-0.2-0.2-0.3-0.3-0.5-0.1-0.4 0-0.4-0.1-0.8-0.1-0.3-0.3-0.6-0.2-0.4 0-0.6 0.2-0.9 0.3-0.4 0.2-0.3 0.8-0.1 1.6-0.3 0.7-0.1 0.4-0.1 0.3 0 0.8 0.1 0.3 0 0.4-0.1 0.4-0.1 1.7-0.9 1.4-0.4 0.6-0.3 0.3-0.2 0.3-0.4 0.3-0.5 0.3-0.3 0.3-0.2 0.6-0.4 0.3-0.1 0.3-0.1 0.4-0.1 0.4 0 0.8 0.1 0.5-0.1 0.5-0.1 1.7-1.1 0.7-0.3 0.4-0.2 0.5-0.6 0.3-0.2 0.3-0.2 0.4 0 0.3 0 1 0.3 0.4 0.1 0.5-0.1 0.4-0.4 0.3-0.4 0.2-0.3 0.2-0.7 0.1-0.4 0-0.4 0-0.4-0.1-0.3-0.2-0.3-0.4-0.6-0.1-0.3 0-0.3 0-0.5 0-0.6 0.2-0.3 0.3-0.2 0.3 0 0.4 0.1 0.9 0.4 0.8 0.1 0.8 0 0.4 0 0.5-0.2 0.5-0.4 0.2-0.3 0.2-0.4 0.2-1.2-0.1-0.9 0-0.3-0.1-0.3-0.2-0.5-0.1-0.3 0-0.4 0.1-0.5 0.6-1.4 0.1-0.4 0.1-0.8-0.1-0.8-0.4-1.4 0-0.5 0-0.5 0.2-0.7 0.2-0.3 0.3-0.2 0.3 0.1 0.3 0.2 1.4 1 0.2 0.1 0.3 0.1 0.3 0.1 0.4 0.1 0.4 0 0.4-0.2 0.4-0.4 1.1-1.6 0.3-0.2 0.2-0.1 0.4-0.2 0.5-0.2 0.5 0.1 3.8 3.3 1.2 1.5 0.6 1 1.4 2 0.7 0.7 0.6 0.3 0.4-0.1 5.1-2 0.3-0.2 0.7 0 0.9 0.1 3.1 0.6 0.7 0 0.3-0.1 0.9-0.6 0.4-0.1 0.6-0.1 0.4 0.1 0.3 0.1 0.2 0.2 0.5 0.5 1.2 2.4 4.1 5.5 0.2 0.4 0.1 0.3-0.2 0.3-0.2 0.3-0.2 0.1-0.3 0.2-1.6 0.7-0.4 0.2-0.2 0.2-0.2 0.2-0.4 0.5 0.1 0.6 0.4 0.7 1.3 1.5 0.5 0.8 0.3 0.7-0.1 0.3-0.1 0.4-0.7 1.1-0.1 0.3-0.3 1.5-0.1 0.8 0.1 0.4 0 0.4 0.3 0.6 2.3 3.5 0.3 0.6 0 0.4-0.1 0.4-0.1 0.4-1.1 2.9-0.1 0.3-0.1 0.4 0.1 1.7 0 0.4-0.7 2.5 0 0.4 0.1 0.5 1 2.5 0.9 2.6 0.2 2 0.2 1.1 0.3 0.9 0.4 0.6 0.6 0.9 0.2 0.5 0.1 0.5 0.2 1.2 2.4 7.6 0.4 0.4 0.2 0-1.6 0.2-3.1-2.7-1.1-1.4-0.5-2-0.3-3.3-0.1-0.5-0.8-0.3-0.9-0.7-0.8-0.9-0.5-0.7-0.4-0.9-0.4-1-0.1-1.1 0-1.1 0.3-1 0.4-0.9 0.1-0.9-0.6-0.9-0.4-0.4-0.4-0.2-0.4-0.1-0.5 0-0.3-0.2-1.8-2.4-0.2-0.8 0.4-2.1 0-1.1-0.5-3.3 0.1-0.4 0.2-0.4 0.1-0.4-0.4-0.6-0.3-0.1-1.2-0.1-1.6 0.9-2.3 0.2-4.1 0-2 0.7-1.4 1.3-3.6 5.1 0.1 1.7 1.3 3.7 0.1 0.9-0.1 0.9-0.6 1.8-0.2 0 0.4 0.8 0.8 0.7 0.7 0.9 0.5 2.2 0.8 2.1 0.5 3.3 0.6 2.1 0.9 1.7 0.2 0.8-0.2 1.1-0.5 1.1-1.9 3.4-0.5 1.9-0.1 2.1 0.4 2.2 0.8 1.9 1.7 1.6 4.1 1.4 1.8 1.2 1.4 2.1 0.3 1.9-1.3 6.1-0.1 2.6 0.3 2.2 1.1 1 0.7 0.4 0.1 1-0.2 2.6-0.3 0.9 0 0.5 0 2.3-0.3 0.8-3.3 5.8-1.9 2.1-2.8 2.3 0.1 3 0.5 1.4 1 1.4 1.3 1.3 1.3 0.7 1.5 0.2 1.7-0.1-1.9 1-2 0.8-3.7 0.6-1.5 0.8-3.2 0.3-1.3 0.3-1 0.7-0.8 1-4.2 8.5-2.9 8.3-3.2 7.7-0.6 4.7 0.3 0.9 1.9 3.1 1.1 6.4 1.9 9.8 0.3 4.3-0.7 4.6-2.2 7.8-3.1 10-0.1 1.2 0.1 1.1 0.3 0.9 0.2 0.5 0.7 0.8 0.3 0.5 0.2 0.8-0.4 0.4-0.6 0.2-0.7 0.4-1.9 3.7-1.5 13.1-0.5 0.9-1.2 1.5-0.4 0.8-1.5 4.5-3.7 7.8-3.3 12.3-4.9 11.3-2.3 3.5-5.7 20.9-7.9 20.4-2.2 10.5-0.1 1.5 0 2.5-2 6.1-0.4-0.8-0.8-1.1-0.8-0.6-0.6 0.7 0.3 0.7 1.5 2.2 0.3 1-0.1 0.8-5.2 10.9-3.6 9.8-1.6 5-0.6-0.3-5.1-1.4-4.5 0-3.1-0.7-0.5-0.2-0.6-0.6-0.2-0.5-0.1-0.4 0.1-0.5 0-0.8-0.1-0.4-0.3-0.7-0.2-0.2-0.3-0.3-1.1-0.8-0.3-0.3-0.4-0.3-0.4-0.1-0.7 0.1-1.9 0.5-0.4 0.1-0.5 0-0.6-0.2-0.8-0.3-1.4-0.8-1.1-0.9-0.2-0.2-1.3-2.4-0.2-0.2-0.3-0.3-0.3-0.1-0.4-0.1-0.5 0-0.5 0.1-0.3 0.1-0.3 0.2-0.2 0.2-0.2 0.3-0.2 0.3 0 0.3 0.2 0.3 0.3 0.6 0.1 0.3-0.1 0.3-0.4 0.5-0.1 0.3-0.2 0.3-0.1 0.7-0.1 0.4-0.7 0.7-0.1 0.3-0.3 0.7 0 0.4-0.1 0.4-1.9 3.2-0.3 0.7 0 0.4 0 0.3 0.1 0.4 0.4 0.9 0 0.4-0.1 0.2-0.2 0.3-0.3 0.1-0.3 0.2-0.4 0-0.6-0.3-0.7-0.4-1.2-1-1.1-0.7-0.4-0.1-0.5 0-0.8 0.1-0.8 0.2-0.3 0.1-0.8 0.5-0.7 0.7-0.3 0.2-0.4 0.1-0.4 0-0.4 0-0.4 0-0.8-0.2-0.8-0.1-0.4 0-0.4 0.1-0.4 0.1-0.3 0.2-1.1 0.7-0.4 0.1-0.3 0.1-1.7 0.1-0.7 0.2-0.4 0-0.4-0.2-0.4-0.2-0.3-0.3-0.2-0.3-0.2-0.3-0.2-0.2-0.2-0.3-0.6-0.3-0.2-0.2-0.7-0.7-0.3-0.2-0.3-0.2-1-0.4-0.2-0.2-0.3-0.3-0.3-1-0.2-0.2-0.2-0.3-0.2-0.3-0.2-0.5-0.2-5.6 0.2-1.7 1-4.3 0.7-1.9 0.3-0.6 0.2-1.3 0-3.3 0.3-3.2 0.2-1.1 1.8-3.1 0.2-0.7 0.1-0.6 0-2.4 0.1-0.5 0.2-0.3 0.3-0.6 0.2-0.3 0.5-0.4 1.1-0.8 0.9-0.9 0.5-0.5 1.9-3.3 0.6-1.6 0.2-1.7 0-0.4-0.1-0.5-0.2-0.6-0.2-0.8 0-4.1 0-0.8 0.2-0.4 0.8-1 0.2-0.6 0.1-0.5 0-0.5-0.2-1.2 0-1.6 0.1-0.6 0.2-0.4 0.8-1.5 0.5-1 0.2-0.7 0-0.8 0.1-0.4 0.2-0.4 0.9-1 1-1.7 0.3-0.5 0.1-0.5 0.2-1 0.5-4.3 0-0.9-0.2-1.3 0-2.3-0.3-1-0.1-0.5-0.1-0.7 0.1-2 0-0.5-0.1-0.3-2.1-4.1-0.1-0.5-0.1-0.9 0-0.5 0.1-0.5 1.1-2.1 0.3-0.9 0.1-0.6 0-0.9 0-0.4 0.2-0.4 0.3-0.5 0.3-0.5 0.2-0.6 0.1-0.7 0.2-3.2 0-1.5 0.1-2.2 0-0.4-0.5-1.8-0.2-1.6-0.1-5.2 0.8-4.4 2.1-6 0.2-1.2 0.1-0.8-0.1-0.9 0.5-5.5 0-2.4 0.1-0.6 0-0.4 0.1-0.2 0.4-0.5 1-0.8 0.3-0.4 0.3-0.6 0-0.4 0-0.5 0-0.3-0.2-0.3-0.5-0.9-0.1-0.5-0.1-0.6 0-1.8-0.1-0.5-0.9-1.7-0.2-0.4-0.1-0.6 0.1-4.1 0-0.2 0-0.2-0.2-1.1-0.1-1.3 0.1-0.7 0.2-0.7 0.2-0.6 0-0.4-0.1-0.3-0.3-0.6-0.3-0.7-0.3-1.5-0.2-0.7-0.5-0.9-0.1-0.3-0.2-2.9-0.1-0.4-0.2-0.3-0.2-0.2-0.3-0.2-1-0.4-0.5-0.4-0.3-0.2-0.8-0.5-0.3-0.2-0.2-0.4-0.1-0.3-0.3-1.4z m129.4-75.8l0.2-1 0.5-0.8 0.8-0.6 2.5-1.4-0.3 1.5-2.3 4.8-1.6 5.1-3.1 6.7-2.3 3-1.7 3.9-1.2 1.5-0.5-1.8 0.3-1.7 1.5-3.3 0.3-0.9 0.1-0.8 0.1-1.9 0.2-1.1 0.5-0.9 1.4-1.6 4.3-6.7 0.2-0.9 0.1-1.1z" id="MGA" name="Toamasina">
  </path>
  <path d="M553.7 577.7l0 3.3-0.2 1.3-0.3 0.6-0.7 1.9-1 4.3-0.2 1.7 0.2 5.6 0.2 0.5 0.2 0.3 0.2 0.3 0.2 0.2 0.3 1 0.3 0.3 0.2 0.2 1 0.4 0.3 0.2 0.3 0.2 0.7 0.7 0.2 0.2 0.6 0.3 0.2 0.3 0.2 0.2 0.2 0.3 0.2 0.3 0.3 0.3 0.4 0.2 0.4 0.2 0.4 0 0.7-0.2 1.7-0.1 0.3-0.1 0.4-0.1 1.1-0.7 0.3-0.2 0.4-0.1 0.4-0.1 0.4 0 0.8 0.1 0.8 0.2 0.4 0 0.4 0 0.4 0 0.4-0.1 0.3-0.2 0.7-0.7 0.8-0.5 0.3-0.1 0.8-0.2 0.8-0.1 0.5 0 0.4 0.1 1.1 0.7 1.2 1 0.7 0.4 0.6 0.3 0.4 0 0.3-0.2 0.3-0.1 0.2-0.3 0.1-0.2 0-0.4-0.4-0.9-0.1-0.4 0-0.3 0-0.4 0.3-0.7 1.9-3.2 0.1-0.4 0-0.4 0.3-0.7 0.1-0.3 0.7-0.7 0.1-0.4 0.1-0.7 0.2-0.3 0.1-0.3 0.4-0.5 0.1-0.3-0.1-0.3-0.3-0.6-0.2-0.3 0-0.3 0.2-0.3 0.2-0.3 0.2-0.2 0.3-0.2 0.3-0.1 0.5-0.1 0.5 0 0.4 0.1 0.3 0.1 0.3 0.3 0.2 0.2 1.3 2.4 0.2 0.2 1.1 0.9 1.4 0.8 0.8 0.3 0.6 0.2 0.5 0 0.4-0.1 1.9-0.5 0.7-0.1 0.4 0.1 0.4 0.3 0.3 0.3 1.1 0.8 0.3 0.3 0.2 0.2 0.3 0.7 0.1 0.4 0 0.8-0.1 0.5 0.1 0.4 0.2 0.5 0.6 0.6 0.5 0.2 3.1 0.7 4.5 0 5.1 1.4 0.6 0.3-3.4 10.5-6.3 23.9-0.7 1.1-0.8 1-0.5 1 0.2 1 0.9-0.8 0.4 0.2 0.2 0.9-0.1 1.1-0.4 1-1.2 2-0.2 1.2-0.2 2.3-0.6 2.2-2.3 5.4-0.2 0.9-0.1 2.1-1 5.8-1 2.4-0.8 1.7-8 25.8-8 18.7-8 18.7-0.8 4.5-2.1 4.6-1.1 7.8-1.5 10.2-1.3 4.1-0.3 6.5-2.1 7.6-2.4 6.6-1.5 10-7.5 22.9-0.7-0.9-0.4-0.8-0.3-0.1-0.7 0.9-0.7 1.5 0.5 0.4 1 0.1 1.1 0.6 0.3 1.8-3.3 14.5-3.4 9.3-1.1 2-0.4 0.4-1 0.7-0.4 0.3-0.1 0-0.6 0.2-0.1 0-0.4 0.4 0.1 0.2 0.3 0.2 0 0.4 0 0.1-0.4 1.8-1.1 2.3-0.2 0.5-0.1-0.1-3.2-2.5-8-4.5-1.7-1.1-0.8-0.5-4.5-1.3-0.9 0.1-0.5 0.5 0 1.7 0.4 2.1 0 0.6-0.1 0.5-0.4 0.5-0.6 0.4-1.7 0.5-0.8-0.2-1.9-0.6-0.6 0.2-0.5 0.5-0.2 0.7 0 0.8 0.2 0.7 0.2 0.7 0.5 1.4 1 1.8 0.2 0.6 0.1 0.7-0.2 0.7-0.3 0.6-0.9 1.1-0.3 0.6-0.6 1.3-0.3 0.6-0.4 0.4-0.6 0.4-1 0.5-1.8 0.6-0.9 0.2-1.2 0-0.7-0.3-0.4-0.6-0.3-0.6-0.1-0.8 0.1-1.2 0.2-1.4 0.5-1.4 0.2-0.7-0.1-0.7-0.3-0.6-1.8-2.9-0.5-0.5-0.5-0.5-0.6-0.4-1.2-0.4-3.5-0.1-1.1-0.3-0.6-0.6-0.4-2.2-0.2-0.7-0.8-1.1-0.1-0.6 0.1-1.3 0-0.3-0.3-0.4-0.4-0.4-2.3-1.5-4.7-1.8-3.5-0.8-0.7-0.3-0.6-0.4-0.5-0.4-0.3-0.6-0.6-1.3-0.4-0.6-0.5-0.4-1.4-0.9-2.3-1.9-0.6-0.9-0.3-0.7 0.1-0.6 0.1-0.7 1.1-2.7 1.3-2.4 0.9-2.1 0.3-0.5 0.9-1.1 0.4-0.4 0.3-0.4 0.2-0.3 0.1-0.6 0-0.6-0.1-0.7-0.2-0.9-0.5-1.1-1-2.5-0.5-0.8-0.9-1-1.2-1.8-0.3-0.7-0.2-1.5-0.3-0.8-0.2-0.7 0.2-0.6 0.4-0.5 1.2-0.7 0.5-0.4 0.4-0.5 0.3-1.3 0.2-0.6 0.3-0.6 0.1-0.7 0-0.7-0.3-1.4-0.3-0.7-0.2-0.6 0-0.8 0.2-0.6 0.7-1.2 0.2-0.7 0-0.6-0.4-3.2-0.3-1-0.4-0.6-0.6-0.4-4.5-2.4-0.3-0.4-0.3-0.3-0.2-0.9-0.2-0.5-1-2.1-0.7-1.1-0.6-1.1-0.1-0.4-0.1-0.4-1.2-1.8-0.1-0.1-0.1-0.4-0.1-0.8-0.2-0.4-0.6-1.1-0.2-0.7-3.6-8-1.2-1.8-0.3-0.4-4.6-2.9-1.3-1.1-1.1 0.2-1.4-1.4-4.6-2.8-1.5-0.5-2.7 0.1-4.1-0.4-0.9 0.1-3 0.6-12 5-12.3 7.1-1 1.3-1.3 8.3 0 5.7-0.9 1.4-0.4 0.7-0.8 0.7-0.4 0.1-0.4 0-0.4 0-1.1-0.3-0.8-0.1-1.4 0.1-0.7-0.1-0.4-0.2-0.3-0.3-0.1-0.3-0.3-1.1-0.3-0.6-0.2-0.3-0.3-0.6-0.3-0.8-0.1-0.5-0.4-0.2-0.3-0.1-1.1 0.3-0.4 0-1.1-0.2-0.4 0-2.5 0.3-0.6 0-1-0.2-0.5-0.2-0.3-0.2-1.9-1.9-0.6-0.8-0.6-0.6-0.1-0.2-0.2-0.3-0.2-0.3-0.2-0.5-0.1-0.4-0.1-1.3-0.1-0.3-0.3-0.7-0.2-0.3-0.2-0.5-0.2-0.4 0-0.5-0.1-0.9-0.1-1-0.1-0.5 0.1-0.4 0.5-1.4 0.7-2.6 0.2-0.7 0.4-0.6 0.2-0.4 0.1-0.3 0-0.3 0.1-0.9 0-0.3 0.1-0.3 0.4-1 0.1-0.3 0-0.5 0-0.4-0.1-0.4-0.5-1.6-0.1-0.4 0-0.5 0.1-0.3 0.1-0.4 0.1-0.3 1.8-2.5 0.3-0.6 0.2-0.8 0.2-1.8 0.1-0.8 0.5-1.5 2.6-5 0.4-0.5 0.3-0.3 0.2-0.2 0.1-0.4 0.1-0.3 0.1-0.4 0.1-0.4 0.2-0.3 0.3-0.2 0.6-0.3 1.5-0.4 0.9-0.4 0.3-0.2 0.2-0.3 0.1-0.3 0-0.4-0.1-0.7 0-0.4 0.5-1.4 0.2-0.2 0.3-0.2 1-0.4 0.3-0.2 0.1-0.3 0.1-0.3 0-0.4-0.4-1.2-0.1-0.5 0-0.5 0-0.8 0.1-0.9 0.1-0.4 0.3-0.6 0.3-1.2 0.2-0.3 0.2-0.2 0.4 0 0.8-0.1 0.3-0.2 0.2-0.2 0.2-0.8 0-0.5-0.1-0.6-0.3-0.9-0.1-0.6 0.1-0.4 1-0.9 0.2-0.2 0.1-0.3 0.2-0.4-0.1-0.6-0.3-0.7-0.7-1.2-0.3-0.7-0.2-0.5 0.1-0.4 0.1-0.4 0.2-0.6 0.1-0.4 0-0.4-0.6-3-0.2-0.5-0.2-0.5-0.3-1-0.9-1.6-1.4-1.9-0.5-0.9-0.2-0.8 0.1-0.3 0.2-0.2 0.5-0.5 0.2-0.2 0.7-0.2 0.8-0.1 2.6 0 2.6-0.6 0.3-0.2 0.2-0.2 0.2-0.4 0.2-0.7 0.1-0.4 0.2-0.3 0.2-0.2 0.3-0.2 0.3-0.1 0.7-0.2 0.4-0.1 0.3-0.2 0.2-0.2 0.2-0.3 1.4-8.6 0.1-0.4 0.1-0.3 0.2-0.3 0.2-0.2 0.3-0.2 0.3-0.2 0.3-0.1 0.4-0.1 2.2 0 0.8-0.2 0.7-0.2 0.3-0.1 0.3-0.2 0.2-0.2 0.1-0.3 0.1-0.4-0.1-0.7-0.1-0.7 0-0.2 0-0.3 0.2-0.2 1.2-0.6 0.2-0.3 0.2-0.3 0.1-0.4 0-0.3-0.1-0.4-1-4.5-0.1-0.4 0.1-0.4 0.3-1.4 0.1-0.5-0.1-0.8-0.4-1.9 0-0.4 0-0.3 0.2-0.4 2.4-2.7 0.1-0.3 0.2-0.4 0-0.4 0.1-0.4-0.1-1.2 0.1-0.3 0.2-0.3 0.2-0.3 0.3-0.1 0.7-0.2 0.3-0.2 0.1-0.3 0.3-0.7 0.2-0.3 0.1-0.3 0.3-0.2 0.3-0.1 0.4-0.1 0.3-0.1 0.3-0.3 0.1-0.3 0.3-0.2 0.6-0.3 0.8-0.5 0.8-0.2 0.3-0.1 0.3-0.2 0.3-0.1 1.2-0.1 0.4-0.1 0.3-0.2 0.2-0.2 0.2-0.3 0.2-0.3 0.1-0.4 0.1-1.7 0-0.8-1.2-6.8 0-0.4 0.1-0.4 0.2-0.2 0.7-0.7 0.4-0.5 0.9-1.6 0.1-0.3 0.1-0.4 0.1-0.3 0.5-6.1 0.1-0.8 0-0.6-0.1-0.9-0.4-1.6-0.2-0.8 0-0.6 0.1-0.8-0.1-0.8 0.1-0.4 0.4-2 0.1-0.3 0.3-0.6 0.2-0.4 0.1-0.3 0.1-1.3 0.1-0.4 0.1-0.4 0.3-0.2 0.3-0.2 1.2-0.1 0.3-0.1 0.3-0.2 0.2-0.3 0.1-0.4 0-0.4-0.3-3.2-1.6-7.2 0-0.6 0.1-0.3 0.1-0.3 0.1-0.4 0.2-0.8 0.1-1.2 0.1-0.3 0-0.2 0.7-1.1 0.1-0.3 0.1-0.4 0-0.9 0-0.4-0.6-2.6 0-0.4 0.1-0.4 0.2-0.8 0.2-0.6 0.1-0.4 0-0.5-0.1-0.7-1.1-4.6 0-0.5-0.1-1.3-0.8-3.5-0.5-1.2-0.3-0.8-0.1-0.5 0-1 0-0.7-0.2-0.5-0.4-0.7-0.1-0.5 0-0.4 0.1-0.4 0.1-0.4-0.1-1.2 0.1-0.5 0.1-0.3 0.1-0.3 0.3-0.2 0.5-0.4 0.3-0.2 0.1-0.3 0.1-0.4-0.1-1 0-0.4 0.3-0.7 0.1-0.5-0.1-0.4-0.2-0.3-0.2-0.2-1-0.5-0.5-0.4-0.3-0.3-0.3-0.3-0.4-0.7-0.1-0.5 0.1-0.4 0.5-0.9 0.1-0.4 0.1-0.3 0.1-1.7 0.2-0.6 1.3 1.5 1.6 0.9 0.5 0 0.5 0 0.6-0.1 0.4-0.2 0.6-0.4 0.4-0.1 0.5 0.2 1.4 0.3 3.1 1.4 4.1 0.2 0.4 0.3 0.8 0.8 0.5 0.3 0.4 0 1.2-0.2 0.5 0.2 0.7 1 0.3 2.3 0.5 1.1 1.1 0.6 1.1 0.2 0.8 0.3 0.3 1.4 0.2 1.4 0.4 0 1.5-1.9 1.6-1.1 0.6-0.6 0.4-1.1 0.8 0.8 1.9 0.9 0.7 0.6 0.5 1 0.1 1.1-0.4 0.8-1 0.4 0.5 0.8 0.7 1.6 0.5 0.8-1.5 0.9-0.2 1 0.6 1.1 1.1 1.1 2.6 1.8 1.4 0.7 1.2 0.3 0.8-0.2 1.5-0.9 0.8-0.3 0.7 0 0.6 0.3 0.6 0.3 1.2 0.5 1.2 0.2 0.8 0.1 0.6 0.1 0.3 0.5 0.3 0.5 0.5 0.4 1.5 0.1 1.2-1 1-1.1 1.1-0.3 4.1 2.2 1.4 0.4 1.6-0.1 1-0.7 0.9-0.3 1.1 0.8 1.2 0.7 1.2-0.5 1.1-0.7 0.6-0.1 1.5-0.1 0.4-0.2 0.2-0.2 0.3-0.2 0.4-0.5 1.4-1.4 2-2.2 0.5-0.8 0.2-0.3 0.9-0.6 0.3-0.2 0.6-0.1 0.4 0.1 0.4 0.2 0.7 0.4 1.1 0.6 0.6 0.1 0.4-0.1 1.9-0.8 2.9-0.2 0.5-0.1 1.2-0.6 1.1-0.2 1.1 0 0.6-0.1 0.3-0.2 0.1-0.4 0.3-2 0-1.2 0.1-0.4 0.2-0.3 0.2-0.3 0.4-0.5 0.3-0.2 0.8-0.5 0.3-0.3 0.3-0.2 0.4-0.1 0.4 0 0.3 0.2 0.1 0.3 0.2 0.3 0.3 0.4 0.5 0.4 0.4 0.1 0.3-0.1 0.2-0.2 1-1.2 0.1-0.2 0.3-0.1 1.2-0.4 0.7-0.1 0.5 0 0.4 0.1 0.3 0.2 0.7 0.6 0.4 0.1 3.8 1.1 0.7 0 0.5-0.1 0.2-0.2 0.2-0.3 0.1-0.3 0.2-0.3 0.3-0.3 0.6-0.3 0.4 0.1 0.4 0.1 0.3 0.2 0.2 0.2 0.3 0.7 0.3 0.4 0.3 0.1 0.3-0.1 3.2-1.9 0.7-0.2 1.9-0.4 0.3-0.1 0.3-0.2 0.9-0.9 0.3-0.3 0.4-0.2 0.6-0.1 0.4 0.1 0.2 0.2 0.1 0.3-0.1 0.3-0.1 0.3-0.5 0.5-0.1 0.3-0.1 0.3 0.1 0.3 0.2 0.2 0.3 0.2 0.4 0.1 1.5 0.3 0.3 0.2 0.3 0.1 0.3 0.3 0.1 0.2 0.2 0.4z" id="MGF" name="Fianarantsoa">
  </path>
  <path d="M337.1 515.7l1.4 0.3 2.7 1 2.1 0.2 1.4 0.4 0.5 0 0.6-0.2 1.4-0.4 0.7-0.1 0.7 0 0.6 0 0.6 0.2 0.5 0.1 0.4 0.2 0.4 0.4 0.8 1 2.6 3.7 0.5 0.5 0.6 0.3 1.4 0.4 0.9 0 1.7-0.2 1.4 0.3 0.8 0.1 1.1-0.1 1.1 0.6 0.5 0 1.2-0.3 0.7 0 1.8 0.8 1.2 0.7 0.6 0.4 1.4 0.4 0.8 0.1 0.7 0 2.1-0.6 0.8-0.4 0.7-0.8 0.5-1.1 0.6-0.7 0.9-0.6 0.7-0.3 0.7-0.1 0.7 0 1.2 0.5 1.7 0.5 0.5 0.2 0.6 0.2 0.7-0.1 1-0.5 1.4-0.3 1.3 0 0.6-0.3 0.5-0.4 0-0.8-0.4-0.5-0.4-0.5-2.7-1.9-0.5-0.5-0.4-0.4-0.4-0.8-0.2-0.6-0.1-0.6 0.2-0.8 0.7-1.1 0.4-0.8 0.3-1-0.1-0.8-0.2-0.7-0.3-0.7-0.3-0.6-0.6-3.2-0.4-1.2-0.2-0.7-0.2-0.7-0.3-0.5-0.5-0.2-0.5-0.2-0.2-0.2-0.3-0.5-0.1-0.6 0-0.8 0.3-1 0.7-1.4 0.3-1 0-1-0.4-2.2-0.2-0.5-0.3-0.4-0.3-0.4-1.3-1.2-0.9-1.7 0-0.7 0.2-0.8-0.1-0.7-0.3-0.6-0.8-1-0.3-0.5-0.2-0.7 0-1.3-0.5-1.2-1.3-6.3-0.3-0.7-0.3-0.6-1.4-2.2-0.3-0.6-0.3-1.1-0.2-0.6-2.3-3.3-0.3-0.5-0.3-0.6 0.1-0.6 0.3-0.6 1-1.7 0.4-0.5 2.5-2.1 1.6-0.9 1.6-0.5 0.8-0.5 0.6-0.6 0.4-0.5 0.4-0.5 0.9-0.9 0.7-0.9 0.3-0.3 0.9-0.7 0.4-0.4 0.5-0.4 0.5-0.1 1.5 1.1 2 0.9 0.6 0.5 0.5 0.6 0.5 0.4 0.6 0.2 0.8-0.2 1.2-0.8 2.4-1.1 0.9 0 0.9 0.2 1.6 0.6 0.8 0.5 0.7 0.5 1 0.8 0.6 0.4 5.6 2.5 0.8 0.1 0.9-0.4 1.3-0.8 0.5-0.4 0.3-0.5 0.4-0.1 0.7 0 1.2 0.6 0.6 0.4 0.3 0.5 0.2 0.6 0.3 0.6 0.4 0.4 0.6 0.1 0.6-0.3 0.6-0.6 0.3-0.3 0.4-0.3 1.2-0.3 1.1 0.4 0.4 0.6 1.8 2.8 0.3 0.7 0 0.5-0.7 0.8-0.2 0.2-0.1 0.4-0.1 0.4 0 2.1 0.9 8-0.4 3.4-0.2 0.5-0.2 0.2-0.2 0.3-1.1 0.7-0.3 0.2-0.2 0.3-0.2 0.2-0.3 0.7-0.2 0.2-0.2 0.2-0.9 0.5-0.2 0.2-0.3 0.3-0.5 0.9-0.1 0.3-1.1 1.2-0.5 0.4-0.6 0.5-0.4 0.6-0.1 0.4 0.1 0.4 0.2 0.7 0.2 0.7 0.3 3.3 0.3 1.4 0.1 0.4 0.4 1.8 0 0.6-0.1 0.4-0.1 0.3-0.6 1-0.3 0.6-0.3 1.1 0.1 0.6 0.1 0.3 0.4 0.2 1 0.3 0.3 0.2 0.2 0.2 0.2 0.2 0.5 0.9 1.1 3 0.2 0.3 0.2 0.3 0.3 0.2 1.1 0.7 0.3 0.4 0.3 0.5 0.3 1.2 0.3 0.5 0.3 0.4 1.4 0.5 0.4 0.2 0.3 0.5 0.1 0.4 0 0.4-0.3 0.8-0.2 0.5-0.1 0.8 0.1 0.5 0.2 0.4 0.6 0.7 0.8 1.1 0.6 1.2 0.1 0.3 0.5 0.5 1.2 1 0.6 0.8 0.5 0.4 0.3 0.2 0.3 0.2 0.3 0 0.4 0 0.3-0.2 0.8-0.5 0.6-0.3 1.1-0.3 0.3 0 0.4 0 0.5 0.4 0.1 0.5 0.1 0.7 0.1 0.4 0.6 1.3 0.2 1.1 0.6 1.9 0.2 0.6 0 0.6 0.1 2-0.2 1.7 0 1.9 0 0.6-0.2 0.2-0.3 0.2-1 0.4-0.1 0.1-0.2 0.1-0.1 0.4 0.2 3.6-0.1 0.4-0.1 0.4-0.2 0.4-0.1 0.5-0.2 0.9 0.1 0.5 0.1 0.5 0.3 0.2 0.2 0.4 0.3 0.6 0.6 2.4 1.3 3.3 0.2 0.7 0.1 1 0.1 0.7 0.4 1.4 0 0.5-0.2 2.6-0.1 0.4-0.1 0.3-0.4 0.6-0.4 0.5-0.5 0.4-0.5 0.5-0.2 0.6-0.1 0.3-0.2 1.3-0.1 0.3-0.3 0.6-1.5 1.9-0.2 0.6-0.1 1.7-0.1 0.3-0.1 0.4-0.5 0.9-0.1 0.4 0.1 0.5 0.4 0.7 0.3 0.3 0.3 0.3 0.5 0.4 1 0.5 0.2 0.2 0.2 0.3 0.1 0.4-0.1 0.5-0.3 0.7 0 0.4 0.1 1-0.1 0.4-0.1 0.3-0.3 0.2-0.5 0.4-0.3 0.2-0.1 0.3-0.1 0.3-0.1 0.5 0.1 1.2-0.1 0.4-0.1 0.4 0 0.4 0.1 0.5 0.4 0.7 0.2 0.5 0 0.7 0 1 0.1 0.5 0.3 0.8 0.5 1.2 0.8 3.5 0.1 1.3 0 0.5 1.1 4.6 0.1 0.7 0 0.5-0.1 0.4-0.2 0.6-0.2 0.8-0.1 0.4 0 0.4 0.6 2.6 0 0.4 0 0.9-0.1 0.4-0.1 0.3-0.7 1.1 0 0.2-0.1 0.3-0.1 1.2-0.2 0.8-0.1 0.4-0.1 0.3-0.1 0.3 0 0.6 1.6 7.2 0.3 3.2 0 0.4-0.1 0.4-0.2 0.3-0.3 0.2-0.3 0.1-1.2 0.1-0.3 0.2-0.3 0.2-0.1 0.4-0.1 0.4-0.1 1.3-0.1 0.3-0.2 0.4-0.3 0.6-0.1 0.3-0.4 2-0.1 0.4 0.1 0.8-0.1 0.8 0 0.6 0.2 0.8 0.4 1.6 0.1 0.9 0 0.6-0.1 0.8-0.5 6.1-0.1 0.3-0.1 0.4-0.1 0.3-0.9 1.6-0.4 0.5-0.7 0.7-0.2 0.2-0.1 0.4 0 0.4 1.2 6.8 0 0.8-0.1 1.7-0.1 0.4-0.2 0.3-0.2 0.3-0.2 0.2-0.3 0.2-0.4 0.1-1.2 0.1-0.3 0.1-0.3 0.2-0.3 0.1-0.8 0.2-0.8 0.5-0.6 0.3-0.3 0.2-0.1 0.3-0.3 0.3-0.3 0.1-0.4 0.1-0.3 0.1-0.3 0.2-0.1 0.3-0.2 0.3-0.3 0.7-0.1 0.3-0.3 0.2-0.7 0.2-0.3 0.1-0.2 0.3-0.2 0.3-0.1 0.3 0.1 1.2-0.1 0.4 0 0.4-0.2 0.4-0.1 0.3-2.4 2.7-0.2 0.4 0 0.3 0 0.4 0.4 1.9 0.1 0.8-0.1 0.5-0.3 1.4-0.1 0.4 0.1 0.4 1 4.5 0.1 0.4 0 0.3-0.1 0.4-0.2 0.3-0.2 0.3-1.2 0.6-0.2 0.2 0 0.3 0 0.2 0.1 0.7 0.1 0.7-0.1 0.4-0.1 0.3-0.2 0.2-0.3 0.2-0.3 0.1-0.7 0.2-0.8 0.2-2.2 0-0.4 0.1-0.3 0.1-0.3 0.2-0.3 0.2-0.2 0.2-0.2 0.3-0.1 0.3-0.1 0.4-1.4 8.6-0.2 0.3-0.2 0.2-0.3 0.2-0.4 0.1-0.7 0.2-0.3 0.1-0.3 0.2-0.2 0.2-0.2 0.3-0.1 0.4-0.2 0.7-0.2 0.4-0.2 0.2-0.3 0.2-2.6 0.6-2.6 0-0.8 0.1-0.7 0.2-0.2 0.2-0.5 0.5-0.2 0.2-0.1 0.3 0.2 0.8 0.5 0.9 1.4 1.9 0.9 1.6 0.3 1 0.2 0.5 0.2 0.5 0.6 3 0 0.4-0.1 0.4-0.2 0.6-0.1 0.4-0.1 0.4 0.2 0.5 0.3 0.7 0.7 1.2 0.3 0.7 0.1 0.6-0.2 0.4-0.1 0.3-0.2 0.2-1 0.9-0.1 0.4 0.1 0.6 0.3 0.9 0.1 0.6 0 0.5-0.2 0.8-0.2 0.2-0.3 0.2-0.8 0.1-0.4 0-0.2 0.2-0.2 0.3-0.3 1.2-0.3 0.6-0.1 0.4-0.1 0.9 0 0.8 0 0.5 0.1 0.5 0.4 1.2 0 0.4-0.1 0.3-0.1 0.3-0.3 0.2-1 0.4-0.3 0.2-0.2 0.2-0.5 1.4 0 0.4 0.1 0.7 0 0.4-0.1 0.3-0.2 0.3-0.3 0.2-0.9 0.4-1.5 0.4-0.6 0.3-0.3 0.2-0.2 0.3-0.1 0.4-0.1 0.4-0.1 0.3-0.1 0.4-0.2 0.2-0.3 0.3-0.4 0.5-2.6 5-0.5 1.5-0.1 0.8-0.2 1.8-0.2 0.8-0.3 0.6-1.8 2.5-0.1 0.3-0.1 0.4-0.1 0.3 0 0.5 0.1 0.4 0.5 1.6 0.1 0.4 0 0.4 0 0.5-0.1 0.3-0.4 1-0.1 0.3 0 0.3-0.1 0.9 0 0.3-0.1 0.3-0.2 0.4-0.4 0.6-0.2 0.7-0.7 2.6-0.5 1.4-0.1 0.4 0.1 0.5 0.1 1 0.1 0.9 0 0.5 0.2 0.4 0.2 0.5 0.2 0.3 0.3 0.7 0.1 0.3 0.1 1.3 0.1 0.4 0.2 0.5 0.2 0.3 0.2 0.3 0.1 0.2 0.6 0.6 0.6 0.8 1.9 1.9 0.3 0.2 0.5 0.2 1 0.2 0.6 0 2.5-0.3 0.4 0 1.1 0.2 0.4 0 1.1-0.3 0.3 0.1 0.4 0.2 0.1 0.5 0.3 0.8 0.3 0.6 0.2 0.3 0.3 0.6 0.3 1.1 0.1 0.3 0.3 0.3 0.4 0.2 0.7 0.1 1.4-0.1 0.8 0.1 1.1 0.3 0.4 0 0.4 0 0.4-0.1 0.8-0.7 0.4-0.7 0.9-1.4 0-5.7 1.3-8.3 1-1.3 12.3-7.1 12-5 3-0.6 0.9-0.1 4.1 0.4 2.7-0.1 1.5 0.5 4.6 2.8 1.4 1.4 1.1-0.2 1.3 1.1 4.6 2.9 0.3 0.4 1.2 1.8 3.6 8 0.2 0.7 0.6 1.1 0.2 0.4 0.1 0.8 0.1 0.4 0.1 0.1 1.2 1.8 0.1 0.4 0.1 0.4 0.6 1.1 0.7 1.1 1 2.1 0.2 0.5 0.2 0.9 0.3 0.3 0.3 0.4 4.5 2.4 0.6 0.4 0.4 0.6 0.3 1 0.4 3.2 0 0.6-0.2 0.7-0.7 1.2-0.2 0.6 0 0.8 0.2 0.6 0.3 0.7 0.3 1.4 0 0.7-0.1 0.7-0.3 0.6-0.2 0.6-0.3 1.3-0.4 0.5-0.5 0.4-1.2 0.7-0.4 0.5-0.2 0.6 0.2 0.7 0.3 0.8 0.2 1.5 0.3 0.7 1.2 1.8 0.9 1 0.5 0.8 1 2.5 0.5 1.1 0.2 0.9 0.1 0.7 0 0.6-0.1 0.6-0.2 0.3-0.3 0.4-0.4 0.4-0.9 1.1-0.3 0.5-0.9 2.1-1.3 2.4-1.1 2.7-0.1 0.7-0.1 0.6 0.3 0.7 0.6 0.9 2.3 1.9 1.4 0.9 0.5 0.4 0.4 0.6 0.6 1.3 0.3 0.6 0.5 0.4 0.6 0.4 0.7 0.3 3.5 0.8 4.7 1.8 2.3 1.5 0.4 0.4 0.3 0.4 0 0.3-0.1 1.3 0.1 0.6 0.8 1.1 0.2 0.7 0.4 2.2 0.6 0.6 1.1 0.3 3.5 0.1 1.2 0.4 0.6 0.4 0.5 0.5 0.5 0.5 1.8 2.9 0.3 0.6 0.1 0.7-0.2 0.7-0.5 1.4-0.2 1.4-0.1 1.2 0.1 0.8 0.3 0.6 0.4 0.6 0.7 0.3 1.2 0 0.9-0.2 1.8-0.6 1-0.5 0.6-0.4 0.4-0.4 0.3-0.6 0.6-1.3 0.3-0.6 0.9-1.1 0.3-0.6 0.2-0.7-0.1-0.7-0.2-0.6-1-1.8-0.5-1.4-0.2-0.7-0.2-0.7 0-0.8 0.2-0.7 0.5-0.5 0.6-0.2 1.9 0.6 0.8 0.2 1.7-0.5 0.6-0.4 0.4-0.5 0.1-0.5 0-0.6-0.4-2.1 0-1.7 0.5-0.5 0.9-0.1 4.5 1.3 0.8 0.5 1.7 1.1 8 4.5 3.2 2.5 0.1 0.1-3.6 10-0.5 0.4-0.8-0.2-1.3-0.7-0.3 0.4 0.9 3.8-1.7 11.2-5.3 13.4-1.5 2.5-0.2 1 0 2.2-0.4 1.1-3.2 2.4-0.9 2.2 0.5 4.4-0.7 1.8-0.6-0.8-0.5-0.9-0.2-1 0-1.1-0.5 0.9-0.1 1 0.2 1.1 0 1.2-0.3 1.4-0.4 0.5-1.9 0.8-1 0.6-1.8 1.7-3 3.7-0.7 0.4-0.2-0.3-0.6-1.6-0.7-0.1-0.2 0.1-0.1 0.2-3.7 2.6-1.3 1.3-0.7 0.5-1.8 0.7-0.8 0.5-0.8 1.2-0.7 0.6-0.5 0-0.6-0.3-0.7 0-0.6 0.8-0.6 0.4-4.3 1.2-1 0-2.1-0.7-6.4-0.8-7.3 0.2-9.3 2.3-12.5 5.5-7.9 4.2-8.8 4.9-6.3 6-1.2 0.9-1.3 0.5-1.4 0.1-3.1 3.1-4.4 0.9-17.9 0.8-0.9 0.2-0.9 0.5-1 0.2-1.1-0.2-0.6-0.8-0.6-2.6-0.5-1.2-1.9-1.4-6.7-2.6-1.9-1.4-0.8-0.9-0.8-2.1-1.1-1-4.6-3.5-4.2-2-2.5-0.8-6.7-1-6.6-0.3-9.2-1.9-1.2-0.7-0.9-2.7-2.1-2.3-0.4-1.5 1.2 0.5 1.1 1 1.9 2.3 1.3 0.9 1 0 0.6-0.8-0.3-1.5-1 0.2-0.9-0.5-1.6-1.6-1-0.7-1-0.5-1-0.2-1.2 0-2.2-0.9-3.8-4.2-2.2-1.2-2 0.1-0.7-0.2-5.1-3.4-0.7-1.5-0.4-5.5-0.6-2.3-4.6-6.3-0.6-2.2 0.6-6.2-0.6-2.3-0.6-1.2-2.7-3-0.3-0.2-0.4-0.3-0.3-0.6-0.2-0.6-0.2-1.4-0.2-0.6-2.1-1.8-4.4-3-1.9-2-2.1-5-1.1-10.3 0.9-11.8-1.1-6.7 0.1-0.6 0.5-1.3 0.2-0.7-0.1-0.8-0.7-2-0.6-2.7-0.4-1.3-0.8-1.2 0.9-1.4-0.1-4.9 0.3-2.1 1.4-1.4 4.2-1.9 1.1-1.5-0.1-1.1-0.9-1.8 0.2-1.2 0.9-1 0.3-0.4 0.4-1.2 0-0.6-0.2-0.6-0.7-1-1.6-1.4-1.2-1.6-2.7-2.6-0.4-0.3-0.4 0-0.5-0.1-0.5-0.5-0.1-0.4-0.3-1.5-0.6-2.4-0.3-6.1-0.8-5.1-0.9-2.9-1.7-1.9-4.3-3.2-0.7-1-1-2.1-0.9-0.9-1.1-0.8-2.2-2.4-1.3-2.1-0.7-1.5-0.3-0.9-0.3-2.8-0.8-1.9-0.4-3.5-0.7-1.9-0.4-2.5-0.3-0.5-0.8-1.2-0.4-0.6-0.4-1.6 0-1.6 0.2-3.1-0.6-6.3-0.9-3.3-1.5-3.1 0-0.6 0-0.7 0-0.7-0.4-1.6-0.7-1.6 0.1-1.4 1.4-1.1 1.7-0.2 1.3 1.3 0.4-1.1-0.1-1.1-0.2-1.2-0.1-1.2-2.1-0.1-0.9-2.7 0-6.1 0.1-0.8 0.6-1.3 0.2-0.7 0-1.6 0.1-0.7 0.2-0.3 0.3-0.3 0.2-0.3 0.2-0.1 0.2-0.1 0.3-0.1 0.2-0.2-0.5-1.9 0.1-0.9 0.3-0.8 0.4-0.8 0.6-0.7 0.7 1 0.1 1.1-0.4 2.5 1.3-1.8 0.2-3.2-0.1-3.4 0.3-2.7 0.7-1.2 4.2-5.1 1.1-0.9 1.2-0.1 1.4 0.8 0-18 0.5-1.7 1.3-3.1 0.4-1.7 0.5 1.2 0.5 0 1.2-1.2 1.7-0.9 0.8-1.2 0.3-0.2 3.5 0 2.3-0.6 1.2 0.3 1.1 0.5 1.2 0.2 1.5-0.6 1.8-1.4 1.6-1.8 0.6-1.7 0.3-2 2.3-6.3 2.3-13 4-7.8 1.3-1.3 2.1-0.5 1.1-1 3.4-6.4 0.8-2.7 0.6-3.2 0.8-3 1.7-2.1 0 0.6 0.1 0.4 0.3 0.8 1.5-3.7 0.9-1.1 2.8-2.2 0.8-0.9-0.2-2.1 0.7-2.5 4.5-9.2 1.4-2.1 3.7-3.7 1.5-1.9 1.2-2.1 1-2.5 0.3-2 0.1-2.9-0.5-2.2-1.2-0.2-0.5-1.8-0.3-0.5-0.5-0.3-0.9 0-0.4-0.2-0.8-0.7-0.9-1-0.6-1.2-0.3-1.2 0.3-0.9 1.2-2.3 0.5-0.7 0.5-0.9 0.2-1.1-0.1-2.3-0.1-0.7-0.3-0.6-0.1-0.6 0.1-0.8 0.3-0.3 1.1-0.7 0.3-0.4 0.4-1.3 0.1-1 0.5-0.7 1.4-0.2 0.8-1.2-0.2-2.6-1.3-4.4-0.9-2.2-1.2-1.9-3-2.9-0.5-0.8-0.5-2.2-1.1-2.2-4.6-5.9z" id="MGU" name="Toliara">
  </path>
  <path d="M419 458.7l0.6-0.7 0.2-0.4 0.2-0.5 0.3-0.6 0.4-0.5 0.9-0.9 0.5-0.4 0.6-0.1 1 0.3 0.7 0.2 0.6 0.4 0.5 0.4 0.4 0.3 0.5 0 0.5-0.2 0.6-0.2 0.8 0.2 2.4 0.8 0.6 0 2.4-1.8 0.3-0.5 0.2-0.7-0.3-2.1 0.1-0.7 0.2-0.9 0.4-0.6 1.6-1.9 0.5-0.6 0.3-0.6 0.2-0.6 0.2-1.4 0.8-3.2 0.5-1.1 0.4-0.5 1.8-1.9 0.2-0.5 0.2-1.3 0.1-0.6 1-2.4 0.2-0.6-0.1-0.6-0.1-1.2 0.1-0.7 0.1-0.6 0.3-0.8 0.4-0.6 0.5-0.6 0.8 0.1 0.5 0.3 0.7 0.7 0.4 0.4 0.7 0.2 2.5 0.6 0.8 0.3 0.7 0.4 0.7 0.2 0.8 0.1 1-0.3 1.3-0.6 0.5 0 0.3 0.6 0.1 1.2 0.4 0.5 0.8 0 1.3-0.4 0.6-0.4 0.7-0.3 0.8 0.1 0.6 0 0.6-0.3 2-1.3 0.9-0.2 1.3-0.2 1.7-0.5 0.6-0.2 0.5-0.5 0.2-0.5 0.6-0.5 1-0.3 1.7-0.2 1.1-0.2 0.8-0.3 0.5-0.3 0.7-0.2 1.2-0.3 0.6-0.3 1-0.8 1.2-0.6 0.9-0.9 0.5-0.2 0.7 0.4 0.8 0.2 1 0.1 4.1-0.3 3.8-1 1-0.1 1.3 0.1 2.3 0.4 2.6 0.2 0.8-0.2 1-0.5 0.8 0 0.6-0.1 0.5 0.1 0.4 0.6 0.7 2.1 0.1 0.7 0 0.7-0.2 1.4 0.2 0.5 0.8 0.4 3.2 0 1.8 0.2 1.3 0.5 0.7 0.5 0.7 0.9 0.6-0.2 0.4-0.5 0.7-1.2 0.3-0.5 1-0.9 0.6-0.3 0.7-0.2 2.4-0.4 0.6-0.2 2.1-1.6 0.7-0.4 1-0.2 1.6-0.2 1.4 0 1.7 0.3 2.7 0.9 1.2 0.6 0.6 0.5 0 0.6 0 0.5 0.1 0.7 0.5 1.3 0.4 0.5 0.5 0.4 1.8 1 0.5 0.4 0.4 0.5 0.3 0.6 0.6 0.6 1 0.5 1.7 0.5 2.7 0.4 2.1-0.4 0.9 0.3 0.4 0.6 0.8 1.3 0.6 0.5 1.5 0.2 2.5-0.1 9-1.7 1.8-0.7 3.5-0.8 0.3 1.4 0.1 0.3 0.2 0.4 0.3 0.2 0.8 0.5 0.3 0.2 0.5 0.4 1 0.4 0.3 0.2 0.2 0.2 0.2 0.3 0.1 0.4 0.2 2.9 0.1 0.3 0.5 0.9 0.2 0.7 0.3 1.5 0.3 0.7 0.3 0.6 0.1 0.3 0 0.4-0.2 0.6-0.2 0.7-0.1 0.7 0.1 1.3 0.2 1.1 0 0.2 0 0.2-0.1 4.1 0.1 0.6 0.2 0.4 0.9 1.7 0.1 0.5 0 1.8 0.1 0.6 0.1 0.5 0.5 0.9 0.2 0.3 0 0.3 0 0.5 0 0.4-0.3 0.6-0.3 0.4-1 0.8-0.4 0.5-0.1 0.2 0 0.4-0.1 0.6 0 2.4-0.5 5.5 0.1 0.9-0.1 0.8-0.2 1.2-2.1 6-0.8 4.4 0.1 5.2 0.2 1.6 0.5 1.8 0 0.4-0.1 2.2 0 1.5-0.2 3.2-0.1 0.7-0.2 0.6-0.3 0.5-0.3 0.5-0.2 0.4 0 0.4 0 0.9-0.1 0.6-0.3 0.9-1.1 2.1-0.1 0.5 0 0.5 0.1 0.9 0.1 0.5 2.1 4.1 0.1 0.3 0 0.5-0.1 2 0.1 0.7 0.1 0.5 0.3 1 0 2.3 0.2 1.3 0 0.9-0.5 4.3-0.2 1-0.1 0.5-0.3 0.5-1 1.7-0.9 1-0.2 0.4-0.1 0.4 0 0.8-0.2 0.7-0.5 1-0.8 1.5-0.2 0.4-0.1 0.6 0 1.6 0.2 1.2 0 0.5-0.1 0.5-0.2 0.6-0.8 1-0.2 0.4 0 0.8 0 4.1 0.2 0.8 0.2 0.6 0.1 0.5 0 0.4-0.2 1.7-0.6 1.6-1.9 3.3-0.5 0.5-0.9 0.9-1.1 0.8-0.5 0.4-0.2 0.3-0.3 0.6-0.2 0.3-0.1 0.5 0 2.4-0.1 0.6-0.2 0.7-1.8 3.1-0.2 1.1-0.3 3.2-0.2-0.4-0.1-0.2-0.3-0.3-0.3-0.1-0.3-0.2-1.5-0.3-0.4-0.1-0.3-0.2-0.2-0.2-0.1-0.3 0.1-0.3 0.1-0.3 0.5-0.5 0.1-0.3 0.1-0.3-0.1-0.3-0.2-0.2-0.4-0.1-0.6 0.1-0.4 0.2-0.3 0.3-0.9 0.9-0.3 0.2-0.3 0.1-1.9 0.4-0.7 0.2-3.2 1.9-0.3 0.1-0.3-0.1-0.3-0.4-0.3-0.7-0.2-0.2-0.3-0.2-0.4-0.1-0.4-0.1-0.6 0.3-0.3 0.3-0.2 0.3-0.1 0.3-0.2 0.3-0.2 0.2-0.5 0.1-0.7 0-3.8-1.1-0.4-0.1-0.7-0.6-0.3-0.2-0.4-0.1-0.5 0-0.7 0.1-1.2 0.4-0.3 0.1-0.1 0.2-1 1.2-0.2 0.2-0.3 0.1-0.4-0.1-0.5-0.4-0.3-0.4-0.2-0.3-0.1-0.3-0.3-0.2-0.4 0-0.4 0.1-0.3 0.2-0.3 0.3-0.8 0.5-0.3 0.2-0.4 0.5-0.2 0.3-0.2 0.3-0.1 0.4 0 1.2-0.3 2-0.1 0.4-0.3 0.2-0.6 0.1-1.1 0-1.1 0.2-1.2 0.6-0.5 0.1-2.9 0.2-1.9 0.8-0.4 0.1-0.6-0.1-1.1-0.6-0.7-0.4-0.4-0.2-0.4-0.1-0.6 0.1-0.3 0.2-0.9 0.6-0.2 0.3-0.5 0.8-2 2.2-1.4 1.4-0.4 0.5-0.3 0.2-0.2 0.2-0.4 0.2-1.5 0.1-0.6 0.1-1.1 0.7-1.2 0.5-1.2-0.7-1.1-0.8-0.9 0.3-1 0.7-1.6 0.1-1.4-0.4-4.1-2.2-1.1 0.3-1 1.1-1.2 1-1.5-0.1-0.5-0.4-0.3-0.5-0.3-0.5-0.6-0.1-0.8-0.1-1.2-0.2-1.2-0.5-0.6-0.3-0.6-0.3-0.7 0-0.8 0.3-1.5 0.9-0.8 0.2-1.2-0.3-1.4-0.7-2.6-1.8-1.1-1.1-0.6-1.1 0.2-1 1.5-0.9-0.5-0.8-0.7-1.6-0.5-0.8 1-0.4 0.4-0.8-0.1-1.1-0.5-1-0.7-0.6-1.9-0.9-0.8-0.8-0.4 1.1-0.6 0.6-1.6 1.1-1.5 1.9-0.4 0-0.2-1.4-0.3-1.4-0.8-0.3-1.1-0.2-1.1-0.6-0.5-1.1-0.3-2.3-0.7-1-0.5-0.2-1.2 0.2-0.4 0-0.5-0.3-0.8-0.8-0.4-0.3-4.1-0.2-3.1-1.4-1.4-0.3-0.5-0.2-0.4 0.1-0.6 0.4-0.4 0.2-0.6 0.1-0.5 0-0.5 0-1.6-0.9-1.3-1.5 1.5-1.9 0.3-0.6 0.1-0.3 0.2-1.3 0.1-0.3 0.2-0.6 0.5-0.5 0.5-0.4 0.4-0.5 0.4-0.6 0.1-0.3 0.1-0.4 0.2-2.6 0-0.5-0.4-1.4-0.1-0.7-0.1-1-0.2-0.7-1.3-3.3-0.6-2.4-0.3-0.6-0.2-0.4-0.3-0.2-0.1-0.5-0.1-0.5 0.2-0.9 0.1-0.5 0.2-0.4 0.1-0.4 0.1-0.4-0.2-3.6 0.1-0.4 0.2-0.1 0.1-0.1 1-0.4 0.3-0.2 0.2-0.2 0-0.6 0-1.9 0.2-1.7-0.1-2 0-0.6-0.2-0.6-0.6-1.9-0.2-1.1-0.6-1.3-0.1-0.4-0.1-0.7-0.1-0.5-0.5-0.4-0.4 0-0.3 0-1.1 0.3-0.6 0.3-0.8 0.5-0.3 0.2-0.4 0-0.3 0-0.3-0.2-0.3-0.2-0.5-0.4-0.6-0.8-1.2-1-0.5-0.5-0.1-0.3-0.6-1.2-0.8-1.1-0.6-0.7-0.2-0.4-0.1-0.5 0.1-0.8 0.2-0.5 0.3-0.8 0-0.4-0.1-0.4-0.3-0.5-0.4-0.2-1.4-0.5-0.3-0.4-0.3-0.5-0.3-1.2-0.3-0.5-0.3-0.4-1.1-0.7-0.3-0.2-0.2-0.3-0.2-0.3-1.1-3-0.5-0.9-0.2-0.2-0.2-0.2-0.3-0.2-1-0.3-0.4-0.2-0.1-0.3-0.1-0.6 0.3-1.1 0.3-0.6 0.6-1 0.1-0.3 0.1-0.4 0-0.6-0.4-1.8-0.1-0.4-0.3-1.4-0.3-3.3-0.2-0.7-0.2-0.7-0.1-0.4 0.1-0.4 0.4-0.6 0.6-0.5 0.5-0.4 1.1-1.2 0.1-0.3 0.5-0.9 0.3-0.3 0.2-0.2 0.9-0.5 0.2-0.2 0.2-0.2 0.3-0.7 0.2-0.2 0.2-0.3 0.3-0.2 1.1-0.7 0.2-0.3 0.2-0.2 0.2-0.5 0.4-3.4-0.9-8 0-2.1 0.1-0.4 0.1-0.4 0.2-0.2 0.7-0.8 0-0.5-0.3-0.7-1.8-2.8-0.4-0.6-1.1-0.4z" id="MGT" name="Antananarivo">
  </path>
 </g>
 <g id="points">
  <circle class="-24.91581795193498|43.586961297886404" cx="294.1" cy="907.1" id="0">
  </circle>
  <circle class="-19.45383878870228|47.22746422698897" cx="522.9" cy="536.2" id="1">
  </circle>
  <circle class="-12.626364834661409|50.139866570271025" cx="705.9" cy="89.4" id="2">
  </circle>
 </g>
 <g id="label_points">
  <circle class="Mahajanga" cx="503.7" cy="358.7" id="MGM">
  </circle>
  <circle class="Antsiranana" cx="660.4" cy="153.7" id="MGD">
  </circle>
  <circle class="Toamasina" cx="618.6" cy="426.2" id="MGA">
  </circle>
  <circle class="Fianarantsoa" cx="499.3" cy="692.3" id="MGF">
  </circle>
  <circle class="Toliara" cx="406.5" cy="864.5" id="MGU">
  </circle>
  <circle class="Antananarivo" cx="498.8" cy="500.8" id="MGT">
  </circle>
 </g>
</svg>