<?xml version="1.0"?>
    
<!--********* Copyright (c) 2024 Pareto Softare, LLC DBA Simplemaps.com ***************************************
************* Free for Commercial Use, full terms at  https://simplemaps.com/resources/svg-license ************
************* Attribution is appreciated! https://simplemaps.com *******************************************-->

<svg baseprofile="tiny" fill="#6f9c76" height="1330" stroke="#ffffff" stroke-linecap="round" stroke-linejoin="round" stroke-width=".5" version="1.2" viewbox="0 0 1000 1330" width="1000" xmlns="http://www.w3.org/2000/svg">
 <g id="features">
  <path d="M140.2 1258.2l0.8-1.5 1.7-1.1 1.6-0.2 0.7 1.4-0.9 0.8-1.7 1.3-1.6 0.5-0.6-1.2z m20.5-46.4l-0.8 0.7-1.1 0.4-0.9-0.4-0.5-1.3 0.3-1.4 0.9-0.7 1-0.1 0.9 0.2 0.9 0.8-0.7 1.8z m62.2-5.4l1.1 2.3-0.9 2.1-1.5 1.7-0.6 1 0.3-1.1-0.5-0.9-0.7-1-0.6-1.3 1.1-0.1 1-0.4 0.8-0.9 0.5-1.4z m-27.6 32.6l3.2 2.2 0.9 1 0.1 0.6-0.5 0.4-0.7 0.1-0.6-0.1-0.4-0.3-0.5-1.4-0.5-0.4-1.6-0.1-0.4 0.7 0.5 2.6-0.8 0.5-2.4-1.1 0.8 1.6-5.3 0-4.4 0.8-1.7 0.8-4.4 4.2-1.4 1.7-0.9 0.8-1.2-0.1-1.3-0.5-0.9-0.9-1.1-0.6-2.6 0.4-0.8-0.1-0.7-1.3-0.5-1.5-0.6-0.7-1.4 1.4-1.2 0.3-0.6 0.3 0 0.4-0.4 2.5-1.2-0.8-3.6 2.9-2 0.8 1.2 1.3 2.2-0.4 4.3-1.7-0.8 2-0.8 1.4-2.2 2.4 0-2.6-0.9 0.1-1.3 1.3-1 1.5-1.3 0.7-2.3 0.6-2.4 0.2-1.5-0.5-0.4-2 0.5-2.7 0.8-2.5 0.9-1.6 0.7-0.7 1.4-0.2 1.4-1.2 2.4-1.2-1.2-0.8 0-1 0.5-1.1 0.3-1.3-0.1-1.6-0.2-1.2 0-1.1 0.5-1.5 0.8-1 0.7-0.7 1.7-1.1 1.1-0.4 0.9 0.2 0.9 0.5 0.9 0.1 1.2-1.4-0.2-2.5-0.6-2.8 0.4-2.2 0.8-0.5 2.1 0 0.9-0.9 1.2-2 0.4-1.1 0.2-1.5-0.4-2.3-0.9-2.2-2.4-3.6-0.4-1.1 0.3-1 0.5-0.7 0.3-0.8 0-0.6-0.2-0.5-0.2-0.5-0.3-0.5-0.3-0.7 0.1-0.6 0.3-0.5 0.2-0.6 0.4-2.9 0.9-1.5 1.6-0.5 2.1-0.1 1.9 0.7 1.1 0.2 0.9-0.6 1-1 0.8-0.2 3.3 1.8 1.4 1.1 1.2 1.4 6.3 9 1 1 1.2 0.8 1 1 0.4 1.4 0.9 0.3 1.6 0.9 0.8 1.3-1.4 1.4 1.5 0.7 0 0.7-1.8 0.6-6.4-0.6 0.5-1.4-4-0.2-1.3 0.7 0.7 2-0.2 1.1-3.4 4.9 1.8-0.2 2.4-3.2 1.6-0.8 0.7 0.3 1.9 1.5 1.8 0.5 2.8 1.2-0.3 0.7-0.2 0.6-0.4 0.4-0.5 0.4 0 0.7 0.8 0 3.8-1.4 0.9-0.1 0.9-0.5 0.6-0.2 0.2 0.4 0.2 0.8 0.6 0.8 0.6 0.6 0.6 0.3-0.4 1-0.4 2.6-0.2 0.7-0.8 0.5-0.8-0.1-0.8-0.3-1-0.1 0 0.7z m-105-146.3l1.3 1 0.9 1.9 0.6 2.3 0.2 2.2-0.3 2.2-0.8 1.6-1.2 1-1.6 0.2-0.1-0.6-0.5-1-0.6-0.5-0.5 1.8-0.6 0.4-0.6 0.1-0.6-0.2-0.4-1.1-0.3-2-0.2-2 0-1.2-1-1.9-1.2 0.2-4.4 5.2-1.1 0.8-1.5 0.5 0.4-1.3 0.6-1.8 0.9-1.7 0.8-0.7 0.2-0.3 0.8-1.5 0.6-1.5 0.8-0.3 1.8 0.1 5.6-2 1.3-0.1 0.7 0.2z m18.5-45.6l0.6 3.6 1 3.4 2.7 6.8-2.4 0.4-0.9-0.2-1.3-1.3-1.1-0.7-1.6-0.6-1.3-0.7-0.6-1.4-0.8-1.2-0.1-0.8 0.7-0.4-0.2-0.4 0.5-1 4.3-6.8 0 0.4 0.1 0.3 0.2 0.3 0.2 0.3z m156.6 147.6l-0.9-0.3-0.6 0.7 0 2.3-0.8 0.8-0.2 0.5-0.2 0.5-0.4 0.2-2.1 0-1.3-0.4-0.7-1-0.5-1-0.5-0.5-0.9 0.1 0 1 0.2 1.2-0.3 1.3-1.8 1.1-2.4-0.6-2.5-1.2-1.9-0.7-2.3 0.1-1.3-0.2-0.8-1.3-1.8-6.4-0.1-1-0.4-1.2-1 0-2.1 0.8-7.2 1.4-2.4 0 0.6-1.1 0.8-0.3 1-0.2 0.9-0.5-1.4-0.9-1.7-0.4-3.6-0.1 0.6 1.4 0.9 1 0.4 0.7-0.9 1.1 0.3 0.3 0.4 0.8 0.3 0.3-3.8 1.3-12.2-1.3 0.9-1.8 0.4-0.5 0.6-0.4 1-0.4 2.5 0.1 0.9 0.3 0.7 1.1 2.1 0.5 1.2-0.6-1.6-1.8-2-0.8-6.2 0.1-2.8-1.8-1.5-0.3-0.6 1.8 0.5 2.1 2.1 2.7 0.9 1.9-2-0.4-2.5-3.1-1.6-0.8-0.3-0.4-0.1-1-0.4-1-1.9-0.6-0.5-0.6-0.3-0.9-0.2-1.2 2.2-0.6 0.8 0 0.7 0.3 0.1 0.2 0 0.5 0.4 0.7 0.4-0.7 3.7-3.1 0.7-2.7-0.5-3.4-1.3-2.4-1.8 0 0.5 2.6-0.7 2.4-1.3 1.5-1.5-0.2-0.8-1.4-1.4-4.2-3.8-7.1-1.2-1.2-2-0.6-6.9 1.3-1 0.5-0.1 1.2 0.3 1.2-0.2 0.5-1-0.3-1.3-0.6-1.2-0.4-0.9 0.4-2.1-0.4-1.3 0.1-0.6 0.9-0.4 1.1-0.9 0.3-0.8-0.2-0.7-0.2-1-0.6-0.6-0.1-0.5 0.3-1 0.9-0.5 0.2-0.8-0.3-0.6-0.7-0.7-1-0.8-0.4-0.6-0.9-1-1.9-0.7-0.7-1.7-1-0.8-0.7 1-0.6 0.9-0.4 0.9-0.6 0.7-1.2-3.7-4.9-1.7-2.9 0-2-1.1-1-2.9-0.3-1.4-0.4-3.3-2.3-1-0.2-8.1-0.9-0.6 0.2-0.4 0.7-0.1 1.7-0.2 0.8-0.9 1.6-0.2 1.4-0.2 1.3-0.4 1.5-0.9 1.3-1.1 0.3-2.4-0.2-1.1 0.4-2.2 1.4-1 0.4-1.4-0.2-2.9-1.1-1.5-0.1-1.2 0.3-0.6 0.3-0.4 0.4-0.5 0.3-0.4-0.4-0.3-0.6-0.3-0.3-0.8-0.2-4.5-2.2-1.2 0.1-1.2 0.2-1.2-0.1-4.8-1.3-9.7 0.3-4.8-0.9-3.9-2.9-2.1-2.9-0.4-1 0.5-0.6 2-0.9 0.7-0.6 2.7-3.1 2.4-3.5 2-4.7 1.1-2.1 1.5-0.9 2-0.5 3.3-2.7 1.7-1 0-0.7-1.5 0.2-4.3 2.7-3.1 1.1-1.7 1-1 1.3-0.3 1.1 0.2 0.8 0.2 0.6-0.1 1-0.3 0.2-2.2 2.5-0.1 0.4-0.2-0.1-0.6-0.9 0-0.5 0.3-0.8 0-0.8-0.8-0.7-0.9 3.1-2.2 1.3-5.2 1.2 0-1.8 0.3-1.6 0.6-0.8 1.1 0.7 0.3-3.3 0.7-2.2 1.4-1.5 2-1.3 4.2-1.1 1.9-0.9 1.1-2.3-2.4 1.2-2.4 0.9-1-0.1-1.3-0.4-1.1-0.6-0.2-0.6 3.8-4.8 0.6-1 0.2-0.8-0.7-0.8-0.8 0.1-0.8 0.7-0.7 0.7-0.2 0.5-0.4 0.6-0.2 0.8-0.1 0.5-1.3 1-0.4 0.4-1.9 3.2-0.3 1-1 1.1-6.7 2-1 0.6-1.6 1.8-0.6 0.4-0.5-0.5-0.5-1.2-0.4-1.3 0-0.8 0.3-1.2-0.1-1.3-0.4-2.1 0-9.1 0.5-2.3 1.1-1 4.6-0.7 4.9 0-0.6 0.7 0.6 0.7 1.7-1.5 2.1-0.6 4.4 0 1.8-0.3 3.8-1.5 1.9-0.3 2.1 0.4 1-0.1 0.8-0.6 0.6-0.8 0.6-0.7 1.4-1 3.5-1.5 1.4-1.2 0.9-2.1-3 1.2-1.1 0.2-5-0.7-6.6 2-1.7-0.6 1.3-2.9 0.9-1.1 1.2-0.9 3.8-1.1 1.1-1-6.8 1.1-1.2-0.4-0.6-2.4 0.1-2.2 0.8-1.7 1.6-0.6 1.9-0.5 3.5-1.9 2.1-0.3 3.7 1.3 2 0.1 1.5-1.4-2.4 0-1.1-0.4-0.8-1.1 4.6-1.4 2-1.6 0.6-2.5-9.4 5-5.8 1.2-3.9 2.2-0.7 0.1-1.6 0.4-0.8 0.1-1.2-0.1-0.6-0.4-0.9-1.9 0-1.5 2.7-5.7 1.2-6.1 0.7-1.6 3.2-1.6 3.4 1.4 3.4 2.3 3.1 0.7-0.8-2.4-1.1-2.5-1.1-0.9-0.9 2.3-1.3-1-2.7-1.5-1.3-0.9-0.9-1.1-0.2-1.1 0.4-1.3 0.9-1.7 2.4-2.5 1.6-1.2 0.7 0.3 0.5 1.7 1.3 1.3 3 1.4-0.7 0.5-0.5 0.6-0.5 0.8-0.2 1 2.2-0.3 2-1 1.9-0.1 2 2 0.5 1 0.3 0.9-0.1 1-0.7 1.2-1.8 1.5-0.8 0.9 0.7 0.5 2.4-0.2 0.8-0.5 0.9-1.1 0.5-1.3 0.3-1.3 0.5-0.5 1.9 1.7 0.9 0.6 0.7 0.9 0.5 2.3 1.3 3.4 0.3-0.2 0.1-0.4 0.6 0.4 0.9 0.5 0.5 0.5-0.4-3.3-3.7-4.8-7.1-7.2 1-1.4 1.2-0.6 7.2-2.2 1.3 0.1 0.7 0.8 1.2 2.4 1 0.9 1.3 0.5 1.5 0.1 1.3-0.6 0.7-1.3-1.1-0.4-2.5 0.1-1-0.7-0.6-1-0.2-0.5 0.1-1.9 0.4-1.1 0.6-0.5 0-0.1-2.6 0.1-2.7 1.2-1.8 0.5-5.8 0.6-1.2-0.7-0.1-1.3-0.7-2-0.4-2-1.3-1.1-0.3-1.2-0.2-4.4 0.5-1.7 1.6-1.1 2.1 0.1 1.7 1.2 2.7 3.9 0.8 0.6 1.2 0.5 1.1 0 0.5-0.8-0.3-0.6-2.6-2.1-2.6-3.4-1.4-1.3-1.8-0.1 2.8-4.6 1.7-1.7 1.6 0.4 2.6 4.5 0.2 1.5-0.1 1.3 0.1 1.1 0.8 0.9 0.4-1.4-0.2-2 0.3-0.8 1.1-0.5 4.2 0.5-1-1.2-4-1.5-1.5-1-1.2-1.6-0.8-1.7-0.2-1.6 1-1.6 1.7-0.7 1.8 0.6 1.9 0.9 1.9 0.6 1.4 0.7 1.8 1.5 1.5 0.9 1-1.1-1.3-0.4-8.5-4.9-0.8-0.9 0.3-1.4 1.2-1.4 3.5-3 1.2-0.6 1.3-0.3 1.7-0.1-0.4-0.4-0.7-1.2-0.4-0.4 5.5-3.3 2.3-0.2 1 3.1 0.2 0.5 0.5 0.5 0.5 0.8 0.2 0.9-0.2 1-0.7 1.9-0.1 0.9 0.6 1.4 0.9 1 0.5 1.2-0.5 1.9 2.6 0.3 1.2-0.2-0.2-1.1-0.3-0.6-0.2-0.7-0.2-0.8 0-0.7-0.2-0.6-1.5-1.4-0.2-1 0.2-1.5 0-1.6-0.5-1.4-0.5-1-1-3.3-0.2-1.2 0.9-3.4 2-2.2 2.6-0.3 2.2 2.2 0.5 1.3-0.2 0.7-0.5 0.7-0.7 1.4-0.3 1.8 0.2 1.5 0.7 1.2 1.2 0.9 0.2-2.2 0.6-1.5 0.7-1.3 0.6-1.8-0.2-2-1.8-2.1-0.5-1.7-0.8-1.3-0.1-0.7 1.3-0.7 0.8-0.7 0.7-0.5 0.8 0.6 1.3 1.9 1.2 1.2 1.3 0.7 1.8 0.5-1.2-0.6-2.7-3.4-1.8-1.7-0.3-1 0.6-1.4 1.1-0.9 3.8-1.1 0.5-0.6 0.5-1.4 0.4-0.7 0.5-0.3 1.2-0.4 0.5-0.4 2-2.2 2.1-0.8 2.1 0.4 3.1 2.9 2.4 1.4 0.9 1 2.2 4.4 0.5-1.1 0.1-1.5-0.1-1.5-0.5-1.3-0.4-0.4-1.6-0.9-1.9-2.1-0.4-0.3-0.4-0.1-0.3-0.2-0.4-0.7-0.1-0.8 0.1-2.6-0.4-2.9-0.5-1.4-0.5-1.2 1.7-2.4 5.8-6.7 2-1.8 2.6-1.8 1.8-2.3-0.4-3.2 6.4 0 0.6-0.4 0.9-1.7 0-1.5-0.2-0.3 3.8-1.3 3.6-0.2 2.5 1.1 2.4 1.6 1.4 1.7 1.4 2.1 0.7 2 0.9 1.7-0.6 2.3-0.6 1.7-2 7.9-1.5 1.6-2.3 1.7-2.4 3-2.5 4.3-1.4 3.7-1.7 7.4 0.2 3.6-1.2 8-1.5 3.7 0.4 3.8 0.7 3.3 1.4 3.1 2 2.6 1.9 1.9 4 1.8 0.2 1.9-2.6 8.5 0.3 2.9 1.2 3.3 2.3 4.8 0.1 2.8 0.9 3 3.5 1.8 2.8 0.2 4.7-0.4 12.3-5.8 1.7 0.9 2 5.1 4.5 6.4 1.8 3.5 2.4 1 2.7 0.5 3.1-1.5 7.7-11.3 3.2-1.7 2.6 1.5 6.4 7.2 1.3 4.3-3 2.8-4.9 12.9-4.4 9-1.1 4.5-0.4 3.2 0 2.8 0.2 1.8 0.4 2.1 0.3 3.5 1.2 1.4 2.1 1.9 0.9 2.2 0.3 2.6-0.3 2.8 0.1 3 0.6 3.3 1.8 2.6 1.9 3.5 0.8 3.4-0.1 2.6 0.8 2.8 2.3 5.7-0.2 6.6-0.5 2.9-1 2.6-0.5 3.1 0.9 2.6 0.6 2.7-0.1 2.7 0.4 2.2 2.9 4 0.1 2-0.9 2.7-1.2 2.2-0.2 5.5z" id="NZSTL" name="Southland">
  </path>
  <path d="M631.6 654.5l1.2 0.2 0.1 0.7-0.1 1.1 0.3 1.2-0.6 1.2-0.4 2.8-0.5 1.1-1 0.7-1.3 0.1-1.3-0.1-1.3 0-0.9 0.5-1.8 1.6-0.7 0.5-1.1 0.2-3.6-0.2 0.1 0 0.3-0.4 0.8-0.8 0.2-0.1 0.8-0.1 1.6 0.2 0.7-0.4 3.6-4.2 1.2 1.3 1.6-0.6 1.2-1.6-0.1-1.7-0.9 0.5-0.8-0.1-0.7-0.6-0.5-1.1 1.3-0.1 0.9-0.6 0.8-0.8 0.9-0.4z m-42.1-18.6l0.8-0.5 0.5-0.7 0-0.9-0.3-1.1-0.8 0.9-0.2 0.4-0.4-1.1-0.1-1.2 0.1-1.1 0.4-1.1 1.1 1 0.8 1.1 1 0.9 1.4 0.2 0-0.6-0.8-0.7-0.8-1-0.6-1.2-0.2-1.5 0.2-1.4 0.9-3.6 0.4-0.8 0.4 0.2 0.1 0.7 0.2 0.8 0.7 0.2 0.3-1.3 0.4-0.9 0.6-0.4 1 0.6 0 1.4-0.2 1.7 0.4 1.5 0.5-0.9 2.2-0.7 1.1-1-2.4 0 1.6-1.4 0.7-0.8 0.6-1 0.8-2.7 0.3-0.5 0.4 1.3-0.1 1.4-0.2 1.3-0.7 2.4 0.4 0.9 0.2 0.7-0.4 0.2-0.4 0.3-1 1.2-0.3 0.6-0.2 0.9-0.3 2.4-0.4 1.1-0.3 0.1-1.4-0.1-0.4 0.2-0.9 1.2-0.4 0.5-1.7 0.6-0.5 0.3-0.3 0.6-0.2 0.7-0.2 0.4-0.9 0.6-1 0.5-1.1 0-0.9-0.5 0.3-0.3 0.1-0.3 0-0.3 0.1-0.4z m-13.7 13.9l0.9-0.5 1.3 0.5 1.1 1.2 0.7 1.7 0.1 1.8 0.5 0 0.3-0.9 0.4-0.3 0.3 0.3 0.4 0.9 1-0.6-1-2.2 1-1.1 1.9-0.6 1.7-1 0.5-1-0.1-0.9-0.5-0.7-0.9-0.3-2.7 2-0.5-0.3 0-1.3 0.1-0.5 1.2-1.5 0.6-0.5 1.6-0.8 0.7-0.6 0.7-0.3 3.6-0.6 0.4-0.4 1.5-2.5 1.8-1.2-0.3 4.3 1.7 0.4 0.3-0.3 2.1-2.2 0.2-0.5 0.2-1.2 0.1-0.3 0.4-0.2 1-0.4 3.5-1.9 0.6-0.1 0.8 0 0.8 0.2 0.6 0.5 0.8 2.4-1.2 0.4-3.4-0.9 0.4 1.2-0.4 0.7-0.7 0.7-0.3 1.3-0.8-0.3-0.8-0.1-0.7 0.3-0.6 0.7 0.4 0.6 0.1 0.3 0.3 0.3 0.6 0.1-1.2 1.1-2.3 0.8-2.2 0.1-1-1.1-1.1-0.1-2 0.3-1.1 0.9 1.8 1.9-1 0.7-0.8 0.7 0.1 0.7 1.2 0.4-0.3 1.2-0.4 1.1-0.6 0.9-0.7 0.7 0.6 0.7 0.8 0.3 0.7-0.5 0.4-1.5 1.6-2.4 0-0.5 4.7-0.8 2.5-0.1 1.8 0.9-0.8-0.1-0.6 0.2-0.4 0.6-0.1 0.9-0.3 0.9-0.5-0.1-0.7-0.3-0.5-0.1-0.4-0.2-0.4-0.3-0.5 0-0.1 0.7 0 0.4 0.4 0.6 0.1 0.4-0.1 0.9-0.3 0.4-0.5 0-0.6-0.4-0.5 2.2-1 0.6-1.1 0.4-0.8 1.4 1.1 0 1.3 0.5 1.1 1 0.4 1.3-0.1 1-0.7 2.1-0.2 1.1-0.9 1.1-2 1-3.8 1.2 0.2 1 0.5 0.8 0.6 0.4 0.6 0.3 7.4-4.4 2.7-0.8 0-0.6-1-0.3-1 0-0.8-0.2-0.5-0.8 2.9-0.4 1.5 0.1 1.1 0.6 1.1 0.5 1.7-0.3 1.7-0.5 1.1-0.6-0.4-0.3-1.1-1.1 4.2 0.4 2-0.5 1.6-1.7-8 0.2-1.2 0.4-0.2 0.3 0 0.4-0.1 0.4-0.7 0.1-0.4 0-0.4-0.1-0.3-0.1-0.3-0.4 0.4-1.2-3.7 1.6-1.9-0.1-0.6-2.9 0.3-1.5 0.8-0.8 0.9-0.7 0.9-0.7 0.1-0.6-0.1-0.7-0.1-0.5 0.6-0.2 0.6-0.1 0.3-0.3 0.1-0.6-0.1-0.9 2.5 0.5-0.8 1.5-0.2 1.5 0.4 2.9 1.3-2.3 0.6-1.8 0.9-1 2.1-0.1-1.1-1.8-0.4-0.9 1.2-1.9 0.1-1.4-0.6-1-1.2-0.1-0.4 1-0.3 1.4-0.5 1-0.9-0.5-2.2-2.3-0.5-1.1 2.5 0-0.6-1.2-0.1-1 0.5-0.3 1.1 0.5 0.1-2 1.2 0.6 2.6 2.7 1.5 1 1.5 0.4 1.3-0.4 1.1-1.7 1.2 1.2 1.2-0.5 0.6-1.5-0.2-1.7 1 0.3 1.2 1.1 0.8 1.4 0.4 1.4 0 1.1-0.1 0.6-0.3 0.4-1.5 0.2-0.4 0.4 0 0.6 0.4 0.8 1.2 1.2 1.4-0.5 1.2-1.3 1.5-1.9 2.8-2.9 1-0.4 0.6 1.2-0.6 1.6-3.6 5.9-0.4 0.9-0.1 1.8-0.2 0.8-0.2-0.2-1 0.6-0.9 0.7 0.2 0.2-0.3 0.3-0.7 0.4-0.7-0.1-0.3-0.9 0-3.8-0.2-0.5-0.5 0.7-0.5 1.1-0.2 1-1.1-0.5 0 0.8 0.5 1.2 0.6 1 1.5 1.6 0.5 0.8 0.4 1.4-0.3 0.2-0.9 0.3-0.2 0.1-0.1-0.2-1.4 0.9-0.6 0.6-0.3 0.6-0.5 0.6-1 0.2-3.7 0-1.9 0.5-1.2 1.4-0.8-0.6-0.9-0.2-0.7 0.4-0.5 1-1.1-0.4-1.3 0.3-1.2 0.8-1 0.9-0.3 1.2 1.7-0.1 2-0.6 0.7-0.5 1.6 0.6 1-0.5 1-0.8 1.3-0.9 0.8 0 0.7 0.2 0.8 0.1 1.4-1 1.4-0.3 0.7-0.3 0.7 0.9 1 0.9 1 0.6 0.9 0.3 0.9-0.3 1-0.9 0.7-0.2 1.9-0.2 1.5-0.7 2.9-2.3-0.9 2.4-1.1 2.2-0.5 0.6-1.4 1.3-0.7 0.9-0.3 0.9-0.3 0.9-0.5 0.8-2.2 0.6-1.6 1.3-1.1 0.4 0.4-1 1.2-2 0.1-0.6-0.7-0.2-1.5 1.4-0.9-0.2 0.4-1.4-2 1.5-1.3 2.3-1.2 2.7-1.3 2.5-1.7 2.3-0.3 1.2 0.1 1.7 0.8 2.9 0.1 1.4-0.5 1.5 1.3 0.3 0.9 1.2 0.3 1.2-0.2 0.6 0.2 0.4 0.8 0.5 0.8-0.3 0.3-1.9-0.4-0.4-0.6-1.9-0.2-1.5 1 0.9 3.9 6.7 0.1 1.3 0.4 1.2 0.3 1 0.4 1.7 0 1 1.5 5.2 0.4 0.6 0.7 1.7 1.5 0.9 1.8 0.2 1.3-0.5-0.4 2.3-5 9.7-1.2 1.8-8.2 8.9-2.1-2.6-0.4-0.5-0.8-0.4-1-0.1-1.3 0.1-2.1-0.5-0.9-0.4-0.9-0.6-1.1-0.2-1.3 0.1-5.9 1.3-1.4 0.6-0.8 0.9-0.9 0.5-0.7-0.5-0.7-1.2-1-1.1-1.3-0.5-0.9 1.1-1.2 3-1.1 1-1.4 1-1.2 1-1.7 1.1-1.4 0.4-1.4 1.2-1.8 1.1-4.5 4-1.9 5.4-0.2 2.7-0.7 1.4-0.5 1.5-1 1.1-6.5 2.6-2.3 1.3-3.8 3.8-2.3 1.9-1.8 1.8-0.8 1.3 1.8 1.4 0 1.2-1.4 3-1.7 1.9-1.3 1.9-1.3 0.9-1.3 0.2-2.7 1.7-0.9 1-1.3 0-1.8-1.8-1.1-0.5-1.2-0.4-0.8-0.6 0.1-1.2 0.4-1.4 0.1-1.4-2.8-2.3-0.4-0.7-0.6-1.3-1-1.2-0.7-2-1.4-0.7-1.3-0.4-1.1-0.6-0.6-0.9 0.2-1.5 0.3-1.2-0.2-1.3-0.8-1.2-0.8-2.3-0.2-1.6-0.4-1.2-0.9-0.3-1.4-1.4-1.1 0-1.3-0.3-1.3-0.7-1.1-3.1-0.8-0.4 2.5-8.2 7.1-9.1 0.6-1.8 0.8-5.1 0.8-2.8 2.5-3.7 1.2-1.5 0.2-1.2 0.7-1.5 4.1-3.6 3-3.7 2-3.4 5.6-6.5 1.9-3 3.2-0.9 1.7-0.2 1.4-0.8 0.6-1.4-0.3-2.1 0.2-2.5 0.3-2.1 0.1-1.3 0.7-2.4 1.8-0.7 2.3-1.6 3.3-3.2 6.1-9.6 3-2.8 2.1-2.9 1.1-1.8 1.2-3.3 0.6-3 0.1-1.7-0.1-0.6z" id="NZMBH" name="Marlborough District">
  </path>
  <path d="M575.8 649.8l0.1 0.6-0.1 1.7-0.6 3-1.2 3.3-1.1 1.8-2.1 2.9-3 2.8-6.1 9.6-3.3 3.2-2.3 1.6-1.8 0.7-2.6-1.3-2.7-2.6-1.5-2.3-0.3-1.2 0.6-0.1 1.4-0.7 2.6-2.2 2.4-1.5 1.2-1.4 2.7-3.9 4.4-4.3 1.8-0.8 0.8-1.3 0.7-0.3 0.4 0.3 0.1 0.7-0.2 0.9-0.3 0.6 2.4-1 1.2-0.8 1-1 1.1-2.3 0.6-0.6 0.6-0.1 0.6 0.4 0.6 0.1 0.6-1.1-0.7-1 0.7-1.3 1.2-1.1 0.1 0z" id="NZNSN" name="Nelson City">
  </path>
  <path d="M554.3 681l-0.7 2.4-0.1 1.3-0.3 2.1-0.2 2.5 0.3 2.1-0.6 1.4-1.4 0.8-1.7 0.2-3.2 0.9-1.9 3-5.6 6.5-2 3.4-3 3.7-4.1 3.6-0.7 1.5-0.2 1.2-1.2 1.5-2.5 3.7-0.8 2.8-0.8 5.1-0.6 1.8-7.1 9.1-2.5 8.2-1.1-0.2-0.5-0.3-0.8-0.1-0.8 0-0.7 0.2-0.6 0.5-0.2 0.9-0.2 1.4-1.9 5.4-1 2-3.2 4-1.4 1.1-1.2 0.8-2 0.5-1.3-0.2-0.7 0-0.7 0.2-0.4 0.3-0.4 0.5-0.2 0.5-0.4 0.6-0.5 0.5-0.7 0.2-1-0.7-1.1-1.4-1.4-3.2-0.6-2.3-0.5-4-0.6-1.6-0.8-1.2-1.2-0.8-1-0.1-1.8 0.2-0.7-0.2-0.6-0.4-0.6-0.5-0.4-0.2-0.4-0.4-0.4-0.7-0.5-1.2-0.5-0.8-1-0.4-2.1 0.3-0.9-0.2-0.8-0.6-0.7-1.2-0.5-1.5-0.1-1.8 0-1.3-0.2-1.2-0.6-0.8-0.7-0.3-0.8-0.6-0.7-0.8-0.7-1.8-0.3-1.4-0.2-1 0.8-4.7 1.7-1.4 0.7-1.4 0.8-2.5 0.2-2.3-0.2-1.6-0.2-0.9-0.3-0.8-0.1-0.8-0.1-0.6 0.3-1.6 0.3-1 0.6-1 1.5-1.3 1.1-0.7 1.2-0.5 3.6-0.5 0.7-0.6 0.1-1.3-0.1-1.2 0.2-1.2 0.8-1 1.7-0.6 1.2-0.7 0.9-1 0.8-2.2 0.8-2.3 0.8-3.8 0.4-1.3 0.7-1 3.3-2.4 0.7-1.3 0.3-1 0-1-0.8-1.1-0.1-0.7 0.4-0.5 1.1-0.7 0.9-0.3 0.9-0.1 2.7 0.8 1.2 0 1.2-0.5 1.3-0.9 1.4-1.6 0.9-1.4 0.2-1.8 0-1.6 0.2-1.5 0.2-1.1 0.1-0.9-0.2-0.6-1-1.2 0-0.8 0.7-0.7 5-2 3.2-2.9 0.3-0.8-0.2-0.6-0.7-0.8-1.3-0.9-3.5-1-1-0.4-0.9-0.7-3-3.2-0.9-0.6-0.8-0.3-0.7-0.4-0.5-0.6-0.6-1.1-0.6-0.8-0.4-0.8-0.3-1-0.4-1-0.9-0.9-0.9-0.3-1.5 0-2.1 0.4-0.7-0.2-0.7-0.3-0.7 0-0.6 0.4-1.3 2-0.9 0.2-0.6-0.8-0.3-2.8 0.4-1.5 0.7-1.1 0.5-0.5 0.8-1.2 0.4-1.1-0.2-1.1-0.8-1.2-0.9-0.8-0.9-0.9-0.6-1.1-0.5-1.7-0.7-1.1-2.3-2-0.7-1.4-0.9-6.2-0.4-0.9 1 0 0.5-0.1 0.9-0.8 2-1.4 0.9-0.3 0.3-0.3 3.6-2.9 7.1-8.7 3-3 2.7-1.1-1.2 3.1-0.1 1 1 0.4 0.4-0.4 0.4-0.9 0.5-0.6 1.2 0.6 0.6-0.3 0.6-0.5 0.4-0.4-0.3-1.4 2.2-0.9 0.1-0.9-0.9-0.9-0.2-0.3-0.9 0.8-1 0.6-1 0.2-0.9-0.4 2.7-3.5 3.2-1.6 14-0.7 4.6 0.6 4.2 1.2 2.3 0.2-1.6 0.7-15.3-1.3-1.1 0.3-0.7 0.9-0.7 2-0.7 3.6-0.7 1.8-1 0.9 0.6 1.9-0.3 0.8-1 0-1.2-0.1 0.9 2.5 0.4 0.3 1.2 0.5 0.4 0.4-0.1 1.6-0.8 2.7 0.4 1.5 0.4-0.4 1.5-0.8 1 2.6 2.4 2.5 6.1 4.9 0.9 0.3 0.9-0.4 1.7-1.4 0.4-0.1 0.9-0.1 0.3-0.3-0.2-1.2 0.2-0.4 1.1-1.2 0.5 0.1 0.8 1.1 0.9-1.5 1-0.8 1 0.1 1 1.4 0.3 1.2 0 0.9-0.3 1.8 0.4 0.9-0.1 0.8-0.9 0.9 1.2 0.2 1.1-0.1 0.9 0.4 0.7 1.4-0.2 0.4-0.7 4.1 0.3 1.8 0.2 0.8-0.2 0.6-0.8 1.3-1.6 1.7-1.8 1.4 0.7 0.5 0.5 0.1 0.5-0.1 0.7-0.5 0.9 4.7 0.1 1.4 0.4 1.5 0.8 1.2 0.5 1.3-0.3 1.5-0.2-0.9-0.5-0.7-0.5-0.6-0.7-0.3-0.5 3.3 0.3 0.8 1.1 1.2 0.4 0.7 0.2 1 0.4 0 0.8-1.1 0.5 1.2 0.7 3.8 0.9 2.5 0 0.8-0.4 0.5-1.2 0.6-0.3 0.7 0.5 1.4 1.3 0.8 1.5 0.4 3.3 0 0.9-0.2 0.3 1.2 1.5 2.3 2.7 2.6 2.6 1.3z" id="NZTAS" name="Tasman District">
  </path>
  <path d="M204.4 980.1l2-7.9 0.6-1.7 0.6-2.3-0.9-1.7-0.7-2-1.4-2.1-1.4-1.7-2.4-1.6-2.5-1.1-3.6 0.2-3.8 1.3-0.6-0.9-1.8-0.7 0-0.7 3.3-1.1 1.4-0.8 2.5-3.1 4.4-3 2.8-2.7 2.3-3 0.1-0.6 0.1-1.1 0.2-1.2 0.6-1.2 0.7-0.8 0.8-0.6 0.8-0.6 0.8-0.3-0.4-0.3-1.5-1.1 1.4-0.7 1.4-0.4 4.4-0.3 2.6-0.6 2.4-1.3 1.4-1 0.7-0.7 0.9-0.6 1.9 0.2 0.6-0.3 1.7-1.6 1.2 0.6 1.1 1.8 1.5 1.5 3.3 0.6 4.1-1.3 3.8-2.4 4.3-4.3 3.2-2.3 1.4-1.3 1.2-1 4.5-2.4 1.1-1.1 0.4-0.8 0.1-1 0.2-0.8 0.6-0.5 1.9-1.3 0.7-0.2 1.3-0.7 2.7-3.3 1.2-0.7 1.4-0.5 5.2-3.5 3.5-1.2 1.9-1.1 0.9-1.4 0.3-0.8 0.7-0.7 0.9-0.6 0.7-0.3 1.9-0.2 0.6 0.2 0.7 0.1 0.6-0.2 0.8-0.5 1-1.1 2.9-0.8 2.4-1.9 2.8 0.6 1.6-0.1 3.6-2.9 1.5-0.4 1.1-0.8 2.4-3.7 1-1.2 0.5-1.1 0-1.2 1.4-1.7 1.9-0.4 0.7-0.9 0.2-1.3 0.4-2.1 1.5-1.8 1.5-1.3 9.4-4.7 0.9-1.5 0.6-2.6 1.6-0.5 1-1 0.7-1.6 0.5-1.3 0.7-0.6 1.7-0.8 1.8-1.3 1-0.5 1.1-0.2 0.8 0.3 1.5 0.9 0.8 0.2 4.6-7.3-2.2-0.4-1.8 2-1.6 2.5-1.7 1.2 1.4-4.2 2.4-2.9 1.8-1.4 0.7-1.4 0-0.7 5.2-0.4 1.6-0.8 0.5-0.6-0.5-0.9 1.2-1 1-1.4 1.1-0.8 1.5 0.6 0.3-1.6 0.7-0.3 0.5-0.8 2.8-1.7 6.3-2.3 2.7-2.2 2.3-0.3 1.1-0.1 0.8-0.1 0.6-0.8 0.9-1 0.7-0.7 2.6-1.3 1.3-1.4 2.5-3.7 1.3-0.8 1.2-1.1 6-10.5 0.9-0.9 0.7-0.3 1.5-0.6 1.2-0.9 0.6-1.2 1-1.8 0.7-0.9 0.7-0.3 1.1-0.8 1.2-1.7 1.8-3.4 1.2-0.8 5.1-10.4 1.5-1.7 0.7-1.4 0.2-3.1 0.5-2.2 3.4-5.3 1.5-4.4 1.9-14 1.2-3.5 0.3-2.1 0.8-2.4 0.3-0.7 2.4-3 1.1-1.7 0.7-2.2 1.2-5.9 0.9-1.9 0.7-3.1 1.5-3.6-0.5-1.1-0.5 0.7-0.3-0.7-0.1-0.5-0.1-4.5 1.1-0.8 4.3 0.7 4.9-0.7 1.3 0 0.5 0 3.5-1.5 6.7-4.3 1.7-2.1 0.7-0.5 1-0.3 1 0.2 0.6-0.2 0.5-2.2 0.6-0.6 0.7-0.5 0.7-0.6 1-1.6 2.6-5.9 0.4-0.5 0.3-0.1 0.2-0.3 0.1-2 0.1-0.2 0.2-0.1 0.4-0.3 0.6-0.9 0.3-0.9 0.3-1 0-1.1 0.8-1.4 1.9-1.6 2.1-1.3 1.5-0.6-0.3-0.9-0.1-0.9 0.2-0.9 0.9-1.8 0.2-1.1 0-2 0.2-2.3 0.4-0.9 0.7 0.3 0.3-0.2 0.6-0.4 0.9-0.4 0.8 0-1.4-2.7-0.4-1.1-0.6-10.4 0.2-1.1 0.6-2.2 0.1-0.8-0.4-4.9 0-10.2-0.4-2.9 0-1.6 0.6-0.7 0.9-0.1 0.6-0.2 0.5-0.6 0.9-1.9 1.7-2.2 0.3-0.5 0.1-1 0.1-0.4 0.5-0.5 0.5-0.1 0.4 0 0.5-0.2 0.2-0.4 0.3-0.6 0.3-0.6 0.4-0.2 0.1 0 0.4 0.9 0.9 6.2 0.7 1.4 2.3 2 0.7 1.1 0.5 1.7 0.6 1.1 0.9 0.9 0.9 0.8 0.8 1.2 0.2 1.1-0.4 1.1-0.8 1.2-0.5 0.5-0.7 1.1-0.4 1.5 0.3 2.8 0.6 0.8 0.9-0.2 1.3-2 0.6-0.4 0.7 0 0.7 0.3 0.7 0.2 2.1-0.4 1.5 0 0.9 0.3 0.9 0.9 0.4 1 0.3 1 0.4 0.8 0.6 0.8 0.6 1.1 0.5 0.6 0.7 0.4 0.8 0.3 0.9 0.6 3 3.2 0.9 0.7 1 0.4 3.5 1 1.3 0.9 0.7 0.8 0.2 0.6-0.3 0.8-3.2 2.9-5 2-0.7 0.7 0 0.8 1 1.2 0.2 0.6-0.1 0.9-0.2 1.1-0.2 1.5 0 1.6-0.2 1.8-0.9 1.4-1.4 1.6-1.3 0.9-1.2 0.5-1.2 0-2.7-0.8-0.9 0.1-0.9 0.3-1.1 0.7-0.4 0.5 0.1 0.7 0.8 1.1 0 1-0.3 1-0.7 1.3-3.3 2.4-0.7 1-0.4 1.3-0.8 3.8-0.8 2.3-0.8 2.2-0.9 1-1.2 0.7-1.7 0.6-0.8 1-0.2 1.2 0.1 1.2-0.1 1.3-0.7 0.6-3.6 0.5-1.2 0.5-1.1 0.7-1.5 1.3-0.6 1-0.3 1-0.3 1.6 0.1 0.6 0.1 0.8 0.3 0.8 0.2 0.9 0.2 1.6-0.2 2.3-0.8 2.5-0.7 1.4-1.7 1.4-0.8 4.7 0.2 1 0.3 1.4 0.7 1.8 0.7 0.8 0.8 0.6 0.7 0.3 0.6 0.8 0.2 1.2 0 1.3 0.1 1.8 0.5 1.5 0.7 1.2 0.8 0.6 0.9 0.2 2.1-0.3 1 0.4 0.5 0.8 0.5 1.2 0.4 0.7 0.4 0.4 0.4 0.2 0.6 0.5 0.6 0.4 0.7 0.2 1.8-0.2 1 0.1 1.2 0.8 0.8 1.2 0.6 1.6 0.5 4 0.6 2.3 1.4 3.2 1.1 1.4 1 0.7 0.7-0.2 0.5-0.5 0.4-0.6 0.2-0.5 0.4-0.5 0.4-0.3 0.7-0.2 0.7 0 1.3 0.2-0.4 1.9-0.3 0.9-0.4 1.1-1 1.9-0.2 1-0.4 1.2-0.9 0.9-1.8 0.8-1.3 0.3-2.1 1-3.6 3.2-4.3 3.4-1 1.1-0.7 1.5-0.7 0.9-1.5 1.5-0.7 1.4-0.8 1-3.2 2.5-1.8 3.9-2.1 1.8-1.8 0.9-1.3 0.5-2.1 0.2-1 0.3-2.1 1.5-1.4 1.2-1.7 2.5-1.6 2-0.3 1.1-0.3 1.8-4.3 2.6-3.7 1.2-0.4 0.4-0.3 1.1-0.5 2.5-0.9 2.6-0.2 1.3-0.4 1.1-0.7 0.9-1.1 0.7-3.6-0.1-2.6 0.6-2.9 0.2-2.6 0.8-0.5 0.1-0.4-0.1-0.5-0.3-0.7-0.2-0.9 0.1-2.6 1-1.5 1.1-1.1 0.7-1.3 0.2-2.3 0.2-2.9 1.2-1.6 1.2-3 3-1 1.8-0.4 1.4-0.3 1.1-0.9 1-1.3 0.9-5.6 1.7-1.5-0.1-2.7 1.7-4.4 7.7-2.6 1.8-7.1 3.6-12.4 9.9-6.9 7.7-1.8 0-1.2-0.4-2.4 0.3-3.4 1.4-9.5 5.5-7.1 2.5-2.2 1.3-5.5 5-1.8 2.2-1.1 2.1-1 2.5-1.8 2.6-1.9 2.2-1.3 2.7-1.6 1.7-1.9 3.5-11 9.1-2.4 2.8-2.5 2.4-3.8 4.5-2-1.2-1.3 0-1.8 0.3-1.2 1.7-1 2-1.4 1.9-2.1 1.2-2.6 1.8-2.9 1.5-2.4 1.8-2.8 1.5-2.3-0.7-1.8-0.9-1.2-1-2.1 0.1-2.6 1.4-4.4 0.7-3.5-0.2-3 0.5-3.2 1.5-3.4 2.7-0.7 1-0.8 1.8-2.5 3-2.4 1.5-1.7 1.6-1.3 1.6-0.7 2.1-0.5 2-1.7 4.7-1.6 2.5-2.6 2.8-2 1.2-4.6 0.7-13.8 6.7-8.9 0.9z" id="NZWTC" name="West Coast">
  </path>
  <path d="M265.4 1194.7l0.2-5.5 1.2-2.2 0.9-2.7-0.1-2-2.9-4-0.4-2.2 0.1-2.7-0.6-2.7-0.9-2.6 0.5-3.1 1-2.6 0.5-2.9 0.2-6.6-2.3-5.7-0.8-2.8 0.1-2.6-0.8-3.4-1.9-3.5-1.8-2.6-0.6-3.3-0.1-3 0.3-2.8-0.3-2.6-0.9-2.2-2.1-1.9-1.2-1.4-0.3-3.5-0.4-2.1-0.2-1.8 0-2.8 0.4-3.2 1.1-4.5 4.4-9 4.9-12.9 3-2.8-1.3-4.3-6.4-7.2-2.6-1.5-3.2 1.7-7.7 11.3-3.1 1.5-2.7-0.5-2.4-1-1.8-3.5-4.5-6.4-2-5.1-1.7-0.9-12.3 5.8-4.7 0.4-2.8-0.2-3.5-1.8-0.9-3-0.1-2.8-2.3-4.8-1.2-3.3-0.3-2.9 2.6-8.5-0.2-1.9-4-1.8-1.9-1.9-2-2.6-1.4-3.1-0.7-3.3-0.4-3.8 1.5-3.7 1.2-8-0.2-3.6 1.7-7.4 1.4-3.7 2.5-4.3 2.4-3 2.3-1.7 1.5-1.6 8.9-0.9 13.8-6.7 4.6-0.7 2-1.2 2.6-2.8 1.6-2.5 1.7-4.7 0.5-2 0.7-2.1 1.3-1.6 1.7-1.6 2.4-1.5 2.5-3 0.8-1.8 0.7-1 3.4-2.7 3.2-1.5 3-0.5 3.5 0.2 4.4-0.7 2.6-1.4 2.1-0.1 1.2 1 1.8 0.9 2.3 0.7 2.8-1.5 2.4-1.8 2.9-1.5 2.6-1.8 2.1-1.2 1.4-1.9 1-2 1.2-1.7 1.8-0.3 1.3 0 2 1.2 0.6 5.5-0.8 2.4-1.8 3-1.2 2.7-1.6 1.9-1.7 2.7-0.8 1.9-1.5 2.3-0.2 2.2 0 17.9 0.2 2.4 0.4 1.5 2.2 0.9 2 1.8 1.1 2.6 1.1 6.5 1.4 1.9 1.6 0.9 2-0.3 1.9 2.7 4 4.2 5.2-0.7 2.3 1.1 2.1 2.8 1.7 3.5 2.2 7.2 2.5 5.9 2.1 3.4 1.5 1.9 2.2 1.2 5 0.4 6.2-1.4 2.7 0.2 1.3 0.9 0.9 2-0.2 2.1 0.4 2.8 0.7 2.6 1.6 2.6 1.4 1.3 6.9-3.9 11-10.2 2.5-1.3 2.8-0.7 2.8-0.1 5.9-1.6 12.6 3.5 7.4 3 3.4 0.6-0.7 1.5-0.3 1.6-4.8 9-7.8 8.1-3.8 8.3-1.7 7.2-1 2.1-0.8 2.5 1 1.3 1.2 1.1-0.1 2.3-2.7 3.2-0.6 1.3 0 1.1 0.2 1.1 0.2 1.3-1 1.8-1.9 1.4-1.5 1.6 0.5 2.4-0.8 1.2-0.9 0.6-0.9-0.1-1.2-0.9 0 1.1 0.3 1 0.6 2-1.2 1.1-0.9 0.4-2.5-0.1-1.4 0.5 0 1 1 1 1.7 0.3-1.7 3.6-0.6 0.6-0.8 0.2-0.8 0.6-1.5 1.2-0.6 0.2-0.4-0.1-0.4 0-0.1 0.9 0 1 0.1 0.5 0.3 0.2 0.6 0.1 1.1 0.4 0.9 0.6 0.9 0.1 1-1.1 1.3 1.1 1.8 1 1.5 1 0 1.4-1.3 0.9-3.4 0.7-1.4 0.8-1.4 2.2-0.5 0.6-0.6 0.3-0.8 0.1-0.7 0.4-0.9 2.6-2.6 1.7-0.7 1.8 1.3-0.7 2.6-0.7 2.1-1.9 3.2-1.2 1-1 1-2.3 0.9-1.2 1-0.7 0.9-0.2 0.8-0.5 0.7-1.4 0.7 1.3 0.3 1.6-0.2 5.5-0.7 1.3-1 0.6-1.5 0.1-1.4-0.1-0.3 0.1-0.8 0.6-0.3 0.7 0 0.7-0.2 0.5-14.6 1.6-6 2-5.3 3.9-4 6-1.2 2.4-0.2 1.1-0.2 3.1-0.7 1.9-0.1 0.9-0.5 2.2-1.3 1.9-1.6 1.6-1.5 1-3.7 1.5-1.8 1.1-1.5 1.9-1.2 1.9-1.3 1.5-9.8 7.1-2.5 3.4-0.9 5.3 0.2 2.8-0.4 1-2 0.8-1.6 1.4-0.6 0.3-1.2-0.2-2.4-0.9-1.2-0.3-1.2 0.2-2 0.9-1.2 0.3 1.2 0.5 5.6 0.3-1.4 3.5-2.2 1.6-2.5 1-2.4 2-1-0.1-1.8-0.8-2-0.5-1.4 0.7-0.9 0.9-3.8 2.2 0.4 0.5 0.7 1.2 0.4 0.5-1.9 0.6-2.4-0.7-2.1-0.2-1.3 2.4-1.5-1.2-0.5-0.2-2.4-0.5-1.2 0.2-1 0.6-1.4 1.6-0.9 0.6-0.8 0.3-2.5 0.3-0.9-0.1-1-1 0.3-2-0.2-1.2-0.1 0z" id="NZOTA" name="Otago">
  </path>
  <path d="M513.4 749.8l0.8 0.4 1.1 3.1 1.3 0.7 1.3 0.3 1.1 0 1.4 1.4 0.9 0.3 0.4 1.2 0.2 1.6 0.8 2.3 0.8 1.2 0.2 1.3-0.3 1.2-0.2 1.5 0.6 0.9 1.1 0.6 1.3 0.4 1.4 0.7 0.7 2 1 1.2 0.6 1.3 0.4 0.7 2.8 2.3-0.1 1.4-0.4 1.4-0.1 1.2 0.8 0.6 1.2 0.4 1.1 0.5 1.8 1.8 1.3 0 0.9-1 2.7-1.7 1.3-0.2 1.3-0.9 1.3-1.9 1.7-1.9 1.4-3 0-1.2-1.8-1.4 0.8-1.3 1.8-1.8 2.3-1.9 3.8-3.8 2.3-1.3 6.5-2.6 1-1.1 0.5-1.5 0.7-1.4 0.2-2.7 1.9-5.4 4.5-4 1.8-1.1 1.4-1.2 1.4-0.4 1.7-1.1 1.2-1 1.4-1 1.1-1 1.2-3 0.9-1.1 1.3 0.5 1 1.1 0.7 1.2 0.7 0.5 0.9-0.5 0.8-0.9 1.4-0.6 5.9-1.3 1.3-0.1 1.1 0.2 0.9 0.6 0.9 0.4 2.1 0.5 1.3-0.1 1 0.1 0.8 0.4 0.4 0.5 2.1 2.6-5.5 5.9-2 3.4-1 2.2-0.4 1.9 0 2.9-0.1 1.7-0.7 0.9-0.4 0.9-0.5 1.3-0.2 0.4-1.3 1.8-1.4 2.5-1.4 1.4-3.1 2-1.5 1.5-2.2 3.6-0.4 0.3-0.5 0.1-1 0-0.7 1.7-0.3 0.5-0.8 0.7-0.8 0.6-0.5 0.8-0.1 1.5 0.3 0.9 1.2 1.5 0.4 0.9-0.4 0.7-0.6 0.7-1.4-2-0.8-0.5-1.1-0.2-0.9 0.3-1.5 1.3-0.7 0.3-0.9 0.8-3.7 4.5-1.4 3.7-1.1 4.2-1.7 3.5-3.1 1.7 0 0.7 0.5 0 0.3 0.2 0.3 0.2 0.4 0.2-5.5 11.9-0.8 3.4-1 2-1.4 1.8-2.2 1.1-0.1 1 0.3 1.9 0 1 0.1 0.6-0.1 0.5-0.5 1.2-0.7 0.8-0.6 0.4-0.4 0.5-0.2 1.3-0.3 0.7-0.6 0.6-3.1 2-0.8 0.2-2 0.4-2.9 1.5-0.4 0.9-0.3 1.1-0.3 0.9-0.6 0.6-3.4 2.7-9.5 2.4-2.4 1.1-1.9 2.4-5.4 4-1 1.9-1.6 4-1.7 2.6-0.3 0.8 0.2 1.4 0.5 1.2-0.5 2.4-0.3 2.4-0.1 5.2-0.5 0.6-0.4 1.3 0.1 2.1 1.3 6.1 2 5.7-0.1 1.6-0.9-1.2-0.8-0.1-0.4 0.6 0.6 1.4 1.1 0.8 4.3 1.2-2 0.9-4.7 0.3-2.1 0.7-1.8 1.8 0.8 0.7 1.9 0.3 1.6 0.5 1.5-1.9 2.6-0.6 2.5 0 1.1 0.2 0.4 1.5 0.6 1.4 0.7 0.7 0.3-0.3 0.3-2.5 0.6-2.5 1.9 1.2 0.4 0.8 0.2 1.7-0.3 2.7 0.3 0.6 1-0.3 0.6-0.7 0.5-1.2 0.6-1 0.9-0.5 1 0.1 1.1 0.5 0.8 0.8 0.3 1.3 2-2.2 0.8-0.5 0.3 1.7 0.8 1 1 0.8 0.8 1.2 0.1 0.7-0.2 0.9-0.3 0.6-0.1 0.5 0.2 0.6 0.6 1 0.2 0.5 0.3 2.6-0.2 2.9-0.6 2.7-0.9 2.5-0.9-1.4-1.7 2.3-1.3-0.3-0.4 2.1-0.1 0.7-0.6-0.9-0.6-0.1-0.6 0.3-0.6 0.7-0.3-1.3-0.9-2.2-0.3-1.3 0-1.5 0.2-0.8-0.1-0.8-0.8-1.2-0.4-1.3 0.2-1.5-0.1-1.1-0.9-0.5-1.1 0.4-0.4 1 0.2 1.1 0.9 0.9-1 2.6-0.1 2.7 0.7 2.6 2.2 3.6-0.2 0.2-1.6-0.4-4.7 0-0.9-0.5-1.6-2-1.7 0.5-0.8-0.6-1.5-2-2.8-2.9 0-1.3 1.3-1.9-1.2 0.1-1.9 1-5.8 0.8-2 1.1-4 0.4-6.3 2.2-2.8 0.5-0.6-0.4 0.3-1 0.7-0.8 0.8-0.4 1.9-0.3 10.7-3.7 1-0.1 1.1-0.3-0.6-0.8-1.9-1.3-0.9-0.2-2.2 0.3-1.2-0.5-0.5-0.5-0.9-1.4-0.6-0.7-1.9-0.9-1.8 0.3-1.8 0.8-2 0.4-1.2 1.1-0.6 2.4-0.3 2.9-0.1 2.4 0.2 1.4 0.2 0.6-0.2 0.5-0.9 1.2-0.7 0.3-5.9 1-0.8-0.2-1.5 0.5-1.3 1.5-3.2 1.1-1.5 1.3-7.3 3.5-13.6 10-2.2 0.3-1.1-0.2-1.1 0.1-0.9 0.6-5.2 3.7-2.6 0.6-1.1 0.4-0.9 0.8-0.7 0.9-0.8 0.8-2 0.6-1.9 1.4-0.8 0.3-1.2 0.4-1.2 1.5-0.7 0.8-0.5 0.8-1.8 0.7-0.9 0.7-4.3 4.6-1.7 1.1-1.4-0.6-1.1 0.7-0.8 0.6-0.6 1.1-0.2 1-3.9 7.1-0.2 1.1 0 5.7-0.4 1.8-1 1.5-2 2.5-0.2 0.9 0 1.1-0.2 0.9-0.8 0.4-0.6 0.2-2.1 1.3 1.6 1.9 0.4 3.4 0 7.5 0.8 4.8 0.1 1.7-0.4 1.9-0.8 0.7-1 0.6-0.7 1.2 2.1 0.3 0.7 2.4-0.1 3.3-0.6 5.9-0.7 2-0.9 1.4-0.5 1.3-3.4-0.6-7.4-3-12.6-3.5-5.9 1.6-2.8 0.1-2.8 0.7-2.5 1.3-11 10.2-6.9 3.9-1.4-1.3-1.6-2.6-0.7-2.6-0.4-2.8 0.2-2.1-0.9-2-1.3-0.9-2.7-0.2-6.2 1.4-5-0.4-2.2-1.2-1.5-1.9-2.1-3.4-2.5-5.9-2.2-7.2-1.7-3.5-2.1-2.8-2.3-1.1-5.2 0.7-4-4.2-1.9-2.7-2 0.3-1.6-0.9-1.4-1.9-1.1-6.5-1.1-2.6-2-1.8-2.2-0.9-0.4-1.5-0.2-2.4 0-17.9 0.2-2.2 1.5-2.3 0.8-1.9 1.7-2.7 1.6-1.9 1.2-2.7 1.8-3 0.8-2.4-0.6-5.5 3.8-4.5 2.5-2.4 2.4-2.8 11-9.1 1.9-3.5 1.6-1.7 1.3-2.7 1.9-2.2 1.8-2.6 1-2.5 1.1-2.1 1.8-2.2 5.5-5 2.2-1.3 7.1-2.5 9.5-5.5 3.4-1.4 2.4-0.3 1.2 0.4 1.8 0 6.9-7.7 12.4-9.9 7.1-3.6 2.6-1.8 4.4-7.7 2.7-1.7 1.5 0.1 5.6-1.7 1.3-0.9 0.9-1 0.3-1.1 0.4-1.4 1-1.8 3-3 1.6-1.2 2.9-1.2 2.3-0.2 1.3-0.2 1.1-0.7 1.5-1.1 2.6-1 0.9-0.1 0.7 0.2 0.5 0.3 0.4 0.1 0.5-0.1 2.6-0.8 2.9-0.2 2.6-0.6 3.6 0.1 1.1-0.7 0.7-0.9 0.4-1.1 0.2-1.3 0.9-2.6 0.5-2.5 0.3-1.1 0.4-0.4 3.7-1.2 4.3-2.6 0.3-1.8 0.3-1.1 1.6-2 1.7-2.5 1.4-1.2 2.1-1.5 1-0.3 2.1-0.2 1.3-0.5 1.8-0.9 2.1-1.8 1.8-3.9 3.2-2.5 0.8-1 0.7-1.4 1.5-1.5 0.7-0.9 0.7-1.5 1-1.1 4.3-3.4 3.6-3.2 2.1-1 1.3-0.3 1.8-0.8 0.9-0.9 0.4-1.2 0.2-1 1-1.9 0.4-1.1 0.3-0.9 0.4-1.9 2-0.5 1.2-0.8 1.4-1.1 3.2-4 1-2 1.9-5.4 0.2-1.4 0.2-0.9 0.6-0.5 0.7-0.2 0.8 0 0.8 0.1 0.5 0.3 1.1 0.2z" id="NZCAN" name="Canterbury">
  </path>
  <path d="M687.2 258.3l1.6-0.9 0.3 0.2 0.8 1 0.6 1.2-0.6 0.4-1 0.3-0.7 0.8-0.1 0.8 0.5 1.8 0.1 0.9-0.2 0.6-0.3 0.2-0.9-0.1-0.6 0.1-1.4 0.5-1.5 0.2-1.5-0.3-2.9-1.1 0.6-0.6-1.6-1.5-0.7-0.2-0.9 0.8-0.7 0.3-0.2-1.1 0.1-1.5 0.6-1 0.5 0 3.6 0 0.8 0.4 0.5 0.9 0.8 0.5 1.3-0.9 3.1-2.7z m-22.3-30.8l1-0.6 1.1 0.5 0.9 1 0.4 1.2 0.5 2.1-0.1 0.9-1.1 0.3-2.5 0-0.7-0.4 1-0.8 0.1-0.9-0.7-2.2 0.1-1.1z m19.9-18.8l0.3 0.5 0.6 0.7 0.5 0.9 0 1.1-0.6 0.8-1.1 0.4-1.2 0.1-0.9 0-1.4-1.9 1-1.7 1.8-1 1 0.1z m28.5 9.3l1.4 1.9 0.5 0.5-1.3 2.9-0.7 0.7-1 0.1-0.5-0.7-0.3-1 0-1.1-0.4-1-0.9 0.3-1.1 0.6-0.7 0.1-0.4-0.9-0.2-2.3-0.2-0.7-0.6-0.5-0.6 0.1-1.7 0.4 0.3-0.8 0-0.5-0.3-0.5-0.5-0.7-1.6 0.6-2-0.9-1.6-1.8-0.5-2 1.8 2.2 0.5 0.2 0.7-0.7 0-1.1-0.2-1.2 0.3-0.9 0.6-1.6-1-0.7-1.4-0.7-0.8-1.5 2.1 0 0.9-0.3 0.8-0.9-1.4-1.5-0.3-1.7 0.8-1.4 1.8-0.2 0.7 0.2 0.7 0.6 0.4 0.8 0.2 1.1 0.3 0.5 2.1 1.6-1.4 0.7 0.2 1 1 1 1.8 1.2 1.8 0.7 0.7 0.2 0.7 0.3-0.4 0.8-0.7 0.9-0.3 0.7-0.3 1.3-0.4 0.9 0 1.1 0.9 1.5 0.3 0.3 0.4 0.3 0.4 0.2 0.4 0 0.2 0.2 0 0.3-0.1 0.4 0.1 0.4z m-61.1 89.1l-1.5-3.6-0.7-2.9-1.7-3.1-0.3-0.8-0.4-1.9-3-5.7-0.5-2.5 1.2-0.1 2 0.5 2.8-0.9 1 0.4 0.7 0.7-0.1 1-0.7 0.9-0.1 0.6 3.5 7 0.3 2.8 1 2.2 1.3 1 0.7-2.1-0.9-2.2-0.1-1.4 0.8-0.6 2.1 0.4 0.9-0.1 1-0.9-1.4 0.1-3.5-0.7-1.3-0.6 1.1-0.5 3.8-3.4 0.5 0.2-0.1 1.9 2.9-3.5 1.6-1.3 1.8-0.2 2.7 3.2 0.9 0.5 1-0.4 0.2-1-0.4-1.2-0.6-1.1 0.2-0.9-3.6-1.5-1.4-1.1-1.1 0.4-0.7-1.2-0.4-1.7-0.7-1.3-1.8 2.2-1-0.9-0.2-1.9 0.9-1.1 0.8-0.3 0.8-0.6 0.7-0.9 0.3-1-4.6-0.8-4.7 0.3-2.4 0.7-1.8 1.4-0.6 1.1-0.5 2.1-0.3 1-0.7 0.9-0.6 0.1-1.7-1.6-1 1.6-1.5 1.3-1.6 0.6-1.5-0.8-0.8-1.5-2.8-10.1-1.6-8.3-1.3-3.9-3.7-6.8-9.7-12.3-2.1-4-0.4-4.1 0.2-1 0.3-0.8 0.5-0.5 0.9-0.1-0.8 2.4 0 1.2 0.3 1.3 1.2-2.4 0.7-0.9 1-0.4 1 0.7 1 2.9 1.4 1.3 1.6 2.9 1 0.7 1.2 0.3 0.7 0.8 0 1-1.1 0.9 2.8 1.1 0.8 0.1 0.1 0.2-0.7 0.4-1.1 0.5-1 0.1 0.7 0.5 0.3 0.7-0.1 0.9-0.4 0.9 0.9 0.1 0.6 0.2 1.5 0.9-0.1-0.6 0.1-1.2 0-0.6 0.7 1.2 0.7 2 0.7 1 0.7-1.8 0.8 0.1 0.2-1 0.2-1.4 0.3-1.3 0.5-0.6 1.1-1 0.4-0.8-1.1 0.4-0.4 0.2-0.6-1.7 0.6-4-0.5-1-0.6 1.3-0.3-0.6 0-4.6-0.1-0.3 0.3-0.4 1.2-1.4-0.6-0.9-0.8-1-0.6-1 0.3-1 1.5-1.4-0.1-0.5-2.2-1.4-0.5 0.1-1.1 1.5-0.9 0.8-0.7 0.4-4.1 0.3-2.2-0.5-1.6-1.5-0.5-2.8 1 0.6 0.6-2.1 0.7-0.2 1 0.6 1.1 0.5 3-0.3 1.4-0.4 1.2-0.8 1.1-1.2 0.9-0.6 2.1-0.9 1.9-1.8 0.7-0.3 0.6-0.1 0.4-0.3 0.3-1.1-0.4-0.4-0.2-0.1-0.1-0.1-0.3-0.6 2.1-1.5 6.9-6 1.2-0.8 0.9 1.1 4 6.1 2.3 2.6 2.9 2 1.8 0.8 0.1 0.5-0.5 1.2 0.1 0.2 0.2 0.1 0.2 0.2-0.2 0.4-0.3 0.1-0.2-0.1-0.2-0.2 0-0.1-0.4 0.3-0.3-0.2-0.2 0.1-0.1 1 0.5 1.6 1.6 0.6 2 0.3 1.7 0.5-2.2 0.4-5.8-0.3-1.2 0.2 0.2 1.2 1 3.6 1.1 2.4 0.2 1.5-0.2 1.5-0.3 1.4-1.4-4.1-1.2-1.8-1.8-0.7 1.3 3.9-0.2 1.4-1.6 0.1 0 0.7 0.7 0.2 0.6 0.4 0.6 0.5 0.5 0.6-0.5 0.9-1.5 1-0.4 0.6 0 1.1 0.8 1.6 0.2 1.2-0.1 1.8 0.4 0.2 0.9 1 0.7 0.5 1 0.2 1.9 0.2 3-1.2 0.9 0 0.7 0.6-0.3 0.5-3.3 1.9-1.7 0.6-1.2-0.1-2.9-1.1 1.4 1.5 1.1 2.2 4.2 13.2-1.5-0.4-0.9-0.8-1-0.4-1.9 1-0.6-0.4-0.2-0.6 0-0.6 0.3-0.8-1.3-0.3-1-2.4-1 0-2.5 1.3-1.2 0.7-1.1 1.3 0 0.6 0.6 0.1 2.5-0.4 1.2 0.3-0.7 0.7-1 0.6-0.6 0.7 0.3 0.7 1.2 0.7 0.3 0.3-0.1 0.6 0.1 3.7 0.3 1.2 0.9 0.5 0.6-0.4 0.1-1.1-0.1-1.2 0.1-1 0.5 0.7 0.6-1 0.7-0.8 0.7-0.7 0.9-0.5 1.1-0.2 3.3 0.7 4.4 0 1.6 1.1-0.3 2.6-0.7 1.1-0.7 0.6-0.3 0.7 0.3 1.7 0.4 1.2 0.4 0.6 0.4-0.1 0.7-1 1.9-9.7 0.5 0 1.6 4.2 0.5 2-0.1 2.3 1.6-0.4 1.8-0.1 0.9-0.6-1.2-2.2-0.2-1.5 1.6-0.4 2.3 0.3 1.4 0.6 0.9 2-0.8 4 0.9 1.6 1.1 0.3 0.8-0.4 0.8-0.5 1.2-0.4 1.7-1.2 0.4 0.2 0.4 0.3 0.3 0.2 2.3-1.1 0.7-0.2 0.7 0.3 1.5 1.3 0.9 0.3 0.6 0.3 2.5 3.2 0.5 0.8-3.7 0.8-2.4-0.2-4 2.1-1 3.7-0.6 7-4.4 2.5-8 2-7.6 1.9-6.1 1.9-4.6 1.8-3.7 1.7z" id="NZAUK" name="Auckland">
  </path>
  <path d="M735.1 248l-0.4 0.2-0.5 0.2-0.4 0-0.5 0-0.3-0.1-0.5-0.1-0.9-0.4-0.2-0.3 0.1-0.4 0.2-0.4 0.1-0.2 0.1-0.3-0.1-0.3-0.1-0.3-0.4-0.4-0.6-0.1-0.6-0.4-0.3-0.9 1.9-0.6 0.5 0.7 0.7 2.3 0.8 0.1 0.6 0.3 0.5 0.6 0.3 0.8z m-82.9 59.1l3.7-1.7 4.6-1.8 6.1-1.9 7.6-1.9 8-2 4.4-2.5 0.6-7 1-3.7 4-2.1 2.4 0.2 3.7-0.8 0.4 1.1 0.2 1.3-0.1 2-0.9 6.2 0.3 2 0.8 1.9 1.1 1.7 1.1 1.3 2.6 1.5 3.1 0.1 3.2-0.8 2.8-1.4 0.5-0.5 0.3-0.6 0.3-0.5 1-0.2 0.6 0.4 0.2 1 0 1.9 0.3 1.8 1 1.1 1.2 0.2 1.3-0.9-1.1-0.3-0.7-0.9-0.5-1.3-0.3-2.9-0.6-2.3-0.2-1.1-1.2-2.7-0.2-1.3 0.1-4.7-0.4-1.1-0.3-0.7-1.6-5.4-0.5-1-0.7-1.1-0.9-0.8-1.8-1.3-0.7-0.8-0.4-1-0.2-0.9-0.4-0.9-0.9-0.9 1.5-0.5 1.7 0.3 1.5 0 1.1-1.5-2.4 0-1-0.1-1-0.6 0.9-0.3 0.8-0.2 0.8-0.4 0.4-0.9-0.6 0-0.5-0.2-0.4-0.2-0.4-0.2 3.5-1 1.2-1.1-0.3-2.1-1.2 0.7-0.3 0.5-0.5-0.9-0.4-0.9 0-0.9 0.4-0.9-1.5-2.6 0.5-2.4 0.9-2.1-0.4-2-0.6-0.3-0.8-0.2-0.7-0.2-0.3-0.8-0.2-0.2-1.3-1.9-1.2-0.7-2.7-1-1.1-1-0.6-1.2-0.4-1.5-0.2-3.3 0.6-1.3 1.4 0 1.7 0.3 2.4-0.5 0.4 0.5 0.3 0.7 0.5 0.8 0.3 0.7 0.1 0.2 0.3 0.3 0.6 0.3 1.4 1.4 0.7 0.1 1.9-2.1 1.3 1.7 0.8 2.2-0.2 2.3-1.5 1.7 1.5 1.2 1.6 0 1.2 0.4 0.6 2.3 0.2 2.3-0.2 1.1-0.8-0.4-0.9-0.7-0.7 0.2-0.2 0.7 0.4 1 0.8 0.4 2-0.3 0.8 0.2 0.5 1-0.3 1-0.4 0.8-0.3 0.9 0.5 2.6 1 0.2 2.9-2.2-1-0.5-0.5-0.1 0.5-0.8 0.9-0.3 1 0.2 0.8 0.6 0.9 0.4 1-0.5 1.7-1.4 1.3-0.5 1-0.1 0.9 0.4 0.9 1.1 0.8 0.1 1-0.6 0.7 0 0.2 1.4-0.4 1.2-0.7 0.3-2-0.3-0.4 0.4-1.3 2.6-1 0.6-1.8 0.8-0.9 0.7-1.1 1.6-1 1.8 0.8 0.7 0 0.6-0.3 0.7 0.2 0.7 0.8 0.8 0.8 0.5 0.6 0-0.1-1 1.1-0.9-0.5-2.8 0.9-1.2 1.5 0.8 2.9-0.6 1.7 1.4 0.2 0.9-0.1 2.3 0.3 1 1.1 1.4 0.3 0.7 0.3 1.2 0.5 4.2-0.3 2.8 0.1 0.5 0.1 0.9-0.4 0.9-0.6 1-0.3 0.9 0.3 0.6 0.8-0.5 0.8-0.9 0.4-0.7 1.3 1.6-0.2 2.2-1.1 2.4-1.1 2-0.1 0.7 0.7 0.3 0.9 0.2 0.6 0.3 0.3 1.1-0.1 2.6 0.3 1.1-0.6-0.4-0.6-0.7-0.4-0.9-0.3-1-0.5 0 0.3 2.2 0.5 2 0.1 1.5-0.9 1 2.4 1.2 0.8 0.8 0.7 1.6 0.7 3.5 0.2 3.5 0.2 0.7-2.9 1.1-0.3 3.3-1.5 2.4-1.3 0.6-0.3 1.6 1.7 1.4-0.2 1.2-2.3-0.7-2.1-1.2-0.8 1.2-0.6 1.4 1 1.1 0.7 1.7-0.5 1.4-0.2 2.1 1.2 2.4 0 2.7 1.4 3.1 1.8 2.8 2.5 6.3 0.9 7.2 0.5 1.1 1.9 2.4 0 2-0.6 2 1.1 3.8 0.8 1.5 1.1 0.2 1.2 0.2 2.3 1 0.9 2.5 1.6 1.6-0.1 3.8 1.1 5.2 3.4 2.9 4 0.1 1.7 1.4 1 1 1.7 1.6 0.9 2.5 1.2 2 0.7 1.5 0.8 1.1 10.8 4.8 1.9 1.7 0.6 3.6-1.6 7.1-1.4 2.5-1.9 2.3-1 1.8-0.9 1.4-1.2 2.6-1 1.9-1.4 2.7-7.4 12.2 0.2 7.4 0.6 1.5-3.6 7.3-3.7 4.4-4 6-1.7 2.4-3.2-3.7-1.1-0.2-2.3 3.1-0.6 3.3-0.3 0.3-0.2 0.5-1.9 2.3-2.8 1.1-0.9 1-0.4 1.2-0.8 1.2-0.6 1.4-0.3 1.4-0.8 1.1-2.8 1.4-2.9-0.3-6.4 0.1-6.2-1.9-0.2-3.5 1.6-3.4 1.5-3.8 0.9-4.2-0.6-1.8-0.9-1.5 0.4-2.1 1.2-1.8 1.2-2.5 0-2-2.3-0.1-2.3 0.3-2.5-1.4 0.6-3.3 0.6-1.2-0.1-1.4-1.4-1.6-0.4-2.3 1.3-2.5 0-2.6-2.1-1.7-1.2-2.5 2.4-3.9 1.6-3.8 0.9-3 2-2.3 0.3-2.4-0.1-1.2-0.2-2.6-1.2-2.6-3-2-3.4-1.3-3.8 0.4-3.7 4.3-2.7 3.3-1.4 0.2-1.5-0.8-2 0.9-0.2 1.5-0.7 0.4-0.4 0.4-0.3 0.6-1.1 1.1-2.9 1.6-1.7 0.2-2.8-0.6-2.9-0.1-0.8 0.5-0.6 0.5-0.7-0.4-0.8 0.2-1.5 1.2-1.6 0.8-4.4 0.8-0.6 1.2 0.3 1.7-1.7 2.9-0.2 0.8 0 0.8-2.6 0.9-2.5 1.5-1.9-1.2-1.3-1.5-0.9-0.7-1-0.3-1.4 0.4-6.2-0.4-5-2.6 0.1-0.3 1.1-0.3-0.4-1.6 0.2-1.4 0.4-1.3 0.3-1.6 0.1-15.5 0.6-3.4 2.5-5.7 0.9-3.2 0.5-3.4 0.4-5.3 0.7-3.2 0.1-1.9-0.4-1.6-0.6-1.7-0.3-1.5 0.3-1.3 1.1 0.6 1.4 0.1 1.3-0.3 1.1-0.4 0.1 1 0.4 0.8 0.4 0.7 0.5 0.5 0.4 0 0-1.3 1.1 0.9 0.9 1.1 1 0.7 1.4-0.8-0.5-0.4-1.5-1.5 1.9-0.7 2.2 0.3 2-0.1 1.3-1.9-1.4 0-0.5 0.2-0.6 0.5-0.5-0.7 0.2-1.8-1.4-1.3-2-0.6-1.4 0.4-0.5 1-0.3 0.9-0.5 0.6-1.1 0.2-0.7-0.5-0.1-1.3 0.3-1.5 0.3-1 0.6-0.9 0.6-0.3 0.7-0.1 0.9-0.4 2.3-2.5 1.1-0.9 0.1-1.7-0.8-1.5-1.7-0.2-1.1 1.5-0.6 2.1-0.9 1.2-2-1.5-0.2-1.6 0.5-8.5 1.9-4.2 3.4-1.2 4-0.1 3.8-0.6-0.3-0.8-0.4-0.5-0.6-0.4-0.7-0.1 1-0.8 0.7-1 0.3-1.2-0.5-1.3-3 1.8-0.3 0.4-0.3 1-0.3 0.4-0.3-0.1-0.4-0.3-0.5-0.1-2.2 1-1.2-1.5-4.5-17.5-4.1-9.8-0.7-4.1 0-1 0.6-1 0.8-0.5 2.1-0.5 0.8-0.6 0.8-1.6 0.6-2.1 0.9-1.7 1.7-0.7 0.2-0.3-0.4-0.7-0.7-0.3-1 0.5-0.7 0.6-1.4 0.8-0.5 0.6-2.1 3.7-1 0.5-1.5-1.4-1.1-1.6-1.3-3.2z" id="NZWKO" name="Waikato">
  </path>
  <path d="M770.4 616.2l-2.7 7-1.6 2.7-2.4 6.2-1.2 4.4-1.1 1.8-3.5 1.5-1.4 1.7-1.3 2.1-0.8 2-2.2 8.5-1.5 3.5-7.2 10.1-10.7 8.9-2.6 2.8-3.6 2.6-4.1 2.1-15.5 12.3-4.9 1.9-1.1 0.9-2.4 2.7-1.1 0.4-5.4 0.5-1.2-0.6-0.6-2.9-1.1-1 0.4-1.4-0.4-1-0.6-1-0.4-1.1-0.1-1.4 1.1-7-0.3-1-0.8-0.6-8.4-3.3-1.9-0.2-1.8 0.4-1.6 1.2-3.5 3.8-0.7 0.5-0.7 0.1-1.2-0.3-1.5-1.1-1-1-0.1-0.8 0.9-1.8-0.1-1.5-0.5-1.7-0.1-2.3 0.5-2 1.6-3.7 0.3-2.4-0.8-2.1-1.8-0.6-2.1 0.4-1.5 0.7-1.1 0.9-0.8 0.9-0.6 1.2-0.4 1.5 3.3 0.8 1 0.9-0.5 2.2-0.4 0.7-0.7 0.6-0.8 0.2-0.8-0.6-0.7-0.2-0.8 0.6-0.9 0.8-0.9 0.5-3.2-0.7-3.5-1.8-2.6-2.7-0.6-3.2 0.8-1.9 1.3-0.7 3.2-0.6 1.1-1.1 2.8-3.3 1.7-1.7 1.8-4 1.1-0.9 1.5-0.7 0.9-1 0.7-0.1 0.9 2.5 0.9-0.9 0.4-0.8 0-1-0.3-1.2-0.4-0.3-0.8-1.1-0.6-1.3 0.6-0.5 0.8-0.4 1.3-1.7 0.8-0.4 0.8-0.3 0.9-0.6 0.8-0.9 0.6-0.8 0.6-1.2 0.2-0.9 0.2-2.4 1.5-4.2 0.6-1.4 4.2-4.6 4-6.7 3.3-7.4 1.1 2.3 2.9 2.5 1.5 2.6 3 1.1 1.4-0.2 3.6-1.5 2.6-0.3 2.1 0 1.8 0.1 1.9-2.6 1.8-0.8 7.8 2.3 3.6 0.4 3.9-2.4 1.8-1.4 2.9 1.4 1.9 1.7 0.6 4 2.4 0.2 5.7-1.3 5.9-2.7 6.6-3.7 3.6-0.7 3.7-0.5 4.4 0.5 6.6 1z" id="NZWGN" name="Wellington">
  </path>
  <path d="M666 440l2.5-1.5 2.6-0.9 0-0.8 0.2-0.8 1.7-2.9-0.3-1.7 0.6-1.2 4.4-0.8 1.6-0.8 1.5-1.2 0.8-0.2 0.7 0.4 0.6-0.5 0.8-0.5 2.9 0.1 2.8 0.6 1.7-0.2 2.9-1.6 1.1-1.1 0.3-0.6 0.4-0.4 0.7-0.4 0.2-1.5 2-0.9 1.5 0.8 1.4-0.2 2.7-3.3 3.7-4.3 3.8-0.4 3.4 1.3 3 2 1.2 2.6 0.2 2.6 0.1 1.2-0.3 2.4-2 2.3-0.9 3-1.6 3.8-2.4 3.9 1.2 2.5 2.1 1.7 0 2.6-1.3 2.5 0.4 2.3 1.4 1.6 0.1 1.4-0.6 1.2-0.6 3.3 2.5 1.4 2.3-0.3 2.3 0.1 0 2-1.2 2.5-1.2 1.8-0.4 2.1 0.9 1.5 0.6 1.8-0.9 4.2-1.5 3.8-1.6 3.4 0.2 3.5 6.2 1.9 6.4-0.1 2.9 0.3 2.8-1.4 0.8-1.1 0.3-1.4 0.6-1.4 0.8-1.2 0.4-1.2 0.9-1 2.8-1.1 1.9-2.3 0.2-0.5 0.3-0.3 0.6-3.3 2.3-3.1 1.1 0.2 3.2 3.7 2.1 6 0.2 6.5 1.1 3.4-0.9 2.7-1.4 2.9 1.5 3.1 0.1 3 1.6 1.6-0.1 2.8 1.4 1.5 0.8 0.5 0.6 0 0.5 0.2 0.3 0.1 0 0.3-0.3 0.5-0.2 1-1 2.6-1.3 1.7-0.6 1-0.1 0.6 0.3 0.4 1 0.9 0.7 0 0.7 0.8-0.4 1.4 0.7 2.4 1.1 2-0.3 0.5-0.5 0.2-0.4 1.1-0.1 1.2-3.2 11.8-0.8 6.2-1.5 7-0.1 0.7 0.2 1.1 1.3 1.6 1.5 0.4 4.6-0.2 4.2 3.7 1 0.7 1.2 0.2 0.5 0.2 0.5 0.3 0.5 1.1-0.2 1.3 0.3 1.3 0.8 1.1 2.4 2.4 0.2 1.7-0.5 1.5 0 2.5 2 5 0.2 2.8-0.4 3.2-0.2 2.8 2.1 2.4 2.5 1.7 7.5 0.7 2.1 1.1 2.8 2.6-0.1 0.8-1.2 2-1.7 0.1-1.8-0.4-1.3 0.5-4.1 6.7-4.2 4.2-0.6 1.2-0.2 0.9-0.2 1.1-0.4 1-1.4 2.7-0.5 0.4-1.2 0.1-0.5 0.4-0.5 0.8-6.6-1-4.4-0.5-3.7 0.5-3.6 0.7-6.6 3.7-5.9 2.7-5.7 1.3-2.4-0.2-0.6-4-1.9-1.7-2.9-1.4-1.8 1.4-3.9 2.4-3.6-0.4-7.8-2.3-1.8 0.8-1.9 2.6-1.8-0.1-2.1 0-2.6 0.3-3.6 1.5-1.4 0.2-3-1.1-1.5-2.6-2.9-2.5-1.1-2.3 1.9-6.4 0.7-1.6 0.6-1.8 0.3-5.3 0.4-2.1 0-0.5-0.1-0.6 0.1-0.5 0.2-0.3 0.5 0 0.7-0.1 0.4-0.3-0.4-1.4-0.3-1.4 0-1.4 0.1-0.8 0.6-1.6 0.9-5.3 0.3-3.7-0.2-1-0.4-0.8-1.1-2.2-0.9-6-1.3-5-1-2.4-1.1-2.1-5.3-5.6-1.5-2.6-6.4-7.4-4.9-3.1-4-1.8-1.8-0.4-3.1 0.1 1.9-3.6 1.5-1.5 1.8-1.1 1.7-2.1 2.1-1.7 1.6-0.5 1.1-1.5-0.2-1.3 0.1-1.8 0.3-0.6 0.7-0.4 1.6-0.5 1.3-1.2-0.5-0.8-0.6-0.8 0.1-4.3 1.1-4.1-0.7-2.7-0.9-2.8-3.3-2.9-2.1-2.6-0.6-1.9-0.1-2 0.4-0.9 0.4-1-0.4-1.3-1.4-0.7-3.2-2.3 0.2-1.3-3.1-4.1-1.6-4.6-2.5-2.6-0.5-4.2 1.7-3.6 4.2-4.9 1.4-5.1-0.1-2.6-0.8-3.3 0.5-1.9-0.5-3-0.7-3.4 1.6-3.2 0.2-0.4 0.4-0.4 1.5-0.5 1.2-0.8z" id="NZMWT" name="Manawatu-Wanganui">
  </path>
  <path d="M648.3 433.7l5 2.6 6.2 0.4 1.4-0.4 1 0.3 0.9 0.7 1.3 1.5 1.9 1.2-1.2 0.8-1.5 0.5-0.4 0.4-0.2 0.4-1.6 3.2 0.7 3.4 0.5 3-0.5 1.9 0.8 3.3 0.1 2.6-1.4 5.1-4.2 4.9-1.7 3.6 0.5 4.2 2.5 2.6 1.6 4.6 3.1 4.1-0.2 1.3 3.2 2.3 1.4 0.7 0.4 1.3-0.4 1-0.4 0.9 0.1 2 0.6 1.9 2.1 2.6 3.3 2.9 0.9 2.8 0.7 2.7-1.1 4.1-0.1 4.3 0.6 0.8 0.5 0.8-1.3 1.2-1.6 0.5-0.7 0.4-0.3 0.6-0.1 1.8 0.2 1.3-1.1 1.5-1.6 0.5-2.1 1.7-1.7 2.1-1.8 1.1-1.5 1.5-1.9 3.6-2.6 0-5.7-2.1-4.3-0.5-1.8-0.4-1.7-1.1-7.5-7.2-1.4-1.7-4.1-6.5-2.9-3-3.5-2.1-3.8-1.2-12-1.9-4.1-1.4-9.6-7.2-2.6-2.8-2.1-3.6-1.3-4.3-0.5-4.1 0.4-4.2 0.9-4.4 2.1-4 3.2-2.6 7.3-3.3 18.1-11.4 1.5-0.4 9.4 0.6 3.4-1.1 3.1-2.3 8.5-8.9 1-1.9 0.6-3.3 0.7-2.1 0.1-1.2 0-2.8 0.3-0.7z" id="NZTKI" name="Taranaki">
  </path>
  <path d="M651 204.9l-1.2 0.8-6.9 6-2.1 1.5-0.7 0.8-1 0.5-0.9 0.3-0.3 0.1-0.7 0-0.7 0.4-1.7 1.6-0.8 0.5-0.5-1-1.2 0.7-1.4 1.4-1.3 0.7-1.7-0.4-1.1-0.4-0.5-0.4-0.4-1.6 0.7-0.3 2.1 0.6 1.2 1.1 0.5 0.1 0.4-2.2 1-2.8 1.7-2.1 0.4-1 0.2-0.6 0-0.8 0.4-1.3 1.1 0.6 0.9-0.2 0.2-0.7-0.8-1.4-0.7-0.5-2.7-0.8 0.4 2.7-1 3-1.7 2.4-2 1 1.1-1.5 0.3-0.3-0.8-0.3-0.7 0.2-0.6-0.1-0.3-0.7-0.2-1.4-0.4-0.3-0.6 0.2-0.7 0-0.7-0.3-0.5 0-0.2-0.3-0.1-1.2 0.1-1 0.3-0.9 0.6-1.7-1.1 0.1-0.8 0.5-1.5 1.8 0.3-2.5-1 0-3.1 2.5 0.7 0.7 0 1.9 1 0.4 1.3 0 0.9 0.1 0.6 0.5 0.8 1.2-0.5 1.2 0 0.8 0.7 0.4 0.5-0.2 0.4-0.4 0.6-0.9 0.6 0 0.8 0.8 1.2 1.9-2.5 0.7-0.4 0.2-0.2 0.8-0.4 0.5-0.6 0.1-0.7 0-0.6-0.3-0.9-1.2-0.7-0.3-0.7-0.1-0.5-0.3-1.7-2.5-0.6-1.3-0.8-1.2-1.2-1.1-1.3-0.3-3.4-0.1-0.6-0.6-0.5-0.8-1-1.1-1.3-0.9-0.9-0.5-1.1-0.6-0.5-1.6-0.1-3.4-0.4-1.4-2-2.1-0.8-2.6-0.9-1-2.2-1.6 2.6-2.4 0.7-1.4-0.4-2.2-0.4-0.6-0.7-0.7-0.8-0.6-0.5 0.1-0.1 1.1 0.5 0.9 0.7 0.6 0.4 0.4-0.5 1.9-2.6 1.5-0.3 1.4 3.6 5.1 0.5 0.9 1.4 0.9 0.6 2 0.4 2.3 0.5 1.6 0.5 0.8 0.9 1.9 0.5 1 0.7 0.5 0.9 0.4 0.8 0.5 0.6 1.7 0.6 0.6 0.8 0.6 0.5 0.5 3.9 6 0.9 0.5 1-0.2 1.1 0.1 0.6 1.1-1.5 0.6 0.7 1.1 1.5 1.5 0.7 1.9-0.5 1.8-1.4 1.2-3.3 1.4-3.4 0.1-1.7-3-2.3-8.5-9.1-12.6-2.6-5.1-15.9-21.5-15.9-21.5-0.5-1.6 0.6-1.4 2.3-3.2 0.5-1.4 0.2-2 0.5-2 0.9-1.1 1.3 0.7 0.4-0.9 0.1-0.4 0.7 0.8 0.7 1 0.7 0.8 1.1 0.4 0.1-0.6-0.1-3 0.2-1.1 1.9 3 0.4-1.5 0.1-1.7 0.3-1.6 1.2-1.2 0.7-0.1 0.4 0.5 0.4 0.2 0.9-0.6 0.3-0.6 0.4-1.8 1.2-2-2.6 0.8-0.8-0.3 0-1-0.1-0.6-0.3-0.4-0.8-0.1-0.2 0.5 0 3.1-0.8-1.2-1.2-4.1-1.2 1.3 0.3 1.6 0.9 1.6 0.5 1.4-0.4 1.5-1.1 0.8-1.4 0-1.8-1.2-0.7-0.1-0.4 0.3 0.7 1.7-0.5 0.4-0.8 0.2-0.6 0.3-0.6 0.4-0.5-0.3-0.8-1.3-0.6-0.1-0.8 0.5-1.3 1.1 0.6 1.2-0.5 0.6-0.9 0.4-0.6 0.7 0 0.5 0.1 0.5 0.2 0.2 0.2 0-0.3 6.4-0.2 0.8-0.7 0.1-0.5-0.6-6.1-8.5-0.9-2.3 0.4-1.5 2.4-2.7-0.5 0-0.9-0.1-0.5 0.1 1.4-1.6 0.6-0.9 0.4-1-2.1 0.3-1.3 1.4-0.8 2-0.7 2.2-0.7-0.6-2.2-2.6-0.4-0.9 0.5-0.7 2.5-1.9 0.9-1-1.1-0.4-2 1.2-1.3 0.3-1.2-0.3-1-0.9-1.7-2.2-2.8-3-0.5-1.2 0.2-1.7 1-0.4 1.3 0.3 1.3 0.6 2.3-3.2 1.3-4 0.3-4.4-0.9-4.4-2.3-5.3-0.9-1.5-4.3-4.3-1.3-1.9-2.2-5.6-0.9-0.9-1.2-0.6-14.4-19.1-2.9-2.5-6-3.6 0.8-0.7 0.4-0.6 0.8-1.6-0.2-0.7-0.1-1.4 0.4-0.8 1.1 0.8 1.6 0.9 4.1 0.1 1.8 1.1 0.9-0.9 2.2-0.5 2.2-1.5 8 0.7 1.2-0.2 0.8-0.7 0.7-0.8 0.8-0.2 1.1 1.2-2 1.3-0.5 1.7 0.1 4.6-0.2 1.1-0.3 0.7-0.6 0.4-1.1 0.1-0.4-0.5-0.2-1-0.5-1-1-0.4 0.1-0.4 0.2-1 0.1-0.4-1.4-0.5-0.5 0.1-0.5 2.2-0.3 1.9-0.5 0.5-1.1-0.7-0.1 0.9-0.3 0.6-0.4 0.5-0.7 0.4 0.7 0.8 2.2 1.6 0.2-0.9 0.4-0.8 0.5-0.6 0.8-0.1-0.3 1.3-0.3 0.6-0.3 0.5 0.7 0.5 0.7 0.1 0.6-0.4 0.4-0.9 0.4 1.1 0.1 1.1 0 4.9 0.3 0.6 0.7-0.6 0.8-2 0.1-2.5-0.4-2.5-1.1-1.8 1.9 0.9 1 4.2 0.7 5 0.8 3.4 2.3 2.6 2.9 2.6 2.4 2.9 0.7 3.6-3.5-4.1-1.5-1.1 0.3 3 3 3 9.4 5.6-0.2 1-1.5 1.8-0.5 0.8-0.2 0.8 0 3.6 0.2 0.5 0.4-0.1 0.8 0 2.3 0.7 0.6 0 0.5-0.8 0.3-1 0.3-0.9 1.1-0.4 0.8-1-0.1-2.5-1-4.1 0.4-1.9 1.3-0.6 1.8-0.3 1.6-1 0.5-1.2-0.1-1-0.4-0.8 0-0.6 0.8-0.7 0.6 0 0.4 0.6 0.4 1 0.1 0.8-0.2 0.8-0.4 1.4 2.1-1.1 0.8-0.2-0.3 0.9 0.2 0.7 1.1 1.4-2.9 1.2-3 0-0.7 0.3-0.4 1.4 0.3 1.6 0.7 1.5 0.7 1.1 0.9 1.3 1.2 1.2 1.4 0.8 1.5 0.3 3.5-0.4 1.3 0.4 1.3 1.8 0.8-1.4 0.2-0.4-0.8-1-0.9-0.9-0.7-1-0.1-1.3 0.7-1.5 1-0.1 0.9 0.9 0.8 1.3 0.9-0.8 0.9-0.2 0.8 0.5 0.8 1.9 1 0.4 2.1 0 0.3-0.2 0.1-0.4 0.3-0.4 0.5-0.2 0.7 0.2 0.2 0.5-0.1 0.6 0.2 0.4 0.4 0.6 0.2 0.6 0.3 0.5 0.6 0.1 0.5 0.1 0.5 0.1 0.9 0.4-0.9 0.5-0.4 0.8-0.3 0.9-0.4 0.8-1.5 1.2-0.7 0.7 0.1 0.8 2.4 2 1.5-0.1 0.3-0.3-0.1-0.6 0-0.8 1.5-2.9 0-0.5-0.2-1.3 0.2-0.5 0.5-0.5 1.1-0.2 1.3-0.6 1.1-0.1 2 0.1-0.2 0.5 0.6 1 1.2 1.5 2.9 2.2 1.1 1.3 0.4 2.1 1 1.6 2.2 0.4 4.1-0.5 1.7 0.5 1.8 1.2 1.3 1.7 0.6 2.2-3 0.9-0.8-0.3-0.2-0.8-0.1-0.9-0.3-0.9-0.3 0.1-0.6 0.5-0.7-0.1-0.9-1.1-1.7 0.9-0.7 0.6 0.7 0.5 1.3 2.1-2.4 0.3-0.2 1.2 1.1 0.9 1.5-0.6 0.7 0.5 0.7 0.2 0.8-0.2 0.7-0.5 0.9 1.3-0.2 1.2-0.5 1.1-0.2 1.1 0.5 1.1 2.6 2.7 0.4 0.8 0.2 1 0.2 2.4 0.2 0.2 0.5-0.9 0.5-1.4 0.2-1.2 1.4 0.8 0.7 0.3 0.8 0.1-0.1-0.4-0.2-0.9-0.2-0.4 1.1-0.1 0.6 0.4 0.4 0.6 0.6 0.2 0.6-0.3 0.2-0.9-0.3-0.8-0.5-0.4-1.6-0.1-2-0.6-1.8-0.9-0.6-1.3 0.4 0.6 1-1 1.7-0.1 3.6 0.5-0.3-0.9-0.2-0.3 0.7-0.1 1 0.2 0.7 0.2 0 0.3 0.8-0.5 0.1-0.3 0-0.4 0.3-0.8 2-2.1 2.1-1.8 0.6 2.1-0.6 1.8-1 1.7-0.4 2.1 0.5 2 1.2 0.9 1.6 0.2 1.6-0.1 0 0.5-0.7 1.2 2.1 2.7-1 0.9-0.4-0.3-2-2.1-2.2-1.7-0.7-0.7 1.2 1.9 2.5 5.8 1.6 1.3 1.5 0.1 1.4 0.4 0-0.1 0-0.3 0.2-0.2 0.3 0.1 0.3 0.3 0.2 0.7 0.2 0.2 0.6 0.6 1.7 3 0.4 1.1-2.8 0.4 0.3 1 3.7 3.1 3.4 3.6 0.6 2-0.9 3-1.1-0.6-3.1-0.6-1.3 0-0.7 0.4 1.1 1 2.7 1.5-0.4 0.1-1 0.6 1.8 0.4 0.8 0.3 0.3 0.8-0.3 0.9-0.6 0.6-0.8 0.4-0.8 0.2 4.2 2.5 0.7 1 0.1 1-0.5 2.1 0.2 0.8 1.6 3.3-1.9 0.5-1.4-0.9-1.4-1.5-1.6-1.1 0.5-1.6-2-0.6 0.1-1.4-1.1 0.1-1.8 0.8-1 0.3-0.5-0.2-0.7-0.8-0.5-0.2-0.4 0.3-0.4 1.2-0.3 0.3-1.2 0-0.1-0.1 0.2-0.7 0-1.6-0.2-1.3-0.3-1-0.6-1-0.8-0.9-0.3 1.9 0.3 4.7-0.2 1.5-0.4 0.9-0.1 1.1 0.2 1.1 0.5 0.7 1.1 0.2 0.6-0.8 0.5-1.1 0.5-0.9 1.3-0.3 4.7 0.6 1.5 0.6 1.1 1.5-0.3 1.7-1.2 1.7-1.5 1.6 1.1 1.3 0.3 2.1-0.1 2.2 0.1 1.6 0.9 1.1 3.1 2.4 1.3 0.7 0.9 0.1 1.8 0 0.8 0.5 0.6 1.1 0 0.8-0.4 0.8-0.2 0.9 0.3 2.1 0.8 1 1 0.9 0.3 0.3z" id="NZNTL" name="Northland">
  </path>
  <path d="M764.7 451.8l-0.6-1.5-0.2-7.4 7.4-12.2 1.4-2.7 1-1.9 1.2-2.6 0.9-1.4 1-1.8 1.9-2.3 1.4-2.5 1.6-7.1-0.6-3.6-1.9-1.7-10.8-4.8-0.8-1.1-0.7-1.5-1.2-2-0.9-2.5-1.7-1.6-1-1-1.7-1.4-4-0.1-3.4-2.9-1.1-5.2 0.1-3.8-1.6-1.6-0.9-2.5-2.3-1-1.2-0.2-1.1-0.2-0.8-1.5-1.1-3.8 0.6-2 0-2-1.9-2.4-0.5-1.1-0.9-7.2-2.5-6.3-1.8-2.8-1.4-3.1 0-2.7-1.2-2.4 0.2-2.1 0.5-1.4-0.7-1.7-1-1.1 0.6-1.4 0.8-1.2 2.1 1.2 2.3 0.7 0.2-1.2-1.7-1.4 0.3-1.6 1.3-0.6 1.5-2.4 0.3-3.3 2.9-1.1 0.1 0.7 1.3 2.8 0.3 1.3 0.2 0.6 1 0.8 0.3 0.8 0 1.1-0.4-0.1-0.5-0.6-0.6 0.2-0.6 1.4 0.7 0.5 2.9 0.5 1.1 0.5 1.3 0.8 1.2 1 0.9 1 0.8 1.2 1.1 2.6 0.6 1.1 2 1.9 0.8 1.1 0.3 1.6-2.5-2-0.9-0.5-1-0.1-1.1 0.2-1.1-0.2-1.1-1.1 0.7-0.4 2.2-0.8-2.5-1.7-1.1-1.1-1-1.2-1.4-0.9-1.8 0-3.3 0.6 0.4 0.5 0.6 1 0.4 0.4-0.3 0.5-0.2 0.6-0.1 0.7 0.1 0.6 0.5 0.7 0.4 0.1 0.4-0.2 0.2 0 0.4 0.3 0.7 0.1 0.3 0.2 0.1 0.5-0.2 0.5-0.2 0.5-0.2 0.3 0.4 2 0.1 0.5 0.3 0.4 0.4 0.2 1.3 0 0.5-0.2 0.4-0.4 0.3-0.5 0.2-0.1 1.3 0.6 0.5 1.1 0.4 1.3 0.7 1.3 1.1-0.8 0.7 0.5 0.6 1 0.8 0.5 1-0.5 0.3-0.9 0.5-0.7 1.3 0.2 1 0.6 0.4 0.8 0.1 1.1 0 1.5 0.3 0.8 0.9 0 1.1-0.3 1.1-0.2-1-4.3-1.6-2.6-0.4-1.3 1-0.3 1.4 1.2 2.5 4.5 1.7 1 1.9 0.5 4.3 2.1 2 0.5 0.8 0.3 1.7 1.7 0.9 0.4 2.1 0 0.3 0.3 0.4 0.6 0.4 0.3 0.9-0.6 14.1 10.3 2.8 1.4 4.5 0.7 4.2 1.7 4.9 0.7 3.8 2.5 6.6 0.9 2.6 1.4-4.1 0-0.8 0.3 0.4 0.6 3.3 2.3 0.9 0.4 1 0.2 0.9-0.5 0.2-1.1-0.3-1.2-0.5-1 1.2-0.3 0.7 0.5 0.6 0.6 0.9 0.5 4.6 0 0.2 0.2 0.7 1.3 0.5 0.3 0.3-0.2 0.3-0.3 0.4-0.1 0.3-0.3-0.1-0.6 0-0.7 0.5-0.2 0.8-0.1 2.1-0.6 6.3-0.4 1.7-1.1 1.3-1.1 5.5-3.4 2.1-1.9 0.8-1 0.2-0.8 0-2.2 1.2-2.2 0.2-0.9 0.5-0.5 2.9-1.7 1.1-1.5 0.8-3.3 0.8-1.6 1.1-1.2 0.4-0.8 0.2-1 0.5-0.7 7-2 1.5-0.1 1.2-0.4 1-1 1.6-2.6 1.1-0.6 3.2-0.3 1.3-0.6 0.9-1 0.3-0.9-0.4-0.9-0.8-1.4 2.8 0.5 3.2 0.2 0 1.5-1.4 2.2-4.1 1.3-1.5 0.8-0.2 1 0.4 0.8 0.7 2.6-0.1 2.9-0.6 1.8-0.2 2 1.6 1.4 1.8-1.6 1.6 0.1 0.7 1.9-1.9 3.4-2.7 2.6-3.7 7-4 14.1-2.9 3.9-3-1.9-2.8-2.3-2.6-2.8-2.5-0.7-0.8 0.7 0.8 2.1 0 3.5-0.3 2-1.5 1.7-0.3 1.1-0.5 1-0.9 0.7-1.1 0.5-1.6 1.6-1.7 1.4-1.9 0.9-2 0.2-1.7 0.8-0.7 1.4 0.5 1.6-0.3 3.2-1.4 2.9-2.7 2.5-8.6 3.5-4.7 3.4 0.1 2.9 0.7 3.2-5.2 5.7-0.6 0.8-0.5 1-3.4 1.2-1 1.7-1.3 0.7-0.6-0.3-0.8 0.3-1.4 1-1.2 1.4-0.5 1.4-0.6 1.2-0.9 1.3-1.2 1.3-1.8-0.1-1.9-0.4-4.1-2.4-6 1.6-1.8 1-2.1 1.5-1.4 2.1 0.1 4.6-0.5 0.8-0.4 1 0.3 2.9-0.3 0.5-0.5 0.3-1.3-0.3-3.9-1.7-2.9-1.2-2.2-1-1.3 0-0.5 1.1-0.4 1.3-1.7 4.5-1.9 3.5-0.9 4.3 0.1 1.9-0.6 0.5-0.9 0.3-1.5-0.2-1.1-0.7-3.6-2.5-2.7-4.9-2.9 0z" id="NZBOP" name="Bay of Plenty">
  </path>
  <path d="M828.7 421.3l0.6-0.8 5.2-5.7-0.7-3.2-0.1-2.9 4.7-3.4 8.6-3.5 2.7-2.5 1.4-2.9 0.3-3.2-0.5-1.6 0.7-1.4 1.7-0.8 2-0.2 1.9-0.9 1.7-1.4 1.6-1.6 1.1-0.5 0.9-0.7 0.5-1 0.3-1.1 1.5-1.7 0.3-2 0-3.5-0.8-2.1 0.8-0.7 2.5 0.7 2.6 2.8 2.8 2.3 3 1.9 2.9-3.9 4-14.1 3.7-7 2.7-2.6 1.9-3.4-0.7-1.9-1.6-0.1-1.8 1.6-1.6-1.4 0.2-2 0.6-1.8 0.1-2.9-0.7-2.6-0.4-0.8 0.2-1 1.5-0.8 4.1-1.3 1.4-2.2 0-1.5 14.1 0.7 1.7 0.5 0.9 0.8-1 0.9 0 0.6 0.9 0.4 1.3 1.4 0.7 0.7 1.2 0.4 1.2 0.2 2.5 0 0.9 0.2 1.3 1.3 1 0.3 2.1-0.1 0.9 0.2 1 0.5 1.2 0.9 1.5 1.6 1.1 1.8-0.1 1.5-0.6 0.8-1.4 2.3-2.6 2.8-1.4 4.1-1 2.2-2.6 1.8-1 2-2 5.6-0.7 1.4-1.2 1.5-0.5 0.9-0.3 1 0.6 2.1 1 1.9 0.7 1.9-0.3 2.4-1.2 1.2-1.4 1-0.7 1.4 1.8 3.8-0.3 1.8-0.8 1.8-1.1 1.6-0.4 1.8 1 1.8 1.4 1.6 0.7 1.2-0.2 1-0.6 0.9-1.2 1.2-0.3 1.1-0.2 2-0.4 1.2 0.8 0.3 0.8 0.7 0.4 0.9-0.1 1.3-0.5 0.7-2.6 1.4-0.3 0.8 0 5.9-0.4 0.7-7.9 8.9-7.2 6.4-1.3 0.7-2.7-2.6-1.8-0.4-1.8 0.4-1.5 1.1-0.6 0.3-0.5-0.2-0.2 0.1-0.1 1.1 0 0.4 0.2 1 0.2 0.4 1.3 1.4 0.6 1-0.2 1.1-1.2 2.2-0.4 2-0.1 4.8-0.8 5.3-0.9 2.7-3.4-1.7-2.1-2.4-9.8-3.6-10-8.1-2.6-4.5-4.1-6.3-2.9-2-17.3-6.8z" id="NZGIS" name="Gisborne District">
  </path>
  <path d="M751.7 471.9l1.7-2.4 4-6 3.7-4.4 3.6-7.3 2.9 0 2.7 4.9 3.6 2.5 1.1 0.7 1.5 0.2 0.9-0.3 0.6-0.5-0.1-1.9 0.9-4.3 1.9-3.5 1.7-4.5 0.4-1.3 0.5-1.1 1.3 0 2.2 1 2.9 1.2 3.9 1.7 1.3 0.3 0.5-0.3 0.3-0.5-0.3-2.9 0.4-1 0.5-0.8-0.1-4.6 1.4-2.1 2.1-1.5 1.8-1 6-1.6 4.1 2.4 1.9 0.4 1.8 0.1 1.2-1.3 0.9-1.3 0.6-1.2 0.5-1.4 1.2-1.4 1.4-1 0.8-0.3 0.6 0.3 1.3-0.7 1-1.7 3.4-1.2 0.5-1 17.3 6.8 2.9 2 4.1 6.3 2.6 4.5 10 8.1 9.8 3.6 2.1 2.4 3.4 1.7-0.2 3.5-0.5 1.6 0.6 1.8-0.6 1.3-0.9 1.3-0.5 1.8 4.9 0.6 2.3 1.2 1 2.3-3.9 3.9-1.7 4.6-0.6 2.9-0.8 1.1-1.2 0.9-1 1.2-2-5.6-0.5-2.9 0.1-2.7 0.3-1.5 0.6-1.5 0.6-1.3 0.6-1 0.1-1.1-1-0.7-1.3 0.1-0.9 1.4-0.8-0.4-2.1-1.5-1.1-0.4-11.2-0.5-11.4-0.3-0.9-0.4-0.6-0.6-0.7-0.2-1.8 1.7-13.1 6.4-9.6 4.7-0.9 1.1-0.3 2-0.7 2-1 1.8-1.7 2.3-2.6 2.8-1.6 1.3-0.2 0.3-0.8 2.5-0.9 1.2-0.5 1-0.2 1.2-0.1 1.6 0.2 1.5 0.7 0.8 0.8 0.7 0.8 1 0.5 1.9 0.4 8.5 0.2 1.8 0.5 1.5 0.4 0 0.5 0.5 1.1 0.6 1.9 1.5 0.5 0.4 0.9 0.6 1.2 0.1 2.4-0.3 2.3 0.5-0.3 1.3-1.2 1.8-0.8 2.3-0.3 0.7-0.8 0.7-0.8 0.5-1.7 0.7-0.5 1-1.6 6.1 0 0.4 0.1 0.4 0 0.5-0.1 0.7-0.3 0.2-1.1 0.4-0.4 0.3-0.9 1.8-2.4 8.1-1.5 3.7-0.9 1.6-0.3 0.8-0.1 1.2 0.1 2.4 0 0.6-0.2 0.4-0.9 1.4-0.2 0.4-1.1 3.2-1.7 3.4-2.9 4.2-3 2.9-0.6 0.2-0.7-0.3-0.6-0.7-0.6-0.4-0.8 0.5-1.8 2.6-0.6 1.5-0.3 1.9 0.5-0.8 0.6-0.7 0.6-0.4 0.7-0.1-4.5 9.3-0.7 5.9-2.8-2.6-2.1-1.1-7.5-0.7-2.5-1.7-2.1-2.4 0.2-2.8 0.4-3.2-0.2-2.8-2-5 0-2.5 0.5-1.5-0.2-1.7-2.4-2.4-0.8-1.1-0.3-1.3 0.2-1.3-0.5-1.1-0.5-0.3-0.5-0.2-1.2-0.2-1-0.7-4.2-3.7-4.6 0.2-1.5-0.4-1.3-1.6-0.2-1.1 0.1-0.7 1.5-7 0.8-6.2 3.2-11.8 0.1-1.2 0.4-1.1 0.5-0.2 0.3-0.5-1.1-2-0.7-2.4 0.4-1.4-0.7-0.8-0.7 0-1-0.9-0.3-0.4 0.1-0.6 0.6-1 1.3-1.7 1-2.6 0.2-1 0.3-0.5 0-0.3-0.3-0.1-0.5-0.2-0.6 0-0.8-0.5-1.4-1.5 0.1-2.8-1.6-1.6-0.1-3-1.5-3.1 1.4-2.9 0.9-2.7-1.1-3.4-0.2-6.5-2.1-6z" id="NZHKB" name="Hawke's Bay">
  </path>
 </g>
 <g id="points">
  <circle class="-46.63360354847618|167.07146649770925" cx="115.7" cy="1196.3" id="0">
  </circle>
  <circle class="-41.48161784555697|173.1213118658109" cx="542.7" cy="689.8" id="1">
  </circle>
  <circle class="-35.04163571690796|177.9611881602922" cx="884.3" cy="110.2" id="2">
  </circle>
 </g>
 <g id="label_points">
  <circle class="Southland" cx="169.4" cy="1093.5" id="NZSTL">
  </circle>
  <circle class="Marlborough District" cx="576.6" cy="701.5" id="NZMBH">
  </circle>
  <circle class="Nelson City" cx="559.8" cy="669.7" id="NZNSN">
  </circle>
  <circle class="Tasman District" cx="506.5" cy="710.7" id="NZTAS">
  </circle>
  <circle class="West Coast" cx="443.5" cy="768.5" id="NZWTC">
  </circle>
  <circle class="Otago" cx="310.6" cy="1087.4" id="NZOTA">
  </circle>
  <circle class="Canterbury" cx="432.2" cy="887.3" id="NZCAN">
  </circle>
  <circle class="Auckland" cx="646.9" cy="249.6" id="NZAUK">
  </circle>
  <circle class="Waikato" cx="706.9" cy="369.2" id="NZWKO">
  </circle>
  <circle class="Wellington" cx="708.3" cy="656.4" id="NZWGN">
  </circle>
  <circle class="Manawatu-Wanganui" cx="716.3" cy="534.3" id="NZMWT">
  </circle>
  <circle class="Taranaki" cx="634.9" cy="488.8" id="NZTKI">
  </circle>
  <circle class="Northland" cx="595.6" cy="153.5" id="NZNTL">
  </circle>
  <circle class="Bay of Plenty" cx="808.8" cy="397.1" id="NZBOP">
  </circle>
  <circle class="Gisborne District" cx="887.6" cy="404" id="NZGIS">
  </circle>
  <circle class="Hawke's Bay" cx="784.5" cy="492.1" id="NZHKB">
  </circle>
 </g>
</svg>